<?xml version="1.0" standalone="no"?>
<!DOCTYPE svg PUBLIC "-//W3C//DTD SVG 20010904//EN"
 "http://www.w3.org/TR/2001/REC-SVG-20010904/DTD/svg10.dtd">
<svg version="1.0" xmlns="http://www.w3.org/2000/svg"
 width="5209.000000pt" height="5210.000000pt" viewBox="0 0 5209.000000 5210.000000"
 preserveAspectRatio="xMidYMid meet">

<g transform="translate(0.000000,5210.000000) scale(0.100000,-0.100000)"
fill="#000000" stroke="none">
<path d="M30158 45110 c-220 -26 -409 -159 -502 -352 -25 -51 -51 -122 -58
-158 -11 -53 -13 -757 -13 -3815 0 -3548 1 -3753 18 -3815 49 -183 176 -340
337 -419 157 -76 -81 -71 2919 -71 2150 0 2692 -3 2688 -12 -3 -7 -26 -61 -52
-120 -60 -140 -95 -278 -95 -378 0 -192 101 -784 260 -1519 27 -129 50 -237
50 -242 0 -4 -28 -16 -61 -28 -161 -54 -278 -185 -315 -348 -22 -100 -17 -141
50 -379 149 -533 247 -1057 274 -1474 11 -183 8 -743 -6 -860 -54 -452 -146
-793 -303 -1119 -76 -159 -144 -277 -223 -388 l-51 -73 -2944 0 -2943 0 -127
40 c-493 158 -890 231 -1821 335 -25 3 -61 7 -80 10 -19 2 -62 7 -95 10 -33 3
-96 10 -140 15 -220 26 -1216 120 -1267 120 -17 0 -84 123 -127 232 -82 209
-152 560 -181 918 -6 74 -13 155 -15 180 -3 25 -8 153 -12 285 l-6 240 174 1
c162 0 180 2 255 27 322 107 489 431 498 968 2 121 8 194 16 208 6 13 37 62
67 109 117 181 126 228 62 313 -154 204 -233 389 -289 675 -17 88 -33 167 -36
177 -7 22 40 44 409 188 415 162 550 238 659 373 227 283 110 763 -283 1156
-284 284 -572 403 -934 386 -408 -19 -418 -19 -505 -3 -185 35 -348 160 -428
328 -73 153 -91 274 -93 639 -3 391 -20 549 -80 735 -59 183 -132 300 -283
450 -126 126 -238 204 -426 299 -310 157 -813 307 -1110 331 -265 22 -320 35
-451 112 -159 94 -280 232 -376 430 -30 64 -88 217 -134 355 -97 298 -149 406
-233 492 -148 150 -335 173 -544 68 -44 -23 -152 -85 -239 -140 -87 -54 -187
-115 -223 -135 -380 -208 -805 -203 -1141 15 -30 20 -124 89 -210 154 -181
138 -259 182 -384 220 -78 24 -107 27 -220 27 -107 0 -149 -4 -236 -26 -233
-57 -446 -176 -660 -368 -267 -241 -481 -612 -533 -924 -15 -91 -16 -340 -1
-377 7 -17 -89 -18 -1935 -18 -1319 0 -1948 -3 -1961 -10 -26 -14 -26 -66 0
-80 13 -7 644 -10 1969 -10 l1949 0 22 -107 c25 -126 40 -287 35 -358 -15
-188 -86 -396 -187 -544 -49 -73 -152 -175 -295 -294 -74 -60 -159 -140 -189
-176 -68 -83 -126 -200 -160 -327 -24 -90 -27 -116 -27 -279 0 -150 4 -198 23
-285 114 -533 467 -1054 911 -1347 243 -160 437 -231 890 -324 268 -55 353
-80 437 -131 126 -76 185 -219 153 -372 -15 -73 -73 -187 -148 -291 -32 -44
-99 -137 -149 -206 -211 -291 -285 -486 -270 -707 51 -735 1201 -1474 2250
-1446 277 8 546 78 819 215 43 22 80 39 83 39 3 0 5 -233 5 -518 0 -568 -1
-574 -61 -694 -60 -118 -186 -226 -318 -271 l-66 -22 -1859 -3 c-1339 -2
-1863 -5 -1873 -13 -17 -15 -17 -53 1 -68 10 -8 502 -11 1892 -9 l1879 3 73
27 c157 57 290 176 363 322 67 137 69 154 69 762 l0 541 102 48 c139 64 282
110 407 131 135 22 380 15 523 -16 202 -42 414 -130 583 -240 178 -117 395
-273 395 -285 0 -7 -54 -228 -119 -491 -66 -263 -156 -629 -201 -811 l-82
-333 -371 0 c-205 0 -417 -2 -472 -5 -55 -2 -191 -7 -302 -10 -112 -4 -215 -8
-230 -10 -26 -3 -80 -6 -413 -21 -514 -23 -964 -187 -1394 -511 l-125 -93
-1696 0 c-1612 0 -1697 1 -1690 18 26 60 50 201 91 527 51 401 57 524 29 638
-43 183 -102 284 -279 482 l-126 140 0 820 0 820 -25 60 c-14 33 -25 78 -25
100 -1 187 -154 365 -348 406 -101 21 -248 -8 -317 -63 -15 -11 -30 -17 -35
-12 -4 5 -890 919 -1968 2032 l-1961 2023 29 46 c47 74 64 138 64 233 -4 392
-485 571 -748 280 -125 -139 -141 -358 -36 -518 20 -31 48 -67 61 -79 45 -41
141 -92 195 -104 l54 -12 0 -1912 0 -1912 -39 -6 c-105 -14 -244 -118 -294
-221 -144 -293 59 -624 385 -626 191 -1 385 158 414 339 l7 41 1840 -2 1840
-3 13 -52 c8 -29 23 -72 35 -94 28 -55 103 -134 156 -166 24 -14 43 -29 44
-34 1 -11 1 37 0 -519 l-1 -459 -27 26 c-53 50 -128 76 -232 81 -123 6 -199
-10 -254 -52 -47 -36 -86 -88 -94 -127 l-5 -27 -50 26 c-95 49 -229 39 -311
-23 -44 -33 -97 -119 -97 -155 0 -15 -7 -13 -50 8 -71 35 -132 39 -202 12 -70
-26 -139 -98 -157 -162 -9 -32 -11 -233 -9 -788 3 -741 4 -745 26 -824 13 -44
34 -105 48 -137 13 -32 24 -61 24 -64 0 -8 -5141 -3 -5370 5 -107 4 -235 3
-285 -2 -339 -32 -643 -218 -836 -511 -65 -99 -106 -191 -147 -329 l-27 -93
-3 -9283 -2 -9283 21 -102 c86 -426 405 -763 826 -874 87 -23 126 -26 343 -33
135 -4 580 -8 990 -9 409 -1 746 -4 749 -6 2 -3 -329 -5 -736 -5 -708 0 -743
-1 -819 -20 -360 -92 -605 -406 -605 -775 0 -383 267 -707 645 -780 60 -12
634 -14 3582 -15 l3511 0 79 -23 79 -22 9705 -3 c5338 -1 9712 -2 9721 -2 13
0 18 -15 24 -75 5 -57 11 -75 23 -79 73 -21 493 -96 763 -136 163 -23 562 -66
709 -75 58 -4 123 -9 145 -12 99 -12 960 -15 1166 -4 121 7 229 14 241 16 13
2 61 6 108 9 283 21 728 82 1070 146 315 60 285 46 296 132 l9 73 960 6 c688
4 974 9 1010 17 278 66 484 229 600 475 54 113 76 214 77 347 3 419 -289 766
-706 839 -38 7 -311 11 -748 11 l-688 0 0 28 c1 45 36 287 43 299 4 6 21 14
37 18 20 4 32 14 35 28 24 116 278 1997 330 2457 3 25 8 61 10 80 61 472 225
1895 225 1951 0 28 -3 31 -25 27 -14 -3 -25 -4 -25 -2 0 4 207 1602 215 1664
8 59 65 494 65 497 0 2 -22 3 -50 3 -27 0 -50 -4 -50 -10 0 -11 -14 -118 -114
-890 -41 -316 -80 -615 -86 -665 -6 -49 -13 -101 -15 -115 -2 -14 -15 -115
-30 -225 -38 -303 -30 -272 -78 -279 -37 -5 -129 -15 -297 -31 -30 -3 -75 -8
-100 -10 -111 -12 -138 -15 -190 -19 -30 -3 -147 -12 -260 -21 -113 -8 -227
-17 -255 -20 -27 -2 -129 -9 -225 -15 -96 -5 -211 -12 -255 -15 -44 -3 -179
-10 -300 -15 -121 -6 -265 -12 -320 -15 -191 -10 -1231 -24 -1415 -20 -102 2
-333 7 -515 10 -181 4 -341 8 -355 10 -14 1 -110 5 -215 9 -104 4 -208 9 -230
11 -22 2 -89 7 -150 10 -133 7 -240 14 -320 20 -213 17 -548 46 -590 50 -158
17 -505 56 -536 61 l-37 5 -11 77 c-20 148 -41 309 -81 617 -47 368 -149 1157
-155 1200 -9 64 -35 270 -35 277 0 4 -23 8 -50 8 l-50 0 5 -38 c3 -20 48 -368
101 -772 52 -404 113 -872 134 -1039 22 -167 40 -307 40 -312 0 -5 -14 -6 -31
-2 -30 6 -30 5 -25 -28 13 -79 49 -354 131 -999 14 -107 34 -262 46 -345 11
-82 22 -166 24 -185 6 -46 159 -1220 191 -1465 13 -104 27 -216 31 -247 l6
-58 -2267 0 -2267 0 7 73 c4 39 8 433 8 874 l1 801 55 27 c345 168 612 355
832 583 194 201 326 392 449 647 207 429 286 920 225 1395 -3 25 -33 295 -66
600 -108 987 -200 1833 -210 1925 -6 50 -13 110 -16 135 -8 71 -113 1040 -119
1090 -16 153 -80 736 -105 960 -16 146 -48 434 -70 640 -51 474 -102 939 -141
1285 -16 149 -41 374 -54 500 -14 127 -27 248 -30 270 -3 22 -16 146 -30 275
-14 129 -27 251 -30 270 -22 179 -97 901 -93 905 2 2 91 5 198 5 1368 8 2920
286 4073 729 l127 49 0 -1402 0 -1401 -800 -800 c-667 -667 -800 -804 -800
-827 0 -27 23 -48 52 -48 7 0 358 345 780 767 l768 768 0 -1953 0 -1952 50 0
50 0 0 2003 0 2002 475 475 c318 318 475 482 475 495 0 28 -19 45 -49 45 -21
0 -116 -90 -463 -437 l-438 -438 0 1370 0 1371 173 74 c427 182 805 402 1110
644 l107 86 0 -3845 0 -3845 50 0 50 0 0 3889 0 3888 83 79 c352 334 675 771
897 1214 372 742 590 1669 637 2710 19 434 1 1092 -42 1510 -85 822 -198 1474
-390 2239 -78 312 -142 528 -171 587 -56 111 -153 194 -282 242 -54 20 -90 25
-191 28 -69 3 -126 6 -128 8 -11 10 -213 690 -213 715 0 41 33 77 93 99 28 11
576 205 1216 432 641 226 1173 416 1183 421 23 12 48 61 48 94 0 41 -16 63
-108 157 -83 85 -85 87 -61 96 175 67 596 237 604 243 5 5 308 9 675 9 747 0
745 0 890 71 160 78 289 239 337 419 17 61 18 272 18 3825 0 3118 -2 3769 -13
3815 -8 30 -34 97 -58 148 -79 165 -224 282 -419 339 -57 17 -351 18 -5745 19
-3127 1 -5715 -2 -5752 -6z m11512 -118 c167 -61 285 -175 350 -342 l25 -65 3
-3745 c2 -2759 0 -3763 -9 -3813 -30 -182 -173 -351 -354 -420 -60 -22 -63
-22 -722 -25 l-661 -3 -7 43 c-14 84 -165 194 -332 240 -67 19 -105 22 -273
22 l-195 1 -80 47 c-93 56 -212 104 -305 124 -93 21 -272 28 -355 16 -38 -6
-261 -58 -495 -116 -1422 -350 -1532 -376 -1591 -376 -53 0 -61 3 -70 24 -8
17 -8 38 0 72 5 27 40 180 76 339 61 268 66 297 63 385 -4 110 -30 179 -94
249 -51 57 -87 74 -141 68 -55 -6 -70 -20 -227 -207 -230 -275 -437 -556 -583
-793 l-85 -137 -2752 2 -2751 3 -60 22 c-77 30 -157 83 -218 147 -55 57 -119
182 -136 264 -8 38 -11 1127 -11 3775 0 4085 -4 3790 60 3921 75 152 230 268
393 295 29 5 2590 8 5762 7 l5710 -1 65 -23z m-20395 -5850 c202 -67 356 -219
423 -416 l27 -81 3 -3184 c2 -2358 -1 -3187 -9 -3197 -17 -21 -66 -17 -79 5
-7 14 -10 1020 -10 3178 0 3487 5 3209 -63 3337 -41 79 -146 183 -222 223
-129 67 8 63 -2016 63 -1251 1 -1828 4 -1816 11 20 12 23 59 5 77 -10 10 386
12 1837 10 l1850 -3 70 -23z m15308 -1568 c37 -52 54 -97 63 -162 6 -52 -10
-140 -103 -544 l-56 -247 17 -46 c11 -27 32 -56 54 -73 65 -50 70 -49 1142
216 536 132 1003 246 1038 252 81 16 295 8 382 -15 80 -21 215 -83 295 -135
l61 -40 174 6 c209 7 283 -5 405 -65 123 -62 165 -110 133 -154 -7 -9 -167
-77 -356 -152 -188 -74 -352 -139 -362 -145 -20 -11 -26 -46 -12 -65 4 -6 40
-36 80 -69 72 -58 152 -145 152 -164 0 -5 -12 -14 -27 -20 -16 -5 -552 -195
-1193 -422 -641 -226 -1181 -418 -1200 -426 -69 -29 -120 -102 -120 -174 0
-19 47 -188 105 -375 57 -186 103 -341 101 -342 -2 -2 -349 -3 -772 -3 -726 0
-769 1 -776 17 -20 51 -201 950 -248 1235 -64 390 -74 530 -46 651 71 303 439
879 909 1424 89 102 110 107 160 37z m-23168 -1971 c990 -1021 1875 -1933
1967 -2028 l167 -171 -31 -48 c-17 -26 -39 -75 -48 -109 l-17 -62 -1840 -3
-1840 -2 -7 40 c-9 57 -52 142 -98 194 -48 55 -137 111 -203 128 -28 6 -54 15
-60 19 -7 5 -9 651 -7 1912 l2 1904 63 17 c34 9 80 28 102 42 22 13 42 24 45
24 3 0 816 -835 1805 -1857z m12462 -768 c6 -27 45 -220 87 -428 77 -379 115
-515 178 -641 44 -88 95 -173 145 -239 24 -31 43 -64 43 -73 0 -21 -33 -84
-96 -181 -85 -131 -81 -116 -87 -348 -3 -115 -8 -222 -11 -238 -3 -15 -11 -55
-17 -90 -15 -89 -54 -199 -102 -292 -72 -138 -188 -232 -336 -270 -136 -35
-379 -13 -544 49 -115 43 -346 166 -449 237 -47 34 -102 14 -93 -34 6 -27 11
-31 147 -113 135 -81 304 -163 402 -194 l76 -24 1 -106 c0 -119 4 -220 20
-470 43 -708 175 -1200 388 -1443 87 -100 67 -150 -72 -182 -341 -78 -792 -92
-1262 -40 -166 18 -462 66 -609 99 -146 32 -216 83 -252 183 -28 81 -46 -2
316 1458 374 1508 362 1456 341 1470 -5 3 -54 16 -108 30 -204 52 -391 172
-448 288 -48 100 -46 203 7 263 63 71 172 104 352 105 79 0 118 4 125 13 6 7
12 81 14 172 4 169 19 262 64 394 66 193 194 386 350 524 l51 46 104 -34 c319
-106 652 -107 929 -3 84 32 211 97 274 140 28 19 53 32 56 29 4 -4 11 -29 16
-57z m11846 -740 c102 -27 209 -111 255 -202 52 -101 235 -826 332 -1314 182
-914 264 -1704 264 -2534 0 -424 -9 -621 -44 -965 -195 -1901 -1001 -3251
-2385 -3997 -477 -256 -1181 -519 -1885 -702 -709 -185 -1526 -315 -2290 -366
-52 -4 -113 -9 -135 -11 -22 -2 -223 -7 -447 -11 -357 -5 -410 -8 -422 -22
-13 -14 -8 -76 39 -511 80 -727 190 -1733 236 -2150 22 -201 57 -527 79 -725
22 -198 71 -650 110 -1005 39 -355 72 -661 75 -680 2 -19 7 -62 10 -95 4 -33
8 -71 10 -85 2 -14 6 -50 9 -80 6 -57 91 -837 151 -1395 19 -176 42 -378 50
-450 23 -201 43 -382 65 -594 12 -107 23 -211 26 -230 2 -20 20 -182 39 -361
40 -367 40 -367 60 -545 37 -317 29 -564 -25 -835 -124 -620 -501 -1175 -1030
-1516 -145 -94 -397 -230 -407 -221 -2 3 -6 67 -9 143 -8 247 -25 658 -29 709
-2 28 -7 106 -10 175 -3 69 -7 152 -10 185 -12 154 -15 196 -20 280 -3 50 -8
106 -10 125 -2 19 -7 73 -10 120 -7 85 -45 486 -65 675 -172 1612 -552 3229
-1019 4334 -34 79 -59 146 -57 149 3 2 63 17 135 33 224 50 310 91 428 202
114 109 177 223 208 376 23 114 17 203 -34 446 -69 333 -107 516 -171 830 -34
165 -90 440 -125 610 -35 171 -107 522 -160 780 -53 259 -114 556 -135 660
-105 512 -199 968 -275 1340 -77 374 -172 838 -260 1265 -18 91 -74 363 -124
605 -49 242 -122 595 -161 785 -39 190 -91 446 -116 570 -26 124 -120 583
-209 1020 -90 437 -162 797 -159 799 6 7 246 -36 424 -75 675 -149 1291 -397
1923 -776 504 -302 1005 -479 1572 -555 165 -22 723 -25 885 -5 1302 160 2215
787 2633 1807 283 692 340 1529 171 2520 -48 283 -119 579 -241 1010 -54 191
72 409 266 461 35 10 279 13 1006 13 823 1 969 -1 1018 -14z m-21458 -1978 l0
-813 125 -138 c69 -76 140 -159 159 -184 44 -62 95 -171 117 -252 18 -69 25
-258 11 -340 -6 -38 -54 -416 -72 -570 -24 -198 -70 -313 -181 -451 -125 -157
-399 -301 -671 -356 -62 -12 -136 -17 -253 -17 -248 0 -404 37 -645 155 -289
140 -473 373 -534 677 -13 61 -15 622 -3 622 4 0 12 -4 18 -9 17 -16 83 -33
128 -33 106 0 197 60 237 157 13 31 25 54 28 52 80 -46 190 -59 269 -33 63 21
124 74 151 129 l21 44 53 -26 c45 -23 67 -26 168 -29 l116 -4 113 -113 113
-113 -44 -22 c-105 -54 -244 -186 -306 -291 -64 -107 -113 -297 -113 -433 0
-66 18 -106 48 -106 41 1 47 16 54 137 8 140 25 210 77 318 68 138 184 248
328 311 71 31 92 46 93 68 0 5 -56 66 -125 136 l-126 127 40 26 c92 61 121
134 121 309 0 65 2 118 5 118 3 0 143 -100 312 -222 170 -122 320 -228 335
-235 37 -19 68 -3 68 37 0 26 -27 48 -322 261 -178 128 -335 237 -350 243
l-28 10 0 721 0 720 57 -4 c146 -9 309 74 384 195 11 19 21 34 22 34 1 0 2
-366 2 -813z m-709 -381 c58 -27 96 -72 114 -131 8 -28 10 -141 8 -372 -3
-318 -4 -333 -24 -360 -11 -15 -36 -38 -54 -50 -30 -21 -44 -23 -168 -23 -126
0 -138 2 -177 25 -74 43 -75 44 -75 453 -1 388 -1 390 52 439 37 34 66 42 173
42 85 1 108 -3 151 -23z m-556 -148 c18 -13 43 -36 54 -51 20 -28 21 -39 21
-397 0 -358 -1 -369 -21 -397 -39 -53 -81 -73 -151 -73 -76 0 -111 16 -150 67
l-28 36 0 366 0 366 24 33 c38 54 76 72 152 72 52 0 73 -5 99 -22z m-463 -164
c19 -9 45 -33 59 -53 l24 -36 0 -358 c0 -245 -4 -365 -11 -380 -35 -68 -105
-104 -175 -91 -42 8 -101 56 -115 93 -6 14 -10 178 -9 380 0 341 1 356 21 388
41 65 133 91 206 57z m8791 -1392 c28 -161 124 -261 287 -301 114 -29 394 -78
570 -101 525 -68 1014 -58 1392 30 110 26 150 50 181 110 27 55 28 104 2 154
l-19 39 97 -7 c202 -13 842 -76 1337 -132 301 -33 777 -93 781 -97 3 -3 76
-354 219 -1057 70 -338 164 -799 210 -1025 93 -453 206 -1007 315 -1535 93
-453 262 -1278 369 -1800 22 -107 72 -350 111 -540 39 -190 93 -455 121 -590
83 -405 136 -665 174 -850 86 -420 209 -1020 245 -1195 22 -104 73 -356 115
-560 73 -352 76 -375 72 -475 -5 -126 -37 -221 -111 -324 -98 -138 -217 -206
-456 -260 -602 -136 -1381 -254 -2090 -316 -129 -11 -257 -22 -285 -25 -27 -2
-97 -7 -155 -10 -58 -3 -139 -8 -180 -10 -240 -17 -624 -25 -1140 -24 -322 0
-601 2 -620 4 -19 1 -126 6 -238 10 -112 3 -220 8 -240 10 -20 2 -86 6 -147
10 -199 11 -729 53 -880 70 -22 2 -123 13 -225 25 -544 59 -1275 169 -1391
208 -297 103 -499 344 -550 657 -9 61 -9 114 0 253 11 154 91 1294 106 1502 3
41 9 138 15 215 5 77 12 169 15 205 3 36 27 385 55 775 27 391 52 746 55 790
3 44 10 134 15 200 5 66 12 170 15 230 4 61 8 121 10 135 2 14 6 75 10 135 3
61 8 130 10 155 3 25 16 205 30 400 13 195 27 387 30 425 11 154 146 2069 165
2340 11 160 22 317 25 350 2 33 11 157 20 275 8 118 17 244 19 280 3 36 8 103
11 150 3 47 8 105 10 130 2 25 18 257 36 515 18 259 34 472 36 475 10 12 491
26 944 28 l487 3 10 -59z m-1543 15 c1 -1 -29 -427 -66 -947 -37 -520 -70
-983 -73 -1030 -3 -47 -22 -308 -41 -580 -35 -503 -42 -598 -50 -705 -6 -75
-7 -98 -50 -710 -36 -508 -40 -576 -50 -700 -3 -38 -16 -232 -30 -430 -14
-198 -27 -387 -30 -420 -2 -33 -7 -96 -10 -140 -3 -44 -8 -107 -10 -140 -3
-33 -9 -130 -15 -215 -6 -85 -12 -182 -15 -215 -3 -33 -23 -316 -45 -630 -22
-313 -42 -599 -45 -635 -2 -36 -20 -290 -40 -565 -19 -275 -37 -529 -40 -565
-2 -36 -11 -162 -20 -280 -21 -305 -24 -350 -35 -485 -32 -410 -31 -499 5
-641 73 -287 277 -516 558 -625 102 -39 552 -116 1058 -180 l96 -12 -44 -126
c-256 -732 -441 -1705 -558 -2936 -25 -270 -56 -717 -75 -1080 -26 -534 -34
-875 -34 -1632 l-1 -821 -115 59 c-619 316 -1149 815 -1503 1416 -214 363
-373 775 -452 1172 -53 264 -161 1091 -260 1981 -9 82 -54 534 -60 605 -3 39
-8 86 -10 105 -3 19 -16 172 -30 340 -45 546 -42 509 -65 840 -6 80 -12 174
-15 210 -2 36 -7 106 -10 155 -16 277 -25 432 -30 530 -3 61 -7 146 -10 190
-3 44 -7 134 -10 200 -3 66 -7 161 -10 210 -2 50 -7 171 -10 270 -3 99 -8 216
-10 260 -2 44 -9 314 -16 600 -6 286 -16 528 -21 538 -19 37 -57 20 -151 -69
-334 -315 -903 -636 -1433 -809 -735 -240 -1565 -288 -2411 -139 -500 88 -894
280 -1203 586 -478 473 -738 1178 -800 2173 -12 192 -11 694 1 890 51 806 184
1627 414 2554 132 534 366 1326 426 1443 46 91 179 201 272 228 44 12 47 11
106 -24 86 -50 271 -130 371 -160 145 -43 262 -60 425 -59 229 0 416 42 630
142 55 26 111 46 125 45 14 -1 92 -5 173 -8 81 -4 168 -13 192 -21 138 -41
233 -157 242 -295 4 -51 -102 -1072 -162 -1565 -3 -22 -30 -265 -60 -540 -30
-275 -66 -601 -80 -724 -26 -240 -25 -261 21 -261 32 0 140 55 285 145 333
207 668 482 994 816 304 312 491 548 773 974 492 744 581 876 709 1046 197
263 314 400 503 590 527 528 1047 774 1706 807 131 7 224 6 229 -1z m-7391
-638 c11 -18 50 -65 89 -106 38 -40 68 -75 66 -77 -2 -2 -33 -18 -69 -37 -87
-45 -195 -154 -237 -239 -34 -71 -138 -393 -242 -753 l-66 -227 -1875 0
c-1080 0 -1898 -4 -1930 -9 -173 -29 -307 -137 -371 -299 -22 -53 -24 -74 -27
-315 -3 -239 -2 -264 17 -326 54 -176 203 -304 386 -331 45 -6 682 -10 1780
-10 l1710 0 -3 -23 c-3 -26 -80 -461 -87 -494 l-5 -23 -1906 -2 c-1873 -3
-1906 -3 -1920 -22 -21 -30 -21 -15532 0 -15562 14 -19 155 -19 12648 -21
6948 -2 12636 -4 12640 -5 7 -3 31 -179 103 -748 47 -366 44 -351 76 -362 29
-10 29 -11 43 -101 3 -16 8 -60 12 -98 l7 -69 -13000 0 c-11609 0 -13010 2
-13089 15 -224 39 -403 131 -559 289 -153 155 -251 345 -284 556 -8 45 -11
2951 -11 9286 0 8223 2 9231 15 9309 36 206 127 377 285 535 119 119 216 182
360 236 175 66 -11 62 2835 63 l2591 1 18 -31z m5365 -127 c-291 -297 -536
-613 -859 -1105 l-135 -206 -910 -2 c-964 -2 -955 -2 -962 5 -2 2 12 148 32
324 50 447 50 456 31 531 -23 89 -60 152 -127 216 -93 89 -193 125 -345 125
-115 0 -115 1 -26 94 44 46 91 104 107 129 l27 47 1660 0 1661 0 -154 -158z
m15203 121 c-50 -63 -272 -274 -362 -344 -445 -346 -993 -562 -1660 -653 -237
-33 -586 -40 -835 -17 -578 54 -1121 238 -1675 571 -291 174 -532 298 -815
417 l-150 63 2763 0 2764 0 -30 -37z m-17323 -2856 c-130 -128 -351 -319 -442
-384 -34 -24 -35 -24 -268 -23 -128 0 -235 3 -238 5 -2 3 9 123 25 267 l29
263 515 5 c283 3 517 6 520 7 3 1 -60 -62 -141 -140z m-4145 -659 c-23 -160
-26 -184 -49 -388 -14 -124 -39 -406 -50 -570 -10 -160 -13 -695 -5 -850 57
-1029 315 -1763 795 -2259 327 -337 710 -536 1234 -641 127 -25 433 -67 556
-75 50 -4 101 -9 115 -11 14 -2 122 -6 240 -9 868 -22 1721 187 2429 595 206
118 411 261 564 392 38 32 71 58 75 58 4 0 9 -118 10 -262 2 -145 5 -276 7
-293 2 -16 7 -142 10 -280 3 -137 8 -293 10 -345 2 -52 7 -160 10 -240 9 -230
15 -361 30 -635 2 -44 7 -127 10 -185 14 -286 63 -1016 80 -1205 2 -27 7 -79
10 -115 2 -36 12 -150 20 -255 8 -104 20 -237 25 -295 6 -58 13 -130 15 -160
5 -55 32 -330 40 -405 2 -22 6 -65 10 -95 12 -125 16 -163 35 -325 10 -93 22
-197 25 -230 44 -424 182 -1424 221 -1605 131 -606 390 -1150 782 -1639 103
-128 356 -386 492 -502 228 -193 514 -382 778 -513 l112 -56 0 -68 c3 -320 55
-1514 76 -1734 l6 -58 -6211 0 -6211 0 0 7705 0 7705 1863 0 1863 0 -22 -152z
m3456 95 c-112 -75 -293 -184 -298 -179 -2 3 2 56 9 120 l12 116 181 0 181 0
-85 -57z m18953 -15137 c219 -191 444 -296 634 -296 106 0 173 22 368 121 151
76 190 91 241 96 84 8 154 -17 210 -72 49 -49 68 -83 118 -215 59 -151 99
-177 187 -121 42 26 68 53 227 235 121 138 221 199 322 199 117 0 193 -65 312
-267 111 -189 147 -226 218 -226 65 0 100 31 239 217 132 176 194 226 313 252
134 30 311 -68 456 -252 59 -76 65 -89 46 -116 -22 -31 -52 -26 -87 16 -159
187 -258 258 -362 257 -104 0 -161 -45 -315 -249 -102 -136 -151 -184 -214
-210 -84 -35 -193 -2 -260 79 -19 24 -71 104 -115 178 -116 196 -179 246 -277
219 -63 -18 -125 -72 -258 -223 -69 -79 -141 -156 -161 -171 -46 -37 -113 -67
-148 -67 -36 0 -95 25 -125 53 -27 24 -72 110 -92 172 -18 57 -59 136 -84 163
-32 36 -70 52 -125 52 -42 0 -74 -13 -228 -90 -212 -107 -270 -125 -413 -124
-217 1 -434 99 -674 304 -78 66 -94 98 -64 128 22 22 50 12 111 -42z m-393
-1515 c657 -157 1401 -258 2185 -296 132 -6 496 -9 715 -6 730 12 1548 126
2182 305 71 20 129 36 131 36 3 0 -14 -137 -52 -430 -57 -431 -101 -771 -107
-826 -3 -34 -9 -66 -13 -71 -7 -11 -341 -77 -616 -122 -232 -38 -535 -76 -805
-101 -212 -20 -260 -23 -535 -40 -141 -8 -1163 -6 -1200 3 -11 2 -83 8 -160
12 -77 4 -147 8 -155 10 -8 1 -55 6 -105 9 -49 4 -108 9 -130 12 -22 2 -103
11 -180 19 -298 33 -608 80 -963 147 -199 37 -223 44 -227 62 -2 12 -33 251
-69 531 -36 281 -68 528 -71 550 -33 247 -33 247 -11 241 12 -3 95 -24 186
-45z m-250 -370 c0 -6 14 -112 30 -238 17 -125 42 -316 56 -423 37 -295 42
-322 56 -337 8 -7 73 -25 146 -39 74 -15 132 -32 132 -38 0 -6 11 -96 25 -200
14 -104 25 -193 25 -198 0 -4 -4358 -8 -9685 -8 -8819 0 -9693 1 -9763 16
-223 46 -418 196 -517 397 -61 125 -78 198 -79 332 0 134 20 220 75 331 117
238 349 394 614 413 138 10 18885 2 18885 -8z m6995 -6 c88 -18 232 -89 310
-152 279 -226 356 -637 175 -944 -109 -185 -274 -309 -476 -358 -75 -18 -124
-19 -1023 -20 l-944 -1 6 37 c4 21 16 115 28 208 11 94 22 170 23 171 0 0 59
13 131 27 71 15 136 34 144 42 9 9 20 54 27 112 7 54 35 272 63 486 28 213 51
392 51 397 0 7 245 10 708 10 581 0 719 -3 777 -15z"/>
<path d="M35784 44028 l-81 -83 0 -63 0 -64 51 51 c28 28 55 51 59 51 4 0 7
-841 7 -1870 l0 -1870 -929 0 -930 0 -4 608 c-4 663 -6 691 -68 932 -202 782
-873 1379 -1681 1494 -134 19 -1292 23 -1314 5 -17 -14 -18 -51 -2 -67 9 -9
140 -12 528 -12 529 -1 698 -7 855 -35 277 -49 576 -180 811 -356 397 -297
663 -737 751 -1239 14 -79 17 -196 20 -712 l4 -618 -1479 0 c-1602 0 -1508 3
-1500 -52 2 -12 14 -28 28 -35 20 -10 331 -13 1486 -13 l1461 0 6 -132 c29
-674 386 -1284 959 -1640 271 -169 638 -286 943 -301 l50 -2 5 -204 c5 -193 6
-204 26 -218 18 -12 24 -11 43 4 20 17 21 27 23 217 l3 199 75 4 c792 38 1503
554 1790 1299 79 206 122 422 134 672 2 52 6 95 8 98 3 2 2560 7 2683 4 5 0
-12 -22 -38 -48 -26 -27 -44 -51 -41 -55 4 -4 33 -7 63 -7 l56 0 80 80 80 80
-80 80 -80 80 -69 0 -70 0 54 -55 54 -55 -1347 0 -1347 0 0 598 c0 645 4 700
55 904 83 326 245 615 484 862 220 226 465 383 755 485 249 87 450 111 936
111 322 0 330 1 330 46 0 46 -3 46 -462 41 -453 -5 -477 -7 -672 -57 -371 -96
-711 -296 -972 -573 -246 -260 -414 -569 -500 -922 -49 -203 -54 -281 -54
-911 l0 -584 -955 0 -955 0 0 1870 c0 1029 3 1870 7 1870 4 0 31 -23 59 -51
l51 -51 2 64 1 63 -83 83 -82 82 -81 -82z m29 -3947 c4 -1 7 -447 7 -992 l0
-991 -47 6 c-27 3 -77 8 -113 12 -316 31 -662 170 -938 378 -464 352 -762 932
-762 1486 l0 100 908 2 c499 2 914 2 922 1 8 -1 18 -2 23 -2z m2001 0 c10 -1
2 -202 -14 -310 -60 -423 -249 -802 -549 -1102 -341 -340 -759 -529 -1248
-564 l-93 -7 0 991 0 991 933 2 c512 2 939 2 947 1 8 -1 19 -2 24 -2z"/>
<path d="M38094 36487 c-463 -117 -849 -218 -858 -226 -22 -18 -20 -44 4 -66
19 -17 47 -11 891 201 610 153 875 224 882 235 5 9 7 28 3 42 -5 23 -11 27
-44 26 -20 0 -416 -96 -878 -212z"/>
<path d="M38281 35991 c-621 -157 -867 -223 -876 -235 -16 -21 -8 -54 16 -66
23 -13 1734 412 1761 437 10 9 18 22 18 30 0 14 -35 54 -47 52 -5 0 -397 -99
-872 -218z"/>
<path d="M27832 24608 c-5 -7 -31 -59 -56 -116 -312 -696 -824 -1482 -1378
-2118 -156 -180 -514 -535 -693 -688 -560 -479 -1154 -828 -1774 -1040 -74
-26 -140 -51 -148 -57 -18 -16 -16 -54 3 -70 21 -17 87 0 279 71 946 353 1794
983 2558 1900 469 564 917 1266 1216 1907 71 154 81 189 59 211 -16 16 -53 15
-66 0z"/>
<path d="M12340 20394 c-163 -30 -296 -83 -429 -171 -271 -181 -455 -474 -500
-797 -15 -109 -15 -7303 0 -7411 49 -352 236 -642 533 -826 97 -59 199 -102
325 -138 l96 -26 2700 0 c2915 0 2744 -3 2915 52 282 91 529 303 664 571 49
96 91 228 108 333 19 125 19 7344 0 7469 -76 481 -451 862 -930 945 -122 21
-5365 20 -5482 -1z m5488 -99 c389 -74 701 -367 810 -761 l27 -99 2 -3685 c1
-3158 -1 -3696 -13 -3765 -78 -437 -413 -775 -841 -850 -74 -13 -433 -15
-2742 -15 l-2656 0 -108 25 c-232 52 -437 183 -589 374 -72 89 -159 266 -190
381 l-23 85 -3 3700 -2 3700 21 100 c45 215 124 360 284 520 124 124 218 187
363 241 180 67 -46 62 2903 63 2355 1 2686 -1 2757 -14z"/>
<path d="M14290 15825 l0 -3325 793 2 792 3 0 3320 0 3320 -792 3 -793 2 0
-3325z"/>
<path d="M12312 15108 l3 -2603 790 0 790 0 3 2603 2 2602 -795 0 -795 0 2
-2602z"/>
<path d="M16270 14055 l0 -1555 793 2 792 3 0 1550 0 1550 -792 3 -793 2 0
-1555z"/>
<path d="M27237 43192 c-824 -824 -1217 -1224 -1217 -1238 0 -26 18 -44 45
-44 28 0 2455 2427 2455 2456 0 26 -18 44 -45 44 -13 0 -412 -392 -1238 -1218z"/>
<path d="M25237 42242 c-1374 -1374 -1617 -1621 -1617 -1645 0 -29 29 -48 60
-40 9 3 742 730 1628 1616 1297 1298 1612 1617 1612 1638 0 30 -17 49 -45 49
-13 0 -539 -519 -1638 -1618z"/>
<path d="M9701 39159 c-262 -51 -458 -240 -516 -497 -14 -59 -15 -488 -13
-3842 l3 -3775 28 -78 c56 -160 175 -298 318 -369 148 -73 -4 -68 1998 -68
1770 0 1800 0 1811 19 6 13 7 28 0 45 l-9 26 -1803 2 c-1728 3 -1805 4 -1858
22 -196 66 -325 199 -376 391 -11 42 -14 687 -14 3810 0 4152 -6 3809 63 3939
40 78 145 183 223 223 125 66 61 63 1332 63 776 0 1160 3 1173 10 22 12 26 59
7 78 -14 14 -2294 15 -2367 1z"/>
<path d="M43189 34053 c-652 -654 -1202 -1210 -1221 -1238 -126 -177 -186
-413 -160 -623 15 -120 65 -268 121 -361 24 -39 77 -108 118 -153 92 -102 162
-205 196 -290 97 -243 68 -531 -76 -751 -27 -42 -327 -349 -914 -937 -584
-585 -873 -882 -873 -896 0 -26 18 -44 45 -44 13 0 303 284 896 878 482 482
889 895 906 917 76 103 134 241 158 382 19 108 19 188 0 296 -32 183 -105 329
-241 478 -93 103 -139 172 -180 269 -101 234 -81 499 54 735 27 48 282 308
1233 1260 805 806 1199 1207 1199 1221 0 11 -5 25 -12 32 -38 38 -20 55 -1249
-1175z"/>
<path d="M31862 33137 c-2105 -2105 -2029 -2026 -1973 -2057 11 -5 26 -10 33
-10 7 0 910 897 2005 1992 1610 1610 1993 1998 1993 2018 0 31 -17 50 -45 50
-13 0 -658 -638 -2013 -1993z"/>
<path d="M33012 32154 c-40 -28 -27 -52 90 -171 100 -100 116 -114 143 -111
22 2 32 10 39 31 10 27 5 34 -110 148 -66 65 -125 119 -130 119 -5 0 -20 -7
-32 -16z"/>
<path d="M33818 32053 c-117 -116 -134 -143 -106 -171 32 -32 62 -14 176 101
71 72 112 122 112 135 0 20 -33 52 -54 52 -5 0 -62 -53 -128 -117z"/>
<path d="M11030 31771 c-15 -30 -12 -48 12 -65 20 -14 183 -16 1518 -16 1335
0 1498 2 1518 16 24 17 29 53 10 72 -9 9 -363 12 -1530 12 -1490 0 -1517 0
-1528 -19z"/>
<path d="M17682 31778 c-19 -19 -14 -55 10 -72 20 -14 109 -16 765 -16 730 0
743 0 763 20 24 24 25 43 4 64 -14 14 -98 16 -773 16 -575 0 -760 -3 -769 -12z"/>
<path d="M33230 31453 c-30 -10 -240 -227 -240 -248 0 -28 19 -45 50 -45 37 0
253 218 248 251 -4 25 -36 49 -58 42z"/>
<path d="M33722 31444 c-41 -29 -28 -53 91 -172 87 -87 118 -112 139 -112 31
0 53 30 43 59 -6 20 -227 241 -241 241 -5 0 -20 -7 -32 -16z"/>
<path d="M39494 28445 c-189 -41 -344 -196 -383 -383 -60 -288 161 -574 454
-587 256 -11 476 167 515 419 9 58 8 72 -5 93 -12 17 -24 23 -42 21 -32 -4
-38 -16 -51 -100 -13 -85 -44 -150 -100 -210 -192 -206 -525 -154 -646 102
-28 59 -31 74 -31 165 0 93 2 105 33 167 62 126 180 209 320 224 31 4 63 11
70 17 19 15 14 54 -10 71 -26 19 -43 19 -124 1z"/>
<path d="M40058 26463 c-1803 -1803 -1987 -1990 -1981 -2013 7 -29 20 -40 48
-40 13 0 677 657 2008 1988 1093 1093 1987 1992 1987 1997 0 22 -32 55 -53 55
-16 0 -576 -554 -2009 -1987z"/>
<path d="M38795 22984 c-459 -395 -771 -784 -914 -1140 -151 -377 -122 -718
89 -1031 106 -159 206 -260 561 -570 301 -264 427 -406 518 -589 196 -395 97
-857 -290 -1338 -40 -51 -68 -95 -66 -105 5 -23 105 82 205 214 333 444 406
884 213 1280 -95 194 -228 346 -567 645 -351 312 -470 445 -565 635 -74 151
-92 229 -93 410 0 122 4 166 22 239 91 365 378 792 841 1251 56 55 101 105
101 112 0 20 -22 15 -55 -13z"/>
<path d="M39132 21903 c-163 -424 -112 -809 156 -1173 31 -41 162 -183 291
-315 130 -132 267 -280 304 -330 77 -101 138 -219 164 -315 24 -90 24 -299 -1
-390 -89 -326 -290 -638 -663 -1032 -46 -48 -83 -92 -83 -98 0 -27 39 -1 152
104 312 288 545 606 648 886 46 124 63 221 63 355 -1 100 -5 135 -27 210 -62
207 -150 327 -489 666 -144 144 -282 293 -320 344 -87 116 -160 264 -194 390
-24 89 -27 119 -27 270 -1 182 11 265 60 407 28 83 29 98 10 98 -9 0 -26 -31
-44 -77z"/>
<path d="M38010 17722 l-3225 -2 -100 -333 -101 -332 1719 -3 c945 -1 2489 -1
3431 0 l1712 3 -100 332 c-56 182 -103 333 -106 335 -3 2 -1456 2 -3230 0z"/>
<path d="M33950 16580 l0 -370 4065 0 4065 0 0 370 0 370 -4065 0 -4065 0 0
-370z"/>
</g>
</svg>
