<?xml version="1.0" standalone="no"?>
<!DOCTYPE svg PUBLIC "-//W3C//DTD SVG 20010904//EN"
 "http://www.w3.org/TR/2001/REC-SVG-20010904/DTD/svg10.dtd">
<svg version="1.0" xmlns="http://www.w3.org/2000/svg"
 width="5209.000000pt" height="5210.000000pt" viewBox="0 0 5209.000000 5210.000000"
 preserveAspectRatio="xMidYMid meet">

<g transform="translate(0.000000,5210.000000) scale(0.100000,-0.100000)"
fill="#000000" stroke="none">
<path d="M32775 45108 c-293 -17 -590 -120 -855 -295 -141 -94 -352 -300 -453
-443 -143 -204 -258 -479 -297 -718 -27 -164 -29 -207 -30 -567 l0 -320 -1428
0 c-1372 0 -1429 -1 -1482 -19 -87 -30 -124 -52 -188 -110 -111 -104 -152
-216 -152 -418 l0 -128 -1776 0 -1775 0 -69 55 c-304 242 -698 409 -1088 459
-142 18 -389 21 -530 5 -850 -93 -1581 -684 -1851 -1495 -193 -577 -149 -1176
126 -1716 54 -106 165 -281 206 -325 33 -37 87 -25 87 19 0 9 -33 66 -74 127
-231 344 -348 701 -363 1111 -18 502 129 963 440 1375 84 110 282 306 399 393
696 519 1623 570 2357 130 553 -331 920 -882 1016 -1525 21 -142 21 -447 0
-588 -108 -724 -554 -1321 -1220 -1632 -373 -174 -802 -231 -1226 -163 -144
24 -159 21 -159 -31 0 -37 13 -43 138 -64 268 -44 597 -37 834 19 l58 13 10
-36 c14 -49 13 -86 -3 -124 -24 -57 35 -39 -692 -208 -572 -133 -593 -137
-631 -129 -41 10 -88 50 -102 89 -27 70 -44 176 -40 239 7 102 62 200 149 267
14 11 32 34 40 50 24 51 80 71 400 145 379 88 550 130 569 141 9 5 -14 9 -58
9 -55 0 -138 -15 -335 -61 -144 -34 -316 -74 -382 -89 -151 -35 -211 -58 -274
-105 -112 -82 -184 -196 -204 -324 -11 -73 1 -164 38 -289 33 -109 135 -178
249 -169 34 3 275 55 536 116 261 62 530 125 597 140 78 18 137 37 162 54 70
46 97 138 77 263 l-8 51 31 6 c17 4 82 26 144 51 277 108 511 256 715 451 l94
89 29 -34 c98 -117 225 -352 272 -505 14 -44 68 -267 122 -495 53 -228 137
-588 187 -800 85 -358 91 -393 92 -495 1 -130 -23 -222 -84 -326 -54 -91 -165
-193 -254 -234 -55 -26 -323 -91 -1216 -299 -630 -146 -1300 -302 -1490 -347
-319 -76 -353 -82 -455 -83 -88 -1 -125 4 -185 22 -168 52 -316 175 -389 323
-38 77 -58 156 -231 899 -104 448 -194 856 -201 905 -16 126 -6 383 20 507 66
308 211 569 445 804 184 183 386 312 616 392 72 25 595 151 1134 273 202 46
405 57 591 33 184 -24 463 -117 573 -192 11 -7 -7 -27 -68 -80 -199 -172 -432
-299 -667 -361 -43 -12 -94 -26 -114 -31 -63 -17 -60 -90 4 -90 47 0 203 44
320 90 471 185 854 586 1021 1067 110 318 127 694 45 1015 -148 586 -590 1061
-1164 1253 -907 303 -1901 -181 -2229 -1086 -195 -540 -109 -1168 223 -1626
35 -50 50 -63 71 -63 29 0 50 16 50 39 0 8 -29 57 -64 110 -192 288 -286 595
-286 935 0 280 52 501 175 751 208 418 583 734 1029 866 127 37 156 34 55 -5
-333 -130 -575 -444 -628 -813 -5 -40 -10 -460 -10 -1013 -1 -519 -5 -947 -9
-951 -4 -4 -37 -16 -74 -29 -75 -24 -85 -32 -62 -51 13 -11 -2 -21 -103 -70
-65 -31 -155 -82 -199 -112 -80 -53 -82 -54 -100 -36 -19 18 -22 16 -117 -67
-284 -247 -475 -576 -554 -953 -23 -109 -27 -151 -27 -306 0 -107 5 -210 13
-255 18 -106 377 -1647 397 -1706 32 -97 85 -177 179 -270 77 -78 106 -99 186
-138 140 -68 286 -95 417 -77 l52 7 -1 -2030 0 -2031 -256 -265 c-140 -146
-286 -305 -324 -353 -125 -161 -234 -354 -302 -537 -25 -67 -344 -1085 -380
-1213 -2 -5 -50 29 -108 76 -116 93 -139 105 -162 83 -8 -9 -99 -172 -202
-363 -103 -191 -190 -351 -193 -355 -4 -3 -42 20 -85 53 -43 32 -85 59 -93 59
-17 0 -31 -14 -107 -108 -102 -126 -280 -262 -424 -325 -89 -39 -206 -67 -282
-67 -196 1 -416 148 -991 660 -254 226 -410 357 -540 452 -343 251 -814 460
-1268 564 l-122 28 5 30 c3 17 12 87 20 156 8 69 22 191 31 271 l18 146 62 12
c250 46 347 184 331 474 -14 247 -134 611 -332 1008 l-66 130 73 86 c175 204
210 266 216 387 8 146 -53 272 -203 422 -167 165 -412 294 -679 356 -129 29
-354 36 -474 14 -104 -19 -203 -51 -279 -90 -29 -14 -53 -24 -53 -21 0 2 11
37 24 77 32 95 45 191 41 303 -4 142 -46 210 -157 260 -173 78 -445 21 -602
-125 -87 -82 -121 -146 -121 -230 0 -81 31 -142 123 -241 114 -124 244 -206
364 -231 l57 -12 -92 -95 c-51 -53 -153 -168 -227 -256 -345 -410 -494 -515
-730 -516 -97 0 -161 17 -230 64 -25 16 -205 188 -400 381 -343 340 -550 539
-845 811 -536 496 -777 649 -990 631 -390 -33 -821 -410 -1086 -951 -238 -483
-248 -890 -27 -1105 137 -134 427 -230 692 -230 42 0 76 -3 76 -7 -1 -5 -21
-24 -46 -43 -61 -47 -182 -177 -255 -273 -422 -558 -502 -1391 -192 -1993 199
-388 532 -643 966 -739 27 -6 25 -8 -50 -57 -294 -192 -599 -462 -774 -688
-335 -430 -473 -885 -486 -1596 -6 -295 3 -465 38 -754 38 -318 116 -712 203
-1025 38 -135 56 -165 101 -165 12 0 85 31 161 69 195 96 175 95 202 0 51
-184 182 -509 327 -814 73 -153 88 -175 119 -175 13 0 196 140 453 346 238
190 437 343 442 340 5 -3 160 -194 344 -423 l335 -418 -29 -115 c-66 -265
-169 -819 -169 -910 0 -60 16 -67 118 -47 47 9 88 15 90 13 2 -2 -12 -46 -31
-98 -130 -344 -236 -824 -312 -1408 -32 -243 -32 -277 -1 -291 14 -7 30 -8 39
-3 8 5 43 64 77 132 35 67 64 121 65 120 2 -2 -10 -77 -26 -168 -30 -174 -120
-785 -140 -957 l-12 -101 -66 -17 c-36 -9 -197 -52 -357 -95 -1074 -293 -2154
-670 -3204 -1120 -526 -225 -1321 -599 -1417 -666 -137 -97 -219 -240 -238
-414 -7 -71 -10 -53 107 -830 96 -635 95 -709 -7 -941 -90 -204 -98 -303 -61
-724 71 -803 74 -827 137 -997 129 -351 399 -637 743 -785 103 -44 1642 -516
1817 -557 75 -17 143 -37 151 -44 12 -10 87 -40 103 -42 3 0 105 0 228 0 l222
-1 45 -80 c157 -286 425 -624 678 -856 260 -237 500 -405 809 -565 144 -75
153 -81 153 -109 0 -40 28 -55 130 -68 147 -20 141 -17 135 -59 -2 -20 -7
-125 -10 -232 -8 -293 -16 -537 -20 -610 -2 -36 -4 -107 -4 -158 l-1 -93 -27
4 c-52 7 -81 -12 -137 -91 -170 -243 -342 -620 -506 -1112 -119 -357 -153
-485 -148 -560 9 -118 73 -217 174 -269 46 -24 151 -46 264 -56 41 -4 86 -9
100 -11 55 -10 412 -12 525 -4 213 16 408 41 477 61 94 27 184 98 228 180 44
84 45 109 6 345 -20 121 -43 296 -51 389 -16 179 -21 651 -9 917 l6 147 -31
32 c-28 27 -37 31 -68 26 -34 -6 -35 -5 -30 21 3 15 33 227 68 472 l63 445
340 0 c356 1 442 8 696 56 978 187 1845 775 2374 1609 63 98 64 99 75 72 5
-15 69 -193 142 -397 241 -682 431 -1200 446 -1216 16 -19 32 -23 186 -49 60
-10 112 -22 117 -26 7 -8 232 -853 264 -994 25 -110 45 -269 52 -406 l7 -131
-33 -7 c-21 -4 -49 -23 -75 -49 -83 -87 -167 -376 -192 -662 -14 -156 -10
-595 6 -638 17 -50 64 -103 115 -130 l41 -22 1065 0 c1295 0 2043 13 2152 37
137 29 207 172 149 303 -137 311 -676 714 -1416 1058 -203 95 -279 122 -396
143 -53 9 -87 20 -95 32 -57 72 -183 268 -228 354 -126 237 -171 370 -281 833
-40 171 -76 322 -80 336 -6 25 -4 26 90 54 97 29 122 47 111 83 -2 9 -7 37
-10 62 -3 25 -24 182 -46 350 -22 168 -47 357 -55 420 -9 63 -33 257 -55 430
-22 173 -43 332 -46 353 l-6 37 5515 0 5515 0 12 -68 c69 -378 277 -1312 414
-1857 64 -256 60 -250 195 -292 l89 -28 6 -59 c7 -66 8 -136 2 -136 -2 0 -23
7 -46 15 -63 22 -99 19 -171 -16 -56 -28 -109 -77 -429 -398 -356 -358 -474
-466 -616 -566 -382 -270 -729 -640 -804 -859 -46 -135 -20 -224 93 -312 180
-141 440 -221 752 -231 197 -6 273 2 495 53 308 72 1722 465 1795 500 53 25
132 104 155 157 36 82 42 132 30 276 -27 327 -79 697 -140 998 -33 156 -50
191 -92 177 -18 -5 -19 0 -13 168 4 95 7 174 8 174 1 1 45 5 97 9 52 3 102 10
111 15 11 6 18 29 22 72 4 35 8 486 9 1003 1 517 4 1000 6 1073 l3 132 905 0
c497 0 904 -2 904 -4 0 -2 16 -176 35 -387 29 -326 59 -673 137 -1619 15 -177
17 -180 115 -178 l68 2 6 -85 c4 -46 9 -133 12 -193 l6 -109 -24 23 c-26 24
-59 21 -74 -8 -5 -9 -12 -100 -15 -202 -4 -102 -9 -207 -11 -235 -2 -27 -7
-131 -10 -230 -3 -99 -8 -211 -10 -250 -2 -38 -7 -128 -10 -200 -9 -187 -30
-356 -81 -634 -38 -211 -43 -252 -35 -301 21 -129 107 -234 226 -279 97 -37
348 -55 745 -56 363 0 478 8 684 51 184 38 298 174 299 354 0 66 -10 108 -81
340 -168 551 -286 869 -432 1165 -94 191 -195 354 -279 446 l-50 56 9 144 c5
79 10 156 10 172 l0 27 154 0 c162 0 186 6 186 48 0 9 9 91 19 182 11 91 22
199 26 240 3 41 8 91 10 110 2 19 7 64 10 100 3 36 8 85 10 110 8 66 43 527
51 660 3 63 7 116 8 117 1 1 42 -43 91 -99 99 -111 272 -273 410 -384 522
-419 1142 -682 1817 -770 167 -21 559 -30 723 -15 185 16 214 20 365 47 729
133 1371 468 1896 989 240 239 408 453 571 728 l75 127 249 0 c140 0 259 4
274 10 15 6 30 22 36 39 10 27 16 30 122 51 241 47 482 117 972 282 1277 428
1309 441 1541 596 283 190 507 439 658 732 78 152 248 559 304 730 49 148 74
245 101 395 39 214 43 308 38 815 -5 617 4 542 -177 1475 -55 281 -113 582
-130 670 -17 88 -36 189 -43 225 -12 61 -8 108 70 790 189 1658 175 1505 139
1521 -18 9 -31 7 -62 -9 l-39 -20 -54 50 c-70 64 -77 67 -421 198 -162 62
-303 116 -312 121 -17 9 -18 507 -18 10237 0 10058 0 10229 -19 10357 -45 303
-139 506 -309 666 -116 110 -219 165 -395 212 -81 22 -93 22 -812 22 -401 0
-1624 -4 -2717 -8 l-1988 -8 -1 78 c-1 191 -25 294 -90 392 -69 103 -189 179
-319 201 -45 7 -495 10 -1492 8 l-1426 -3 -5 405 c-4 391 -5 409 -30 526 -103
474 -366 866 -756 1125 -323 215 -684 310 -1086 287z m275 -98 c747 -73 1354
-639 1479 -1380 21 -124 21 -141 19 -1545 l-3 -1420 -28 -57 c-36 -74 -101
-139 -175 -175 l-57 -28 -1390 0 -1390 0 -58 29 c-71 36 -140 108 -175 184
l-27 57 0 1435 c0 1579 -3 1485 61 1707 96 334 322 661 601 870 328 246 740
362 1143 323z m-1910 -3297 c0 -622 4 -981 11 -1023 29 -181 164 -328 346
-375 49 -13 241 -15 1395 -15 945 0 1353 3 1390 11 89 19 158 58 229 128 36
36 76 87 88 114 52 108 51 81 51 1135 l0 982 1473 -2 1472 -3 60 -29 c81 -40
166 -128 196 -203 l24 -58 0 -1150 0 -1150 -23 -57 c-33 -81 -108 -160 -190
-200 l-67 -33 -4665 0 -4665 0 -55 27 c-105 52 -175 131 -205 232 -22 75 -23
2287 -1 2360 37 122 148 226 273 255 21 5 668 9 1451 10 l1412 1 0 -957z
m-8553 341 c-3 -3 -12 -4 -19 -1 -8 3 -5 6 6 6 11 1 17 -2 13 -5z m975 -102
c542 -243 910 -724 999 -1307 16 -103 16 -367 0 -470 -48 -307 -180 -608 -363
-827 l-39 -47 -90 44 c-179 90 -339 142 -526 170 -130 19 -369 19 -493 0 -52
-8 -317 -66 -589 -130 -272 -63 -500 -115 -507 -115 -12 0 -14 158 -14 953 0
908 1 956 20 1041 38 171 114 315 232 441 151 161 351 261 563 284 44 5 222 8
395 7 l315 -1 97 -43z m4328 -900 c0 -822 2 -956 15 -1007 24 -90 52 -141 118
-211 67 -72 165 -127 256 -144 79 -15 9242 -14 9313 1 204 43 352 207 378 419
6 54 10 413 10 975 0 490 0 896 0 903 0 10 449 12 2338 9 2205 -3 2341 -4
2412 -21 172 -41 291 -106 406 -220 139 -139 215 -296 271 -562 16 -74 17
-774 20 -10178 3 -9625 2 -10098 -14 -10091 -507 195 -3056 1166 -3243 1235
-1825 673 -3836 1177 -5725 1435 -110 15 -201 28 -202 29 -3 2 -21 209 -25
280 l-3 49 57 13 c124 29 185 83 254 228 116 246 209 773 239 1361 4 66 8 143
10 170 2 28 4 81 5 118 l0 69 88 -7 c48 -3 102 -8 120 -11 l32 -4 1 78 c1 42
3 88 5 102 6 46 -15 514 -31 675 -19 193 -46 383 -83 567 l-27 138 1530 2
1531 3 76 38 c88 43 146 102 187 187 23 48 26 68 26 160 0 93 -3 112 -26 161
-50 106 -143 185 -254 214 -52 13 -250 15 -1696 15 l-1637 0 -56 104 c-213
397 -496 689 -831 856 -419 209 -1313 421 -2016 478 -95 8 -110 12 -151 40
-134 92 -217 260 -218 438 l0 61 55 6 c181 19 314 213 315 458 l0 76 55 6 c71
7 156 46 183 84 45 63 47 77 47 348 1 287 3 301 72 465 79 191 87 219 88 315
0 107 -25 197 -82 294 -71 119 -209 249 -330 310 -65 32 -140 49 -306 66 -348
37 -533 94 -796 243 -73 41 -163 86 -200 100 -173 64 -460 22 -662 -98 -258
-153 -338 -435 -208 -734 73 -168 224 -343 347 -401 69 -33 69 -25 5 -150 -47
-93 -96 -166 -154 -230 -55 -59 -69 -89 -69 -145 0 -61 16 -91 86 -156 l65
-61 4 -120 c9 -299 88 -490 251 -603 57 -40 152 -70 223 -70 l59 0 7 -40 c13
-77 -15 -211 -65 -310 -38 -75 -108 -159 -170 -205 -46 -34 -67 -41 -214 -70
-494 -100 -970 -286 -1242 -486 -141 -104 -302 -354 -453 -705 -34 -78 -61
-147 -61 -153 0 -7 -318 -11 -1118 -13 l-1117 -3 -67 -33 c-159 -78 -250 -250
-219 -415 21 -114 94 -219 191 -273 98 -55 77 -54 1102 -54 521 0 948 -3 948
-7 -1 -14 -99 -345 -104 -350 -3 -3 -59 -6 -125 -7 -104 -1 -123 -4 -148 -22
-45 -34 -73 -82 -73 -128 0 -25 46 -178 122 -408 140 -418 135 -371 51 -512
-83 -138 -226 -268 -419 -380 -329 -191 -912 -357 -1304 -373 l-135 -5 -62 39
c-35 21 -127 86 -205 144 -241 180 -366 251 -493 284 -74 19 -108 19 -172 0
-70 -21 -103 -61 -103 -123 0 -62 31 -125 118 -242 51 -69 67 -97 57 -102 -34
-20 -153 -39 -275 -44 -173 -8 -384 8 -605 46 -97 17 -192 30 -212 30 -141 0
-226 -118 -188 -263 57 -220 302 -496 516 -583 180 -73 346 -94 719 -90 322 4
498 20 820 76 207 37 340 46 753 55 169 3 313 8 320 10 7 2 64 6 127 10 376
19 816 82 1124 160 94 24 174 40 177 36 12 -13 310 -911 305 -919 -3 -5 -29
-9 -58 -11 -58 -2 -396 -32 -633 -56 -1902 -194 -3918 -621 -5712 -1210 l-163
-53 0 1637 0 1636 53 34 c89 58 338 237 425 306 63 50 82 71 82 89 0 20 -28
47 -145 137 -80 62 -144 116 -143 120 2 5 91 100 199 211 345 358 342 355 335
380 -4 15 -150 137 -406 338 l-399 315 2 1118 2 1118 219 85 c120 46 248 100
283 119 198 109 341 231 480 410 69 89 297 453 309 493 16 51 10 93 -22 149
-36 63 -84 88 -169 88 -132 0 -251 -79 -530 -356 -152 -150 -190 -183 -246
-209 -49 -23 -81 -31 -125 -31 -59 -1 -144 18 -144 31 0 4 34 79 76 166 61
126 77 169 77 205 0 89 -73 159 -167 159 l-46 0 0 2000 0 2000 23 5 c188 48
523 121 528 116 3 -3 30 -109 59 -236 105 -461 127 -544 154 -586 29 -43 53
-59 304 -207 105 -62 164 -102 175 -121 21 -36 117 -439 117 -492 0 -40 -37
-101 -198 -323 -106 -146 -110 -176 -57 -405 50 -214 68 -247 157 -297 50 -27
59 -29 153 -27 160 4 181 -16 232 -225 38 -161 40 -195 12 -242 -27 -44 -41
-54 -112 -80 -69 -25 -121 -68 -148 -122 -36 -70 -35 -119 6 -294 20 -87 43
-173 51 -190 27 -57 83 -97 275 -198 117 -62 200 -111 212 -128 23 -31 127
-460 127 -524 0 -28 -8 -54 -26 -80 -15 -21 -74 -108 -132 -193 -110 -162
-131 -202 -132 -263 0 -37 81 -408 102 -463 17 -45 55 -93 96 -120 52 -34 731
-228 797 -228 90 0 124 24 422 297 239 218 284 263 302 305 37 88 45 40 -153
891 -47 201 -159 685 -250 1075 -91 391 -190 816 -220 945 -30 129 -91 390
-135 580 -44 190 -125 539 -180 775 -55 237 -159 684 -231 994 -72 310 -127
567 -123 571 4 4 152 40 328 80 360 82 418 101 516 165 140 94 253 258 294
430 33 136 25 236 -45 535 -34 146 -107 456 -161 690 -156 672 -166 710 -199
805 -61 173 -172 372 -285 511 l-25 31 58 74 c186 234 332 521 407 802 56 206
69 314 69 572 0 207 -3 258 -22 368 -79 440 -275 835 -566 1145 l-78 82 1726
0 1726 0 0 -948z m-3773 -5678 c61 -262 702 -3019 853 -3669 27 -115 126 -541
221 -945 94 -404 172 -756 172 -783 1 -32 -5 -56 -19 -75 -33 -44 -536 -500
-571 -517 -17 -8 -42 -15 -55 -15 -40 0 -722 199 -747 218 -14 10 -33 29 -43
43 -21 29 -108 394 -108 455 0 40 12 62 136 245 179 265 174 237 105 536 -29
125 -59 249 -67 275 -24 75 -72 113 -284 223 -156 81 -197 107 -215 135 -32
48 -89 306 -82 366 7 62 52 108 125 129 74 22 144 92 166 166 21 69 21 64 -20
246 -38 169 -63 226 -117 267 -55 42 -87 50 -199 51 -164 0 -178 16 -232 262
-33 148 -35 165 -23 200 8 21 70 118 140 216 171 241 167 219 97 520 -29 128
-58 246 -65 262 -24 61 -70 98 -264 212 -213 126 -227 135 -246 173 -24 47
-188 772 -176 779 6 4 201 51 433 106 233 54 551 128 708 165 157 37 289 66
295 65 5 -1 42 -141 82 -311z m6431 -3230 c15 -10 33 -25 40 -33 29 -35 63
-124 76 -196 22 -123 56 -146 306 -206 72 -17 139 -38 149 -47 20 -17 19 -19
-25 -137 -54 -145 -64 -204 -40 -240 19 -28 173 -110 228 -120 92 -17 143 -92
136 -198 -2 -34 -13 -80 -23 -101 -24 -50 -78 -104 -122 -122 -19 -8 -37 -22
-40 -31 -6 -15 10 -428 23 -608 20 -275 173 -474 429 -559 77 -25 81 -30 43
-52 -118 -69 -312 -140 -482 -178 -379 -85 -744 -41 -1088 131 -38 18 -68 37
-68 41 0 4 26 20 58 37 72 38 218 181 261 257 57 102 82 191 89 321 l7 118 66
23 c133 47 268 139 356 245 92 110 112 171 62 186 -31 10 -53 -2 -74 -42 -29
-54 -171 -192 -237 -232 -139 -81 -266 -112 -375 -92 -85 16 -135 42 -192 100
-97 100 -140 238 -148 476 l-5 160 -70 64 c-38 35 -74 75 -79 88 -12 32 4 68
56 124 97 104 194 285 240 448 60 216 173 363 302 396 52 13 99 6 141 -21z
m-14502 -585 c209 -415 324 -772 324 -1006 0 -141 -18 -203 -74 -259 -64 -64
-154 -89 -321 -89 -115 0 -138 4 -203 27 -125 45 -217 105 -322 208 -53 52
-108 111 -122 130 l-25 35 -60 -13 c-123 -25 -214 -6 -261 53 -13 16 -30 53
-38 84 -30 101 7 159 105 169 67 6 90 30 72 75 -110 276 -104 458 16 525 26
14 86 30 164 43 201 32 463 106 599 167 25 11 49 19 54 18 6 -1 47 -76 92
-167z m7075 -445 c10 -9 21 -32 25 -51 7 -39 0 -52 -192 -344 -186 -283 -331
-423 -563 -542 -58 -30 -230 -101 -381 -158 -301 -114 -367 -149 -430 -233
-89 -118 -108 -200 -110 -460 0 -93 -2 -172 -4 -175 -2 -3 -7 -163 -11 -356
-4 -192 -10 -437 -14 -544 l-6 -193 -387 307 c-214 168 -388 312 -388 319 0
21 368 1198 395 1265 71 172 188 374 296 512 76 97 603 639 627 645 13 4 33
-1 47 -10 49 -32 44 -53 -54 -254 -50 -103 -91 -195 -91 -204 0 -23 34 -44
117 -74 125 -44 261 -24 381 56 33 22 104 88 158 147 231 249 446 398 537 372
16 -5 38 -16 48 -25z m-7851 -623 c0 -5 37 -45 81 -90 170 -172 341 -263 546
-293 67 -10 82 -15 79 -28 -3 -8 -10 -60 -16 -115 -6 -55 -15 -131 -20 -170
-33 -251 -61 -510 -56 -529 5 -19 64 -49 341 -171 184 -82 335 -152 335 -156
0 -11 -171 -86 -292 -127 -158 -55 -343 -96 -533 -118 -80 -9 -392 -10 -480 0
-234 24 -497 89 -715 176 -124 50 -306 135 -313 147 -4 6 146 75 341 158 191
81 352 153 358 159 6 6 50 164 99 351 185 715 208 800 219 807 15 10 26 10 26
-1z m6570 -1697 c0 -1016 -1 -1055 -18 -1042 -10 7 -80 62 -156 122 l-138 109
6 121 c3 67 8 243 11 391 3 149 8 326 10 395 2 69 7 240 10 380 4 172 11 274
21 315 26 104 101 197 198 244 22 11 44 20 49 21 4 0 7 -475 7 -1056z m-6977
641 c-3 -13 -10 -28 -17 -33 -6 -5 -183 -82 -394 -172 -244 -105 -387 -171
-393 -183 -20 -37 15 -64 204 -157 282 -137 540 -222 832 -272 110 -18 170
-22 385 -22 164 -1 287 4 345 12 260 39 544 125 744 225 130 65 171 100 153
132 -5 10 -168 89 -373 180 l-364 162 2 43 c1 23 5 45 8 48 7 8 180 -32 330
-75 357 -103 758 -301 1037 -511 136 -101 213 -166 507 -427 300 -265 433
-376 570 -474 129 -92 285 -173 381 -197 239 -60 621 113 860 391 29 33 56 64
60 68 6 7 410 -299 1175 -892 83 -64 444 -344 804 -621 l654 -504 -34 -29
c-19 -16 -95 -73 -169 -126 -825 -600 -1623 -934 -2392 -1002 -184 -16 -545
-6 -713 19 -362 56 -718 176 -1022 345 l-92 51 -6 86 c-3 47 -8 101 -10 120
-2 19 -7 85 -10 145 -3 61 -8 130 -10 155 -3 25 -7 81 -10 125 -3 44 -10 154
-15 245 -6 91 -13 181 -15 201 -2 20 -7 108 -10 195 -8 172 -17 204 -59 204
-50 0 -51 -9 -32 -313 9 -155 19 -307 22 -337 10 -119 54 -785 64 -960 22
-403 23 -420 56 -690 95 -784 124 -1174 124 -1667 1 -547 -20 -659 -147 -793
-73 -78 -165 -131 -258 -150 -56 -12 -380 -8 -530 5 -27 2 -142 7 -255 10
-113 3 -243 8 -290 10 -47 2 -157 7 -245 10 -88 3 -205 7 -260 10 -55 3 -176
7 -270 10 -93 3 -206 7 -250 10 -44 3 -163 7 -265 10 -102 3 -228 8 -280 10
-132 6 -336 14 -525 20 -88 3 -194 7 -235 10 -41 3 -169 7 -285 11 -115 3
-232 8 -260 10 -123 10 -689 12 -770 3 -142 -15 -299 -38 -444 -65 -73 -14
-135 -24 -136 -22 -11 11 83 523 141 767 l26 114 27 -34 c119 -154 267 -245
460 -285 163 -32 295 6 544 158 270 165 465 225 701 215 177 -8 286 15 446 92
53 25 96 56 147 106 60 60 74 80 88 129 20 69 15 119 -20 195 -32 67 -149 185
-229 230 -84 47 -246 97 -410 127 -187 35 -372 31 -509 -10 -136 -40 -197 -73
-401 -209 -104 -70 -190 -126 -191 -125 -45 61 -329 517 -328 528 1 8 24 96
52 195 152 548 290 1181 312 1435 14 170 1 524 -26 690 -2 14 -9 66 -15 115
-6 50 -25 169 -41 265 -30 174 -39 200 -76 200 -12 0 -351 -178 -443 -233
-153 -90 -261 -251 -297 -441 -25 -133 -15 -183 108 -552 60 -181 105 -332
101 -336 -6 -6 -1883 -915 -2311 -1120 -68 -32 -127 -55 -131 -51 -9 10 -79
284 -119 463 -49 222 -99 536 -121 765 -5 61 -13 139 -17 175 -11 110 -7 588
6 715 65 649 247 1057 651 1465 286 288 651 537 1135 774 534 262 1184 485
1940 665 346 82 1015 210 1195 227 36 4 67 8 69 10 2 2 19 4 36 4 29 0 32 -3
28 -25z m5672 -788 c100 -78 611 -483 1138 -901 l957 -759 -229 -236 c-126
-130 -240 -246 -253 -258 l-24 -23 -335 258 c-184 142 -660 509 -1059 816
-399 307 -729 562 -734 567 -8 7 342 678 354 679 3 0 86 -64 185 -143z m7615
-517 c0 -3 -33 -100 -74 -215 -41 -116 -84 -245 -97 -288 l-22 -77 -991 2
-991 3 -42 23 c-54 28 -107 81 -135 135 -18 34 -23 58 -23 127 0 76 3 91 30
138 45 83 123 138 213 151 53 7 2132 8 2132 1z m9835 -27 c139 -75 198 -241
136 -381 -14 -32 -43 -70 -72 -96 -91 -82 43 -76 -1665 -76 l-1523 0 -21 73
c-40 140 -101 323 -135 407 -19 47 -35 90 -35 95 0 7 549 8 1637 5 l1638 -5
40 -22z m-10080 -1117 c138 -4 286 -9 330 -11 44 -2 179 -7 300 -10 121 -3
263 -8 315 -10 52 -2 201 -7 330 -10 129 -3 262 -8 295 -10 33 -2 184 -7 335
-11 151 -4 282 -8 290 -10 8 -1 27 -3 42 -3 15 -1 33 -7 41 -15 8 -8 92 -245
187 -526 153 -453 171 -513 157 -522 -33 -18 -41 -53 -48 -223 -7 -179 -19
-233 -66 -307 -35 -57 -72 -71 -193 -76 -126 -4 -237 11 -490 69 -212 48 -314
55 -395 26 -192 -66 -242 -289 -111 -491 19 -28 62 -79 97 -113 200 -193 667
-386 1014 -418 99 -9 87 -8 442 -66 l323 -53 65 -196 c36 -107 65 -207 65
-221 0 -14 -9 -34 -20 -44 -18 -17 -38 -17 -292 -11 -150 4 -313 9 -363 11
-49 2 -180 7 -290 10 -110 3 -263 7 -340 10 -266 9 -441 15 -770 25 -488 15
-509 16 -532 28 -23 12 9 -80 -664 1927 -255 760 -398 1198 -394 1212 6 24 50
53 75 48 8 -1 128 -6 265 -9z m-14861 -471 c19 -132 40 -303 46 -379 12 -160
12 -424 -2 -541 -22 -193 -150 -775 -263 -1200 -64 -242 -71 -263 -79 -254 -3
4 -197 305 -209 326 -5 7 29 42 92 92 54 44 101 88 105 97 4 11 -43 110 -142
293 l-149 276 84 43 c46 23 86 49 89 57 3 8 -47 172 -111 365 -127 382 -137
431 -115 559 18 108 69 202 154 285 60 59 100 85 261 171 l190 102 7 -26 c5
-14 23 -134 42 -266z m20601 -480 c88 -3 246 -10 350 -15 105 -5 262 -12 350
-15 88 -4 180 -8 205 -10 25 -2 67 -4 93 -5 l48 0 -5 -87 c-3 -49 -8 -144 -11
-213 -29 -623 -112 -1167 -218 -1425 -86 -208 -168 -238 -652 -239 -251 -1
-562 8 -626 19 -13 2 -64 6 -114 10 -249 18 -839 82 -1210 131 -414 55 -1106
160 -1242 188 -38 8 -118 20 -178 26 -302 31 -528 96 -781 226 -141 72 -207
117 -280 189 -138 136 -168 293 -75 386 67 68 144 74 348 29 403 -90 584 -107
714 -69 137 42 219 226 219 496 l0 105 33 -20 c149 -94 252 -244 291 -424 43
-196 175 -342 361 -401 61 -20 231 -38 525 -57 184 -12 1071 -6 1210 9 195 20
263 29 292 37 75 21 120 266 143 769 12 267 17 360 21 367 3 4 10 5 17 3 7 -2
84 -6 172 -10z m-5676 -629 c153 -456 199 -601 189 -607 -18 -11 -279 -74
-408 -98 -389 -73 -754 -105 -1395 -121 -370 -10 -436 -14 -550 -36 -191 -35
-487 -75 -680 -91 -49 -4 -191 -8 -315 -7 -497 1 -720 81 -916 328 -77 96
-164 262 -164 312 0 45 24 91 52 100 34 11 87 6 243 -21 77 -13 178 -29 225
-35 112 -13 489 -14 564 -1 81 14 180 48 210 72 46 36 35 66 -76 211 -33 43
-71 104 -85 135 l-26 56 23 19 c31 25 109 23 191 -5 85 -29 197 -97 362 -220
284 -212 328 -237 432 -237 163 0 438 42 690 107 375 96 690 234 911 400 95
71 230 214 274 290 19 34 38 58 41 55 3 -4 97 -277 208 -606z m-6136 -2986
c-5 -4 -84 -33 -178 -65 -1197 -407 -2537 -980 -3698 -1582 -131 -68 -239
-123 -240 -123 -1 0 -3 118 -3 263 -2 290 -12 465 -50 810 -9 82 -13 151 -10
154 3 3 34 16 70 28 202 71 347 238 386 448 25 129 34 722 17 1052 -8 153 -39
537 -58 700 -5 50 -12 113 -15 140 -3 28 -18 156 -34 285 -16 129 -32 269 -35
310 -4 41 -8 89 -10 105 -2 17 -7 103 -11 192 l-7 161 109 -56 c832 -427 1773
-461 2744 -100 282 105 616 267 880 426 l145 87 3 -1614 c1 -888 -1 -1618 -5
-1621z m-9338 2506 l132 -245 -331 -264 c-182 -145 -578 -460 -879 -700 l-548
-438 -63 134 c-130 273 -244 554 -301 746 l-34 113 172 83 c95 45 456 219 802
385 347 167 693 334 770 371 77 37 142 66 144 64 2 -2 63 -114 136 -249z m285
-1018 c177 -277 329 -509 338 -516 20 -16 46 -8 102 33 141 101 361 241 425
271 86 40 209 71 315 80 152 12 473 -52 623 -125 139 -67 247 -192 247 -286 0
-86 -96 -182 -246 -245 -117 -48 -188 -60 -369 -58 -143 2 -171 -1 -265 -24
-181 -46 -297 -96 -476 -209 -273 -172 -415 -189 -640 -79 -45 22 -104 60
-132 85 -57 52 -874 1065 -870 1080 3 13 600 493 615 494 6 1 156 -225 333
-501z m15773 -325 c4 -54 7 -146 7 -205 l0 -108 -42 -1 c-24 0 -50 -2 -58 -3
-8 -2 -71 -7 -140 -10 -69 -4 -138 -9 -155 -11 -16 -2 -97 -9 -180 -15 -82 -6
-161 -13 -175 -15 -14 -2 -61 -7 -105 -10 -245 -20 -984 -109 -1240 -150 -49
-8 -164 -26 -255 -40 -243 -38 -641 -110 -920 -166 -2772 -563 -5264 -1597
-7426 -3082 -119 -82 -217 -147 -218 -145 -2 2 -16 94 -31 205 l-28 202 25 59
c34 78 66 206 83 337 8 64 19 112 27 117 7 4 144 75 304 158 2265 1168 4672
2014 7149 2514 803 162 1429 261 2335 371 225 27 911 92 986 94 l51 1 6 -97z
m5908 -87 c2042 -285 4044 -802 6019 -1554 1330 -506 4314 -1649 4346 -1663
38 -19 113 -84 103 -92 -2 -2 -65 -39 -139 -82 -879 -508 -1724 -1073 -2325
-1556 -191 -153 -230 -192 -244 -247 -29 -108 52 -191 249 -256 278 -91 672
-122 1440 -113 272 4 506 8 520 11 14 2 107 7 207 11 l181 7 11 -54 c6 -29 22
-111 36 -183 13 -71 72 -375 130 -675 171 -884 174 -910 182 -1430 9 -583 -20
-838 -133 -1192 -29 -89 -39 -109 -57 -112 -12 -3 -107 -15 -212 -26 -104 -12
-206 -23 -225 -26 -19 -2 -134 -15 -255 -29 -121 -14 -236 -27 -255 -30 -19
-3 -233 -27 -475 -55 -242 -28 -474 -55 -515 -60 -41 -5 -217 -26 -390 -45
-173 -20 -328 -38 -345 -40 -37 -5 -210 -25 -350 -41 -33 -3 -67 -8 -77 -10
-13 -2 -17 11 -23 79 -15 184 -73 506 -126 697 -133 478 -366 958 -653 1345
-280 377 -623 708 -1000 964 -573 390 -1205 617 -1926 692 -130 14 -526 17
-670 6 -537 -42 -1053 -183 -1521 -417 -429 -215 -822 -504 -1137 -835 l-111
-117 -5 33 c-9 57 -25 193 -56 484 -17 154 -33 291 -35 305 -2 14 -6 54 -10
90 -5 57 -14 132 -30 275 -3 22 -34 310 -70 640 -36 330 -77 699 -90 820 -61
560 -78 726 -72 731 5 5 134 -32 185 -53 11 -4 13 6 10 43 l-3 49 290 22 c304
23 768 63 1015 88 80 8 215 21 300 30 85 8 193 20 240 25 47 6 189 22 315 36
596 65 1310 159 1519 200 562 109 1223 346 1868 670 231 117 249 132 255 218
5 58 -16 108 -57 138 -27 19 -1193 467 -1595 613 -1302 470 -2765 856 -4155
1096 -135 23 -246 42 -246 43 -2 1 -44 517 -44 539 0 22 3 22 211 -7z m-5900
-468 c0 -90 2 -176 4 -193 2 -16 6 -203 10 -415 3 -212 8 -410 10 -440 2 -30
7 -161 10 -290 3 -129 8 -253 10 -275 2 -22 7 -125 10 -230 4 -104 8 -203 10
-220 2 -16 6 -93 10 -170 13 -290 70 -993 90 -1112 3 -17 2 -33 -2 -36 -4 -2
-111 -7 -238 -11 -126 -4 -349 -11 -495 -16 -146 -5 -337 -12 -425 -15 -88 -3
-216 -7 -285 -10 -69 -3 -195 -7 -280 -10 -156 -5 -339 -11 -590 -20 -255 -9
-425 -15 -575 -20 -140 -5 -254 -9 -565 -20 -69 -3 -201 -7 -295 -10 -93 -3
-217 -8 -275 -10 -58 -2 -188 -7 -290 -10 -102 -3 -234 -7 -295 -10 -60 -3
-186 -7 -280 -10 -286 -9 -696 -23 -875 -30 -63 -3 -196 -7 -295 -10 -99 -3
-232 -8 -295 -10 -63 -3 -187 -7 -275 -10 -1019 -35 -1327 -45 -1367 -47 -26
-1 -50 1 -53 4 -3 3 10 29 30 57 83 124 92 229 51 574 -23 192 -27 214 -60
283 -67 142 -200 247 -353 279 -96 20 -659 21 -754 1 -75 -16 -155 -53 -214
-100 -21 -17 -193 -215 -380 -441 -326 -391 -347 -415 -466 -509 -68 -55 -155
-130 -194 -167 l-70 -67 -230 -7 c-126 -4 -255 -8 -285 -9 l-54 -1 -12 75 c-6
41 -14 96 -17 122 l-6 46 207 145 c1067 744 2194 1367 3407 1884 1852 789
3848 1303 5990 1543 229 25 690 68 820 75 55 4 109 8 120 10 11 2 85 7 165 11
80 4 147 8 149 10 2 2 13 4 23 4 17 0 18 -12 19 -162z m1476 -217 c201 -363
610 -795 1027 -1085 530 -369 1194 -626 1891 -732 94 -14 181 -31 195 -38 32
-15 37 -47 11 -70 -19 -18 -25 -18 -138 -2 -735 104 -1409 356 -1973 737 -438
296 -835 701 -1060 1081 -74 126 -80 145 -52 169 35 27 59 13 99 -60z m4456
19 c1299 -230 2490 -530 3672 -924 428 -143 669 -231 1475 -540 635 -243 637
-243 609 -302 -11 -23 -47 -46 -179 -111 -657 -329 -1339 -573 -1890 -677
-208 -40 -858 -124 -1540 -201 -399 -45 -369 -41 -610 -65 -113 -11 -225 -22
-250 -25 -143 -14 -448 -41 -805 -70 -175 -15 -439 -34 -440 -32 -1 1 -16 193
-34 427 -18 234 -35 439 -36 455 -2 17 -6 68 -10 115 -3 47 -8 110 -11 140 -2
30 -22 287 -44 570 -22 283 -42 540 -45 570 -3 30 -14 174 -25 320 -11 146
-23 291 -26 323 -4 39 -2 57 5 57 6 0 89 -14 184 -30z m-20968 -805 c77 -3
201 -7 275 -10 74 -3 180 -7 235 -10 55 -3 181 -7 280 -10 99 -3 218 -8 265
-10 47 -2 159 -7 250 -10 91 -3 217 -8 280 -10 184 -8 863 -35 888 -35 27 0
30 18 -45 -245 -182 -636 -383 -1105 -555 -1291 -60 -65 -89 -78 -162 -71
-164 14 -346 145 -876 632 -384 352 -581 508 -755 595 -179 90 -297 101 -446
43 -117 -46 -211 -114 -349 -252 -182 -183 -348 -410 -520 -712 -46 -79 -85
-146 -88 -149 -12 -13 59 434 104 644 64 308 169 665 232 795 31 64 8 56 242
86 253 32 353 35 745 20z m2751 -104 l91 -1 17 -92 c77 -421 416 -1029 915
-1638 56 -69 124 -147 150 -175 l48 -50 22 -150 c13 -82 29 -195 37 -250 7
-55 36 -262 64 -460 127 -901 237 -1744 310 -2385 16 -146 32 -283 35 -305 4
-34 33 -342 50 -525 8 -90 24 -374 30 -545 3 -88 7 -180 10 -205 2 -25 7 -85
10 -135 20 -310 87 -1007 160 -1655 55 -485 133 -1141 150 -1265 3 -16 16
-123 30 -237 13 -113 27 -221 30 -240 3 -18 16 -121 30 -228 43 -341 74 -579
105 -809 16 -124 30 -234 30 -246 0 -20 -13 -25 -127 -53 -256 -63 -447 -86
-713 -85 -195 0 -362 14 -498 43 l-47 11 -69 187 c-863 2359 -1723 4955 -2172
6556 l-79 279 198 786 c108 432 197 796 197 808 0 20 -25 43 -47 43 -33 0 -49
-55 -227 -760 -101 -404 -233 -915 -291 -1135 -509 -1913 -901 -3677 -1086
-4890 -97 -636 -168 -1326 -169 -1643 0 -99 -1 -103 -24 -112 -20 -7 -164 -26
-351 -46 -66 -6 -566 -6 -630 0 -27 3 -99 10 -160 16 -60 5 -146 15 -191 21
l-81 12 -7 151 c-4 83 -9 194 -11 246 -8 156 -24 572 -30 770 -3 102 -7 235
-10 295 -3 61 -8 243 -11 405 -4 162 -10 446 -13 630 -8 337 -5 2333 3 2510 2
52 7 212 10 355 4 143 8 303 11 355 3 52 7 169 10 260 9 249 40 882 50 1015 3
33 7 105 10 160 3 55 8 127 10 160 3 33 14 177 25 320 19 238 54 632 65 730 2
22 16 146 30 275 57 517 148 1133 229 1549 22 111 30 132 77 209 167 274 384
534 542 651 32 23 93 59 135 79 147 70 279 55 461 -54 167 -99 346 -246 736
-604 363 -334 532 -467 690 -545 162 -79 273 -82 369 -10 103 80 259 340 381
638 94 231 235 668 314 973 10 39 13 41 44 38 17 -1 73 -3 123 -3z m659 -26
c50 -2 164 -7 255 -10 194 -6 354 -15 359 -20 5 -6 29 -223 47 -435 19 -229
27 -784 13 -920 -19 -185 -61 -365 -93 -398 -11 -11 -26 2 -88 75 -459 541
-825 1160 -929 1570 -44 173 -62 156 159 149 103 -4 228 -9 277 -11z m3458
-1443 c115 -47 222 -177 245 -302 6 -30 21 -146 33 -258 18 -173 20 -212 9
-265 -32 -167 -163 -297 -329 -327 -71 -13 -1844 -18 -1898 -6 l-32 7 62 53
c34 29 103 84 153 124 79 62 136 126 423 472 334 401 382 454 450 486 83 41
114 43 476 41 340 -2 352 -3 408 -25z m24616 -396 c6 -25 11 -64 11 -88 1 -65
-93 -889 -101 -880 -3 4 -13 28 -23 54 -36 97 -117 174 -211 199 -70 19 -208
6 -320 -32 -119 -39 -464 -212 -659 -328 -304 -182 -744 -498 -1034 -740 -73
-61 -142 -111 -153 -111 -30 0 -151 58 -181 87 -58 55 -48 69 183 255 551 442
1281 936 2124 1435 313 186 339 201 346 197 4 -2 12 -24 18 -48z m-11069 -230
c125 -14 300 -42 305 -48 1 -2 7 -55 14 -118 15 -143 13 -119 61 -570 22 -206
54 -496 70 -645 16 -148 46 -416 65 -595 20 -179 38 -336 40 -350 2 -14 6 -54
10 -90 8 -82 111 -1002 164 -1465 90 -778 116 -995 177 -1475 87 -689 96 -774
114 -1150 12 -233 11 -1132 -1 -1375 -4 -82 -10 -211 -13 -285 -9 -191 -31
-549 -41 -670 -3 -30 -7 -86 -10 -125 -9 -128 -39 -469 -50 -575 -2 -25 -7
-70 -10 -100 -2 -30 -12 -117 -20 -193 -8 -77 -15 -141 -15 -143 0 -2 -273 -3
-607 -2 l-608 3 -22 275 c-24 292 -101 1204 -108 1280 -7 64 -25 265 -30 330
-28 327 -118 1253 -150 1535 -46 400 -112 638 -289 1038 -322 726 -506 1267
-621 1817 -99 470 -299 1144 -581 1952 -111 319 -257 716 -274 748 -14 26 -66
27 -78 3 -6 -11 -12 -876 -16 -2103 -3 -1147 -8 -2582 -11 -3190 -3 -608 -8
-1710 -11 -2450 -3 -740 -8 -1347 -11 -1350 -2 -3 -176 -6 -386 -7 -284 -1
-412 2 -500 13 -148 18 -277 46 -353 76 l-59 23 -17 65 c-33 121 -196 813
-262 1110 -247 1112 -419 2141 -476 2850 -6 74 -13 151 -15 170 -2 19 -9 301
-14 625 -9 540 -23 1021 -36 1250 -3 50 -7 153 -10 230 -7 167 -33 707 -40
820 -3 44 -9 166 -15 270 -6 105 -12 222 -15 260 -2 39 -7 115 -10 170 -3 55
-8 129 -10 165 -2 36 -7 108 -10 160 -13 221 -46 739 -50 785 -2 28 -7 100
-10 160 -3 61 -8 138 -11 173 l-6 62 303 0 c312 0 402 3 644 21 331 24 655 85
823 154 255 105 481 179 759 249 505 127 1111 222 1543 243 69 3 127 7 129 10
11 9 540 -8 661 -21z m-5196 -298 c3 -13 16 -90 31 -172 14 -82 30 -155 35
-161 6 -7 43 -13 87 -14 43 -1 80 -7 84 -12 3 -6 7 -41 8 -78 l2 -69 -178 -6
c-261 -10 -434 -15 -648 -21 -924 -25 -1128 -33 -1230 -46 -253 -32 -502 -127
-728 -279 -116 -77 -148 -109 -140 -140 8 -29 33 -40 84 -35 24 2 154 6 289 9
135 4 295 9 355 11 61 2 196 7 300 10 105 3 255 8 335 10 398 13 480 15 670
20 113 3 248 8 300 10 52 2 210 7 350 11 140 3 258 8 262 10 7 4 15 -65 23
-201 11 -180 35 -582 40 -655 15 -241 55 -968 70 -1295 3 -66 8 -158 10 -205
3 -47 9 -206 15 -355 6 -148 13 -313 15 -365 3 -52 10 -389 15 -747 5 -359 11
-656 13 -660 3 -5 8 -62 11 -128 4 -66 9 -131 11 -145 2 -14 7 -54 10 -90 3
-36 13 -125 21 -199 8 -73 13 -135 11 -137 -5 -5 -288 -12 -942 -24 -308 -5
-668 -12 -800 -15 -132 -3 -366 -7 -520 -10 -154 -3 -388 -7 -520 -10 -132 -3
-366 -7 -520 -10 -302 -6 -669 -13 -1050 -20 -132 -3 -379 -7 -550 -10 -170
-3 -398 -8 -505 -10 -107 -3 -352 -7 -545 -10 -192 -3 -426 -7 -520 -10 -93
-3 -327 -7 -520 -10 -192 -3 -431 -7 -530 -10 -99 -3 -328 -7 -510 -10 -181
-3 -427 -7 -545 -10 -118 -3 -345 -7 -505 -10 -159 -3 -398 -7 -530 -10 -132
-3 -366 -7 -520 -10 -154 -3 -398 -8 -542 -11 -148 -4 -263 -3 -263 2 0 5 -9
83 -20 174 -54 457 -121 1136 -150 1525 -6 77 -13 165 -15 195 -5 65 -13 220
-20 415 -18 459 -101 1228 -270 2520 -4 28 -18 131 -31 230 -13 99 -29 212
-34 250 -17 129 -81 590 -87 628 l-6 37 89 1 c49 0 109 2 134 4 25 2 369 6
765 10 1676 12 1656 12 1716 29 31 9 76 24 100 35 37 16 80 20 279 25 129 4
278 9 330 11 52 2 181 7 285 10 105 3 244 8 310 10 66 3 255 10 420 15 286 10
408 14 715 25 297 11 412 15 570 20 326 11 748 25 880 30 74 2 209 7 300 10
91 3 217 8 280 10 140 6 296 11 865 30 242 8 505 17 585 20 236 9 395 14 570
20 91 3 215 8 275 10 61 2 193 7 295 10 102 3 226 8 275 10 50 2 187 7 305 11
118 3 301 10 405 14 105 4 211 8 237 8 42 2 48 -1 52 -20z m-16693 -785 c-16
-164 -32 -329 -35 -368 -4 -38 -9 -90 -11 -115 -8 -65 -43 -535 -51 -670 -3
-63 -8 -118 -10 -121 -2 -4 -30 -17 -61 -29 -32 -13 -125 -55 -208 -95 -616
-293 -1165 -752 -1567 -1312 -163 -226 -366 -592 -463 -833 -141 -353 -237
-733 -281 -1115 -29 -252 -21 -850 13 -969 5 -17 1 -18 -33 -13 -22 4 -219 27
-439 51 -680 77 -1297 146 -1355 152 -140 14 -452 53 -455 56 -10 11 -65 205
-74 263 -6 39 -22 198 -36 355 -13 157 -29 339 -35 405 -37 421 -35 453 51
658 103 243 111 364 49 774 -22 148 -47 314 -55 371 -8 56 -31 209 -50 338
-19 129 -35 257 -35 284 0 152 80 304 205 390 48 33 582 289 960 460 1138 516
2382 966 3577 1294 410 113 422 116 426 101 2 -8 -10 -148 -27 -312z m16960 5
c1 -32 1 -60 -2 -62 -2 -2 -87 -7 -189 -10 -102 -4 -243 -8 -315 -11 -71 -3
-215 -7 -320 -10 -104 -3 -237 -8 -295 -10 -58 -2 -213 -7 -345 -10 -132 -3
-276 -7 -320 -10 -44 -3 -197 -8 -340 -11 -143 -4 -336 -9 -428 -13 -93 -3
-171 -3 -173 1 -9 14 216 129 334 172 212 76 325 91 767 101 132 4 276 8 320
10 44 2 206 7 360 10 154 3 300 8 325 10 25 3 169 7 320 11 151 3 277 8 280
11 6 5 17 -90 21 -179z m2616 -508 c266 -738 523 -1577 619 -2020 158 -726
302 -1151 697 -2050 30 -69 71 -171 90 -227 38 -107 100 -346 111 -425 l7 -48
-93 0 c-92 0 -759 -13 -1287 -25 l-274 -7 7 819 c4 450 8 1349 9 1998 3 1837
7 2274 19 2245 5 -14 48 -131 95 -260z m6453 -600 c74 -6 149 -12 165 -14 159
-22 200 -29 270 -42 1635 -304 2924 -1603 3210 -3234 44 -254 58 -423 58 -710
-1 -425 -53 -779 -174 -1175 -35 -114 -117 -334 -131 -351 -5 -7 -34 -15 -65
-19 -32 -4 -64 -8 -73 -10 -8 -2 -67 -8 -130 -14 -63 -7 -130 -14 -148 -16
-24 -3 -32 0 -29 8 3 7 28 62 55 122 365 810 411 1747 127 2601 -177 532 -448
979 -840 1383 -587 605 -1328 967 -2200 1076 -106 13 -572 17 -695 6 -1050
-96 -1976 -614 -2603 -1458 -42 -57 -78 -100 -80 -95 -3 4 -8 36 -11 72 -4 36
-14 124 -22 195 -8 72 -19 161 -23 199 l-8 70 77 85 c657 731 1561 1198 2525
1305 77 9 165 17 195 19 132 8 426 6 550 -3z m-26154 -499 c-9 -172 -15 -216
-26 -219 -8 -3 -62 -30 -120 -60 -742 -384 -1339 -1025 -1665 -1788 -215 -502
-320 -1100 -286 -1624 31 -469 132 -881 315 -1289 l55 -123 -77 7 c-125 10
-284 26 -326 33 -38 7 -41 10 -68 77 -113 273 -204 613 -249 929 -32 225 -34
266 -34 581 1 320 11 442 61 715 212 1157 940 2173 1976 2758 107 61 447 224
455 218 0 0 -4 -97 -11 -215z m2937 -118 c17 -56 10 -67 -26 -40 -14 10 -14
18 -5 54 7 23 13 41 14 40 1 -1 9 -26 17 -54z m23327 -1026 c748 -131 1398
-616 1728 -1291 148 -300 217 -559 243 -900 15 -207 2 -409 -42 -627 -41 -208
-108 -397 -210 -599 -235 -465 -606 -834 -1069 -1062 -230 -113 -460 -186
-710 -223 -135 -20 -455 -28 -580 -14 -546 61 -1029 287 -1416 661 -403 391
-654 900 -713 1450 -14 122 -14 395 -1 513 51 458 231 889 523 1250 90 112
293 306 415 397 334 252 742 416 1152 464 182 21 500 12 680 -19z m-23601
-264 c379 -209 717 -547 925 -923 34 -60 77 -177 160 -429 133 -406 142 -453
139 -751 -3 -420 -100 -785 -309 -1156 -310 -552 -859 -971 -1478 -1129 -139
-35 -381 -73 -393 -61 -6 5 34 379 40 382 1 0 58 10 127 22 403 73 780 277
1075 583 270 280 437 599 522 996 26 121 27 142 27 383 0 239 -2 263 -27 385
-116 547 -419 993 -878 1292 l-105 68 45 188 c25 103 50 187 55 187 5 0 39
-16 75 -37z m-2734 -585 l-7 -283 -73 -110 c-468 -704 -442 -1628 63 -2301 22
-29 24 -42 28 -195 2 -90 6 -217 9 -281 2 -65 0 -118 -4 -118 -15 0 -247 245
-313 331 -256 330 -424 729 -482 1149 -17 129 -21 444 -6 571 52 443 209 832
483 1194 53 69 292 325 305 325 2 0 1 -127 -3 -282z m2603 106 c385 -246 679
-640 806 -1078 49 -169 69 -324 69 -526 0 -482 -156 -893 -483 -1269 -262
-302 -728 -557 -1107 -606 -64 -8 -61 -27 -28 198 99 666 264 1532 461 2406
60 268 202 879 209 899 6 17 9 16 73 -24z m-2606 -1637 c3 -841 1 -1014 -10
-1000 -33 45 -115 201 -156 297 -51 119 -87 235 -117 382 -27 130 -37 432 -19
583 30 260 129 542 269 769 25 41 26 42 28 15 1 -16 4 -486 5 -1046z m33099
571 c-39 -103 -171 -408 -206 -477 -189 -375 -529 -697 -919 -869 -113 -49
-1600 -553 -1807 -612 -108 -31 -401 -100 -422 -100 -3 0 8 33 23 74 169 439
260 941 260 1438 0 168 3 218 13 218 10 0 1025 117 1172 135 22 3 157 19 300
35 143 17 278 32 300 35 22 3 139 16 260 30 121 14 238 28 260 30 33 4 254 30
435 51 25 3 92 11 150 18 58 8 124 14 147 15 40 1 42 0 34 -21z m-11764 -1004
c12 -104 24 -218 27 -254 4 -36 16 -153 27 -260 10 -107 22 -220 24 -250 3
-30 12 -124 20 -209 8 -85 15 -158 15 -162 0 -5 -404 -9 -900 -9 l-900 0 0 88
c-2 450 2 1207 5 1210 5 5 467 16 1180 28 231 3 421 7 422 8 1 1 15 1 30 1
l28 -2 22 -189z m-3856 -149 c49 -340 147 -916 165 -977 5 -17 -262 -18 -5505
-18 l-5511 0 -4 23 c-3 12 -10 63 -16 112 -12 111 -16 140 -34 285 -9 63 -18
142 -22 175 -3 33 -16 148 -29 255 -13 107 -22 196 -21 197 5 6 237 13 581 18
204 3 469 8 590 10 121 3 702 14 1290 25 589 11 1180 22 1315 25 135 3 367 7
515 10 149 3 376 7 505 10 129 3 377 7 550 10 173 3 401 8 505 10 105 2 359 7
565 10 206 3 436 7 510 10 74 3 315 7 535 10 220 3 454 7 520 10 66 3 298 8
515 11 217 4 784 14 1260 24 476 10 937 17 1024 16 l159 -1 38 -260z m-22056
206 c44 -5 105 -12 135 -16 105 -11 317 -35 755 -85 242 -27 609 -68 815 -91
206 -23 384 -45 396 -49 17 -7 23 -23 33 -90 26 -172 145 -591 211 -746 11
-26 19 -49 16 -51 -10 -10 -229 52 -901 258 -939 288 -924 283 -1039 342 -216
110 -405 288 -521 490 l-27 47 24 0 c13 0 59 -4 103 -9z m5418 -3027 l308 -7
-5 -26 c-3 -14 -30 -204 -61 -421 -101 -718 -108 -765 -116 -780 -6 -10 -9 0
-9 30 -3 95 -26 144 -80 173 -31 16 -53 18 -192 13 -194 -7 -224 -19 -263
-106 -14 -33 -15 -27 -10 105 3 77 7 183 10 235 3 52 7 194 11 315 3 121 7
240 9 265 2 25 4 85 5 134 l0 88 43 -6 c23 -3 181 -9 350 -12z m5722 -96 c33
-155 170 -704 195 -783 67 -208 181 -441 306 -624 36 -52 63 -95 62 -96 -4 -4
-147 -13 -313 -21 -148 -7 -188 -20 -217 -74 -10 -19 -18 -53 -18 -75 0 -54
-23 -85 -61 -85 -26 0 -471 172 -491 189 -3 3 -9 58 -13 121 -14 271 -33 369
-186 947 -65 248 -119 457 -119 462 0 8 69 11 210 11 200 0 436 21 555 49 73
17 83 14 90 -21z m15784 -368 l254 0 -6 -127 c-15 -293 -20 -373 -26 -373 -3
1 -26 30 -51 66 -68 98 -81 104 -280 119 -195 15 -224 11 -269 -40 -16 -19
-32 -31 -34 -27 -7 11 -19 370 -14 379 3 4 43 7 89 6 45 -1 197 -2 337 -3z
m-3754 -95 c109 -15 292 -25 488 -25 l217 0 0 -164 c0 -243 18 -213 -189 -313
-97 -47 -195 -93 -218 -103 l-42 -19 -77 97 c-43 53 -122 141 -175 195 -61 61
-99 108 -103 125 -3 15 -8 71 -11 126 l-7 98 39 -6 c21 -3 56 -8 78 -11z
m-238 -255 c77 -44 236 -202 355 -351 58 -73 110 -129 119 -129 9 0 138 58
285 129 148 71 270 129 271 127 2 -1 12 -46 23 -99 84 -410 158 -1048 131
-1143 -15 -55 -47 -101 -97 -140 -35 -26 -109 -50 -470 -152 -793 -225 -1301
-360 -1499 -398 -137 -27 -396 -24 -540 5 -185 37 -340 99 -445 176 -80 59
-94 80 -94 138 0 184 309 539 767 881 209 156 285 225 652 598 176 178 342
339 369 356 63 41 104 41 173 2z m3870 -60 c70 -6 138 -13 150 -15 14 -3 49
-43 94 -105 81 -115 103 -134 131 -119 17 9 47 65 71 133 9 24 27 10 77 -64
109 -161 226 -395 336 -672 124 -314 344 -1020 344 -1104 -1 -88 -60 -183
-143 -225 -119 -62 -599 -101 -967 -80 -328 20 -463 36 -516 63 -81 40 -144
137 -144 221 0 16 18 127 40 246 71 385 77 457 111 1318 l13 313 62 -60 c65
-62 79 -69 107 -47 19 14 25 40 26 115 1 38 6 57 21 72 23 23 20 23 187 10z
m-21391 -245 c17 -11 22 -29 28 -85 10 -108 32 -139 99 -140 34 0 45 7 97 63
l59 62 -6 -370 c-7 -474 5 -660 74 -1086 23 -141 25 -173 15 -206 -17 -59 -74
-118 -145 -152 -196 -94 -1144 -105 -1334 -15 -28 13 -63 40 -77 59 -65 85
-65 147 3 370 190 620 398 1108 584 1368 35 49 47 48 47 -3 0 -10 12 -32 26
-49 20 -25 34 -31 64 -31 52 0 73 21 118 115 22 44 45 85 54 92 9 8 60 14 139
16 68 1 126 4 129 5 3 1 15 -5 26 -13z m6564 -609 c206 -53 848 -391 1150
-606 249 -177 409 -336 495 -493 41 -75 43 -120 8 -159 -36 -40 -65 -46 -249
-53 -98 -4 -206 -9 -239 -11 -33 -2 -666 -7 -1407 -10 l-1347 -6 -34 21 c-64
39 -68 61 -68 339 0 317 21 510 77 705 50 179 99 257 158 257 8 0 135 -48 282
-106 290 -116 306 -119 378 -75 40 25 63 69 74 142 l7 54 65 7 c111 13 452 23
522 16 37 -4 95 -14 128 -22z"/>
<path d="M32754 44134 c-142 -29 -265 -96 -373 -205 -147 -146 -221 -323 -221
-529 0 -211 83 -397 245 -548 222 -207 563 -253 833 -112 145 75 256 189 327
335 56 115 76 202 76 330 -1 301 -184 578 -457 689 -131 53 -294 69 -430 40z
m361 -118 c220 -80 380 -269 421 -496 56 -313 -124 -626 -422 -731 -51 -18
-80 -21 -216 -20 -109 1 -169 6 -198 16 -191 67 -334 208 -408 403 -24 61 -26
80 -27 217 0 141 2 154 28 220 95 238 306 404 542 423 102 9 198 -2 280 -32z"/>
<path d="M26069 38256 c-73 -28 -116 -55 -167 -110 -190 -201 -116 -522 145
-628 l58 -23 2210 -3 c1592 -2 2225 1 2265 9 124 25 235 112 287 223 25 54 28
72 28 161 0 93 -2 105 -32 166 -39 80 -111 150 -191 187 l-57 27 -2255 2
c-1841 1 -2262 -1 -2291 -11z m4563 -104 c107 -54 171 -155 171 -273 0 -114
-57 -203 -166 -261 l-42 -23 -2225 -3 c-2483 -3 -2286 -8 -2374 69 -60 53 -97
126 -103 204 -11 141 91 277 228 304 24 5 1039 8 2254 7 l2210 -1 47 -23z"/>
<path d="M32355 38200 c-168 -34 -324 -150 -397 -294 -68 -136 -62 79 -65
-2334 -4 -2404 -7 -2258 58 -2391 44 -88 151 -199 237 -244 140 -73 -303 -67
4629 -67 4842 0 4482 -4 4606 55 121 57 235 183 288 318 l24 62 3 2204 c2
1951 1 2211 -13 2265 -48 189 -186 340 -375 408 l-65 23 -4445 1 c-2445 1
-4463 -2 -4485 -6z m8958 -110 c79 -24 175 -87 222 -144 50 -61 93 -160 105
-241 13 -93 13 -4266 -1 -4350 -21 -131 -129 -279 -248 -339 -116 -59 200 -56
-4566 -56 -3016 0 -4400 3 -4445 11 -149 24 -280 124 -347 265 l-38 79 -3
2200 c-2 2425 -7 2246 59 2361 34 61 129 153 187 183 104 53 -198 50 4578 50
4411 1 4432 1 4497 -19z"/>
<path d="M35619 37186 c-2 -2 -148 -6 -323 -10 -176 -4 -322 -9 -325 -10 -3
-2 -64 -6 -136 -10 -199 -10 -429 -35 -514 -57 -346 -87 -1462 -833 -1635
-1093 l-26 -39 0 -285 0 -285 -82 -78 -83 -77 0 -224 c0 -261 -1 -257 104
-337 83 -63 186 -114 316 -156 108 -36 293 -75 351 -75 22 0 34 -5 34 -14 0
-8 21 -56 47 -107 89 -178 257 -314 459 -370 151 -43 336 -26 487 44 167 78
319 249 380 430 6 16 111 17 2007 17 1896 0 2001 -1 2006 -17 4 -10 24 -54 45
-98 70 -144 180 -255 324 -325 212 -104 443 -99 659 13 99 51 236 182 281 268
l29 56 148 7 c82 4 283 6 447 5 l298 -3 44 26 c74 44 130 117 162 212 24 71
25 533 1 639 -48 209 -184 410 -366 540 -191 137 -589 267 -1029 337 -434 69
-587 104 -806 186 -132 49 -348 155 -518 255 -248 145 -650 344 -890 440 -303
120 -474 162 -750 184 -88 7 -1139 17 -1146 11z m1236 -112 c312 -25 889 -255
1456 -580 197 -113 374 -205 479 -249 238 -99 504 -169 800 -210 357 -50 694
-136 925 -237 222 -98 375 -243 466 -444 48 -106 59 -164 59 -321 l0 -143
-138 0 c-123 0 -143 -2 -182 -22 -40 -21 -51 -34 -99 -127 -81 -158 -78 -161
210 -161 121 0 179 -3 179 -11 0 -6 -22 -34 -49 -62 l-50 -52 -342 -3 c-311
-3 -341 -1 -335 13 16 42 25 195 16 272 -14 122 -36 198 -90 308 -148 300
-451 489 -785 488 -247 -1 -445 -83 -621 -258 -177 -176 -266 -392 -261 -638
l2 -87 -1817 0 -1817 0 6 69 c7 86 -11 211 -47 318 -95 287 -349 512 -651 579
-109 24 -273 22 -383 -5 -393 -95 -675 -445 -679 -843 l-1 -97 -25 6 c-63 14
-222 68 -279 94 -74 33 -187 111 -202 139 -6 11 -10 98 -10 205 l0 187 75 71
c53 51 77 81 81 105 6 30 9 32 48 32 89 1 149 48 248 194 106 158 140 245 113
283 -12 16 -34 18 -209 21 -143 2 -196 6 -196 15 0 27 43 79 125 151 l87 76
245 0 c195 0 251 3 280 15 40 17 89 54 208 160 112 100 247 209 315 255 75 51
83 79 45 155 -14 30 -39 65 -55 79 l-30 24 83 45 c123 66 243 114 327 131 147
29 578 61 885 65 99 1 182 5 185 8 6 7 1309 -5 1405 -13z m-2670 -1659 c156
-42 327 -156 421 -281 110 -146 154 -271 161 -456 l6 -128 -37 0 -37 0 5 58
c11 135 -37 319 -115 439 -63 96 -174 194 -279 247 -122 61 -213 80 -354 73
-196 -9 -341 -72 -476 -207 -139 -139 -200 -281 -208 -487 l-4 -123 -29 0
c-38 0 -44 25 -35 153 23 357 287 655 641 723 86 17 256 11 340 -11z m5328 11
c424 -81 711 -491 634 -906 -12 -63 -13 -65 -45 -68 l-33 -3 8 48 c4 26 8 104
7 173 0 107 -4 136 -27 205 -37 113 -90 198 -177 285 -133 133 -280 198 -470
207 -138 7 -236 -12 -356 -72 -253 -124 -410 -389 -398 -671 l3 -74 -34 0 -35
0 0 95 c0 302 149 556 410 698 159 87 340 116 513 83z m-5392 -282 c378 -111
500 -573 224 -849 -318 -318 -865 -93 -865 355 0 147 46 258 149 361 104 104
208 147 357 148 46 1 103 -6 135 -15z m5384 1 c87 -23 152 -62 225 -135 105
-105 150 -213 150 -360 0 -317 -296 -559 -606 -494 -333 69 -506 428 -352 732
104 206 355 316 583 257z"/>
<path d="M35117 36860 c-281 -18 -386 -50 -556 -170 -143 -102 -421 -390 -437
-456 -8 -32 9 -52 55 -63 20 -5 198 -12 396 -16 198 -3 403 -8 455 -10 52 -2
246 -6 430 -10 184 -3 382 -8 440 -11 99 -5 107 -4 134 17 l29 22 -7 216 c-14
462 -14 460 -97 472 -75 11 -707 18 -842 9z"/>
<path d="M36253 36839 c-7 -7 -13 -26 -13 -42 0 -44 109 -584 127 -629 23 -58
45 -65 238 -72 94 -4 222 -9 285 -11 169 -8 899 -33 1167 -41 252 -7 263 -5
263 44 0 39 -72 102 -255 224 -368 245 -727 411 -1015 468 -256 51 -769 89
-797 59z"/>
<path d="M39915 35700 c-15 -24 116 -204 212 -289 100 -90 106 -91 365 -91
205 0 226 2 241 18 21 23 22 74 1 113 -21 41 -82 107 -113 123 -56 29 -407
105 -581 126 -104 12 -117 12 -125 0z"/>
<path d="M26112 36819 c-61 -12 -140 -51 -187 -92 -93 -81 -146 -231 -124
-350 22 -128 109 -241 223 -294 l61 -28 2265 0 2265 0 57 27 c80 37 152 107
191 187 30 61 32 73 32 166 0 89 -3 107 -29 163 -37 81 -131 171 -213 204
l-58 23 -2220 1 c-1221 1 -2239 -2 -2263 -7z m4525 -117 c109 -58 165 -145
165 -260 1 -119 -56 -212 -166 -270 l-51 -27 -2235 0 -2235 0 -57 28 c-107 53
-163 144 -163 267 0 59 5 85 24 120 41 79 108 135 191 161 14 4 1029 7 2255 6
l2230 -2 42 -23z"/>
<path d="M26080 35364 c-188 -51 -311 -240 -279 -433 21 -130 119 -255 237
-303 l57 -23 1275 0 1275 0 58 23 c74 30 165 114 199 184 62 126 55 273 -17
388 -36 56 -120 127 -183 152 l-57 23 -1255 2 c-1081 2 -1263 0 -1310 -13z
m2607 -114 c220 -108 214 -423 -11 -526 l-52 -24 -1253 0 -1253 -1 -52 24
c-62 29 -117 82 -148 146 -18 35 -23 63 -23 121 0 58 5 86 23 121 45 93 131
156 227 168 27 3 597 5 1265 3 l1215 -2 62 -30z"/>
<path d="M25959 31556 c-187 -50 -315 -251 -280 -438 24 -131 121 -252 240
-300 l56 -23 1637 -3 1637 -2 16 24 c15 22 12 46 -8 68 -1 2 -740 5 -1642 8
l-1640 5 -42 23 c-54 28 -107 81 -135 135 -18 34 -23 58 -23 127 0 76 3 91 30
138 34 63 71 97 141 129 l51 23 1555 0 c1385 0 1556 2 1576 16 27 19 29 60 3
74 -30 16 -3112 13 -3172 -4z"/>
<path d="M32582 31558 c-14 -14 -15 -47 -2 -68 8 -13 318 -15 2676 -17 l2667
-3 51 -24 c107 -49 169 -146 170 -261 0 -92 -29 -160 -95 -219 -93 -83 180
-76 -2811 -76 -1821 0 -2675 -3 -2689 -10 -12 -7 -19 -21 -19 -40 0 -19 7 -33
19 -40 14 -7 866 -10 2683 -10 2855 0 2706 -2 2807 49 62 32 138 112 169 179
24 51 27 69 27 162 0 99 -2 110 -33 172 -40 81 -121 158 -202 191 l-55 22
-2675 3 c-2080 2 -2679 -1 -2688 -10z"/>
<path d="M39783 31555 c-126 -34 -253 -134 -312 -244 -62 -117 -62 -115 -59
-934 3 -741 3 -742 26 -801 33 -89 64 -135 129 -197 68 -66 137 -103 225 -124
95 -22 1486 -22 1572 0 182 47 314 178 361 356 12 44 15 183 15 785 0 448 -4
752 -10 785 -33 178 -196 340 -378 378 -36 7 -288 11 -785 10 -597 0 -742 -3
-784 -14z m1629 -117 c111 -52 197 -158 225 -278 15 -66 19 -1375 4 -1477 -20
-134 -101 -247 -220 -306 l-66 -32 -780 0 -780 0 -63 33 c-84 44 -146 108
-185 190 l-32 67 0 771 0 770 38 76 c58 119 164 198 286 215 30 5 383 6 785 3
l731 -5 57 -27z"/>
<path d="M40993 30932 c-10 -9 -146 -223 -303 -475 -170 -273 -290 -456 -298
-454 -8 1 -61 124 -123 286 -59 156 -114 288 -121 293 -22 13 -44 9 -63 -12
-17 -19 -15 -27 80 -277 136 -356 137 -360 178 -379 43 -21 95 -13 125 19 42
45 602 950 602 973 0 22 -25 44 -49 44 -6 0 -19 -8 -28 -18z"/>
<path d="M35275 29946 c-172 -55 -286 -219 -272 -395 14 -185 144 -328 329
-361 37 -7 481 -10 1325 -8 1412 4 1314 -1 1418 72 71 51 122 120 146 199 59
191 -28 391 -206 474 l-60 28 -1320 2 c-1044 1 -1328 -1 -1360 -11z m2708
-110 c64 -31 126 -100 148 -163 8 -21 13 -68 13 -104 0 -112 -59 -204 -167
-261 l-42 -23 -1289 -3 c-1121 -2 -1296 0 -1341 13 -205 59 -276 324 -127 478
39 41 97 75 147 88 17 4 608 6 1315 6 l1285 -2 58 -29z"/>
<path d="M39748 28227 c-123 -42 -215 -121 -277 -236 -62 -117 -62 -115 -59
-934 3 -741 3 -742 26 -801 64 -171 215 -297 387 -325 34 -5 360 -10 755 -10
766 -1 778 0 897 60 74 37 169 132 206 204 59 117 57 92 57 905 0 654 -2 753
-16 801 -42 142 -136 252 -271 317 l-78 37 -780 2 -780 3 -67 -23z m1639 -93
c75 -31 145 -86 187 -147 73 -106 70 -73 74 -850 2 -421 -1 -725 -7 -768 -19
-139 -102 -252 -229 -312 l-67 -32 -765 0 -765 0 -58 23 c-81 33 -168 116
-209 200 l-33 67 0 775 0 775 27 57 c50 108 170 205 280 228 24 4 374 7 778 7
727 -2 736 -2 787 -23z"/>
<path d="M41025 27643 c-8 -10 -151 -236 -318 -503 -217 -346 -309 -485 -322
-485 -14 0 -41 62 -134 303 -73 190 -123 307 -134 313 -25 15 -56 2 -63 -26
-4 -17 28 -112 106 -317 61 -161 119 -306 129 -323 21 -37 55 -55 105 -55 31
0 45 6 70 34 29 32 627 981 642 1019 8 22 -21 57 -48 57 -10 0 -25 -8 -33 -17z"/>
<path d="M36509 26606 c-73 -28 -116 -56 -167 -110 -217 -230 -81 -603 237
-647 43 -6 325 -9 708 -7 708 4 685 2 787 72 65 45 118 114 146 193 31 87 26
203 -13 288 -37 79 -114 156 -191 192 l-61 28 -705 2 c-563 1 -712 -1 -741
-11z m1462 -102 c108 -50 173 -151 173 -269 1 -117 -56 -208 -167 -267 l-42
-23 -695 0 -695 0 -42 23 c-62 33 -106 74 -136 130 -88 162 1 369 181 418 36
10 198 12 712 11 657 -2 666 -2 711 -23z"/>
<path d="M35625 24966 c-167 -42 -284 -175 -301 -345 -19 -173 99 -350 266
-401 64 -20 91 -20 1215 -18 l1150 3 57 27 c80 37 152 107 191 187 30 61 32
72 32 171 0 96 -3 110 -29 165 -34 69 -105 144 -164 174 -102 52 -72 51 -1262
50 -844 0 -1117 -4 -1155 -13z m2361 -118 c99 -52 157 -147 158 -258 2 -128
-75 -238 -193 -278 -26 -9 -321 -12 -1175 -12 l-1141 0 -52 26 c-232 113 -211
452 34 540 31 11 236 13 1178 11 l1140 -2 51 -27z"/>
<path d="M39830 24933 c-178 -30 -326 -154 -392 -329 -23 -59 -23 -60 -26
-801 -3 -821 -3 -816 61 -937 61 -115 192 -216 317 -245 29 -7 313 -11 791
-11 812 0 787 -2 904 57 64 33 165 135 199 201 57 112 56 103 56 899 0 494 -4
749 -11 785 -27 132 -126 262 -248 326 -114 61 -122 62 -911 60 -393 0 -726
-3 -740 -5z m1542 -114 c116 -39 203 -122 250 -236 l23 -58 0 -755 0 -755 -34
-72 c-38 -83 -118 -166 -191 -201 -83 -39 -147 -42 -865 -41 -748 1 -745 0
-847 56 -62 34 -129 107 -165 181 l-28 57 -3 754 c-3 843 -5 809 68 919 45 68
121 125 202 153 49 17 103 18 791 19 720 0 739 -1 799 -21z"/>
<path d="M41043 24342 c-7 -4 -128 -192 -269 -417 -141 -226 -284 -454 -318
-508 -35 -56 -67 -96 -75 -95 -8 2 -64 135 -133 315 -89 232 -125 314 -139
318 -27 9 -57 -3 -64 -24 -5 -16 202 -578 240 -652 32 -61 129 -73 178 -21 19
21 530 827 640 1010 18 30 18 34 3 57 -16 25 -40 31 -63 17z"/>
<path d="M23592 35129 c-54 -27 -92 -88 -92 -149 0 -36 43 -234 145 -665 22
-93 187 -801 396 -1705 50 -212 98 -421 109 -465 17 -73 194 -836 376 -1618
40 -174 78 -326 83 -336 30 -55 122 -99 184 -87 75 14 146 93 147 162 0 27
-193 864 -710 3084 -54 234 -165 708 -245 1054 -81 347 -152 641 -160 655 -42
82 -146 113 -233 70z"/>
<path d="M33482 19608 c-19 -19 -14 -62 14 -146 68 -204 189 -344 369 -428 82
-38 210 -67 236 -54 49 27 23 84 -43 94 -121 19 -252 89 -335 181 -59 65 -132
204 -153 290 -6 27 -16 55 -22 62 -13 16 -50 17 -66 1z"/>
<path d="M34030 13944 c-119 -63 -252 -78 -384 -44 -91 23 -116 17 -116 -31 0
-25 6 -33 34 -44 60 -25 129 -36 221 -36 105 0 182 18 282 66 85 40 108 71 78
105 -24 26 -38 24 -115 -16z"/>
<path d="M29642 13478 c-7 -7 -12 -20 -12 -29 0 -10 49 -93 108 -186 207 -320
371 -605 526 -913 220 -435 341 -774 371 -1035 8 -68 18 -85 50 -85 53 0 58
50 25 221 -71 366 -289 862 -643 1464 -110 188 -295 479 -340 538 -30 38 -62
48 -85 25z"/>
<path d="M9979 17886 c-2 -3 -63 -6 -134 -7 -406 -6 -684 -66 -1160 -249 -321
-124 -942 -414 -1013 -475 -91 -77 -110 -200 -53 -337 43 -101 102 -167 189
-210 l67 -33 535 0 c579 0 605 2 830 57 210 51 417 138 602 255 140 88 1087
788 1097 811 18 38 13 70 -16 102 -27 29 -34 31 -153 45 -210 24 -779 53 -791
41z m476 -112 c110 -6 378 -33 383 -39 4 -4 8 -1 -558 -415 -228 -167 -448
-325 -489 -352 -154 -101 -396 -203 -590 -249 -178 -43 -271 -49 -799 -49
-495 0 -503 0 -549 22 -62 29 -103 73 -137 144 -52 107 -45 187 21 244 19 17
38 30 43 28 4 -2 31 -31 59 -65 85 -102 171 -131 321 -110 30 4 161 21 290 38
351 45 504 83 725 181 152 67 259 134 630 397 l340 241 110 -5 c61 -3 151 -8
200 -11z"/>
<path d="M8305 15159 c-268 -16 -521 -48 -675 -85 -187 -46 -305 -158 -339
-325 -26 -124 38 -418 132 -604 138 -277 390 -465 689 -516 95 -16 153 0 216
57 43 38 55 58 99 171 137 348 245 768 267 1036 11 146 -79 260 -214 270 -25
2 -103 0 -175 -4z m-101 -161 c14 -127 18 -471 7 -628 -18 -249 -82 -627 -108
-637 -21 -8 -152 36 -235 79 -251 130 -416 389 -473 743 -19 115 -19 162 0
216 36 101 107 164 225 199 80 25 274 58 383 66 45 4 84 8 86 10 2 2 28 4 56
4 l52 0 7 -52z"/>
<path d="M37640 15644 c-166 -20 -218 -28 -308 -50 -430 -101 -818 -345 -1096
-688 -400 -494 -541 -1146 -380 -1762 174 -670 705 -1217 1368 -1408 486 -141
987 -98 1441 123 215 105 378 225 555 407 273 282 443 604 525 994 36 170 46
486 21 660 -132 906 -825 1589 -1741 1715 -55 7 -342 14 -385 9z m375 -106
c648 -87 1184 -466 1473 -1043 137 -275 197 -536 196 -855 -2 -390 -106 -729
-323 -1051 -520 -774 -1545 -1057 -2381 -658 -201 96 -348 199 -514 359 -399
386 -599 888 -575 1445 12 277 70 506 189 750 283 576 849 978 1483 1054 96
12 364 11 452 -1z"/>
<path d="M29573 8820 c-12 -5 -24 -19 -28 -31 -9 -28 0 -37 260 -248 159 -130
217 -171 238 -171 32 0 51 33 36 62 -9 17 -410 349 -459 380 -17 11 -32 13
-47 8z"/>
<path d="M30874 7996 c-752 -254 -1404 -388 -1844 -382 -201 3 -287 17 -394
62 -80 35 -107 36 -122 5 -18 -35 -4 -54 65 -85 330 -148 974 -90 1881 169
258 74 632 195 683 221 34 18 36 56 5 78 -12 9 -25 15 -28 14 -3 -1 -113 -38
-246 -82z"/>
<path d="M34177 8170 c-166 -4 -190 -7 -202 -23 -16 -22 -9 -54 15 -67 10 -6
152 -7 355 -3 308 6 340 8 356 24 18 18 17 40 -4 67 -10 13 -138 13 -520 2z"/>
<path d="M34985 7464 c-326 -76 -813 -82 -1193 -14 -128 23 -152 18 -152 -30
0 -38 15 -45 126 -64 269 -45 617 -64 850 -45 203 16 496 71 530 100 17 14 18
51 2 67 -16 16 -45 14 -163 -14z"/>
<path d="M11952 8064 c-24 -17 -29 -53 -10 -72 9 -9 95 -12 324 -12 271 0 315
2 328 16 22 22 20 50 -6 68 -19 14 -67 16 -318 16 -251 0 -299 -2 -318 -16z"/>
<path d="M11687 7485 c-41 -40 -11 -72 92 -96 293 -68 608 -75 872 -19 151 32
184 55 160 107 -13 29 1 29 -186 -12 -219 -48 -525 -46 -765 6 -155 33 -155
33 -173 14z"/>
<path d="M18916 8354 c-19 -19 -20 -35 -3 -56 10 -14 165 -118 637 -426 52
-34 102 -62 111 -62 9 0 24 9 35 21 17 18 17 23 4 45 -17 28 -725 494 -751
494 -10 0 -25 -7 -33 -16z"/>
<path d="M20340 7499 c-397 -31 -1418 -45 -1935 -26 -110 4 -267 10 -350 12
-82 3 -173 8 -202 11 -43 4 -55 2 -72 -15 -50 -50 -15 -77 109 -85 322 -21
1729 -30 2130 -13 237 9 450 27 472 38 48 26 21 92 -36 87 -17 -2 -69 -6 -116
-9z"/>
<path d="M15782 40144 c-37 -25 -27 -51 51 -131 89 -93 101 -99 133 -78 42 27
31 54 -60 143 -46 45 -88 82 -93 82 -5 0 -19 -7 -31 -16z"/>
<path d="M16568 40151 c-17 -6 -168 -166 -168 -177 0 -22 24 -44 48 -44 39 0
185 147 180 180 -4 28 -37 50 -60 41z"/>
<path d="M15849 39433 c-90 -87 -104 -117 -69 -145 12 -10 27 -18 32 -18 6 0
48 37 94 82 100 97 108 127 40 152 -14 5 -37 -12 -97 -71z"/>
<path d="M16420 39490 c-11 -11 -20 -24 -20 -30 0 -10 103 -133 138 -164 25
-22 71 -24 83 -5 21 33 7 57 -75 137 -46 45 -89 82 -95 82 -6 0 -20 -9 -31
-20z"/>
<path d="M13289 39207 c-103 -29 -181 -96 -228 -197 -20 -44 -25 -70 -26 -135
0 -71 4 -88 33 -147 38 -77 92 -130 171 -166 80 -37 193 -38 271 0 81 38 134
89 172 165 29 58 32 76 32 147 0 95 -28 167 -89 235 -78 86 -226 129 -336 98z
m165 -98 c53 -15 138 -100 154 -155 37 -125 -17 -245 -133 -300 -158 -75 -345
45 -345 220 0 65 17 110 60 159 70 79 160 105 264 76z"/>
<path d="M19108 35498 c-12 -10 -18 -40 -22 -124 -6 -100 -5 -114 13 -135 16
-20 23 -22 47 -14 l29 10 3 122 c2 100 0 124 -13 137 -20 19 -36 20 -57 4z"/>
<path d="M19460 34940 c-24 -24 -24 -29 -4 -58 14 -21 23 -22 129 -22 120 0
145 9 145 50 0 41 -25 50 -141 50 -96 0 -111 -2 -129 -20z"/>
<path d="M18538 34924 c-9 -18 -9 -30 -1 -42 8 -14 31 -17 136 -20 120 -2 127
-2 138 19 8 16 8 28 0 45 -10 23 -14 24 -136 24 -125 0 -125 0 -137 -26z"/>
<path d="M19092 34578 c-17 -17 -17 -239 0 -256 14 -14 47 -15 68 -2 19 12 28
217 11 249 -13 24 -59 29 -79 9z"/>
</g>
</svg>
