<?xml version="1.0" standalone="no"?>
<!DOCTYPE svg PUBLIC "-//W3C//DTD SVG 20010904//EN"
 "http://www.w3.org/TR/2001/REC-SVG-20010904/DTD/svg10.dtd">
<svg version="1.0" xmlns="http://www.w3.org/2000/svg"
 width="5209.000000pt" height="5210.000000pt" viewBox="0 0 5209.000000 5210.000000"
 preserveAspectRatio="xMidYMid meet">

<g transform="translate(0.000000,5210.000000) scale(0.100000,-0.100000)"
fill="#000000" stroke="none">
<path d="M12790 45109 c-980 -49 -2089 -592 -3128 -1532 -182 -165 -536 -527
-686 -702 -905 -1056 -1552 -2555 -1725 -3995 -34 -277 -44 -443 -45 -735 -1
-391 9 -568 55 -895 57 -408 163 -809 314 -1195 81 -209 159 -381 345 -765 84
-173 179 -376 212 -450 291 -652 409 -1202 412 -1905 1 -280 -4 -377 -30 -604
-45 -397 -124 -746 -275 -1222 -124 -390 -154 -506 -178 -694 -24 -190 -33
-515 -17 -655 4 -30 9 -77 12 -105 2 -27 9 -86 15 -130 l10 -80 -98 -100
c-365 -372 -574 -794 -692 -1395 -52 -266 -71 -503 -66 -825 8 -468 75 -878
212 -1300 211 -648 556 -1180 994 -1528 l96 -77 -8 -60 c-5 -33 -24 -183 -43
-333 -45 -351 -125 -973 -131 -1012 -2 -16 -11 -86 -20 -155 -19 -145 -6 -120
-205 -420 -303 -457 -478 -761 -643 -1115 -206 -444 -337 -842 -388 -1181 -30
-196 -23 -428 16 -559 35 -118 75 -191 142 -259 63 -63 130 -104 223 -134 83
-28 308 -82 337 -82 12 0 24 -4 27 -9 3 -5 1 -44 -5 -87 -5 -44 -21 -164 -34
-269 -14 -104 -42 -327 -64 -495 -22 -168 -67 -519 -100 -780 -34 -261 -63
-488 -66 -505 -2 -16 -54 -417 -115 -890 -60 -473 -126 -984 -145 -1135 -20
-151 -40 -305 -45 -342 -15 -102 -12 -177 10 -264 28 -110 73 -194 147 -274
80 -87 155 -136 263 -174 79 -28 97 -30 260 -34 121 -3 180 -8 190 -17 12 -10
913 -14 4540 -19 2489 -3 5678 -6 7088 -6 l2563 0 -4 -1488 c-3 -1482 -3
-1487 -25 -1586 -32 -147 -67 -247 -133 -381 -132 -267 -333 -489 -599 -665
-135 -88 -174 -107 -734 -345 -275 -117 -757 -322 -1071 -455 -313 -133 -643
-273 -732 -311 -200 -84 -200 -84 -243 -124 -20 -19 -48 -35 -65 -37 -52 -5
-54 -16 -52 -432 2 -365 3 -383 23 -426 29 -60 87 -117 154 -149 l55 -26 3470
0 c3294 0 3476 1 3585 18 136 21 291 58 415 99 103 33 116 39 1395 575 531
223 972 407 980 410 13 3 15 -20 15 -169 0 -197 10 -250 74 -383 73 -154 196
-279 353 -361 114 -58 200 -79 383 -93 83 -7 175 -14 205 -16 30 -3 177 -14
325 -25 149 -11 360 -27 470 -35 294 -22 312 -24 405 -30 47 -3 108 -8 135
-10 316 -29 1680 -127 1775 -128 91 -1 144 4 195 18 290 75 515 285 601 557
15 49 20 57 38 53 97 -23 2130 -315 2191 -315 41 0 110 7 152 16 173 35 303
105 434 231 l86 83 572 0 571 0 0 -32 c0 -66 21 -110 77 -165 198 -194 894
-358 1858 -437 182 -15 230 -19 500 -37 186 -13 1480 -20 1705 -9 198 10 355
19 430 25 30 2 93 7 140 10 168 12 419 37 610 61 724 91 1192 221 1368 379 59
53 73 74 82 128 4 21 4 1393 -1 3050 -4 1657 -10 4139 -13 5517 -3 1378 -9
2701 -12 2941 l-6 436 89 21 c119 27 199 59 234 91 l28 26 3 658 c2 361 2 657
0 657 -1 0 -24 -11 -50 -24 -114 -58 -437 -120 -812 -156 -63 -6 -133 -13
-155 -15 -138 -15 -662 -51 -885 -60 -74 -3 -171 -8 -215 -10 -44 -2 -165 -7
-270 -10 -104 -3 -246 -8 -315 -10 -514 -18 -1983 -12 -2375 10 -38 2 -155 6
-260 10 -104 3 -208 8 -230 10 -22 2 -96 7 -165 10 -341 16 -854 60 -1120 96
-344 47 -538 98 -607 162 l-23 20 0 -657 0 -658 33 -32 c38 -39 114 -69 257
-103 58 -14 111 -27 119 -29 12 -4 13 -213 7 -1377 -3 -754 -8 -2823 -11
-4597 -3 -1774 -8 -3807 -11 -4517 l-6 -1293 -544 0 -544 0 29 58 c45 90 68
176 97 373 39 269 27 392 -56 565 -72 148 -197 282 -333 355 -45 24 -57 35
-52 47 4 10 16 51 28 92 18 63 21 102 21 250 0 161 -2 182 -28 265 -54 180
-124 301 -251 433 -131 138 -290 231 -483 284 -115 32 -372 32 -491 0 -436
-119 -740 -483 -768 -922 l-6 -95 -381 57 c-209 31 -382 57 -384 57 -1 1 -1
2801 0 6223 l3 6223 22 57 c45 118 120 206 224 262 108 60 -112 56 3220 56
3044 0 3067 0 3132 -20 151 -47 275 -176 316 -327 7 -27 12 -148 12 -333 l0
-290 49 0 50 0 0 283 c0 313 -7 362 -63 476 -46 94 -150 197 -247 245 -146 71
116 66 -3285 63 l-3070 -2 -71 -26 c-184 -68 -321 -217 -369 -404 -13 -52 -15
-445 -15 -3432 l0 -3373 -7880 0 -7880 0 -4 22 c-3 13 -17 194 -31 403 -14
209 -28 396 -30 415 -2 19 -7 80 -10 135 -3 55 -8 123 -10 150 -2 28 -7 85
-10 128 -11 159 -15 226 -25 362 -6 77 -13 172 -15 210 -3 39 -10 131 -15 204
-6 74 -10 140 -10 147 0 7 27 14 68 18 37 4 135 20 217 37 584 117 1225 387
1950 822 157 94 445 283 552 361 75 55 73 41 43 286 -11 91 -38 327 -60 525
-22 198 -42 370 -43 382 -4 24 -6 25 105 -25 86 -39 262 -96 358 -116 425 -86
870 -13 1235 205 436 259 1475 1287 2780 2749 634 711 1515 1738 2193 2558
l225 273 23 -54 c50 -125 168 -273 279 -352 132 -95 265 -138 415 -138 211 1
384 100 509 289 75 113 121 276 121 429 0 110 -30 230 -135 536 -66 195 -95
293 -92 314 2 16 30 127 60 245 137 523 207 999 207 1400 0 613 -178 956 -537
1036 -82 18 -251 15 -343 -7 -62 -14 -156 -61 -215 -105 -27 -21 -50 -34 -53
-28 -2 5 -157 459 -346 1009 -218 639 -338 1002 -331 1007 5 3 491 178 1079
389 l1068 382 2842 -486 c1562 -268 2896 -494 2964 -503 148 -20 435 -14 547
11 555 124 945 545 1130 1221 102 374 142 746 132 1244 -10 499 -73 1012 -191
1558 l-33 152 2001 0 c1357 0 2015 -4 2046 -11 197 -46 487 -47 709 -4 59 12
194 15 716 15 402 0 673 -4 722 -11 369 -50 662 -318 729 -666 18 -94 18 -142
-1 -279 -31 -227 -76 -555 -139 -1014 -67 -483 -122 -889 -176 -1285 -17 -121
-35 -249 -40 -285 -5 -36 -25 -180 -44 -320 -39 -287 -88 -642 -140 -1020 -20
-140 -54 -388 -76 -550 -22 -162 -47 -342 -55 -400 -8 -58 -31 -220 -50 -360
-19 -140 -62 -453 -95 -695 -33 -242 -67 -492 -76 -555 -8 -63 -24 -176 -34
-250 -11 -74 -31 -220 -45 -325 -14 -104 -39 -284 -55 -400 -16 -115 -45 -327
-65 -470 -19 -143 -44 -323 -55 -400 -17 -122 -57 -411 -205 -1495 -19 -140
-42 -302 -50 -360 -8 -58 -58 -418 -110 -800 -52 -382 -101 -742 -110 -800 -8
-58 -37 -271 -65 -475 -28 -203 -53 -380 -55 -392 -5 -21 -2 -23 44 -23 l50 0
6 43 c3 23 16 121 30 217 25 178 158 1151 220 1605 19 138 64 462 99 720 36
259 88 634 115 835 28 201 78 563 111 805 33 242 92 670 130 950 38 281 79
573 90 650 23 166 32 235 105 765 30 223 57 419 60 435 2 17 11 84 20 150 9
66 25 181 36 255 10 74 41 299 69 500 27 201 68 498 90 660 22 162 49 358 60
435 11 77 24 176 30 220 6 44 28 208 50 365 22 157 58 418 80 580 43 319 86
628 149 1085 208 1500 203 1463 198 1590 -4 93 -11 139 -32 205 -95 298 -329
520 -650 617 l-90 28 -570 5 c-563 5 -569 5 -525 23 81 33 240 128 339 202
162 122 308 275 421 443 l42 63 457 -2 c550 -1 605 -8 785 -96 203 -99 377
-291 452 -497 60 -167 67 -301 29 -591 -36 -281 -84 -644 -90 -690 -3 -22 -25
-195 -50 -385 -25 -190 -54 -412 -65 -495 -11 -82 -29 -222 -40 -310 -12 -88
-30 -227 -41 -310 -11 -82 -33 -253 -50 -380 -16 -126 -39 -300 -50 -385 -11
-85 -24 -186 -29 -225 -5 -38 -19 -142 -30 -230 -11 -88 -25 -196 -31 -240 -5
-44 -12 -91 -14 -105 -2 -14 -16 -115 -30 -225 -14 -110 -27 -213 -30 -230 -2
-16 -22 -172 -45 -345 -44 -339 -46 -355 -121 -925 -27 -209 -56 -429 -64
-490 -8 -60 -53 -405 -100 -765 -106 -810 -102 -784 -169 -1300 -31 -234 -65
-495 -76 -580 -11 -85 -27 -206 -35 -268 -8 -61 -22 -165 -30 -230 -21 -154
-22 -163 -35 -262 -6 -47 -12 -98 -15 -115 -2 -16 -9 -68 -15 -115 -6 -47 -12
-98 -15 -115 -4 -29 -47 -361 -65 -500 -5 -38 -27 -207 -49 -375 -47 -354 -52
-393 -132 -1005 -62 -483 -74 -570 -139 -1065 -22 -168 -42 -325 -45 -350 -3
-25 -13 -92 -20 -149 -8 -57 -13 -107 -10 -109 2 -3 44 -6 92 -8 49 -2 210 -8
358 -14 260 -10 306 -13 498 -25 l87 -6 1 28 c0 15 2 37 4 48 2 11 13 92 24
180 11 88 32 248 46 355 24 191 92 716 140 1095 14 105 45 348 70 540 25 193
65 510 90 705 25 195 52 407 61 470 27 208 85 662 105 825 11 88 22 171 24
185 2 14 13 99 25 190 11 91 23 181 25 200 16 119 110 850 140 1085 19 154 37
296 40 315 2 19 14 107 25 195 11 88 22 174 25 190 2 17 13 102 24 190 12 88
30 230 41 315 11 85 42 333 70 550 27 217 52 409 55 425 3 23 200 1554 265
2065 6 47 20 153 30 235 21 163 94 731 135 1050 14 110 27 214 30 230 5 36 79
615 141 1100 24 193 46 364 48 380 71 486 77 628 37 787 -47 182 -117 304
-251 438 -135 135 -276 210 -453 240 -63 11 -1529 7 -1854 -6 l-142 -5 44 94
c57 121 108 275 137 419 20 98 23 143 23 338 0 193 -3 241 -23 336 -175 869
-938 1478 -1817 1449 -1117 -36 -1932 -1061 -1718 -2160 19 -102 81 -290 127
-390 20 -43 35 -80 33 -82 -2 -2 -691 -4 -1530 -6 l-1527 -2 -89 265 c-648
1931 -1745 3848 -3004 5250 -168 187 -565 584 -732 732 -1253 1110 -2362 1449
-3107 951 -227 -152 -385 -353 -555 -703 -52 -107 -624 -1309 -1271 -2670
l-1178 -2475 -963 -687 -964 -688 -2114 0 -2115 0 22 38 c352 590 576 1317
609 1981 9 181 2 508 -13 588 -2 10 -7 50 -11 88 -10 107 -52 325 -92 480
-177 691 -570 1383 -1067 1879 -471 470 -999 749 -1579 833 -181 26 -506 24
-694 -5 -740 -115 -1449 -508 -2073 -1148 -538 -552 -908 -1196 -1061 -1844
-34 -143 -76 -386 -99 -565 -11 -93 -23 -186 -25 -205 -78 -616 -189 -890
-474 -1170 -121 -118 -237 -201 -389 -278 -147 -75 -252 -114 -515 -191 -114
-34 -247 -77 -295 -95 -204 -78 -380 -184 -542 -327 l-89 -79 -150 0 c-85 0
-151 4 -151 9 0 17 98 156 164 231 85 98 172 176 456 410 323 266 425 356 572
509 318 327 506 646 624 1053 59 206 77 329 78 528 0 234 1 227 -132 740 -50
192 -64 291 -63 447 2 433 187 888 517 1272 219 255 469 458 1044 846 491 332
691 500 832 700 190 269 230 580 116 903 -132 376 -481 762 -960 1062 -147 92
-461 249 -608 303 -257 94 -543 154 -780 163 -74 3 -146 6 -160 7 -14 2 -90 0
-170 -4z m375 -99 c351 -30 658 -119 994 -286 660 -328 1123 -806 1252 -1291
28 -104 31 -308 5 -403 -48 -178 -129 -305 -305 -481 -142 -141 -284 -250
-636 -489 -516 -351 -680 -476 -904 -695 -387 -378 -595 -755 -688 -1247 -12
-66 -17 -143 -17 -268 0 -202 14 -287 93 -576 87 -317 102 -406 102 -594 1
-368 -137 -796 -368 -1145 -183 -276 -377 -474 -819 -836 -439 -360 -590 -512
-689 -701 l-35 -67 -343 -3 c-325 -4 -345 -5 -407 -27 -99 -34 -188 -92 -261
-168 -108 -112 -156 -216 -178 -388 -7 -49 -25 -191 -41 -315 -160 -1245 -201
-1565 -210 -1625 -5 -38 -28 -214 -50 -390 -46 -359 -57 -437 -59 -414 0 8
-12 116 -26 240 -42 386 -81 872 -110 1399 -37 660 -27 1764 20 2335 2 28 6
82 10 120 149 1844 579 3517 1280 4972 360 746 860 1513 1279 1961 42 45 76
86 76 92 0 28 -22 50 -49 50 -24 0 -45 -18 -121 -102 -337 -374 -699 -896
-1009 -1456 -705 -1271 -1206 -2840 -1440 -4507 -22 -154 -42 -309 -46 -345
-4 -36 -8 -76 -10 -90 -5 -30 -43 -420 -50 -505 -2 -33 -7 -96 -10 -140 -3
-44 -8 -100 -10 -125 -3 -25 -7 -103 -10 -175 -4 -71 -9 -150 -12 -175 -9 -83
-12 -1442 -3 -1640 16 -355 37 -715 55 -935 32 -390 91 -959 129 -1248 10 -73
12 -128 6 -170 -5 -34 -11 -82 -14 -107 -3 -25 -24 -182 -46 -350 -21 -168
-46 -361 -55 -430 -9 -69 -24 -190 -35 -270 -10 -80 -40 -311 -66 -515 -26
-203 -50 -374 -54 -378 -4 -4 -65 -29 -136 -56 -183 -68 -389 -161 -529 -239
-112 -61 -339 -209 -412 -268 l-32 -26 -6 24 c-13 49 -32 299 -34 435 -3 238
27 508 79 713 11 41 56 190 101 330 173 544 249 881 304 1341 43 363 30 940
-31 1324 -65 419 -207 865 -410 1294 -35 73 -64 135 -64 136 0 1 -48 101 -106
221 -149 308 -227 476 -299 649 -229 550 -355 1106 -400 1769 -7 112 -8 581
-1 673 3 37 11 129 17 203 109 1361 680 2833 1524 3933 297 387 754 852 1180
1202 703 576 1446 979 2124 1151 347 88 702 120 1016 94z m16857 -1720 c993
-94 2272 -1055 3463 -2600 130 -169 372 -507 521 -730 1626 -2425 2596 -5390
2379 -7277 -91 -790 -385 -1341 -842 -1575 -198 -102 -362 -141 -598 -141
-565 -1 -1243 305 -1970 888 -1381 1108 -2753 3074 -3655 5239 -740 1778
-1059 3529 -854 4699 121 693 393 1150 814 1366 148 76 267 110 475 134 63 8
164 7 267 -3z m-1662 -1535 c-10 -61 -21 -144 -25 -185 -4 -41 -11 -113 -16
-160 -10 -113 -3 -807 10 -940 24 -240 58 -490 97 -720 267 -1573 1008 -3430
2016 -5053 730 -1174 1566 -2170 2403 -2863 343 -283 696 -517 1029 -680 60
-30 105 -54 100 -54 -5 0 -85 14 -179 30 -93 17 -327 57 -520 90 -192 32 -453
77 -580 99 -126 22 -336 58 -465 80 -129 22 -629 107 -1110 190 -481 82 -981
168 -1110 190 -1400 238 -1397 237 -1602 343 -230 118 -437 277 -694 533 -828
825 -1475 2092 -1648 3225 -31 206 -40 325 -40 555 0 262 14 395 60 573 31
121 37 133 291 667 116 242 299 627 408 855 108 228 220 462 247 520 28 58 70
146 93 195 23 50 67 142 97 205 31 63 142 297 248 520 106 223 216 455 245
515 29 61 139 292 245 515 106 223 224 470 262 550 38 80 88 184 110 233 23
48 42 86 44 84 1 -1 -6 -52 -16 -112z m-10578 -11 c566 -77 1059 -332 1522
-784 618 -604 1054 -1482 1156 -2325 6 -49 13 -103 16 -120 13 -75 12 -547 -1
-680 -52 -539 -196 -1036 -441 -1529 -104 -208 -190 -353 -214 -359 -11 -3
-983 -6 -2161 -7 l-2141 -1 78 113 c546 791 1157 1566 1686 2139 95 103 111
132 86 157 -27 27 -56 12 -141 -77 -479 -504 -1246 -1479 -1763 -2243 l-59
-88 -550 0 c-302 0 -1135 -3 -1850 -6 l-1300 -6 45 41 c68 61 205 153 299 200
123 62 209 94 482 176 353 106 489 162 659 273 115 74 208 152 311 258 266
278 382 571 454 1159 58 464 108 742 175 965 325 1077 1267 2110 2322 2549
240 99 565 182 803 204 116 11 423 6 527 -9z m23036 -4439 c400 -113 764 -217
809 -231 93 -28 113 -47 113 -109 0 -33 -6 -47 -32 -72 -32 -30 -1228 -943
-1297 -990 -48 -33 -86 -30 -125 10 -31 32 -33 37 -105 432 -40 220 -100 543
-132 717 -32 174 -59 330 -59 346 0 44 49 98 93 101 4 1 335 -91 735 -204z
m-14799 -182 c-21 -56 -59 -234 -75 -354 -18 -136 -24 -435 -11 -594 48 -615
240 -1276 561 -1930 342 -695 725 -1239 1193 -1695 323 -315 599 -501 895
-605 l118 -41 -648 -231 c-356 -127 -1290 -462 -2077 -743 -1894 -678 -1672
-604 -1775 -598 -748 44 -1913 1702 -2134 3038 -25 151 -36 275 -36 420 0 306
67 520 201 646 24 22 523 382 1109 800 586 417 1429 1019 1874 1337 445 317
810 577 812 577 2 0 -1 -12 -7 -27z m13207 -1340 c88 -126 309 -348 432 -433
50 -36 145 -93 210 -127 l117 -63 -1861 0 -1861 0 -43 168 c-23 92 -66 252
-96 356 -30 104 -54 190 -54 192 0 2 695 4 1544 4 l1544 0 68 -97z m-15196 63
c-8 -7 -227 -165 -487 -350 l-472 -336 -2941 0 -2940 0 -118 39 c-397 133
-797 130 -1288 -10 l-102 -29 -2234 0 c-2476 0 -2280 5 -2428 -67 -135 -66
-262 -218 -298 -358 -6 -22 -27 -159 -47 -305 -101 -742 -166 -1216 -180
-1310 -14 -103 -252 -1832 -280 -2040 -8 -58 -28 -204 -44 -325 -17 -121 -36
-260 -43 -310 -6 -49 -14 -93 -17 -97 -3 -4 -98 -32 -211 -62 -113 -30 -272
-75 -355 -100 -82 -25 -151 -43 -153 -41 -4 4 7 106 47 415 26 194 35 268 115
895 36 281 70 542 76 580 5 39 26 196 45 350 20 154 37 294 40 310 2 17 11 89
20 160 9 72 18 141 20 155 2 14 20 151 40 305 19 154 37 294 40 310 2 17 11
86 20 155 8 69 18 141 20 160 8 59 94 724 110 848 83 658 82 656 133 757 63
127 212 244 347 273 82 18 1066 22 7250 28 3218 4 5852 8 5854 10 2 2 110 4
240 4 199 0 233 -2 221 -14z m-8735 -850 c-485 -250 -885 -632 -1187 -1136
-163 -270 -249 -468 -393 -903 -116 -350 -148 -432 -250 -632 -161 -315 -346
-568 -580 -793 -434 -418 -969 -695 -1810 -938 -156 -45 -839 -224 -856 -224
-6 0 2 61 70 555 28 204 61 438 72 520 11 83 31 227 44 320 13 94 33 238 44
320 11 83 30 216 41 298 11 81 29 211 40 290 10 78 28 207 39 287 11 80 36
260 55 400 196 1434 183 1349 222 1428 70 143 223 254 379 275 17 2 971 5
2122 6 l2092 1 -144 -74z m7630 60 c-11 -8 -182 -129 -380 -270 l-360 -257
-766 -796 -766 -795 -306 -542 c-168 -297 -315 -561 -326 -586 -118 -269 56
-869 386 -1333 73 -103 250 -286 328 -342 70 -50 143 -88 200 -104 51 -15
1212 -140 1245 -135 14 2 493 79 1065 170 572 90 1063 171 1090 179 28 8 286
100 575 203 289 104 526 186 528 183 1 -3 145 -424 320 -936 l318 -930 -34
-55 c-61 -101 -113 -307 -193 -760 -70 -398 -80 -451 -134 -665 -30 -115 -59
-244 -65 -285 -7 -41 -15 -210 -20 -375 -6 -265 -10 -309 -29 -375 -57 -192
-210 -444 -440 -725 -422 -513 -1295 -1428 -1746 -1829 -198 -176 -591 -451
-1040 -726 -351 -216 -403 -235 -620 -235 -107 0 -143 5 -205 24 -137 42 -259
118 -345 213 -113 125 -537 803 -882 1408 -228 400 -227 399 -206 407 83 31
191 86 202 103 16 24 7 44 -227 540 -482 1023 -912 1775 -1207 2114 -201 231
-554 486 -940 678 -267 134 -657 280 -861 323 -45 10 -87 21 -93 25 -12 7 59
208 342 965 150 401 174 473 247 725 57 197 79 238 154 281 72 41 111 43 286
19 186 -26 503 -37 605 -21 203 31 264 84 314 273 46 171 52 465 16 803 -23
214 -11 282 73 422 68 113 104 192 110 240 4 39 1 45 -49 99 -30 31 -109 103
-177 160 -142 118 -187 170 -242 274 -49 94 -82 195 -110 336 -82 408 -263
811 -496 1110 -49 63 -73 103 -78 130 -13 74 -47 163 -85 221 -78 121 -249
279 -426 396 -49 32 -92 61 -94 63 -2 2 1248 4 2780 4 2384 0 2781 -2 2764
-14z m-5038 -741 c263 -275 480 -718 577 -1180 63 -296 159 -483 316 -613 175
-145 250 -215 256 -236 6 -25 -30 -105 -92 -202 -90 -141 -107 -251 -80 -534
19 -194 22 -500 6 -612 -22 -153 -59 -237 -119 -267 -114 -58 -408 -64 -733
-15 -199 29 -294 12 -385 -71 -65 -58 -94 -115 -137 -272 -59 -215 -111 -370
-238 -708 -229 -611 -395 -1070 -413 -1139 -36 -145 -38 -336 -4 -471 18 -73
26 -85 59 -85 45 0 53 26 33 107 -18 75 -24 275 -10 357 l9 48 35 -33 c44 -43
158 -194 207 -276 63 -106 102 -201 169 -418 122 -391 153 -520 160 -655 6
-107 -10 -171 -52 -214 -28 -28 -37 -31 -84 -29 -205 7 -741 356 -1213 790
-209 193 -388 396 -514 583 -202 300 -524 604 -848 799 -39 24 -72 46 -72 50
0 3 27 21 60 39 306 168 619 564 889 1122 153 316 294 696 332 895 34 173 31
430 -7 615 -7 34 -5 33 82 -51 184 -176 367 -241 547 -194 89 23 137 51 137
79 0 22 -23 56 -37 56 -4 0 -34 -11 -67 -24 -121 -48 -207 -43 -331 18 -128
63 -272 206 -371 367 -47 77 -93 255 -101 384 -5 89 -3 106 17 153 25 57 83
116 137 138 49 21 148 28 215 15 32 -5 108 -35 170 -66 251 -123 462 -128 634
-15 217 142 431 517 589 1035 52 169 138 517 166 668 13 70 28 127 33 127 6 0
39 -29 73 -65z m2663 -2000 c41 -491 266 -1077 614 -1590 168 -249 391 -497
560 -625 47 -35 84 -65 82 -67 -1 -1 -42 2 -92 7 -49 5 -109 12 -134 14 -25 3
-160 17 -300 31 -140 14 -274 30 -298 36 -277 62 -652 540 -817 1043 -90 272
-107 506 -47 625 10 20 108 192 217 384 185 321 200 345 202 310 2 -21 8 -96
13 -168z m7500 -3192 c82 -22 128 -50 195 -114 115 -110 185 -287 220 -549 10
-82 13 -373 4 -500 -11 -160 -43 -400 -80 -610 -31 -171 -123 -583 -141 -629
-9 -23 -17 -7 -72 154 -40 120 -74 199 -99 237 -78 116 -226 229 -352 268 -22
7 -76 30 -120 52 -223 111 -370 278 -427 484 -31 115 -31 384 1 533 46 216
125 367 265 506 72 72 109 99 176 133 75 38 96 44 180 50 115 9 177 5 250 -15z
m-13496 -115 c17 -18 78 -59 135 -92 337 -192 661 -489 873 -801 172 -251 454
-546 795 -827 458 -380 891 -617 1064 -584 138 25 204 192 169 427 -27 193
-191 740 -271 909 -52 109 -150 263 -216 340 -72 84 -73 80 14 59 241 -56 710
-253 998 -419 343 -197 639 -443 807 -670 218 -297 482 -751 803 -1385 218
-431 489 -1007 483 -1027 -2 -5 -37 -24 -78 -42 l-75 -33 -21 36 c-11 20 -42
75 -67 123 -44 81 -49 87 -85 92 -130 21 -469 57 -487 52 -13 -3 -25 -13 -29
-21 -5 -13 34 -399 59 -585 2 -19 25 -217 50 -440 24 -223 76 -686 115 -1030
39 -344 77 -686 85 -760 8 -74 18 -153 20 -175 5 -37 41 -362 135 -1205 22
-195 42 -371 45 -390 3 -19 16 -134 29 -255 13 -121 27 -228 31 -237 4 -9 60
-40 125 -69 130 -56 123 -48 135 -154 3 -27 12 -108 20 -180 8 -71 17 -150 20
-175 3 -25 21 -182 40 -349 19 -168 35 -320 35 -337 0 -32 -8 -39 -210 -173
-826 -551 -1652 -921 -2330 -1045 -267 -49 -520 -70 -800 -68 -278 2 -2065 31
-2950 47 -146 3 -427 7 -625 10 -198 3 -472 7 -610 10 -137 3 -405 7 -595 10
-190 3 -452 8 -583 11 l-238 6 -76 -59 c-42 -32 -82 -62 -90 -68 -11 -8 -24 1
-55 35 -181 201 -342 451 -363 562 -5 26 6 89 44 239 27 112 67 284 88 383 32
150 41 180 58 186 11 4 179 22 373 40 194 17 488 46 655 65 166 18 329 36 362
40 33 3 71 8 85 10 14 2 50 7 80 10 149 16 902 113 1360 175 283 38 580 78
660 89 84 11 181 17 230 15 117 -5 389 -51 783 -133 746 -155 913 -169 1215
-96 430 104 986 292 1357 460 617 280 882 546 770 771 -58 117 -226 193 -496
225 -128 15 -366 6 -464 -17 -228 -53 -715 8 -1380 172 -77 19 -162 42 -190
51 l-50 16 186 48 c200 51 435 125 525 165 212 94 355 300 315 452 -9 31 -20
46 -43 58 -84 44 -368 36 -823 -21 -177 -23 -303 -42 -465 -71 -330 -60 -461
-106 -770 -275 -342 -187 -471 -246 -585 -268 -225 -43 -241 -43 -1360 -42
-1172 1 -1341 4 -1913 27 l-163 7 6 71 c3 39 8 100 11 136 3 36 7 286 9 555
l4 490 338 333 c186 183 472 462 635 619 164 158 314 310 334 338 57 84 86
174 91 290 9 163 -20 245 -180 508 -474 781 -1213 1250 -2073 1313 l-91 7 -51
-72 c-29 -39 -54 -71 -56 -71 -11 0 -226 374 -222 385 20 54 816 870 1136
1165 1211 1119 2336 1836 3260 2079 63 16 121 30 128 31 7 0 28 -15 46 -32z
m12105 -1952 c264 -775 481 -1415 481 -1423 0 -15 -204 -265 -659 -808 -1916
-2284 -3475 -3962 -4300 -4627 -205 -165 -352 -249 -561 -319 -171 -57 -320
-80 -520 -80 -288 0 -451 42 -845 217 -121 53 -223 100 -227 103 -4 4 -26 166
-48 361 -22 195 -42 373 -45 395 -6 56 -29 257 -80 715 -113 1008 -185 1648
-190 1680 -2 19 -7 62 -10 95 -3 33 -12 114 -20 180 -12 99 -37 324 -60 530
-3 22 -12 105 -21 185 -9 80 -33 295 -53 478 l-37 332 31 -5 c16 -3 93 -12
170 -20 77 -9 152 -18 167 -21 23 -5 39 -27 104 -147 351 -646 702 -1237 1019
-1717 117 -178 157 -229 227 -296 146 -137 345 -221 543 -228 172 -7 323 31
472 117 371 212 913 572 1160 770 392 313 1453 1415 1922 1997 201 248 365
532 417 720 25 89 27 112 30 340 4 361 14 442 84 690 31 113 66 279 100 480
81 478 138 740 188 864 l16 40 32 -95 c17 -52 248 -728 513 -1503z m-16112
-1651 c499 -66 957 -279 1335 -621 166 -150 301 -312 453 -539 121 -181 211
-357 226 -440 21 -117 -9 -252 -80 -351 -20 -28 -148 -158 -286 -290 -531
-507 -2195 -2176 -2195 -2201 0 -5 6 -17 13 -27 40 -55 587 -135 1097 -161 63
-3 129 -8 145 -10 17 -2 138 -7 270 -10 132 -4 251 -9 265 -11 14 -3 581 -9
1260 -13 1156 -6 1245 -6 1385 11 330 40 422 72 773 267 138 76 370 191 442
218 230 87 1033 206 1426 212 175 3 184 0 184 -53 0 -95 -103 -222 -233 -288
-116 -58 -404 -146 -731 -223 -83 -19 -156 -41 -164 -49 -28 -28 -7 -65 51
-91 178 -78 730 -208 1152 -271 230 -34 497 -39 645 -11 111 20 355 24 470 7
379 -54 484 -208 284 -415 -233 -241 -896 -543 -1699 -774 -350 -101 -380
-106 -590 -105 -218 1 -300 12 -723 100 -502 103 -597 121 -796 149 -195 27
-180 28 -1191 -109 -659 -89 -1054 -139 -1515 -191 -124 -14 -243 -27 -265
-30 -260 -31 -947 -93 -1310 -120 -172 -13 -359 -25 -460 -30 -60 -3 -144 -8
-185 -10 -418 -24 -1154 -24 -1520 -1 -451 30 -902 111 -1061 191 -359 182
-338 850 54 1774 159 377 362 744 665 1206 80 121 274 420 432 665 478 743
593 918 891 1365 291 436 557 823 774 1127 139 194 109 179 312 153z m-1862
-1285 c99 -61 277 -144 395 -185 57 -19 106 -37 108 -39 2 -2 -54 -91 -124
-197 -121 -185 -288 -443 -514 -794 -56 -88 -107 -164 -112 -170 -7 -7 -9 3
-4 31 7 49 27 200 61 469 14 110 27 214 30 230 2 17 23 180 47 363 23 182 44
332 45 332 1 0 32 -18 68 -40z m2472 -2542 c-6 -394 -19 -693 -31 -705 -7 -7
-405 25 -592 47 -191 23 -386 59 -382 71 4 11 998 1019 1005 1019 3 0 3 -195
0 -432z m26538 -761 c13 -18 15 -100 15 -538 0 -478 -1 -518 -17 -537 -28 -32
-82 -33 -113 -2 -19 19 -20 33 -20 534 0 283 3 522 6 531 9 22 59 43 90 37 14
-2 31 -14 39 -25z m6905 13 c19 -19 20 -33 20 -539 0 -492 -1 -520 -19 -542
-13 -17 -29 -23 -56 -23 -27 0 -43 6 -56 23 -18 22 -19 50 -19 542 0 506 1
520 20 539 12 12 33 20 55 20 22 0 43 -8 55 -20z m-430 -80 c10 -5 23 -24 29
-41 15 -43 15 -984 1 -1026 -19 -54 -85 -69 -125 -28 l-25 24 0 516 0 516 25
24 c25 26 63 32 95 15z m-6061 -26 c21 -26 21 -36 21 -539 0 -474 -1 -514 -17
-534 -27 -32 -73 -37 -106 -11 l-27 21 0 525 c0 511 1 525 20 544 30 30 83 27
109 -6z m5671 -44 c6 -12 10 -217 10 -534 0 -503 -1 -517 -20 -536 -31 -31
-85 -30 -112 2 -17 19 -18 59 -18 537 0 558 0 555 53 563 32 5 76 -11 87 -32z
m-5266 9 l26 -20 0 -525 c0 -511 -1 -525 -20 -544 -27 -27 -77 -26 -107 2
l-23 21 0 514 c0 345 4 521 11 534 21 40 74 49 113 18z m439 -41 c16 -19 17
-59 17 -539 0 -506 -1 -520 -20 -539 -12 -12 -33 -20 -55 -20 -22 0 -43 8 -55
20 -19 19 -20 33 -20 538 0 445 2 521 15 539 26 37 86 38 118 1z m4387 12 c19
-19 20 -33 20 -538 0 -562 1 -552 -55 -566 -29 -7 -79 15 -89 39 -3 9 -6 248
-6 531 0 501 1 515 20 534 12 12 33 20 55 20 22 0 43 -8 55 -20z m-455 -6 c43
-17 45 -36 45 -559 0 -545 0 -547 -58 -560 -39 -8 -80 10 -92 40 -6 16 -10
225 -10 531 l0 505 25 24 c24 24 57 31 90 19z m-3496 -30 c21 -26 21 -36 21
-530 0 -353 -3 -510 -11 -528 -17 -36 -60 -51 -95 -34 -54 25 -54 22 -51 569
2 483 3 508 21 528 29 32 88 29 115 -5z m3095 -5 l26 -20 0 -525 c0 -511 -1
-525 -20 -544 -27 -27 -77 -26 -107 2 l-23 21 0 519 0 519 25 24 c30 30 64 32
99 4z m-2690 -10 l26 -20 0 -524 0 -524 -26 -20 c-35 -28 -69 -26 -99 4 l-25
24 0 517 0 518 22 23 c27 29 67 30 102 2z m1827 2 l24 -19 2 -514 c2 -399 0
-519 -10 -538 -26 -51 -105 -52 -131 -1 -22 42 -23 1008 -1 1051 23 44 76 54
116 21z m-1406 -22 c19 -19 20 -33 20 -538 0 -496 -1 -520 -19 -540 -29 -32
-88 -29 -115 5 -21 26 -21 36 -21 530 0 356 3 510 11 528 22 46 83 54 124 15z
m451 10 c18 -20 19 -45 21 -533 3 -557 4 -545 -53 -566 -34 -13 -80 6 -93 38
-8 19 -10 183 -9 533 3 482 4 508 22 528 26 29 86 29 112 0z m497 -7 c16 -14
17 -52 17 -536 0 -585 2 -566 -68 -566 -84 1 -82 -14 -82 557 0 274 3 509 7
522 12 44 85 58 126 23z m916 2 c21 -26 21 -36 21 -539 0 -483 -1 -514 -18
-536 -24 -28 -83 -31 -112 -4 -20 18 -20 30 -20 546 l0 528 22 15 c35 25 83
20 107 -10z m-4058 -1084 c333 -46 740 -81 1344 -115 130 -7 564 -23 825 -31
269 -7 1650 -7 1794 0 56 3 209 8 341 11 132 3 272 8 310 10 39 3 126 7 195
10 168 7 301 14 385 20 39 3 106 7 150 10 184 13 318 24 535 46 107 11 255 29
329 39 74 11 135 19 136 18 1 -2 5 -879 9 -1950 l7 -1947 -68 -20 c-979 -287
-2159 -422 -3318 -382 -294 10 -556 24 -695 35 -30 3 -89 8 -130 11 -657 55
-1363 159 -2212 326 l-118 23 0 1953 c0 1878 1 1953 18 1953 10 0 83 -9 163
-20z m-29886 -649 c94 -11 221 -23 283 -27 l113 -7 -6 -36 c-3 -20 -66 -479
-140 -1021 -150 -1094 -176 -1282 -236 -1710 -45 -323 -46 -380 -9 -491 70
-206 259 -357 495 -393 17 -2 5613 -5 12438 -5 l12407 -1 0 -710 0 -710
-12787 -1 c-7034 -1 -12810 -1 -12838 0 -276 10 -504 244 -505 519 0 51 57
529 145 1210 80 620 175 1354 210 1632 36 278 72 555 80 615 8 61 33 252 55
425 95 745 93 730 110 730 8 0 92 -9 185 -19z m2715 3 c0 -25 -56 -278 -117
-529 l-56 -229 27 -82 c44 -135 174 -335 349 -538 l68 -79 -109 -111 c-427
-438 -828 -1148 -1077 -1906 -21 -63 -39 -116 -40 -118 -1 -1 -286 -2 -632 -2
-686 0 -691 1 -797 58 -85 46 -171 135 -213 219 -60 121 -59 133 47 903 50
366 97 710 105 765 22 165 144 1051 183 1334 l37 263 595 3 c327 1 618 5 645
8 28 3 118 8 200 12 83 3 170 8 195 10 25 2 101 7 170 10 69 4 163 11 210 15
156 13 210 12 210 -6z m33544 -8209 c6 -2965 6 -3051 -12 -3078 -117 -173
-784 -339 -1717 -426 -568 -54 -966 -69 -1675 -65 -322 2 -601 5 -620 8 -19 2
-102 7 -185 10 -82 4 -175 9 -205 11 -30 3 -118 9 -195 15 -981 74 -1735 236
-1922 415 l-46 44 6 2133 c5 1756 8 2132 19 2130 868 -232 1644 -360 2483
-412 300 -18 852 -23 1160 -11 160 7 304 14 320 16 17 2 77 7 135 10 155 9
558 51 775 80 491 66 962 155 1458 276 l207 51 0 926 c0 509 2 923 4 921 2 -2
6 -1376 10 -3054z m-15216 2944 l982 1 0 -1435 0 -1435 50 20 c65 26 68 25 62
-6 -3 -19 1 -31 16 -43 21 -15 -12 -29 -731 -300 -854 -323 -921 -350 -997
-401 -75 -51 -181 -165 -224 -243 -62 -110 -87 -198 -93 -324 -4 -70 -1 -136
6 -175 16 -82 133 -395 178 -478 52 -94 178 -215 276 -265 l77 -40 -6 -45 c-4
-25 -8 -46 -9 -48 -8 -10 -151 67 -214 116 -126 96 -218 227 -281 400 -12 34
-24 62 -26 62 -2 0 -296 -122 -652 -271 -1350 -566 -1298 -546 -1467 -588
-109 -27 -166 -39 -260 -53 -61 -9 -887 -13 -3512 -15 -3802 -4 -3486 -9
-3520 62 -17 35 -17 38 2 73 20 36 36 43 780 360 418 177 958 406 1200 508
497 210 670 290 776 359 433 279 720 695 799 1159 19 115 20 160 20 1588 l0
1471 2893 -7 c1590 -4 3334 -7 3875 -7z m4302 -1999 l0 -2000 -22 5 c-13 2
-178 27 -368 55 -190 28 -362 53 -383 56 l-38 6 70 73 c185 195 267 475 217
738 -15 75 -115 357 -157 439 -74 146 -206 277 -356 352 -82 41 -219 76 -313
81 -80 4 -206 -12 -275 -33 -23 -7 -542 -203 -627 -237 -17 -7 -18 56 -18
1229 l0 1236 1135 0 1135 0 0 -2000z m-1175 -324 c185 -63 328 -185 409 -351
46 -92 123 -303 142 -385 22 -93 19 -257 -5 -353 -52 -199 -194 -382 -372
-477 -32 -17 -390 -157 -794 -310 -405 -154 -740 -282 -745 -285 -6 -4 -10
-18 -10 -32 0 -19 -4 -24 -16 -19 -9 3 -32 6 -52 7 l-37 0 53 21 c28 11 52 24
52 27 0 4 -133 357 -295 785 -162 427 -295 781 -295 785 0 10 1516 585 1595
605 95 25 269 16 370 -18z m3241 -869 c363 -76 651 -375 718 -746 19 -104 13
-275 -13 -376 -12 -43 -25 -83 -29 -87 -5 -5 -31 -4 -58 2 -28 6 -425 67 -883
135 -458 68 -835 126 -838 129 -4 3 -5 36 -4 73 12 446 348 817 797 882 80 11
224 6 310 -12z m-2751 -801 c94 -13 555 -82 1319 -196 180 -27 329 -50 331
-52 1 -2 -24 -178 -56 -393 -141 -948 -190 -1269 -193 -1273 -2 -1 -90 11
-197 27 -107 16 -216 32 -243 36 l-48 7 5 56 c4 31 9 100 12 152 4 52 8 111
10 131 2 20 -1 74 -6 119 -36 321 -267 582 -588 666 -45 11 -371 40 -791 70
-47 3 -101 7 -120 9 -19 2 -87 7 -151 11 -65 4 -123 10 -129 14 -18 11 12 119
61 218 120 246 368 403 649 410 19 1 80 -5 135 -12z m-854 -258 c-38 -69 -69
-165 -83 -258 -6 -41 -17 -80 -24 -86 -8 -7 -38 -8 -86 -3 -40 4 -107 9 -148
12 -368 25 -551 42 -534 49 55 24 881 337 892 337 7 1 1 -19 -17 -51z m-2191
-293 c52 -3 181 -12 285 -20 105 -8 222 -17 260 -20 78 -5 307 -23 400 -30
125 -10 324 -24 420 -31 55 -3 102 -8 104 -10 2 -2 -1 -75 -8 -161 -42 -575
-53 -727 -66 -883 -17 -216 -45 -589 -45 -614 l0 -28 -57 6 c-32 3 -272 21
-533 41 -261 19 -504 37 -540 40 -36 3 -175 14 -310 25 -135 11 -272 27 -305
36 -209 56 -402 238 -474 447 -39 112 -44 196 -27 404 11 125 23 215 37 260
96 313 370 526 699 545 25 2 50 2 55 1 6 -1 53 -4 105 -8z m2755 -376 c319
-24 487 -91 660 -264 70 -70 99 -107 127 -165 83 -169 92 -360 17 -360 -32 0
-49 39 -49 112 0 237 -221 473 -515 548 -65 17 -376 50 -472 50 -46 0 -69 53
-37 85 13 12 29 15 73 10 31 -3 119 -10 196 -16z"/>
<path d="M30033 42608 c-136 -14 -272 -56 -408 -125 -261 -132 -478 -391 -614
-736 -136 -342 -206 -810 -195 -1297 6 -254 17 -399 50 -670 115 -930 428
-1990 909 -3075 118 -265 405 -838 551 -1100 949 -1704 2147 -3051 3240 -3645
234 -127 517 -235 734 -280 132 -28 403 -38 517 -21 267 42 471 145 659 335
293 296 460 744 515 1383 11 135 8 730 -4 793 -3 14 -8 61 -12 105 -9 122 -33
301 -65 500 -247 1530 -997 3339 -2015 4860 -240 359 -341 495 -369 495 -28 0
-46 -18 -46 -45 0 -11 54 -97 121 -190 853 -1196 1573 -2672 1963 -4026 181
-627 286 -1185 333 -1769 10 -123 10 -611 0 -718 -74 -809 -326 -1307 -772
-1527 -176 -87 -353 -122 -565 -112 -829 39 -1917 814 -2944 2097 -144 181
-376 489 -376 499 1 3 264 218 586 476 322 259 611 495 642 525 64 63 103 134
134 248 28 102 30 366 4 517 -175 996 -954 2075 -1526 2112 -70 5 -85 2 -230
-46 -397 -130 -1376 -439 -1382 -435 -10 6 -149 432 -213 655 -146 502 -269
1101 -310 1509 -3 30 -10 102 -16 160 -17 171 -19 704 -3 865 77 788 340 1286
790 1496 229 108 540 129 842 58 499 -118 1094 -476 1666 -1004 202 -186 247
-225 256 -225 13 0 50 37 50 50 0 26 -282 291 -500 471 -607 499 -1182 785
-1686 839 -108 11 -193 11 -311 -2z m1162 -4510 c136 -44 301 -165 477 -346
423 -439 768 -1139 848 -1717 15 -113 13 -317 -5 -398 -28 -130 -88 -228 -166
-268 -48 -24 -150 -25 -234 -3 -266 69 -618 409 -893 864 -276 456 -448 946
-468 1330 -22 432 144 636 441 538z"/>
<path d="M18086 24637 c-19 -14 -21 -21 -36 -207 -6 -74 -13 -155 -15 -180 -2
-25 -7 -81 -10 -125 -4 -44 -8 -93 -10 -110 -1 -16 -26 -314 -55 -662 -57
-676 -57 -663 -5 -663 12 0 28 7 35 15 11 13 35 244 54 520 4 50 9 108 11 130
3 22 28 314 56 650 l50 610 -21 17 c-26 21 -31 22 -54 5z"/>
<path d="M25095 14969 c-102 -19 -196 -91 -236 -182 -32 -71 -33 -191 -2 -258
52 -116 149 -180 279 -187 73 -4 88 -1 140 22 72 33 127 84 162 151 23 43 27
62 27 140 0 76 -4 97 -25 139 -64 125 -212 200 -345 175z"/>
<path d="M27930 44912 c-12 -4 -683 -360 -1340 -710 -47 -25 -150 -80 -230
-122 -289 -154 -804 -428 -1815 -965 -566 -301 -1061 -565 -1100 -585 -97 -52
-521 -278 -630 -335 -49 -26 -108 -58 -130 -70 -22 -12 -101 -54 -175 -93
-332 -175 -413 -220 -422 -236 -7 -12 -7 -26 1 -43 9 -20 17 -24 39 -21 16 2
291 144 613 315 556 296 2456 1307 2774 1475 83 44 182 97 220 118 39 20 336
178 660 351 1663 883 1590 843 1590 874 0 30 -30 56 -55 47z"/>
<path d="M35942 44759 c-413 -48 -828 -250 -1134 -552 -279 -276 -461 -613
-543 -1007 -32 -154 -44 -429 -26 -585 53 -449 243 -844 557 -1159 314 -314
714 -505 1166 -557 133 -15 408 -7 533 16 724 130 1305 631 1529 1317 76 232
91 335 91 613 -1 221 -3 250 -28 366 -40 188 -88 326 -172 494 -288 575 -825
958 -1470 1050 -109 16 -383 18 -503 4z m855 -1212 c177 -61 315 -218 369
-417 23 -86 23 -244 1 -330 -25 -96 -106 -252 -188 -360 -86 -114 -141 -177
-412 -467 -179 -191 -213 -223 -244 -229 -20 -4 -48 -3 -63 3 -31 12 -502 334
-643 440 -202 151 -347 321 -401 465 -90 242 -39 503 129 672 205 205 543 207
751 5 l41 -40 52 71 c55 73 123 131 200 170 110 55 279 63 408 17z"/>
<path d="M40988 44089 c-699 -90 -1295 -585 -1511 -1254 -71 -219 -81 -291
-81 -565 -1 -219 2 -256 22 -350 164 -747 706 -1292 1436 -1446 167 -35 441
-44 606 -20 430 63 779 241 1075 548 134 138 224 263 309 428 275 534 275
1147 0 1680 -84 163 -174 288 -309 428 -285 297 -653 486 -1062 546 -120 17
-369 20 -485 5z m527 -108 c712 -130 1254 -658 1407 -1369 20 -95 23 -134 23
-342 0 -263 -13 -350 -80 -550 -255 -758 -996 -1248 -1785 -1181 -420 36 -784
205 -1081 501 -227 226 -366 460 -454 765 -127 441 -56 969 182 1355 254 410
641 693 1093 800 219 51 484 59 695 21z"/>
<path d="M41615 43067 c-66 -22 -99 -43 -143 -91 -53 -57 -73 -105 -81 -189
l-6 -68 -303 -140 -303 -140 -32 27 c-123 104 -308 99 -419 -11 -176 -173
-101 -464 136 -530 100 -28 204 -3 285 70 l42 38 267 -103 c147 -57 281 -109
298 -116 29 -12 32 -18 36 -72 10 -109 83 -208 187 -255 63 -29 178 -29 242 0
203 90 254 357 99 513 -116 115 -310 121 -428 11 l-42 -38 -292 114 c-161 62
-293 115 -294 116 -2 1 -5 17 -9 35 -5 32 -4 32 72 68 405 187 531 244 537
244 4 0 26 -15 47 -34 81 -69 222 -85 321 -38 105 52 170 150 176 269 5 94
-16 157 -74 222 -81 90 -217 132 -319 98z"/>
<path d="M25419 41691 c-30 -15 -200 -106 -379 -201 -179 -95 -392 -209 -475
-252 -82 -44 -186 -99 -230 -123 -44 -24 -260 -138 -480 -255 -220 -117 -431
-230 -470 -250 -64 -35 -242 -129 -470 -250 -49 -26 -227 -121 -395 -210 -437
-233 -746 -397 -975 -518 -110 -58 -208 -112 -217 -120 -33 -28 -17 -82 24
-82 11 0 126 57 256 126 130 70 305 163 387 207 258 137 318 169 380 202 33
18 103 55 155 82 52 28 199 106 325 173 127 67 271 144 320 170 50 27 333 177
630 335 571 304 794 423 1335 710 184 97 345 184 358 192 29 18 27 59 -4 79
-18 13 -27 11 -75 -15z"/>
<path d="M38955 39814 c-234 -125 -445 -237 -1070 -569 -673 -358 -694 -369
-770 -410 -33 -18 -107 -57 -165 -88 -434 -228 -547 -291 -562 -308 -23 -27
-10 -63 26 -67 20 -3 145 60 464 229 240 128 534 284 652 347 118 63 247 131
285 152 39 20 113 60 165 88 583 308 1177 626 1188 634 15 13 16 50 0 66 -22
22 -53 12 -213 -74z"/>
<path d="M39665 33400 c-786 -58 -1476 -552 -1781 -1276 -391 -931 -47 -2015
809 -2546 614 -382 1380 -416 2032 -91 607 303 1014 859 1131 1548 25 141 25
472 1 613 -102 603 -413 1087 -911 1419 -102 69 -333 182 -451 222 -268 90
-568 130 -830 111z m485 -120 c696 -127 1253 -587 1507 -1243 159 -411 165
-912 16 -1340 -276 -796 -1038 -1337 -1883 -1337 -991 0 -1826 732 -1956 1713
-24 182 -15 459 21 632 93 451 326 845 670 1133 164 138 395 274 590 347 101
38 316 91 420 104 50 6 104 13 120 15 78 11 385 -4 495 -24z"/>
<path d="M39670 32743 c-134 -15 -329 -88 -451 -168 -271 -181 -445 -481 -465
-804 -12 -196 73 -477 276 -914 178 -381 623 -1168 668 -1179 9 -2 24 -2 33
-1 20 5 208 265 414 572 392 587 638 1070 686 1345 37 216 -42 515 -189 721
-217 302 -597 469 -972 428z m246 -577 c210 -56 354 -244 354 -461 -1 -139
-41 -236 -140 -336 -99 -100 -194 -138 -343 -139 -260 -1 -466 208 -467 473 0
220 140 406 350 463 61 17 184 17 246 0z"/>
<path d="M32410 29831 c-86 -28 -178 -99 -222 -171 -33 -55 -50 -130 -47 -208
7 -140 88 -260 217 -320 50 -24 69 -27 157 -27 89 0 106 3 156 27 151 74 240
245 209 400 -24 125 -101 226 -208 276 -46 21 -75 27 -147 29 -49 1 -101 -1
-115 -6z m186 -96 c61 -18 125 -71 162 -133 24 -41 27 -57 27 -132 0 -93 -10
-121 -67 -186 -146 -165 -426 -92 -478 126 -26 106 22 226 114 288 80 53 151
64 242 37z"/>
<path d="M35475 27328 c-33 -17 -269 -142 -525 -278 -739 -393 -1067 -568
-1655 -880 -302 -161 -586 -312 -630 -335 -139 -74 -680 -362 -1260 -670 -308
-164 -587 -312 -620 -330 -71 -38 -174 -93 -305 -163 -52 -27 -448 -238 -880
-467 -432 -230 -835 -444 -897 -477 -62 -33 -242 -128 -400 -213 -286 -152
-288 -154 -288 -186 0 -19 7 -36 17 -43 19 -11 61 8 288 130 131 70 659 351
1775 944 479 254 942 501 1030 548 88 47 192 102 230 122 39 21 176 94 305
162 129 69 453 242 720 383 1301 692 2201 1170 2255 1200 33 18 116 62 185 98
69 36 267 142 440 234 301 161 315 169 315 197 0 18 -8 33 -20 41 -17 12 -28
9 -80 -17z"/>
<path d="M30265 22704 c-170 -91 -389 -207 -485 -259 -223 -118 -240 -127
-880 -468 -1518 -807 -1954 -1039 -2910 -1547 -261 -139 -540 -287 -620 -330
-80 -42 -194 -103 -255 -135 -250 -132 -501 -268 -512 -277 -29 -24 -8 -78 30
-78 15 0 487 246 1062 555 96 51 90 48 1655 880 1525 811 1410 750 1495 795
39 21 210 112 380 203 1203 638 1387 736 1403 749 15 13 16 50 0 66 -7 7 -21
12 -32 12 -12 0 -160 -75 -331 -166z"/>
<path d="M36979 21939 c-21 -21 -21 -26 -15 -292 3 -150 8 -697 11 -1217 3
-520 7 -1123 10 -1340 3 -217 7 -768 10 -1225 3 -456 7 -1066 10 -1355 5 -493
7 -854 20 -2565 3 -379 7 -926 10 -1215 3 -289 7 -898 10 -1355 3 -456 7
-1003 10 -1215 3 -212 8 -815 11 -1340 4 -525 10 -963 15 -972 14 -27 48 -32
71 -11 20 18 20 25 14 543 -3 289 -8 856 -11 1260 -3 404 -7 992 -10 1305 -3
314 -7 876 -10 1250 -5 637 -8 1001 -20 2575 -3 344 -7 922 -10 1285 -3 363
-7 935 -10 1270 -3 336 -7 918 -10 1295 -3 377 -7 946 -10 1265 -3 319 -8 909
-11 1310 -5 639 -8 732 -22 748 -20 23 -37 22 -63 -4z"/>
<path d="M35315 21388 c-119 -9 -226 -38 -340 -92 -117 -55 -169 -91 -263
-180 -168 -160 -269 -344 -307 -563 -91 -521 234 -1023 751 -1159 86 -23 119
-27 249 -27 131 0 163 3 250 26 746 198 1016 1116 492 1673 -103 109 -180 166
-302 225 -171 82 -335 112 -530 97z m317 -117 c330 -85 590 -351 668 -683 112
-481 -174 -961 -655 -1099 -103 -30 -294 -36 -410 -14 -291 54 -545 255 -669
527 -126 279 -102 618 63 871 146 224 379 376 639 417 87 14 275 4 364 -19z"/>
<path d="M40538 21345 c-2 -1 -176 -6 -388 -10 -212 -3 -410 -8 -440 -10 -30
-2 -127 -6 -215 -9 -767 -30 -1489 -96 -1825 -165 -138 -29 -244 -66 -234 -82
31 -52 402 -116 994 -174 192 -19 625 -47 930 -60 69 -3 166 -7 215 -10 337
-17 1170 -27 1840 -22 921 8 1342 22 2010 67 717 49 1306 141 1308 205 1 34
-338 106 -688 144 -206 23 -480 47 -695 61 -685 44 -1243 60 -2137 64 -370 2
-674 2 -675 1z"/>
<path d="M35263 18730 c-355 -50 -643 -259 -794 -575 -77 -161 -93 -239 -93
-440 0 -155 3 -178 27 -260 114 -379 405 -652 778 -729 204 -42 428 -17 625
70 133 58 300 195 397 324 241 320 260 774 48 1128 -139 233 -390 410 -663
467 -89 19 -246 26 -325 15z m370 -124 c332 -98 568 -348 648 -684 28 -117 23
-350 -10 -453 -91 -286 -285 -498 -553 -606 -204 -83 -464 -81 -677 4 -252
101 -453 319 -535 581 -134 430 64 892 470 1095 149 75 257 98 434 93 108 -3
152 -9 223 -30z"/>
<path d="M35170 16071 c-428 -91 -746 -439 -800 -875 -78 -617 438 -1168 1059
-1133 441 25 796 310 928 742 25 83 27 104 27 265 1 204 -14 280 -89 439 -58
122 -114 198 -216 296 -133 127 -255 198 -434 251 -121 36 -344 43 -475 15z
m315 -81 c194 -23 387 -115 530 -255 174 -171 264 -366 281 -610 20 -288 -122
-599 -354 -775 -92 -70 -249 -145 -355 -170 -102 -24 -274 -29 -376 -10 -361
65 -660 360 -735 722 -9 44 -16 126 -16 191 0 492 399 899 900 916 19 0 76 -4
125 -9z"/>
<path d="M35190 13339 c-215 -38 -430 -154 -575 -310 -373 -404 -363 -1022 23
-1408 297 -297 732 -381 1119 -218 228 96 439 307 532 532 64 153 75 212 75
405 0 161 -2 182 -28 265 -109 361 -374 620 -734 717 -89 23 -321 33 -412 17z
m361 -103 c169 -36 329 -125 459 -256 471 -476 296 -1262 -336 -1509 -142 -55
-381 -70 -524 -33 -190 50 -307 117 -441 251 -182 182 -268 388 -271 646 -4
471 361 871 837 919 62 6 203 -3 276 -18z"/>
<path d="M15026 12409 c-77 -12 -169 -63 -221 -122 -149 -171 -113 -435 77
-557 73 -47 139 -64 233 -58 133 9 257 94 313 216 22 49 26 71 26 152 1 82 -3
103 -25 150 -74 158 -233 244 -403 219z m182 -118 c100 -51 151 -135 152 -249
0 -89 -23 -144 -85 -201 -61 -56 -107 -74 -190 -74 -157 0 -274 116 -275 273
0 165 131 287 295 277 35 -3 78 -13 103 -26z"/>
<path d="M17118 11718 c-8 -7 -53 -80 -98 -162 -73 -132 -81 -151 -71 -173 9
-19 17 -24 43 -21 29 3 37 13 115 152 46 82 83 157 83 167 0 20 -26 49 -44 49
-7 0 -19 -6 -28 -12z"/>
<path d="M16131 11422 c-20 -37 9 -64 162 -145 154 -83 188 -91 200 -46 9 35
-2 47 -91 95 -48 26 -115 62 -149 81 -68 37 -108 42 -122 15z"/>
<path d="M17121 10903 c-15 -10 -21 -23 -19 -41 3 -23 24 -38 153 -109 151
-83 181 -93 203 -71 16 16 15 53 0 66 -16 12 -277 156 -299 165 -9 3 -26 -1
-38 -10z"/>
<path d="M16578 10748 c-9 -7 -53 -80 -98 -162 -72 -132 -80 -152 -71 -173 9
-19 17 -24 43 -21 29 3 37 13 115 153 45 83 83 160 83 172 0 12 -9 27 -19 33
-25 13 -34 13 -53 -2z"/>
</g>
</svg>
