<?xml version="1.0" standalone="no"?>
<!DOCTYPE svg PUBLIC "-//W3C//DTD SVG 20010904//EN"
 "http://www.w3.org/TR/2001/REC-SVG-20010904/DTD/svg10.dtd">
<svg version="1.0" xmlns="http://www.w3.org/2000/svg"
 width="5209.000000pt" height="5209.000000pt" viewBox="0 0 5209.000000 5209.000000"
 preserveAspectRatio="xMidYMid meet">

<g transform="translate(0.000000,5209.000000) scale(0.100000,-0.100000)"
fill="#000000" stroke="none">
<path d="M31090 45104 c-25 -2 -110 -9 -190 -15 -1338 -99 -2598 -622 -3580
-1486 -164 -144 -478 -465 -609 -623 -594 -713 -997 -1506 -1231 -2424 l-48
-189 -598 -213 c-329 -118 -610 -222 -624 -232 -14 -10 -35 -38 -47 -62 -22
-41 -23 -57 -23 -236 l0 -192 -272 272 c-520 519 -998 903 -1558 1253 -1044
652 -2371 1141 -3480 1282 -320 41 -471 49 -810 46 -491 -6 -856 -63 -1265
-200 -212 -71 -340 -125 -524 -221 -792 -413 -1551 -1329 -1751 -2113 -149
-586 0 -1092 410 -1393 252 -185 516 -289 1262 -499 238 -66 483 -136 543
-155 132 -41 406 -137 402 -141 -2 -1 -30 -5 -62 -8 -287 -27 -408 -63 -737
-221 -325 -156 -428 -185 -653 -185 -99 -1 -149 4 -210 20 -234 60 -1160 400
-1650 606 -121 51 -241 100 -267 108 -155 53 -372 19 -552 -87 -96 -56 -294
-254 -426 -426 -359 -468 -520 -637 -760 -796 -108 -72 -171 -106 -294 -159
-233 -99 -460 -141 -701 -132 -214 9 -336 35 -730 152 -402 120 -569 148 -745
126 -233 -29 -405 -107 -602 -275 -456 -389 -755 -1224 -724 -2021 26 -662
230 -1232 609 -1705 110 -137 333 -353 477 -462 459 -347 1016 -562 1615 -624
181 -19 524 -13 685 11 307 47 582 148 782 287 117 81 216 175 386 367 169
191 351 381 364 381 5 0 -4 -24 -18 -52 -15 -29 -51 -107 -80 -173 -29 -66
-101 -213 -160 -326 l-108 -205 -81 -28 c-808 -276 -1444 -987 -1770 -1981
-218 -662 -275 -1403 -160 -2050 14 -77 37 -191 53 -254 l28 -114 -28 -133
c-49 -231 -89 -495 -113 -744 -20 -217 -27 -875 -12 -1280 5 -123 10 -227 12
-230 1 -3 6 -57 9 -121 4 -63 9 -131 11 -150 2 -18 6 -63 9 -99 110 -1268 392
-2410 787 -3190 166 -329 327 -561 541 -784 37 -39 68 -74 68 -78 0 -14 -140
-336 -268 -618 -337 -743 -437 -1058 -457 -1440 -3 -63 -8 -142 -10 -175 -12
-178 -20 -956 -20 -2030 l0 -1210 58 -27 57 -28 0 -350 0 -350 -28 0 c-16 0
-36 -6 -45 -13 -9 -6 -38 -75 -65 -152 -64 -182 -141 -381 -204 -525 l-49
-116 -1827 -668 c-1005 -368 -1849 -681 -1877 -697 -111 -62 -191 -158 -231
-277 -19 -57 -26 -67 -48 -70 l-26 -3 0 -802 c0 -871 1 -880 56 -988 55 -110
144 -189 254 -228 31 -11 451 -90 935 -176 484 -85 905 -160 935 -166 66 -12
1513 -269 1685 -299 66 -12 158 -28 205 -36 102 -19 264 -47 380 -68 47 -8
211 -38 365 -65 154 -28 318 -57 365 -65 144 -25 1545 -274 1720 -306 91 -16
203 -36 250 -44 47 -8 391 -69 765 -136 374 -66 745 -132 825 -146 80 -14 179
-32 220 -39 63 -12 1124 -201 1400 -249 77 -14 215 -38 1015 -181 384 -68
1140 -202 1235 -219 83 -15 506 -90 1440 -256 250 -44 619 -110 820 -146 201
-35 478 -84 615 -109 345 -61 418 -69 670 -68 299 0 515 30 790 108 185 53
311 105 840 345 270 122 753 342 1075 487 322 146 702 318 845 383 143 65 526
238 850 385 325 147 662 300 750 340 163 74 333 151 1631 739 407 184 747 336
755 338 10 2 15 -9 17 -42 9 -160 64 -405 127 -575 182 -488 567 -906 1040
-1131 317 -151 693 -222 1026 -195 188 15 324 43 500 101 753 248 1303 918
1397 1705 6 44 11 369 11 722 l1 642 -24 16 c-14 9 -35 16 -48 15 -13 -1 -88
-2 -166 -1 l-144 1 36 48 c93 122 151 265 163 403 l8 83 95 42 c93 40 611 275
1700 769 294 133 677 307 850 385 173 78 576 261 895 405 863 391 3311 1500
3615 1637 146 66 526 238 845 383 564 256 1294 586 1975 895 569 257 602 273
652 312 60 48 111 116 140 188 l23 55 3 823 c2 689 0 822 -11 822 -8 0 -21 25
-31 62 -51 184 -185 318 -362 362 -33 8 -140 27 -239 41 -99 15 -236 35 -305
45 -69 10 -640 96 -1270 189 -630 94 -1188 178 -1240 186 -98 15 -430 65 -605
91 -55 8 -201 29 -325 48 -124 19 -341 51 -482 72 l-258 38 0 601 c0 490 -3
613 -15 670 -50 238 -211 443 -430 550 -103 50 -155 60 -550 110 -1280 160
-1643 206 -1670 210 -16 2 -322 40 -680 85 -357 44 -661 83 -675 85 -14 2
-421 54 -905 115 -1634 206 -2218 279 -2620 330 -220 28 -776 98 -1235 156
-459 58 -1136 143 -1505 189 -368 47 -874 111 -1123 142 -390 49 -452 59 -447
72 11 36 77 430 105 621 35 242 67 547 75 715 3 66 8 135 11 154 l5 34 47 -7
c68 -10 3380 -427 3902 -492 25 -3 56 -7 70 -9 14 -3 241 -31 505 -64 566 -71
1647 -207 1950 -246 22 -3 220 -28 440 -55 220 -28 470 -59 555 -70 85 -11
173 -22 195 -25 22 -3 274 -35 560 -70 286 -36 536 -68 555 -70 34 -5 338 -43
1625 -206 690 -87 711 -88 841 -48 207 63 354 225 400 439 11 54 14 385 14
1953 0 1645 -2 1897 -15 1961 -60 292 -288 529 -580 605 -22 5 -346 48 -720
95 -374 47 -948 119 -1275 161 -327 41 -617 77 -645 80 -27 4 -61 8 -75 10
-14 3 -263 34 -555 70 -291 36 -543 68 -560 71 -37 5 -943 119 -1700 214 -308
39 -573 72 -590 75 -16 2 -264 33 -550 69 -286 36 -644 81 -795 100 -151 20
-707 90 -1235 156 -528 67 -1081 136 -1230 155 -148 19 -684 86 -1190 150
-506 63 -931 117 -945 120 -14 2 -52 7 -85 10 -33 3 -73 8 -90 11 -16 2 -207
26 -423 53 -216 27 -396 51 -399 54 -20 21 -133 469 -173 685 -67 365 -90 642
-85 1022 5 343 19 514 100 1165 35 286 67 554 70 595 4 41 8 91 10 110 24 216
36 795 20 955 l-5 61 72 -69 c147 -138 414 -334 548 -402 35 -18 76 -56 142
-132 571 -660 1127 -1156 1783 -1594 1076 -717 2315 -1169 3520 -1283 88 -9
183 -18 210 -21 91 -10 788 -13 925 -4 1814 121 3400 949 4462 2330 647 841
1067 1879 1207 2979 56 437 74 943 46 1295 -2 28 -7 93 -10 145 -3 52 -15 174
-26 270 -288 2523 -1879 4868 -4184 6167 -964 544 -1975 860 -3095 968 -155
15 -826 29 -940 19z m-12460 -2938 c658 -71 1287 -225 1974 -483 584 -219
1195 -519 1676 -823 1152 -727 2229 -1849 2968 -3091 149 -252 168 -293 197
-424 121 -547 296 -1073 530 -1590 l74 -164 1 -188 c1 -114 7 -222 16 -273 29
-169 98 -334 202 -485 l55 -80 9 -105 c10 -110 14 -753 5 -805 -3 -16 -6 -56
-6 -88 l-1 -59 -31 27 c-19 16 -38 24 -48 20 -122 -47 -1179 -491 -1188 -499
-7 -6 -77 -150 -156 -321 -79 -170 -166 -357 -193 -414 l-49 -103 -34 98
c-794 2304 -1912 4326 -3296 5959 -223 264 -433 493 -695 759 -464 471 -877
835 -1356 1194 -373 280 -949 642 -1022 642 -41 0 -56 -48 -25 -82 9 -10 20
-18 24 -18 28 0 425 -241 654 -398 1458 -995 2880 -2597 3988 -4492 373 -638
764 -1414 1065 -2115 194 -451 431 -1065 570 -1476 l57 -170 -24 -18 c-70 -53
-71 -53 -138 -10 -34 21 -69 39 -77 39 -8 0 -68 -32 -133 -71 -352 -213 -820
-412 -1238 -528 -104 -29 -333 -81 -355 -81 -6 0 -10 29 -10 69 0 273 -142
574 -356 756 -202 172 -408 274 -992 495 -374 140 -568 222 -772 325 -454 230
-779 495 -1056 862 -235 311 -375 615 -428 933 -24 139 -24 144 -41 425 -18
310 -34 434 -74 596 -45 175 -107 325 -208 502 l-45 77 50 98 c68 132 96 227
96 327 2 233 -119 326 -569 439 -161 40 -447 105 -650 146 -84 17 -168 41
-210 60 -277 126 -550 215 -1331 434 -637 179 -926 303 -1155 499 -477 408
-471 1142 18 1953 258 428 654 855 1046 1128 482 335 1061 539 1687 595 69 6
141 13 160 15 88 10 704 -4 840 -18z m11826 -285 c93 -33 556 -197 1029 -366
473 -169 1036 -369 1250 -445 3074 -1095 3421 -1220 3437 -1241 24 -28 23 -70
-1 -96 -24 -26 145 36 -1494 -548 l-1389 -494 -201 75 c-886 332 -2846 1058
-2865 1062 -12 2 -29 -1 -37 -8 -17 -14 -20 -66 -5 -75 8 -5 1487 -556 2638
-982 171 -64 312 -119 312 -122 0 -4 -636 -233 -1412 -511 l-1413 -505 -90 0
-90 0 -2909 1038 c-1599 571 -2921 1044 -2937 1053 -48 24 -52 99 -6 128 12 8
839 306 1837 661 998 356 2308 823 2910 1037 602 215 1111 395 1130 399 63 14
135 0 306 -60z m-4710 -2796 c813 -290 2129 -759 2924 -1043 l1445 -516 100 0
100 0 1487 531 1487 531 88 -33 88 -33 0 -88 0 -87 -440 -157 c-242 -87 -955
-341 -1585 -566 l-1145 -409 -80 0 c-76 0 -94 5 -335 92 -140 50 -1456 520
-2925 1043 -1702 606 -2678 959 -2692 972 -22 20 -23 29 -23 161 0 111 3 138
13 134 8 -3 679 -242 1493 -532z m10444 401 c0 -126 -2 -137 -22 -160 -18 -20
-284 -118 -1306 -482 -705 -251 -1285 -455 -1287 -452 -3 2 -5 41 -6 86 -1 97
-10 112 -84 141 -42 16 -47 20 -30 27 42 17 2720 972 2728 973 4 1 7 -59 7
-133z m-11135 -563 l220 -78 2 -95 c6 -245 46 -720 73 -869 21 -116 13 -110
-106 85 -208 338 -452 682 -708 998 -67 81 -131 161 -143 176 -24 29 -69 44
662 -217z m1887 -672 c2635 -939 3147 -1120 3183 -1130 84 -23 141 -14 320 48
94 32 805 284 1580 561 776 276 1418 505 1428 508 16 4 17 -34 17 -690 l0
-695 -47 -18 c-62 -24 -126 -84 -151 -143 -11 -27 -23 -83 -26 -132 -4 -47 -9
-114 -11 -150 -7 -88 -53 -774 -60 -880 -3 -47 -8 -110 -10 -140 -4 -46 -51
-729 -70 -1015 -3 -44 -7 -105 -10 -135 -2 -30 -7 -98 -10 -150 -3 -52 -8
-116 -11 -141 l-6 -47 -77 -35 c-557 -255 -1281 -427 -2091 -496 -449 -39
-1041 -33 -1510 14 -1618 164 -2874 785 -3167 1565 -66 176 -63 90 -63 1921 0
913 2 1659 4 1659 3 0 357 -126 788 -279z m7336 -1413 l-3 -1693 -27 -96 c-44
-162 -136 -332 -258 -478 -51 -61 -54 -64 -60 -40 -4 13 -10 76 -14 139 -4 63
-16 239 -26 390 -11 151 -26 379 -35 505 -14 211 -38 548 -50 720 -3 39 -10
132 -15 208 -5 76 -15 156 -22 179 -17 56 -87 131 -148 157 l-50 21 -2 706
c-2 388 0 711 4 717 5 9 677 255 701 256 4 1 6 -761 5 -1691z m-670 -114 c72
-47 75 -65 102 -479 12 -176 23 -342 25 -370 5 -58 12 -163 20 -290 3 -49 7
-112 10 -140 2 -27 7 -93 10 -145 3 -52 8 -115 10 -140 2 -25 7 -85 10 -135 3
-49 26 -385 51 -745 24 -360 47 -703 51 -762 l6 -108 -387 0 -386 0 0 28 c0
24 28 453 45 677 3 39 18 268 35 510 16 242 32 469 35 505 4 58 36 520 50 735
3 44 7 105 10 135 2 30 7 96 10 145 20 326 36 488 49 514 20 37 70 79 104 87
15 3 32 7 37 8 18 5 75 -12 103 -30z m-15574 -195 c22 -6 52 -23 66 -38 24
-24 28 -38 34 -112 18 -230 30 -321 51 -404 24 -94 68 -195 112 -253 13 -18
23 -36 21 -40 -2 -5 -37 -37 -78 -73 -89 -77 -114 -129 -124 -254 -8 -91 -24
-212 -32 -237 -9 -28 -70 -38 -241 -38 -158 0 -163 -1 -177 -22 -21 -33 -286
-954 -286 -993 0 -63 35 -88 192 -141 l141 -47 -34 -28 c-65 -55 -247 -137
-369 -168 -306 -77 -689 -64 -939 33 -149 58 -308 144 -404 219 l-39 30 89 32
c329 118 607 347 784 646 94 158 173 390 205 601 21 144 17 158 -73 230 -78
62 -159 157 -186 217 -27 62 -25 139 5 192 43 78 104 101 178 68 57 -26 103
-24 134 4 14 12 47 73 74 138 89 213 168 327 254 366 38 18 157 45 313 72 73
13 284 13 329 0z m632 -275 c139 -276 188 -489 209 -909 25 -505 83 -755 250
-1072 132 -250 283 -451 510 -679 382 -383 761 -601 1580 -907 340 -127 454
-175 630 -262 356 -177 545 -369 633 -645 30 -92 42 -171 42 -266 l0 -82 -32
-5 c-123 -22 -273 -32 -473 -31 -199 0 -244 3 -332 22 -203 44 -385 115 -578
225 -127 74 -330 211 -397 269 l-38 33 52 317 c47 295 50 320 38 364 -17 58
-74 119 -127 133 -24 7 -178 11 -405 11 l-368 0 -60 76 c-104 131 -253 333
-390 529 -166 237 -201 279 -301 355 -182 137 -461 233 -740 256 -84 6 -87 6
-103 -17 -9 -14 -13 -38 -11 -57 2 -17 2 -32 0 -32 -2 0 -95 11 -206 25 -177
23 -218 31 -323 69 -67 24 -148 52 -181 63 -43 14 -61 25 -63 39 -1 10 56 217
126 459 l128 440 150 6 c164 6 225 19 259 53 32 32 43 76 61 246 8 80 20 158
26 173 6 16 45 58 87 94 42 36 81 76 88 87 21 37 15 80 -18 126 -52 72 -99
182 -119 281 -11 51 -18 94 -17 94 58 31 199 137 252 191 38 39 75 70 80 69 6
0 42 -64 81 -141z m-3787 -2159 c123 -24 301 -69 301 -76 0 -5 -111 -299 -246
-656 -279 -735 -640 -1701 -830 -2216 l-128 -348 -20 43 c-22 46 -54 60 -82
38 -21 -18 -17 -49 17 -147 93 -264 243 -482 429 -622 270 -203 566 -273 1095
-257 127 4 257 9 290 12 112 10 470 55 545 70 41 8 84 14 96 14 16 0 45 -38
123 -157 56 -86 100 -161 97 -167 -16 -40 -208 -259 -361 -412 -284 -285 -536
-473 -823 -616 -291 -146 -543 -209 -829 -209 -210 0 -371 30 -607 111 -544
188 -937 561 -1160 1102 -98 238 -169 551 -192 843 -9 116 -9 444 0 560 40
513 183 1044 385 1430 295 563 764 1113 1281 1501 163 122 238 168 289 176 63
9 237 0 330 -17z m822 -81 c62 -6 67 -8 73 -33 10 -48 216 -198 395 -287 227
-112 409 -155 671 -157 205 -2 307 6 436 34 181 39 330 103 448 192 38 29 75
56 82 62 11 8 362 -25 430 -42 20 -4 22 -13 28 -101 7 -122 14 -253 21 -407 6
-141 12 -260 21 -402 l6 -102 -499 -3 c-492 -3 -498 -3 -539 -25 -56 -30 -103
-79 -126 -129 -11 -26 -58 -290 -123 -691 -203 -1254 -185 -1153 -206 -1132
-23 23 -76 25 -123 5 -132 -55 -234 -323 -253 -662 -6 -108 -6 -111 -24 -93
-21 21 -28 22 -84 9 -49 -11 -356 -56 -480 -70 -250 -28 -737 -35 -910 -11
-297 40 -521 149 -695 339 -70 76 -160 208 -197 289 l-25 54 27 77 c125 354
964 2593 1216 3246 l23 58 170 -6 c94 -4 201 -9 237 -12z m-1546 -33 c-6 -5
-66 -55 -135 -112 -68 -57 -188 -165 -265 -239 -90 -87 -124 -116 -95 -80 130
161 265 288 404 381 82 54 114 72 91 50z m4375 -117 c167 -30 346 -98 472
-180 107 -69 179 -148 328 -364 74 -107 189 -266 255 -353 66 -88 126 -168
134 -178 13 -19 0 -19 -647 -19 l-661 0 -5 53 c-3 28 -8 115 -11 192 -5 140
-12 275 -20 415 -2 41 -7 147 -10 235 -3 88 -8 175 -11 193 l-5 33 48 -6 c26
-4 86 -13 133 -21z m7700 -432 c0 -20 -65 -105 -108 -140 -26 -22 -103 -78
-171 -127 -192 -136 -291 -244 -332 -362 -18 -49 -19 -71 -13 -207 8 -174 0
-222 -52 -333 -48 -101 -136 -187 -246 -241 -95 -47 -164 -66 -296 -83 l-93
-12 -26 -51 c-14 -28 -27 -53 -28 -54 -2 -2 -65 36 -140 84 l-137 87 59 38 59
39 108 233 c59 127 155 333 213 457 l105 225 441 183 c243 101 487 202 542
226 109 48 115 50 115 38z m70 -189 c-16 -154 -50 -433 -55 -464 -9 -52 -65
-520 -79 -664 -74 -744 -23 -1382 165 -2068 27 -99 49 -182 49 -185 0 -4 -112
4 -175 14 -16 2 -223 28 -458 58 -235 29 -429 55 -432 57 -2 2 -31 112 -65
244 -73 286 -129 490 -216 799 l-65 229 85 167 c47 92 86 177 86 189 0 16 -22
36 -87 77 -49 31 -92 60 -96 64 -4 4 0 23 9 42 16 34 20 36 78 42 160 18 336
87 432 168 108 92 169 186 211 328 23 80 24 94 18 225 -9 185 -9 182 22 244
37 78 145 182 303 293 126 89 270 222 270 250 0 6 3 9 6 5 3 -3 1 -54 -6 -114z
m-5667 -593 c15 -12 29 -35 32 -53 6 -33 -16 -175 -344 -2197 -33 -201 -76
-466 -96 -590 -20 -124 -49 -306 -65 -405 -16 -99 -66 -403 -110 -675 -44
-272 -82 -510 -85 -528 -7 -37 -55 -96 -96 -118 -24 -12 -248 -14 -1608 -14
l-1579 0 -31 26 c-49 41 -56 -26 112 1006 40 246 75 450 78 452 3 3 117 28
255 55 572 113 724 177 724 304 0 33 34 59 122 93 86 33 131 75 175 164 64
131 66 272 5 393 -23 43 -32 52 -57 55 -17 2 -266 -40 -555 -92 -288 -53 -525
-94 -527 -92 -3 3 38 262 127 811 33 204 108 666 170 1050 23 143 49 272 57
288 7 15 32 41 55 57 l41 30 1587 0 c1583 0 1587 0 1613 -20z m3770 -656 c156
-98 613 -388 620 -394 13 -11 -146 -301 -276 -505 -664 -1036 -1591 -1723
-2522 -1871 -136 -21 -476 -26 -630 -9 -293 33 -614 120 -925 252 -88 38 -358
168 -368 178 -4 3 11 98 208 1310 77 478 142 870 143 871 1 1 46 -30 99 -69
357 -264 715 -417 1068 -458 95 -11 381 -7 475 5 17 3 58 7 93 11 284 28 680
125 1018 250 279 103 622 264 839 394 55 32 103 60 108 60 4 1 26 -11 50 -25z
m-11835 -471 c-93 -472 -104 -1017 -27 -1423 49 -258 117 -467 219 -675 111
-228 236 -402 415 -574 l97 -94 -16 -63 c-34 -135 -9 -246 79 -343 l37 -41
-95 -262 c-273 -753 -500 -1479 -623 -1996 -139 -586 -243 -1322 -339 -2382
-8 -94 -25 -292 -30 -355 -9 -131 -16 -212 -21 -255 -2 -25 -15 -191 -29 -370
-28 -365 -26 -347 -60 -750 -43 -513 -78 -768 -131 -960 -32 -115 -108 -340
-115 -340 -14 0 -164 172 -249 285 -124 166 -202 294 -321 531 -425 844 -699
2043 -795 3477 -18 270 -27 1120 -14 1332 73 1164 427 2205 1425 4190 238 474
614 1205 619 1205 1 0 -11 -62 -26 -137z m-176 -35 c-785 -1503 -1225 -2446
-1516 -3256 -66 -183 -190 -576 -202 -639 -11 -61 -22 -44 -42 70 -73 393 -87
741 -46 1147 117 1175 683 2181 1486 2643 97 56 366 183 396 187 2 0 -32 -69
-76 -152z m12583 -588 c70 -248 235 -868 235 -885 0 -6 -39 -9 -104 -7 -122 4
-196 -11 -302 -63 -171 -83 -288 -253 -315 -452 -6 -52 -9 -715 -7 -1958 l3
-1880 23 -75 c65 -211 209 -388 392 -484 121 -63 177 -76 545 -121 22 -3 164
-21 315 -40 151 -19 280 -35 286 -35 13 0 16 -28 49 -445 35 -452 33 -433 50
-725 8 -146 17 -298 20 -338 l5 -73 -33 5 c-17 3 -86 12 -152 21 -66 8 -280
35 -475 60 -195 25 -391 45 -435 45 -261 -1 -478 -157 -563 -405 l-27 -80 -5
-1153 -5 -1153 -85 123 c-83 119 -162 225 -601 808 -315 419 -429 593 -544
833 -126 263 -175 459 -182 737 -11 391 77 693 292 1000 29 41 108 145 175
230 199 251 281 388 334 551 79 246 73 555 -15 823 -87 262 -244 493 -515 757
-159 154 -284 258 -619 514 -528 404 -762 611 -942 835 -289 359 -419 743
-391 1154 5 60 10 111 13 114 3 3 42 0 87 -6 210 -30 525 -35 693 -13 811 107
1642 622 2288 1418 154 190 427 578 427 607 0 38 27 -40 85 -244z m-8215 -393
c10 -126 17 -174 30 -189 16 -20 19 -19 627 91 337 61 614 111 617 111 3 0 13
-26 22 -57 29 -99 5 -223 -60 -308 -17 -22 -51 -43 -113 -68 -111 -46 -151
-84 -161 -153 -8 -54 -26 -69 -126 -104 -151 -53 -699 -170 -798 -170 -79 0
-141 33 -185 98 -51 76 -65 139 -69 302 -4 166 17 304 67 454 31 94 56 137 98
173 23 21 26 21 32 5 3 -9 12 -93 19 -185z m8795 -647 c220 -28 414 -52 430
-55 17 -2 287 -36 600 -75 314 -39 581 -73 595 -75 14 -2 241 -31 505 -64 539
-68 1599 -201 1835 -231 85 -11 173 -22 195 -25 389 -48 1016 -127 1035 -130
14 -2 48 -7 75 -10 28 -3 64 -8 82 -10 17 -3 229 -29 470 -60 442 -55 1750
-220 1833 -230 25 -4 239 -31 475 -60 908 -115 1782 -225 1820 -230 22 -3 146
-19 275 -35 129 -16 629 -79 1110 -139 481 -61 1269 -160 1750 -221 598 -75
896 -116 940 -130 196 -63 369 -234 442 -440 l23 -65 3 -1923 c3 -2107 6
-1976 -55 -2096 -73 -145 -260 -256 -429 -256 -35 0 -808 92 -959 115 -16 2
-322 40 -680 85 -357 45 -661 83 -675 85 -14 2 -279 36 -590 75 -311 39 -580
73 -599 75 -18 3 -158 21 -310 40 -152 19 -582 73 -956 120 -974 123 -1065
134 -1110 140 -22 3 -110 14 -195 25 -279 35 -1819 229 -2060 259 -284 36
-2216 279 -2280 287 -25 3 -57 7 -71 10 -14 2 -192 24 -395 49 -203 25 -434
54 -514 65 -80 10 -166 21 -191 24 -25 4 -277 35 -560 71 -283 36 -784 99
-1114 140 -330 41 -613 77 -630 79 -51 8 -187 25 -245 31 -153 17 -344 47
-380 60 -200 71 -362 232 -434 434 l-31 86 0 1935 0 1935 23 59 c47 124 131
220 241 275 128 65 194 65 706 1z m-8980 -715 c-98 -606 -133 -816 -137 -821
-3 -2 -83 -13 -179 -24 -342 -40 -668 -97 -989 -174 -444 -106 -823 -121
-1190 -46 -389 79 -697 273 -740 467 -7 27 5 131 15 141 2 2 46 -24 97 -57
239 -158 571 -282 874 -327 149 -22 406 -15 558 16 221 44 464 139 682 266
352 205 716 525 998 876 38 48 71 87 72 85 2 -1 -26 -182 -61 -402z m3866 321
c260 -126 529 -224 756 -277 l102 -24 -7 -45 c-4 -25 -7 -124 -7 -220 1 -267
46 -458 164 -705 187 -387 460 -669 1171 -1210 656 -499 888 -732 1054 -1057
108 -211 147 -384 142 -633 -3 -143 -7 -185 -29 -265 -49 -186 -121 -309 -339
-586 -262 -333 -361 -513 -432 -784 -112 -423 -58 -887 151 -1304 l55 -109
-89 7 c-48 3 -128 9 -178 11 -535 33 -747 103 -951 317 -226 236 -284 517
-240 1178 28 431 31 509 30 840 -1 451 -33 721 -135 1120 -98 383 -362 1007
-560 1325 -193 310 -444 577 -701 745 -99 66 -271 155 -375 195 l-72 28 44 49
c24 27 48 63 54 81 6 18 38 201 71 407 34 206 83 511 110 677 28 167 50 305
50 308 0 8 2 7 161 -69z m-6665 -1402 l42 -16 -87 -171 c-522 -1033 -916
-2325 -1097 -3601 -16 -110 -22 -131 -41 -143 -24 -16 -56 -6 -66 21 -11 28
59 486 129 836 178 895 482 1844 849 2645 61 134 218 445 224 445 3 0 24 -7
47 -16z m6092 -181 c87 -376 178 -959 228 -1458 24 -240 24 -934 -1 -1110 -2
-16 -7 -70 -10 -120 -5 -80 -13 -170 -30 -345 -9 -88 -54 -438 -69 -541 -225
-1492 -689 -2626 -1342 -3283 -204 -204 -402 -348 -634 -460 -117 -57 -272
-116 -302 -116 -9 0 -7 116 7 310 3 36 9 157 15 270 17 354 20 413 25 505 6
109 12 244 25 560 5 132 12 294 15 360 7 169 23 587 30 795 3 96 7 222 10 280
3 58 7 200 10 315 3 116 7 260 10 320 2 61 7 207 10 325 3 118 7 280 10 360 3
80 7 244 10 365 3 121 7 288 10 370 2 83 7 272 10 420 3 149 7 344 10 435 3
91 7 316 10 500 3 184 8 403 10 485 3 83 5 239 5 348 l0 197 954 0 954 0 20
-87z m250 -48 c465 -226 785 -577 1081 -1186 273 -559 412 -1016 478 -1567 26
-214 25 -834 -2 -1172 -25 -321 -26 -725 -2 -856 20 -110 60 -240 94 -309 114
-225 324 -404 573 -488 149 -49 286 -69 640 -92 272 -18 307 -22 314 -41 17
-43 220 -332 440 -622 346 -459 509 -680 636 -863 l109 -157 3 -693 c4 -685 4
-695 26 -767 29 -94 78 -192 134 -266 l44 -58 -10 -71 c-7 -42 -17 -73 -26
-79 -8 -5 -364 -136 -790 -292 l-775 -283 -96 256 c-344 917 -780 1820 -1291
2670 -70 118 -127 215 -125 216 1 1 301 111 667 245 366 133 682 249 702 257
39 16 52 35 43 64 -15 47 -30 44 -382 -85 -864 -317 -1085 -397 -1088 -394 -1
2 -44 68 -95 148 -404 630 -884 1286 -1367 1868 l-144 173 40 182 c64 291 120
612 156 882 9 66 18 134 20 150 4 32 40 372 50 470 13 136 34 524 40 730 7
225 -3 452 -30 715 -24 224 -46 399 -81 625 -37 242 -42 271 -99 560 -39 198
-38 195 -27 195 4 0 67 -29 140 -65z m-5543 -69 c14 -22 14 -29 -11 -97 -39
-110 -141 -311 -216 -424 -215 -327 -493 -575 -823 -736 -129 -63 -168 -71
-185 -39 -21 39 -3 57 107 109 213 102 352 200 527 370 119 116 243 271 329
411 51 83 158 303 177 365 7 22 17 46 23 53 16 20 55 14 72 -12z m12460 -2991
c374 -47 694 -87 710 -90 17 -2 169 -21 338 -42 l309 -38 -6 -85 c-29 -390
-52 -610 -92 -880 -13 -91 -41 -257 -61 -369 l-37 -203 -67 6 c-37 4 -78 9
-91 11 -36 6 -77 11 -633 80 -286 36 -538 67 -560 70 -22 3 -158 21 -303 39
-145 19 -266 37 -269 40 -3 3 -12 115 -19 248 -17 313 -39 619 -70 988 -13
162 -24 304 -24 315 0 20 2 21 98 8 53 -7 403 -51 777 -98z m-11791 -470 c24
-248 55 -571 61 -629 3 -28 12 -123 20 -211 8 -88 17 -182 20 -210 7 -72 34
-361 40 -425 2 -30 9 -104 15 -165 21 -227 99 -1171 115 -1405 11 -153 33
-515 31 -516 0 -1 -86 -5 -191 -8 -489 -18 -910 -76 -1314 -182 -73 -19 -135
-33 -138 -30 -6 6 29 115 361 1126 419 1272 949 2841 957 2833 4 -5 14 -84 23
-178z m10666 -1048 c371 -48 693 -89 715 -92 22 -3 220 -28 440 -56 220 -27
720 -90 1110 -139 621 -79 3023 -381 3145 -396 25 -3 56 -7 70 -9 14 -3 241
-31 505 -65 1115 -140 1615 -202 1950 -245 22 -3 220 -28 440 -55 220 -28 470
-59 555 -70 85 -11 173 -22 195 -25 22 -3 274 -35 560 -70 286 -36 536 -68
555 -70 114 -15 419 -54 1820 -230 1666 -210 1623 -203 1748 -277 73 -42 198
-167 240 -240 18 -31 45 -89 60 -130 l27 -73 3 -1915 c2 -1422 0 -1929 -8
-1970 -36 -169 -156 -305 -318 -361 -114 -39 -141 -37 -997 70 -440 56 -814
103 -831 106 -29 4 -323 41 -1509 190 -286 36 -590 74 -675 85 -204 27 -173
23 -670 85 -611 76 -1432 180 -1710 215 -129 17 -253 32 -275 35 -195 24 -767
96 -791 100 l-31 5 -6 128 c-25 503 -281 962 -762 1367 -121 102 -195 175
-178 175 6 0 277 -34 603 -75 427 -53 598 -72 611 -64 22 11 26 61 7 77 -7 5
-305 47 -663 92 l-650 81 -23 27 c-58 71 -115 261 -132 442 -9 105 -14 250 -7
250 9 0 1047 -131 1067 -135 43 -7 153 -18 200 -19 37 -1 46 3 56 23 16 30 3
59 -29 66 -12 3 -206 28 -432 55 -225 28 -511 64 -633 81 -123 16 -228 29
-232 29 -5 0 -11 30 -15 68 -25 250 -76 449 -149 572 -24 41 -40 76 -35 78 9
4 107 -8 464 -54 105 -13 210 -27 235 -30 25 -3 275 -34 555 -70 281 -35 780
-98 1110 -139 330 -41 614 -77 630 -80 150 -21 275 -34 288 -29 34 13 33 78
-1 88 -25 7 -185 28 -1727 221 -330 41 -613 77 -630 80 -16 2 -253 32 -525 66
l-495 61 -85 82 c-107 104 -163 149 -270 218 -347 225 -707 288 -951 166 -76
-38 -175 -133 -219 -210 -17 -32 -33 -58 -34 -58 -4 0 -887 111 -920 116 -21
3 -285 36 -585 74 -300 38 -766 96 -1034 130 -465 58 -490 61 -508 44 -24 -21
-24 -46 -1 -66 12 -12 247 -44 912 -127 492 -62 902 -114 910 -116 8 -2 46 -6
83 -10 37 -3 76 -8 85 -10 9 -1 242 -31 517 -65 275 -34 502 -64 503 -65 2 -2
-4 -36 -13 -77 -48 -217 -37 -511 31 -848 123 -611 477 -1539 774 -2030 79
-130 165 -299 156 -307 -3 -3 -239 24 -361 42 -16 2 -322 40 -680 85 -357 45
-661 83 -675 85 -14 2 -279 36 -590 75 -311 39 -580 73 -599 75 -18 3 -158 21
-310 40 -1376 172 -1725 217 -1781 231 -215 52 -412 242 -481 464 l-24 75 0
1930 0 1930 23 59 c59 156 180 270 332 313 86 24 268 9 970 -80z m-5873 -179
c457 -558 923 -1199 1296 -1783 68 -107 76 -124 71 -156 -7 -41 17 -74 47 -66
15 4 44 -38 157 -226 247 -413 509 -894 496 -907 -5 -5 -445 -168 -979 -364
-533 -195 -978 -358 -987 -361 -35 -14 -34 -79 2 -90 11 -3 182 54 427 144
499 182 1563 572 1580 578 25 10 357 -689 559 -1172 119 -285 285 -728 276
-737 -4 -3 -684 -254 -1512 -558 l-1505 -551 -28 33 c-50 58 -173 250 -230
358 -194 367 -299 813 -332 1415 -3 55 -8 121 -10 146 l-5 46 176 64 c186 68
205 81 185 125 -16 35 -45 31 -211 -30 -80 -30 -148 -52 -151 -50 -3 2 -9 51
-13 110 -23 361 -96 635 -216 808 -46 68 -171 179 -243 217 l-68 35 1077 395
c593 217 1087 401 1097 410 27 21 16 66 -17 75 -17 4 -363 -119 -1161 -411
l-1138 -417 -76 5 c-180 10 -348 -26 -686 -146 -115 -42 -219 -79 -229 -83
-21 -8 -21 6 1 322 l6 90 70 18 c158 41 374 144 553 265 438 293 799 738 1100
1356 162 333 313 741 420 1132 22 79 42 143 45 143 4 0 74 -82 156 -182z
m9918 -1592 c231 -70 471 -220 651 -409 245 -256 298 -426 329 -1057 23 -450
119 -647 457 -932 280 -235 456 -451 583 -713 101 -210 144 -379 151 -605 5
-145 4 -165 -26 -320 -38 -195 -48 -391 -26 -505 32 -161 115 -333 229 -473
30 -37 104 -119 164 -183 202 -214 304 -372 381 -590 61 -172 77 -273 77 -489
0 -259 -25 -403 -130 -750 -39 -128 -54 -239 -50 -385 7 -323 134 -623 409
-967 90 -113 123 -138 181 -138 68 0 90 21 147 138 46 94 62 118 142 197 80
80 106 98 215 154 96 49 138 78 185 125 149 148 287 418 421 823 64 190 107
266 219 382 352 364 1031 598 1323 455 114 -55 213 -172 304 -359 230 -471
205 -1075 -55 -1339 -110 -111 -250 -208 -559 -383 -571 -325 -688 -396 -850
-516 -116 -86 -224 -185 -287 -264 -76 -94 -106 -146 -137 -234 -22 -63 -25
-91 -27 -233 -2 -138 -5 -170 -25 -226 -28 -82 -85 -177 -152 -257 l-53 -63
-286 -1 c-274 -1 -311 -1 -318 6 -2 1 13 67 33 146 69 277 179 569 315 838
111 219 99 204 230 264 278 127 704 401 1043 669 96 77 108 104 62 134 -25 16
-27 16 -64 -12 -21 -16 -108 -81 -192 -145 -187 -142 -363 -262 -529 -361
-151 -91 -339 -192 -345 -186 -7 6 189 298 282 422 395 525 982 1097 1492
1454 157 110 182 132 174 161 -6 25 -39 42 -63 33 -24 -9 -203 -137 -344 -245
-147 -114 -340 -276 -470 -395 -49 -45 -91 -80 -93 -78 -3 2 -4 43 -4 90 2
212 110 508 252 687 45 57 35 99 -23 99 -23 0 -37 -13 -83 -77 -106 -150 -195
-363 -229 -547 -8 -43 -15 -141 -15 -219 l-2 -141 -122 -125 c-719 -739 -1205
-1572 -1387 -2373 l-22 -98 -444 -2 -444 -3 -1 255 c0 140 -2 275 -4 300 -2
25 -6 126 -10 225 -7 210 -9 255 -36 590 -27 343 -59 628 -109 980 -151 1051
-422 2184 -787 3289 l-75 229 30 96 c42 129 49 157 68 286 33 211 19 634 -27
807 -13 49 -41 65 -75 43 -27 -18 -28 -21 -14 -96 5 -30 12 -67 15 -84 3 -16
10 -105 17 -197 13 -193 1 -411 -31 -563 -32 -149 -33 -150 -65 -59 -343 974
-842 2109 -1274 2897 -93 168 -112 188 -152 152 -11 -10 -20 -24 -20 -30 0 -7
45 -95 101 -196 55 -101 176 -337 269 -524 737 -1489 1345 -3206 1684 -4760
75 -345 109 -515 104 -521 -8 -7 -147 198 -223 326 -77 131 -180 336 -216 429
-13 35 -34 70 -46 78 -21 14 -26 14 -48 -1 -14 -9 -25 -23 -25 -32 0 -20 71
-186 131 -305 107 -215 233 -414 358 -567 42 -52 84 -104 94 -117 17 -20 62
-253 92 -474 l7 -55 -53 44 c-176 145 -348 370 -450 590 -22 47 -45 96 -52
110 -17 34 -60 39 -80 10 -19 -27 -11 -51 57 -194 109 -226 327 -494 516 -631
55 -41 81 -66 84 -84 3 -14 12 -80 21 -146 9 -66 18 -136 20 -155 16 -114 56
-559 70 -755 25 -372 31 -521 34 -862 l3 -323 -220 0 -219 0 4 24 c9 46 -120
432 -250 753 -266 650 -696 1435 -1174 2143 -128 189 -142 205 -171 208 -26 3
-34 -1 -43 -22 -14 -29 -18 -20 127 -233 277 -405 577 -910 817 -1373 105
-203 260 -530 254 -537 -11 -10 -146 105 -272 232 -138 138 -273 296 -434 508
-45 59 -89 107 -97 107 -29 0 -54 -21 -54 -45 0 -28 117 -187 286 -390 208
-250 469 -487 600 -546 47 -21 57 -43 165 -332 53 -140 159 -468 159 -489 0
-4 -138 -8 -307 -8 l-308 0 -85 61 c-261 187 -417 358 -516 565 -55 114 -89
242 -109 414 -22 191 -34 264 -56 355 -60 241 -305 596 -735 1062 -160 173
-298 438 -372 713 -49 181 -60 402 -28 560 18 88 71 226 114 295 130 211 339
346 534 347 101 1 165 -30 263 -127 142 -140 305 -435 510 -920 138 -325 178
-407 219 -443 66 -57 153 -55 217 6 46 44 66 112 100 342 27 181 23 386 -11
520 -42 173 -170 381 -301 490 -30 24 -110 98 -177 165 -365 355 -546 701
-592 1131 -6 56 -10 227 -8 380 2 319 -7 397 -72 594 -49 150 -83 221 -197
413 -155 261 -272 507 -418 882 -297 763 -432 1364 -395 1764 29 317 138 493
348 562 87 29 285 21 407 -15z m-14405 -848 c1 -2 3 -48 6 -103 l5 -100 -41
45 c-74 81 -130 147 -130 154 0 5 159 9 160 4z m-235 -75 c27 -36 94 -113 149
-170 l99 -104 -7 -127 c-12 -234 -18 -281 -115 -942 -47 -313 -61 -497 -61
-776 0 -222 17 -495 45 -709 2 -22 18 -159 35 -305 48 -425 175 -1455 225
-1820 8 -58 17 -127 20 -155 4 -27 10 -77 15 -110 4 -33 5 -63 1 -66 -6 -7
-3585 -1318 -3588 -1316 -2 3 -12 95 -19 182 -3 44 -12 90 -20 103 -16 24 -52
29 -73 10 -11 -11 -12 -5 -7 32 3 25 13 106 22 180 8 74 20 171 25 215 5 44
12 108 16 143 7 70 19 82 86 82 71 0 73 2 96 123 93 474 389 1528 818 2917
291 944 771 2442 786 2451 16 11 303 87 430 114 128 27 384 70 484 81 213 22
319 31 398 32 l90 2 50 -67z m3002 -536 c-67 -26 -85 -47 -68 -83 7 -16 19
-24 36 -24 14 0 107 30 206 66 205 75 198 75 329 9 278 -140 387 -397 435
-1021 l6 -80 -492 -180 c-515 -188 -534 -197 -510 -243 6 -11 19 -22 29 -25
10 -4 223 69 495 169 263 96 480 175 482 175 3 0 5 -20 5 -44 0 -93 32 -439
56 -606 68 -475 194 -833 411 -1165 36 -55 79 -117 95 -138 17 -21 28 -40 25
-43 -12 -13 -2582 -949 -2585 -943 -2 5 13 138 32 296 44 357 98 826 125 1083
12 107 23 215 26 240 16 156 57 572 70 720 8 96 17 193 20 215 4 36 16 179 30
335 23 275 38 455 55 690 28 386 28 392 32 394 14 10 526 183 594 202 112 29
136 30 61 1z m22110 -413 c131 -19 326 -48 433 -64 107 -16 393 -59 635 -95
242 -36 483 -72 535 -80 52 -8 248 -38 435 -65 187 -28 475 -71 640 -96 165
-25 345 -52 400 -59 99 -14 186 -27 440 -66 72 -11 297 -44 500 -74 204 -31
400 -65 437 -76 120 -38 223 -147 259 -274 16 -56 14 -174 -5 -237 -18 -62
-79 -153 -128 -190 -50 -38 -18 -23 -1612 -748 -1491 -678 -4410 -2005 -4561
-2074 -44 -21 -577 -263 -1185 -540 l-1105 -502 -7 25 c-4 14 -17 74 -28 133
-11 58 -33 145 -48 193 -25 76 -27 87 -13 94 9 5 412 189 896 409 484 220
1578 717 2430 1105 853 388 2254 1025 3115 1416 861 392 1575 719 1588 727 12
8 22 22 22 32 0 36 -24 51 -95 62 -38 5 -131 19 -205 30 -74 11 -225 34 -335
50 -110 16 -261 39 -335 50 -74 11 -238 36 -365 55 -126 19 -320 48 -430 64
-110 16 -580 87 -1045 156 -465 69 -946 141 -1070 160 -124 19 -280 42 -347
52 l-123 17 0 223 c0 215 1 223 20 223 10 0 126 -16 257 -36z m28 -554 c343
-51 1275 -190 1375 -205 52 -7 248 -37 435 -65 187 -28 444 -66 570 -85 127
-19 365 -54 530 -79 165 -25 363 -54 440 -66 270 -39 457 -69 461 -72 2 -2
-389 -182 -869 -400 -822 -374 -1732 -788 -5435 -2472 -854 -388 -1556 -706
-1561 -706 -5 0 -24 28 -41 63 -114 219 -266 357 -440 398 -85 20 -267 15
-389 -11 -348 -73 -723 -276 -947 -512 -119 -126 -170 -214 -224 -388 -43
-142 -131 -363 -195 -490 l-52 -104 -519 -237 c-325 -148 -523 -233 -530 -228
-23 19 -125 231 -158 330 -51 151 -69 277 -63 429 6 128 11 153 92 440 61 213
87 388 88 590 1 191 -13 300 -58 454 -81 279 -196 469 -445 732 -280 296 -369
492 -357 788 4 111 46 378 61 393 4 4 725 -84 756 -92 8 -2 45 -6 82 -10 37
-3 77 -8 90 -10 23 -4 173 -23 1423 -180 374 -47 695 -87 713 -90 19 -3 266
-34 550 -70 284 -35 679 -85 877 -110 198 -25 504 -63 680 -85 305 -39 344
-44 425 -55 19 -2 55 -7 80 -9 25 -3 151 -19 280 -35 1216 -156 1356 -172
1425 -166 245 24 433 171 517 405 l23 65 3 996 3 996 52 -8 c28 -5 142 -22
252 -39z m-15494 -554 c85 -37 162 -51 491 -92 169 -21 307 -39 305 -40 -2 -2
-6306 -2312 -8175 -2996 -211 -77 -386 -137 -389 -134 -7 7 56 479 65 487 4 4
223 86 487 182 264 97 1088 398 1830 670 743 272 1820 667 2395 877 575 211
1466 537 1980 726 514 189 940 343 946 344 6 0 36 -11 65 -24z m1119 -171 c65
-7 816 -102 1000 -125 85 -11 173 -22 195 -25 22 -3 274 -35 560 -70 286 -36
536 -68 555 -70 51 -7 921 -117 1362 -172 l377 -48 21 -88 c34 -144 38 -209
33 -463 -8 -340 17 -537 97 -769 115 -333 329 -630 672 -932 164 -144 251
-272 304 -448 24 -80 27 -109 30 -260 3 -173 0 -205 -38 -402 -23 -123 -40
-153 -87 -153 -30 0 -59 26 -84 75 -8 17 -79 179 -157 360 -229 531 -362 772
-514 927 -117 121 -215 168 -347 168 -246 0 -516 -192 -652 -465 -167 -336
-143 -760 69 -1204 103 -217 148 -284 292 -440 296 -321 516 -611 621 -819 56
-110 79 -202 106 -417 14 -113 28 -218 31 -233 l5 -27 -1533 -697 c-843 -383
-2338 -1063 -3323 -1511 -984 -448 -1828 -828 -1875 -845 -269 -97 -489 -135
-780 -135 -198 0 -271 7 -578 63 -227 40 -618 110 -907 161 -93 16 -204 36
-245 44 -41 8 -217 39 -390 70 -173 31 -439 78 -590 105 -451 81 -1109 198
-1200 214 -117 20 -1123 200 -1290 230 -74 14 -238 43 -365 65 -126 23 -329
59 -450 81 -121 22 -726 130 -1345 240 -619 110 -1224 218 -1345 240 -378 67
-774 138 -920 164 -145 25 -978 174 -1405 251 -135 24 -299 53 -365 65 -66 11
-205 36 -310 55 -104 19 -253 45 -330 59 -77 13 -356 63 -620 110 -1001 179
-1518 271 -2080 371 -170 31 -336 61 -367 68 l-56 12 996 365 c548 200 1122
410 1275 466 210 77 278 98 274 86 -3 -9 -28 -79 -57 -156 -29 -77 -56 -172
-62 -215 -35 -241 129 -488 352 -530 77 -14 659 2 745 21 125 27 236 120 303
254 101 200 280 609 363 828 68 179 99 287 106 378 4 47 11 79 18 82 130 49
3606 1320 3621 1323 19 4 21 -5 47 -197 14 -111 28 -204 29 -206 7 -7 181 -34
217 -34 l37 0 18 -192 c9 -106 20 -209 22 -228 4 -30 1 -26 -20 24 -14 32 -31
65 -37 72 -15 18 -53 18 -68 0 -9 -11 -40 -284 -76 -671 -3 -33 -12 -125 -20
-205 -8 -80 -20 -194 -25 -255 -6 -60 -13 -130 -15 -155 -33 -311 -55 -549
-55 -589 0 -75 35 -157 92 -217 88 -93 143 -108 458 -124 312 -16 784 15 985
66 149 37 255 172 255 325 0 82 -251 912 -398 1315 -89 243 -188 475 -209 492
-24 17 -40 15 -63 -8 -20 -20 -20 -20 -20 229 l0 248 46 13 c29 8 49 21 55 34
5 12 34 190 64 396 31 206 57 375 58 375 1 1 274 101 607 222 928 340 7098
2599 7995 2929 136 49 210 72 230 69 17 -2 50 -7 75 -10z m-10309 -3385 c17
-122 29 -223 27 -225 -7 -5 -3618 -1325 -3626 -1325 -7 0 -21 226 -26 418 l-1
44 570 209 c314 114 1121 410 1795 657 674 247 1226 448 1228 446 2 -1 17
-102 33 -224z m-4243 -24 c102 -19 371 -38 423 -30 l38 6 -5 -33 c-2 -19 -13
-108 -24 -199 -77 -655 -70 -610 -106 -664 l-33 -49 -10 39 c-5 22 -22 91 -37
154 -14 63 -33 123 -42 133 -13 15 -36 17 -199 17 l-183 0 0 334 0 335 48 -14
c26 -8 84 -21 130 -29z m5322 -893 l0 -238 -23 39 c-34 61 -70 73 -248 87
l-155 12 -44 -24 c-24 -13 -54 -40 -67 -59 -53 -82 -48 -90 -68 116 -10 104
-17 194 -17 199 1 6 44 13 97 17 109 8 304 40 415 67 123 31 110 56 110 -216z
m-5140 -28 c25 -104 49 -196 53 -202 5 -7 21 -13 37 -13 27 0 38 13 121 141
73 111 94 137 100 123 7 -20 35 -392 44 -600 9 -174 -7 -300 -54 -441 -115
-343 -404 -983 -482 -1068 -44 -48 -111 -88 -164 -98 -97 -19 -655 -32 -719
-18 -145 34 -251 175 -263 351 -5 69 -2 86 35 195 83 249 230 561 385 817 91
150 138 243 212 418 43 103 189 485 220 578 4 10 52 12 217 10 l213 -3 45
-190z m4911 -186 c57 -5 109 -15 115 -22 6 -7 32 -65 59 -129 26 -65 54 -123
61 -129 30 -25 63 -1 99 71 19 39 39 70 44 70 13 0 133 -308 216 -550 152
-448 325 -1036 325 -1108 0 -66 -42 -147 -95 -184 -66 -46 -274 -79 -627 -99
-211 -12 -560 -1 -678 21 -110 21 -190 116 -190 226 0 28 13 186 30 350 16
165 41 418 55 564 14 146 27 285 30 310 11 92 35 356 35 380 0 22 3 21 23 -15
22 -39 50 -53 72 -38 18 13 171 206 185 233 34 66 48 69 241 49z m17339 -164
c-28 -29 -82 -65 -145 -97 -55 -28 -127 -70 -160 -93 -115 -82 -225 -218 -275
-339 -37 -92 -58 -80 -204 112 -27 35 -45 67 -40 72 11 11 846 390 859 390 5
0 -11 -20 -35 -45z m-23186 -322 c-52 -78 -174 -294 -236 -419 l-71 -142
-1414 -518 c-959 -351 -1417 -523 -1424 -535 -12 -23 -11 -32 4 -52 12 -17 25
-19 947 -183 140 -24 289 -51 330 -59 41 -8 181 -33 310 -55 129 -23 332 -59
450 -81 118 -21 341 -61 495 -88 154 -27 510 -91 790 -141 1170 -209 1905
-340 1985 -354 94 -16 733 -131 1125 -201 428 -77 1196 -213 1285 -229 47 -8
339 -60 650 -116 311 -55 617 -110 680 -121 63 -11 149 -27 190 -34 41 -8 167
-30 280 -50 113 -20 239 -42 280 -50 41 -8 217 -39 390 -70 173 -31 439 -78
590 -105 451 -81 1109 -198 1200 -214 117 -20 1123 -200 1290 -230 74 -14 239
-43 365 -65 127 -23 329 -59 450 -81 1080 -194 1065 -192 1305 -192 251 0 447
28 677 98 189 57 -237 -134 4288 1924 886 403 1822 829 2080 947 259 118 474
215 479 216 4 1 18 -27 31 -63 31 -92 68 -167 125 -254 27 -41 46 -77 42 -80
-5 -3 -210 -97 -458 -209 -247 -113 -1146 -522 -1999 -910 -852 -388 -2150
-978 -2884 -1312 -1408 -640 -1502 -679 -1776 -740 -197 -44 -315 -56 -565
-60 -250 -4 -345 4 -600 49 -74 14 -238 43 -365 65 -126 23 -255 46 -285 51
-145 27 -719 129 -3505 626 -769 137 -981 175 -1310 234 -121 21 -258 46 -305
54 -115 20 -2423 431 -2530 451 -89 16 -420 75 -950 170 -173 31 -400 71 -505
90 -104 19 -228 41 -275 49 -76 13 -270 48 -1125 201 -615 110 -2371 423
-2775 495 -1272 226 -1229 217 -1307 255 -292 143 -311 577 -32 742 30 17 617
237 1304 489 688 251 1480 541 1760 645 281 103 516 188 524 188 10 1 9 -6 -5
-26z m23786 -2668 c0 -663 -4 -722 -60 -942 -191 -737 -809 -1304 -1563 -1433
-623 -106 -1264 98 -1711 546 -321 321 -523 749 -566 1199 -5 61 -10 361 -10
673 l0 562 1955 0 1955 0 0 -605z"/>
<path d="M26127 28212 c-36 -40 -9 -76 63 -85 25 -3 299 -38 610 -77 311 -39
585 -73 610 -76 25 -3 56 -7 70 -9 14 -3 264 -34 555 -70 292 -36 544 -68 560
-70 36 -6 928 -119 1700 -215 308 -39 574 -72 590 -75 17 -2 264 -33 550 -69
286 -36 644 -81 795 -100 1196 -153 1871 -235 1884 -230 33 13 31 78 -2 88 -9
3 -129 19 -267 36 -137 17 -261 33 -275 35 -14 2 -47 7 -75 10 -27 3 -64 8
-82 10 -17 3 -229 29 -470 60 -548 68 -1773 223 -1833 230 -25 4 -238 31 -475
60 -908 115 -1782 225 -1820 230 -22 3 -146 19 -275 35 -232 29 -1680 211
-2143 270 -131 16 -241 30 -246 30 -4 0 -15 -8 -24 -18z"/>
<path d="M36885 27654 c-352 -51 -646 -199 -872 -438 -185 -196 -303 -425
-364 -705 -27 -123 -37 -394 -20 -524 47 -351 192 -687 418 -967 83 -103 260
-273 363 -349 178 -133 377 -233 582 -295 194 -58 288 -71 513 -71 183 1 210
3 320 29 155 36 236 66 366 133 602 311 890 1011 709 1728 -181 717 -776 1289
-1495 1436 -75 15 -148 21 -295 24 -107 2 -208 1 -225 -1z m-65 -615 c195 -88
217 -359 33 -420 -45 -15 -120 -6 -170 20 -48 24 -110 90 -130 139 -19 45 -18
130 0 174 41 95 162 134 267 87z m698 -521 c224 -110 424 -207 445 -215 20 -8
37 -18 37 -21 0 -4 -7 -25 -16 -48 l-16 -42 -62 28 c-65 30 -859 419 -863 424
-2 1 5 21 14 44 13 34 20 41 35 36 11 -3 202 -96 426 -206z m-653 -20 c10 -44
145 -871 143 -874 -2 -1 -24 -5 -49 -9 l-45 -7 -75 451 -75 450 40 4 c23 2 44
4 48 5 4 1 10 -8 13 -20z m1501 -214 c142 -88 183 -265 85 -363 -107 -107
-294 -53 -367 104 -53 113 -7 242 100 279 45 16 142 5 182 -20z m-331 -370
c15 -20 23 -39 19 -44 -5 -5 -160 -114 -344 -244 l-335 -236 -27 32 c-15 18
-26 38 -25 43 3 10 666 483 678 484 4 1 19 -15 34 -35z m-928 -420 c102 -43
181 -130 214 -235 42 -135 4 -251 -106 -322 -47 -30 -55 -32 -140 -32 -79 0
-97 4 -142 28 -177 93 -254 287 -177 444 60 123 213 174 351 117z"/>
<path d="M26118 27406 c-13 -31 -5 -53 24 -65 13 -6 176 -28 363 -51 187 -23
351 -43 365 -45 14 -3 134 -18 265 -34 246 -31 1646 -207 2424 -306 312 -39
439 -52 452 -44 22 11 26 61 7 77 -7 6 -357 53 -778 106 -421 53 -796 100
-835 106 -38 5 -95 12 -125 15 -30 4 -66 8 -80 10 -14 2 -191 25 -395 50 -203
25 -435 54 -515 65 -80 10 -167 22 -195 25 -27 3 -245 31 -484 61 -238 30
-444 54 -457 54 -16 0 -28 -8 -36 -24z"/>
<path d="M31899 26679 c-17 -33 3 -67 43 -73 18 -4 178 -24 354 -46 177 -22
409 -51 515 -65 106 -14 201 -22 211 -19 31 9 42 42 23 70 -8 13 -21 24 -28
24 -6 0 -244 29 -527 65 -283 36 -529 65 -547 65 -23 0 -36 -6 -44 -21z"/>
<path d="M26130 26623 c-11 -8 -20 -22 -20 -32 0 -47 4 -48 465 -106 242 -31
743 -94 1113 -140 506 -64 677 -83 692 -75 29 15 27 67 -2 80 -19 7 -472 68
-708 95 -30 3 -66 8 -80 10 -14 3 -206 27 -425 54 -220 28 -526 66 -680 85
-154 20 -292 37 -308 39 -15 2 -36 -3 -47 -10z"/>
<path d="M29953 26139 c-20 -20 -15 -57 10 -73 12 -7 49 -16 82 -19 53 -5 256
-31 1160 -146 136 -18 226 -25 237 -20 22 12 31 44 19 67 -12 23 56 13 -741
113 -759 95 -751 95 -767 78z"/>
<path d="M36830 21085 c-321 -53 -595 -197 -816 -428 -186 -194 -300 -416
-366 -709 -20 -91 -23 -129 -23 -323 1 -190 4 -234 24 -325 67 -312 204 -600
398 -840 84 -103 260 -272 368 -352 186 -139 436 -258 652 -313 309 -78 639
-70 913 21 477 159 831 557 939 1055 22 103 42 311 36 381 -2 23 -6 81 -10
128 -20 269 -141 600 -313 855 -291 433 -725 729 -1222 836 -126 27 -454 35
-580 14z m340 -610 c229 -28 418 -53 468 -61 55 -9 72 -35 72 -106 0 -35 -4
-69 -9 -77 -9 -14 -58 -17 -131 -6 -19 3 -177 23 -350 45 -304 38 -316 40
-337 65 -18 20 -23 38 -23 82 0 73 19 96 70 88 19 -3 127 -16 240 -30z m65
-305 c83 -11 170 -22 195 -25 25 -3 57 -8 73 -11 l27 -6 0 -253 0 -254 83 -55
c549 -362 515 -1131 -59 -1302 -80 -24 -264 -24 -354 0 -308 83 -563 354 -621
659 -11 62 -14 199 -5 257 22 134 99 277 197 363 51 46 199 127 230 127 36 0
39 19 39 272 l0 248 23 0 c12 0 90 -9 172 -20z"/>
<path d="M36650 19176 c-18 -23 -8 -59 20 -72 14 -6 292 -45 618 -85 447 -56
596 -71 610 -63 23 14 27 57 7 74 -9 7 -152 30 -358 55 -188 24 -451 57 -583
74 -275 35 -297 36 -314 17z"/>
<path d="M26118 20846 c-13 -31 -5 -54 24 -65 13 -4 272 -39 576 -77 l554 -69
18 22 c18 23 17 57 -2 69 -5 3 -95 17 -201 30 -106 13 -349 45 -542 69 -192
25 -365 45 -383 45 -25 0 -35 -6 -44 -24z"/>
<path d="M26131 20064 c-24 -17 -27 -42 -8 -67 9 -13 70 -24 292 -52 703 -87
1486 -186 1550 -195 39 -5 93 -12 120 -15 28 -3 64 -8 80 -10 17 -2 53 -7 80
-10 28 -4 134 -17 238 -30 103 -13 194 -22 202 -18 29 10 38 42 20 69 -8 13
-22 24 -29 24 -8 0 -83 9 -167 20 -85 11 -172 22 -194 25 -53 6 -122 15 -164
21 -19 2 -194 24 -390 49 -1242 155 -1559 195 -1582 199 -14 3 -36 -2 -48 -10z"/>
<path d="M32872 20008 c-17 -17 -15 -53 3 -68 18 -15 609 -94 642 -85 32 8 42
51 17 75 -15 14 -78 25 -314 54 -331 41 -331 41 -348 24z"/>
<path d="M28102 16435 c-468 -172 -859 -318 -867 -325 -31 -26 -12 -80 28 -80
28 0 1719 620 1740 638 9 8 17 23 17 32 0 20 -31 50 -51 49 -8 0 -398 -141
-867 -314z"/>
<path d="M25156 15356 c-1633 -599 -1567 -572 -1530 -625 8 -11 23 -21 33 -21
23 0 3048 1107 3079 1126 40 26 17 85 -31 83 -12 -1 -710 -254 -1551 -563z"/>
<path d="M27985 14705 c-49 -18 -564 -207 -1143 -419 -579 -212 -1061 -390
-1071 -396 -10 -5 -22 -17 -25 -26 -8 -20 19 -64 39 -64 13 0 332 116 1985
722 195 71 361 135 368 140 15 13 16 50 0 66 -19 19 -56 13 -153 -23z"/>
<path d="M24451 13411 c-431 -159 -793 -293 -803 -300 -25 -15 -20 -59 7 -77
18 -11 116 23 819 280 747 274 826 306 826 338 0 13 -39 48 -52 47 -7 0 -366
-130 -797 -288z"/>
<path d="M11796 12947 c-14 -18 -90 -160 -169 -317 -162 -319 -206 -380 -316
-439 -101 -54 -159 -61 -508 -61 -308 0 -312 0 -324 -21 -17 -33 3 -67 45 -74
19 -4 175 -5 348 -3 352 5 379 10 507 85 112 67 169 140 286 373 56 113 130
256 164 318 34 62 61 119 61 126 0 17 -33 46 -53 46 -9 0 -27 -15 -41 -33z"/>
<path d="M10747 12699 c-20 -27 -10 -58 21 -70 31 -12 545 -11 577 1 28 11 40
42 25 70 -10 19 -19 20 -310 20 -291 0 -299 -1 -313 -21z"/>
<path d="M16370 12726 c-18 -22 -8 -59 20 -73 17 -8 108 -12 320 -13 253 0
298 2 318 15 24 17 29 54 10 73 -9 9 -97 12 -334 12 -268 0 -324 -2 -334 -14z"/>
<path d="M16060 12090 c-15 -28 -3 -59 25 -70 13 -5 92 -20 177 -34 393 -66
766 -59 1101 20 77 18 97 39 78 81 -14 29 -10 30 -236 -12 -139 -26 -169 -28
-415 -28 -268 -1 -414 11 -590 48 -98 21 -127 19 -140 -5z"/>
<path d="M43860 44196 c-289 -106 -1130 -415 -1870 -685 -740 -271 -1351 -498
-1358 -504 -18 -15 -11 -57 13 -73 18 -11 176 44 1370 482 743 272 1592 583
1889 691 571 209 574 211 547 262 -8 14 -21 21 -39 20 -15 0 -263 -87 -552
-193z"/>
<path d="M39041 42431 c-282 -104 -517 -195 -522 -202 -22 -35 1 -72 44 -71
26 1 1002 357 1035 378 39 25 23 84 -22 84 -12 -1 -252 -86 -535 -189z"/>
<path d="M41860 41711 c-685 -251 -1251 -460 -1257 -464 -7 -5 -13 -22 -13
-38 0 -68 -8 -70 701 189 359 132 922 337 1249 457 558 204 630 234 630 266 0
14 -38 49 -52 48 -7 0 -573 -206 -1258 -458z"/>
<path d="M40216 33641 c-808 -282 -1402 -494 -1407 -503 -5 -8 -3 -42 3 -77
24 -130 -21 -350 -107 -520 -53 -107 -50 -119 43 -176 219 -135 522 -407 695
-625 162 -205 311 -460 402 -690 23 -58 53 -112 77 -140 246 -285 323 -390
406 -555 133 -266 192 -587 187 -1014 -2 -141 -1 -155 17 -173 13 -13 27 -18
41 -14 35 10 264 43 352 51 72 6 119 23 454 157 862 345 1609 627 2360 893
266 94 377 138 381 150 13 37 -24 296 -71 495 -80 340 -227 640 -419 854 -208
233 -451 385 -790 497 l-155 50 3 107 c9 307 -66 660 -198 921 -156 312 -424
589 -727 753 -53 29 -100 47 -118 47 -16 0 -659 -220 -1429 -488z m1492 360
c32 -16 99 -57 148 -90 476 -321 748 -876 732 -1496 l-3 -120 -255 -102 c-140
-56 -669 -267 -1175 -468 -506 -202 -925 -369 -931 -371 -7 -3 -14 19 -18 60
-22 213 -147 521 -311 766 -198 295 -538 641 -848 864 -65 46 -76 57 -60 63
57 23 2640 922 2651 922 7 1 39 -12 70 -28z m1020 -1816 c167 -46 347 -122
478 -200 440 -266 694 -697 794 -1345 30 -189 31 -183 -37 -204 -329 -103
-1596 -577 -2476 -926 -225 -89 -411 -160 -414 -157 -3 3 0 43 6 88 16 121 14
403 -5 527 -45 308 -155 583 -332 831 -81 115 -258 301 -376 395 -47 39 -83
73 -79 77 5 4 294 121 643 259 349 139 874 348 1165 465 292 117 532 214 535
214 3 1 47 -10 98 -24z"/>
<path d="M40234 33292 c-14 -9 -23 -47 -15 -60 3 -5 51 -43 107 -85 336 -253
568 -643 635 -1071 8 -50 19 -86 31 -98 23 -23 30 -23 59 0 22 18 22 21 10 98
-68 435 -288 831 -611 1098 -136 113 -184 140 -216 118z"/>
<path d="M39852 33134 c-43 -30 -29 -57 66 -125 113 -81 290 -260 369 -372
144 -205 243 -449 289 -711 17 -99 25 -116 58 -116 52 0 57 42 25 200 -88 440
-336 828 -693 1084 -43 31 -81 56 -85 56 -4 0 -17 -7 -29 -16z"/>
<path d="M42579 31889 c-39 -39 -31 -48 121 -134 139 -78 238 -155 353 -274
198 -205 334 -458 418 -776 34 -132 62 -162 104 -115 21 23 18 46 -27 200 -36
127 -105 298 -160 400 -151 276 -385 512 -660 664 -95 53 -124 60 -149 35z"/>
<path d="M42202 31763 c-22 -8 -34 -41 -23 -62 6 -11 46 -38 88 -61 150 -81
246 -152 373 -280 84 -83 147 -157 188 -220 106 -159 203 -377 247 -553 9 -34
21 -79 26 -100 13 -49 49 -69 79 -42 27 25 26 42 -19 196 -100 340 -230 568
-451 789 -127 128 -234 209 -380 287 -82 44 -108 54 -128 46z"/>
<path d="M43160 28594 c-614 -225 -1630 -598 -1668 -611 -54 -19 -69 -45 -47
-79 8 -13 23 -24 33 -24 20 0 1931 699 1950 713 27 21 11 66 -28 79 -8 3 -116
-32 -240 -78z"/>
<path d="M43575 27269 c-11 -5 -245 -92 -520 -192 -488 -178 -500 -183 -503
-210 -4 -33 13 -57 39 -57 28 0 1051 377 1068 394 25 25 4 70 -34 73 -17 1
-39 -2 -50 -8z"/>
<path d="M44400 23941 l-755 -277 -3 -34 c-4 -34 9 -50 40 -50 16 0 1506 542
1529 556 13 8 11 58 -3 72 -7 7 -21 12 -32 11 -12 0 -361 -125 -776 -278z"/>
<path d="M41849 23006 c-741 -271 -1352 -496 -1358 -500 -26 -17 -1 -86 31
-86 6 0 614 221 1352 491 1283 469 1376 506 1376 540 0 11 -37 49 -47 49 -5 0
-614 -223 -1354 -494z"/>
<path d="M43372 22087 c-812 -298 -1014 -376 -1019 -392 -13 -39 3 -65 40 -65
23 0 2036 736 2054 752 16 13 17 50 1 66 -7 7 -23 12 -37 11 -15 0 -482 -168
-1039 -372z"/>
<path d="M7776 16166 c-1022 -375 -996 -363 -960 -415 8 -11 24 -21 35 -21 23
0 1928 696 1946 712 16 13 17 50 1 66 -7 7 -23 12 -37 11 -15 0 -458 -159
-985 -353z"/>
<path d="M10257 15597 c-349 -129 -522 -198 -529 -210 -12 -23 14 -67 40 -67
21 0 1032 368 1050 382 19 16 14 55 -10 72 -12 9 -25 16 -28 15 -3 -1 -238
-87 -523 -192z"/>
<path d="M8461 14939 c-282 -104 -520 -194 -528 -200 -8 -7 -13 -25 -11 -43 2
-26 8 -32 31 -34 31 -4 1067 371 1079 391 22 34 -4 79 -44 76 -7 0 -244 -86
-527 -190z"/>
</g>
</svg>
