<?xml version="1.0" standalone="no"?>
<!DOCTYPE svg PUBLIC "-//W3C//DTD SVG 20010904//EN"
 "http://www.w3.org/TR/2001/REC-SVG-20010904/DTD/svg10.dtd">
<svg version="1.0" xmlns="http://www.w3.org/2000/svg"
 width="5209.000000pt" height="5210.000000pt" viewBox="0 0 5209.000000 5210.000000"
 preserveAspectRatio="xMidYMid meet">

<g transform="translate(0.000000,5210.000000) scale(0.100000,-0.100000)"
fill="#000000" stroke="none">
<path d="M31508 45085 c-10 -22 -3 -36 66 -142 43 -65 84 -121 91 -126 7 -4
25 -3 39 3 44 16 34 53 -49 178 -68 101 -78 112 -105 112 -23 0 -33 -6 -42
-25z"/>
<path d="M32203 44903 c-116 -77 -143 -101 -143 -123 0 -18 30 -50 47 -50 6 0
66 36 132 80 96 63 121 84 121 102 0 30 -10 44 -37 50 -15 4 -49 -12 -120 -59z"/>
<path d="M31465 44405 c-60 -42 -113 -83 -118 -91 -14 -25 8 -64 37 -64 23 0
187 100 234 143 37 34 24 87 -22 87 -12 0 -70 -34 -131 -75z"/>
<path d="M31986 44384 c-9 -8 -16 -22 -16 -31 0 -22 146 -242 166 -250 25 -9
64 14 64 39 0 21 -102 188 -144 236 -23 26 -48 28 -70 6z"/>
<path d="M29815 43857 c-10 -5 -298 -249 -639 -541 -342 -293 -950 -813 -1352
-1158 -402 -344 -733 -634 -736 -644 -11 -41 26 -73 62 -54 12 6 382 320 823
698 441 378 1051 900 1355 1160 555 476 570 490 544 528 -12 17 -37 23 -57 11z"/>
<path d="M34586 43775 c-22 -7 -49 -24 -62 -37 -12 -13 -343 -394 -735 -848
-392 -454 -842 -973 -999 -1155 -157 -181 -633 -732 -1058 -1222 -425 -491
-781 -907 -792 -925 -28 -46 -27 -115 3 -159 37 -56 81 -79 151 -80 34 0 68
-2 76 -3 8 -2 148 -7 310 -11 162 -4 318 -8 345 -10 28 -2 167 -6 310 -9 597
-14 606 -16 692 -101 62 -62 89 -136 80 -219 -7 -68 -226 -595 -417 -1001 -23
-49 -55 -117 -70 -150 -184 -398 -485 -973 -748 -1430 -1749 -3037 -4258
-5508 -7292 -7182 -380 -210 -937 -490 -1325 -666 -1401 -636 -2880 -1114
-4447 -1437 l-107 -22 127 -103 c478 -387 1126 -983 1895 -1744 l307 -305 138
43 c329 103 952 328 1382 498 1817 723 3497 1665 5010 2811 2225 1686 4073
3790 5502 6267 91 158 256 454 328 590 29 55 66 123 81 151 62 113 366 728
463 936 381 821 679 1574 965 2443 57 171 113 328 126 350 33 56 101 119 160
149 47 23 177 52 193 42 4 -2 52 -7 107 -10 55 -4 125 -9 155 -11 30 -3 116
-9 190 -15 74 -6 160 -13 190 -15 30 -3 120 -9 200 -15 80 -6 165 -12 190 -15
25 -2 213 -16 419 -32 l373 -27 46 24 c63 34 92 79 92 144 0 46 -17 83 -241
501 -133 247 -254 473 -269 500 -15 28 -126 232 -245 455 -120 223 -248 461
-285 530 -66 122 -639 1189 -1082 2015 -121 226 -231 427 -244 447 -40 63
-118 89 -188 63z"/>
<path d="M11095 43405 c-183 -10 -228 -15 -266 -32 -62 -28 -123 -84 -148
-138 -12 -26 -43 -166 -77 -351 -30 -169 -59 -316 -64 -328 -14 -38 -57 -82
-97 -98 -21 -9 -112 -39 -202 -68 -173 -55 -199 -57 -266 -23 -16 9 -131 116
-255 238 -134 133 -243 232 -270 246 -37 20 -60 24 -130 24 -100 0 -82 8 -344
-158 -236 -149 -264 -171 -301 -238 -27 -48 -30 -63 -29 -134 1 -76 6 -95 107
-369 112 -303 123 -351 93 -408 -26 -49 -260 -299 -299 -319 -21 -11 -57 -20
-80 -20 -23 -1 -175 33 -338 75 -315 81 -370 88 -453 60 -84 -29 -128 -85
-254 -327 -130 -249 -142 -280 -142 -352 0 -123 26 -156 320 -400 265 -221
284 -242 284 -325 1 -56 -59 -331 -84 -387 -21 -46 -67 -85 -120 -102 -19 -6
-157 -44 -307 -85 -149 -41 -287 -82 -307 -91 -59 -28 -123 -105 -142 -171
-14 -49 -16 -83 -10 -214 19 -427 21 -440 91 -518 26 -29 64 -57 92 -70 27
-11 179 -42 348 -71 165 -28 317 -59 338 -68 43 -18 78 -55 95 -99 25 -68 102
-325 106 -355 8 -73 -8 -94 -255 -344 -143 -146 -246 -258 -260 -285 -19 -36
-24 -61 -24 -125 0 -100 -7 -87 261 -496 45 -69 77 -106 110 -127 54 -37 139
-56 196 -47 23 4 172 54 330 112 159 57 304 107 322 110 61 10 111 -13 194
-90 42 -40 107 -98 144 -130 75 -65 98 -105 98 -169 0 -24 -36 -179 -80 -346
-44 -166 -80 -320 -80 -342 0 -63 37 -148 85 -194 27 -25 104 -72 199 -121
l156 -80 2 -4737 3 -4738 48 64 47 64 0 5947 c0 6627 -7 6021 70 6180 94 194
263 333 468 386 86 22 198 24 447 9 88 -5 212 -12 275 -15 63 -3 147 -7 185
-10 39 -3 158 -9 265 -15 203 -11 304 -16 455 -25 50 -3 214 -12 365 -20 151
-8 316 -17 365 -20 129 -7 792 -44 910 -50 55 -3 138 -7 185 -10 47 -2 130 -7
185 -10 55 -3 134 -8 175 -10 75 -5 355 -20 545 -30 55 -3 129 -7 165 -10 36
-2 124 -7 195 -10 72 -3 157 -8 190 -10 33 -3 150 -9 260 -15 110 -6 234 -12
275 -15 41 -3 201 -12 355 -20 154 -8 318 -17 365 -20 47 -3 211 -12 365 -20
154 -8 318 -17 365 -20 47 -3 371 -21 720 -40 349 -19 678 -37 730 -40 134 -7
436 -24 555 -30 55 -3 141 -8 190 -10 50 -3 119 -7 155 -10 36 -2 126 -7 200
-10 74 -3 155 -8 180 -10 25 -2 101 -7 170 -10 69 -3 154 -8 190 -10 36 -2
115 -7 175 -10 61 -3 144 -8 185 -10 41 -3 163 -9 270 -15 107 -5 231 -12 275
-15 44 -2 125 -7 180 -10 55 -3 136 -8 180 -10 82 -5 372 -21 550 -30 55 -3
134 -7 175 -10 41 -3 125 -7 185 -10 61 -3 142 -7 180 -10 39 -3 120 -7 180
-10 61 -3 142 -8 180 -10 39 -3 117 -7 175 -10 58 -3 186 -10 285 -15 99 -6
225 -12 280 -15 55 -3 132 -7 170 -10 39 -3 124 -7 190 -10 66 -3 147 -8 180
-10 33 -3 150 -9 260 -15 218 -11 340 -18 455 -25 41 -2 125 -7 185 -10 61 -3
144 -8 185 -10 41 -3 161 -9 265 -15 105 -5 228 -12 275 -15 107 -6 958 -53
1105 -60 61 -3 142 -8 180 -10 39 -3 194 -12 345 -20 373 -20 462 -25 555 -30
72 -5 273 -16 550 -30 55 -3 134 -8 175 -10 84 -5 567 -32 730 -40 58 -3 134
-7 170 -10 36 -2 119 -7 185 -10 66 -3 152 -8 190 -10 60 -4 257 -15 735 -40
58 -3 132 -8 165 -10 185 -13 1207 -66 1210 -63 8 8 354 696 360 716 3 12 3
22 -2 20 -9 -2 -304 11 -373 17 -25 2 -101 6 -170 10 -69 3 -159 8 -200 10
-41 3 -122 7 -180 10 -58 3 -143 8 -190 10 -70 5 -564 31 -1130 60 -58 3 -139
8 -180 10 -41 3 -372 21 -735 40 -363 19 -698 37 -745 40 -78 5 -879 47 -1135
60 -60 3 -135 7 -165 10 -30 2 -118 7 -195 10 -77 3 -167 8 -200 10 -33 3
-150 9 -260 15 -110 5 -238 12 -285 15 -47 3 -213 12 -370 20 -157 8 -325 17
-375 20 -49 3 -175 9 -280 15 -104 5 -230 12 -280 15 -49 2 -139 7 -200 10
-60 3 -144 7 -185 10 -41 2 -122 7 -180 10 -58 3 -139 7 -180 10 -41 3 -131 7
-200 10 -69 3 -150 8 -180 10 -30 2 -111 7 -180 10 -69 3 -154 8 -190 10 -36
2 -119 7 -185 10 -66 3 -154 8 -195 10 -66 5 -1072 58 -2140 115 -411 22 -524
28 -645 35 -44 3 -127 7 -185 10 -94 5 -278 14 -560 30 -121 7 -812 43 -950
50 -58 3 -139 7 -180 10 -108 6 -248 14 -375 20 -113 6 -202 10 -360 20 -49 3
-259 14 -465 25 -206 11 -418 22 -470 25 -201 11 -641 35 -780 41 -80 4 -152
8 -160 10 -8 1 -51 3 -95 4 l-80 2 55 17 c82 26 113 45 159 97 64 73 74 120
66 327 -11 273 -21 388 -40 434 -10 25 -40 64 -70 92 -62 56 -95 67 -330 106
-429 73 -429 73 -473 110 -36 30 -49 61 -112 264 -51 167 -55 201 -27 256 5
11 115 126 243 255 267 270 279 287 278 410 0 91 4 82 -176 362 -102 160 -151
226 -181 248 -55 40 -137 64 -197 57 -26 -3 -177 -53 -336 -110 -159 -58 -303
-108 -320 -111 -65 -14 -120 11 -214 99 -48 45 -111 102 -140 126 -63 53 -90
103 -90 164 0 24 34 172 76 327 89 336 94 371 64 452 -37 97 -75 126 -349 265
-215 109 -251 124 -305 128 -76 6 -131 -8 -190 -50 -25 -17 -136 -139 -247
-270 -111 -132 -215 -247 -232 -257 -54 -33 -96 -34 -239 -2 -73 17 -159 36
-191 42 -65 13 -126 58 -145 108 -6 15 -46 153 -87 307 -42 154 -85 298 -95
321 -23 54 -82 112 -139 137 -58 25 -138 28 -426 12z m383 -100 c48 -21 76
-47 96 -93 8 -20 52 -169 96 -330 49 -181 90 -308 105 -332 42 -67 113 -110
210 -129 33 -7 121 -25 195 -41 112 -24 143 -27 185 -19 104 19 125 38 355
308 232 273 254 292 341 293 45 0 77 -13 282 -117 128 -65 243 -127 255 -139
35 -31 62 -90 62 -135 0 -22 -36 -176 -81 -343 -71 -265 -80 -311 -76 -364 6
-77 44 -151 102 -199 23 -18 86 -75 141 -125 123 -114 157 -132 254 -137 75
-4 77 -4 379 106 325 119 354 125 427 92 50 -23 57 -33 220 -286 119 -185 128
-204 132 -256 3 -39 -1 -66 -13 -90 -9 -19 -120 -137 -245 -264 -319 -321
-321 -327 -229 -619 65 -207 75 -230 119 -275 62 -64 101 -76 443 -135 351
-61 369 -67 412 -140 22 -38 26 -59 32 -182 4 -76 8 -207 8 -290 0 -144 -1
-152 -25 -187 -36 -53 -78 -72 -279 -127 l-181 -50 -178 10 c-276 15 -369 20
-472 25 -52 3 -129 7 -170 10 -41 2 -127 7 -190 10 -63 3 -149 7 -190 10 -71
4 -138 8 -380 20 -58 3 -134 7 -170 10 -36 2 -119 7 -185 10 -66 3 -152 8
-190 11 l-70 6 6 71 c17 191 -15 442 -81 640 -190 566 -652 973 -1248 1099
-93 20 -136 23 -332 23 -211 -1 -232 -2 -344 -29 -532 -125 -933 -442 -1161
-918 -207 -433 -214 -914 -18 -1376 14 -34 24 -64 22 -65 -2 -2 -29 -18 -59
-35 -179 -101 -316 -277 -382 -492 l-23 -75 -3 -1247 c-1 -687 -5 -1248 -8
-1248 -12 0 -244 122 -268 141 -37 29 -66 91 -66 139 0 23 36 178 80 344 44
166 80 321 80 344 0 76 -37 151 -104 213 -34 31 -101 94 -150 139 -109 100
-171 132 -259 132 -53 0 -105 -16 -372 -112 -438 -158 -408 -166 -625 171
-214 333 -219 301 99 624 151 152 247 256 261 285 14 28 25 70 28 110 4 59 -1
83 -57 254 -66 205 -83 240 -136 280 -55 42 -92 54 -282 87 -492 85 -504 89
-548 164 -28 47 -31 81 -41 380 -6 213 -6 222 15 263 12 23 38 53 59 66 23 15
149 55 337 107 165 45 317 90 337 100 51 26 107 84 129 133 9 23 24 78 33 124
9 45 25 119 37 165 44 168 20 260 -92 360 -35 31 -152 130 -259 219 -107 90
-203 177 -213 195 -12 21 -18 52 -18 88 0 51 8 72 122 291 131 251 156 284
230 304 52 14 45 16 401 -76 252 -65 301 -75 354 -71 82 6 149 44 216 121 29
33 90 100 135 148 89 96 123 163 123 244 0 32 -32 133 -110 351 -61 168 -111
322 -112 342 -2 53 18 103 55 138 31 29 380 254 444 287 41 21 125 21 166 0
17 -10 134 -116 260 -238 125 -122 246 -232 268 -245 30 -18 61 -25 115 -29
64 -4 85 -1 161 26 49 17 134 45 190 62 120 36 173 72 214 146 24 42 38 101
84 355 30 167 60 318 65 335 14 43 63 90 113 108 28 10 104 19 222 24 289 14
342 14 383 -3z m17 -2745 c211 -21 360 -62 550 -155 164 -79 282 -163 411
-290 254 -251 402 -549 450 -905 15 -112 18 -252 8 -337 -6 -49 -8 -52 -33
-48 -14 2 -80 6 -146 9 -135 6 -1024 53 -1155 61 -47 2 -170 9 -275 15 -104 6
-228 12 -275 15 -47 2 -134 7 -195 11 -286 16 -534 -77 -730 -273 -66 -67
-118 -137 -159 -215 l-34 -66 -21 47 c-56 131 -99 332 -108 511 -28 547 266
1098 742 1390 294 181 637 262 970 230z"/>
<path d="M25559 42483 c-178 -153 -1156 -990 -2174 -1861 -1017 -871 -1855
-1593 -1862 -1605 -16 -29 5 -62 40 -62 19 0 250 192 944 786 505 433 1486
1273 2181 1868 994 852 1262 1086 1262 1104 0 29 -18 47 -45 47 -13 0 -142
-104 -346 -277z"/>
<path d="M19859 42217 c-232 -79 -379 -283 -379 -527 0 -314 260 -565 565
-548 199 12 370 126 455 303 44 93 60 159 60 253 0 237 -160 452 -389 522 -90
28 -224 27 -312 -3z m243 -78 c284 -60 441 -374 318 -638 -83 -178 -236 -269
-432 -259 -111 6 -196 44 -277 126 -92 92 -133 189 -133 317 0 141 45 249 143
339 110 102 246 143 381 115z"/>
<path d="M18056 40575 c-42 -64 -76 -127 -76 -140 0 -25 25 -45 55 -45 14 0
175 231 175 252 0 26 -23 48 -50 48 -25 0 -37 -12 -104 -115z"/>
<path d="M17360 40510 c-6 -12 -8 -29 -5 -39 6 -20 228 -171 250 -171 19 0 45
28 45 49 0 23 -26 46 -137 120 -98 65 -135 75 -153 41z"/>
<path d="M18080 40042 c-41 -33 -23 -60 97 -139 130 -85 138 -88 163 -63 38
38 28 52 -118 149 -114 76 -114 76 -142 53z"/>
<path d="M17658 39958 c-30 -23 -159 -233 -156 -253 3 -22 44 -46 65 -38 22 9
163 231 163 258 0 14 -8 29 -19 35 -25 13 -34 13 -53 -2z"/>
<path d="M28690 39746 c-112 -24 -203 -94 -253 -193 -126 -249 49 -543 323
-543 206 0 363 162 363 376 1 69 -4 89 -30 145 -16 35 -42 79 -58 97 -81 96
-224 145 -345 118z m150 -102 c72 -21 150 -98 175 -173 23 -69 16 -150 -18
-217 -49 -96 -128 -143 -237 -144 -244 0 -361 291 -186 466 80 79 160 100 266
68z"/>
<path d="M34433 37654 c-20 -56 -208 -524 -246 -616 -25 -59 -43 -109 -39
-112 4 -2 84 -7 177 -10 94 -4 177 -9 185 -11 8 -2 87 -6 175 -10 88 -3 183
-8 210 -10 28 -3 140 -9 250 -15 205 -10 323 -17 455 -25 41 -3 127 -7 190
-10 117 -6 216 -11 350 -20 41 -2 131 -7 200 -10 69 -3 150 -8 180 -10 30 -2
107 -7 170 -10 139 -7 269 -14 370 -20 41 -2 118 -7 170 -10 94 -5 1267 -69
1470 -80 58 -3 139 -8 180 -10 41 -3 161 -10 265 -15 105 -6 226 -12 270 -15
44 -2 123 -7 175 -10 52 -3 136 -7 185 -10 50 -3 254 -14 455 -25 201 -11 403
-22 450 -25 47 -2 139 -7 205 -10 212 -11 280 -22 348 -54 73 -35 152 -109
190 -179 58 -106 55 -30 61 -1777 3 -885 8 -2071 11 -2635 3 -564 7 -1617 10
-2340 3 -723 7 -1889 10 -2590 16 -3692 25 -6061 30 -7620 3 -954 8 -1901 11
-2104 l5 -368 -27 6 c-149 38 -497 98 -754 131 -106 13 -194 26 -196 28 -2 2
-4 1601 -4 3553 0 2905 -2 3554 -13 3568 -7 10 -29 20 -48 21 -19 2 -505 4
-1081 4 l-1048 1 0 3845 0 3846 -21 61 c-37 110 -118 194 -208 217 -20 5 -153
12 -296 15 -143 4 -327 8 -410 11 -82 3 -247 7 -365 10 -118 3 -291 8 -385 11
-141 4 -178 2 -215 -11 -96 -34 -163 -104 -202 -212 l-21 -58 -1 -2888 -1
-2888 -369 1 c-204 0 -371 1 -372 3 -1 1 -5 630 -9 1397 -5 1154 -9 1404 -21
1446 -24 89 -124 179 -219 197 -34 7 -344 15 -1311 33 -381 7 -399 5 -488 -77
-40 -36 -61 -65 -75 -105 -20 -53 -21 -73 -21 -784 l0 -730 -72 0 -73 -1 -190
-124 c-194 -127 -383 -248 -395 -253 -4 -1 -22 12 -41 29 -49 46 -107 69 -201
79 -75 8 -1251 26 -1528 24 -104 -1 -122 -4 -178 -29 -71 -32 -126 -86 -142
-143 -9 -29 -11 -629 -9 -2410 2 -1305 1 -2372 -3 -2373 -10 -1 4 -1 -393 0
l-325 1 0 2694 0 2694 73 109 c87 130 118 217 122 337 2 45 -3 108 -10 141
-18 84 -68 190 -98 210 -32 21 -39 17 -174 -87 -99 -76 -104 -79 -145 -74 -60
8 -294 14 -883 23 -774 12 -791 12 -847 -14 -72 -33 -112 -68 -142 -123 l-27
-50 1 -1036 0 -1036 -44 -77 c-72 -123 -375 -493 -592 -724 l-64 -67 0 492 0
493 -23 40 c-28 50 -107 98 -184 114 -36 6 -295 14 -683 18 -949 12 -1016 11
-1077 -10 -71 -25 -139 -87 -154 -140 -9 -31 -11 -380 -8 -1341 l4 -1299 -45
-23 c-98 -50 -363 -159 -515 -210 -290 -99 -590 -166 -845 -189 -36 -3 -83 -8
-105 -11 -74 -9 -509 -5 -650 6 -495 38 -940 145 -1347 325 l-97 43 -27 -39
c-15 -22 -25 -41 -23 -42 2 -2 24 -13 49 -24 451 -206 936 -326 1460 -362 175
-12 532 -12 675 0 958 80 1958 557 2952 1410 413 355 846 801 1184 1222 122
151 143 181 294 422 410 652 817 1196 1135 1516 134 135 382 342 822 682 l86
67 23 -57 c31 -77 34 -240 5 -322 -44 -128 -323 -484 -694 -887 -66 -72 -121
-138 -122 -145 -5 -34 3 -46 47 -74 67 -42 168 -139 218 -210 104 -145 141
-272 132 -454 -6 -139 -29 -227 -96 -367 -65 -137 -119 -214 -215 -309 -206
-205 -485 -317 -823 -332 -81 -4 -127 -10 -133 -19 -6 -7 -26 -70 -45 -141
-117 -440 -331 -1009 -562 -1496 -317 -669 -687 -1252 -1117 -1761 -140 -166
-443 -475 -606 -619 -589 -518 -1263 -883 -1972 -1067 -465 -120 -886 -168
-1398 -157 -664 15 -1298 129 -2034 367 -144 47 -445 155 -453 164 -2 2 80
302 182 667 103 365 244 871 315 1124 71 253 140 496 152 540 23 76 39 102
342 525 176 245 359 500 408 568 49 68 92 130 95 138 6 16 -1284 1312 -1672
1680 -984 932 -1573 1419 -1911 1581 -255 121 -681 231 -1119 288 -116 16
-141 23 -230 65 -55 26 -143 68 -197 94 -328 156 -550 472 -588 837 -5 56 -10
125 -10 155 l0 54 39 0 c72 0 195 21 275 48 187 61 351 220 436 420 79 188
104 335 104 617 0 121 -3 231 -6 245 -7 23 -1 28 79 70 132 69 175 124 168
218 -5 62 -26 92 -142 197 -176 160 -277 283 -327 398 -22 50 -92 316 -85 321
2 1 31 12 64 25 109 40 195 99 306 210 208 209 361 498 415 786 22 121 15 328
-16 435 -45 156 -140 301 -272 415 -211 183 -582 305 -928 307 -259 2 -385
-42 -692 -240 -459 -296 -761 -403 -1413 -502 -355 -54 -529 -140 -751 -372
-194 -204 -313 -440 -343 -680 -22 -183 18 -328 180 -651 63 -124 122 -300
145 -432 15 -81 18 -159 19 -405 1 -265 4 -312 19 -360 43 -131 101 -201 207
-250 62 -29 84 -33 180 -38 l109 -5 0 -76 c0 -107 22 -232 63 -350 43 -126 84
-196 170 -287 109 -116 243 -174 405 -174 l73 0 -2 -123 c0 -68 -7 -163 -15
-211 -33 -207 -149 -406 -313 -538 -88 -71 -168 -112 -404 -208 -110 -45 -181
-80 -188 -91 -5 -11 -18 -19 -28 -19 -73 0 -734 -146 -1025 -226 -637 -176
-1271 -422 -1606 -623 -717 -432 -1346 -1184 -1878 -2246 -449 -899 -831
-2039 -1058 -3158 -50 -249 -51 -260 -26 -253 9 2 51 10 92 16 41 6 85 13 98
16 21 4 22 3 11 -18 -18 -33 -25 -522 -10 -732 41 -581 144 -1057 328 -1526
145 -371 323 -679 574 -999 96 -122 384 -412 482 -486 l66 -50 1 -370 c0 -443
7 -492 90 -663 46 -93 63 -117 149 -202 108 -110 201 -171 213 -142 4 9 7 31
7 48 1 27 -8 38 -70 84 -120 89 -203 204 -256 355 l-28 80 -3 364 c-3 298 -1
362 10 355 7 -4 58 -38 114 -75 55 -37 156 -99 225 -137 l124 -70 0 -98 c-1
-151 -15 -752 -20 -809 -2 -27 -7 -176 -10 -330 -3 -154 -8 -320 -10 -370 -2
-49 -7 -200 -10 -335 -3 -135 -8 -297 -10 -360 -2 -63 -7 -218 -10 -345 -5
-217 -10 -383 -20 -695 -2 -74 -7 -243 -10 -375 -3 -132 -7 -298 -10 -370 -3
-71 -7 -231 -10 -355 -3 -124 -7 -279 -10 -345 -3 -66 -7 -226 -10 -355 -3
-129 -8 -282 -10 -340 -3 -58 -7 -221 -11 -362 l-6 -258 73 30 c300 124 758
226 1234 274 460 47 1115 55 1635 20 922 -61 1821 -200 2596 -399 189 -49 396
-113 703 -220 237 -82 643 -149 1036 -170 61 -3 135 -8 165 -11 73 -6 895 -6
985 1 38 2 135 7 215 10 254 10 791 49 956 70 l41 6 16 112 c15 96 32 246 52
442 8 80 33 468 40 615 3 74 8 151 10 170 2 19 7 184 10 365 4 182 8 344 11
360 5 40 5 1939 0 1956 -3 8 -7 241 -11 518 -3 278 -8 507 -9 510 -2 3 -7 166
-10 361 -4 195 -9 375 -11 400 -2 25 -7 149 -10 275 -3 127 -8 280 -10 340 -3
61 -9 241 -15 400 -5 160 -12 342 -15 405 -2 63 -7 171 -10 240 -3 69 -10 224
-15 345 l-10 221 40 139 c22 77 49 172 59 210 10 39 96 348 191 688 l174 617
300 0 c905 2 907 2 1050 -30 72 -16 148 -32 169 -36 l37 -6 0 -1359 c0 -1285
-1 -1360 -17 -1367 -18 -7 -1621 -8 -1778 -1 l-80 4 4 -45 c1 -25 5 -47 8 -50
8 -8 1207 -21 1533 -17 241 3 304 7 347 21 91 29 83 -113 83 1429 0 1298 1
1368 18 1363 36 -10 343 -52 457 -62 39 -4 75 -9 82 -13 15 -8 22 -563 23
-1834 l0 -1019 33 -33 c70 -70 119 -74 1092 -77 l840 -3 56 23 c31 12 65 32
75 43 19 21 21 286 24 3122 0 10 8 20 18 24 109 37 337 129 455 183 l147 68
-1 -266 c0 -147 3 -937 7 -1757 5 -1192 9 -1495 19 -1515 37 -71 124 -117 247
-130 46 -5 299 -12 563 -15 264 -4 483 -9 486 -11 4 -2 137 -4 296 -4 270 -1
293 0 346 20 30 11 67 30 81 41 l26 20 0 -1035 c0 -996 -1 -1036 -18 -1036
-10 0 -149 9 -308 20 -159 11 -327 22 -374 25 -47 3 -110 8 -140 10 -30 2 -93
7 -140 10 -47 3 -114 8 -150 10 -129 9 -357 25 -440 30 -47 3 -143 10 -215 15
-71 6 -299 21 -505 35 -206 14 -636 43 -955 65 -319 22 -618 42 -665 45 -47 3
-110 8 -140 10 -30 3 -127 9 -215 15 -88 6 -187 12 -220 15 -33 2 -130 9 -215
15 -85 5 -186 12 -225 15 -197 14 -539 38 -870 60 -203 14 -404 27 -445 30
-117 8 -220 15 -285 20 -33 3 -197 14 -365 25 -168 11 -329 22 -357 26 l-53 5
0 -49 0 -50 83 -6 c165 -13 532 -38 742 -51 50 -3 110 -8 135 -10 25 -2 90 -7
145 -10 55 -3 123 -8 150 -10 28 -2 95 -7 150 -10 55 -3 120 -8 145 -10 25 -2
90 -7 145 -10 55 -3 120 -8 145 -10 25 -2 90 -7 145 -10 55 -3 120 -8 145 -10
25 -2 88 -7 140 -10 52 -3 120 -8 150 -10 30 -3 192 -14 360 -25 168 -11 334
-22 370 -25 36 -3 166 -12 290 -20 124 -8 290 -19 370 -25 80 -6 179 -13 220
-15 41 -3 102 -7 135 -10 33 -3 96 -7 140 -10 113 -7 710 -48 885 -60 36 -3
232 -16 435 -30 204 -14 435 -30 515 -35 80 -6 276 -19 435 -30 401 -27 433
-29 575 -40 69 -5 131 -10 138 -10 9 0 12 -192 12 -928 0 -708 3 -931 12 -940
9 -9 971 -12 4266 -12 l4253 0 -21 -29 c-11 -17 -35 -60 -52 -98 -28 -58 -33
-82 -36 -163 -3 -77 0 -107 17 -157 20 -59 21 -83 21 -451 0 -215 4 -413 10
-443 33 -181 211 -370 493 -524 l67 -37 0 -322 0 -322 -51 -49 c-68 -68 -142
-179 -168 -256 -28 -83 -28 -194 -1 -281 18 -58 20 -92 20 -455 0 -246 4 -412
11 -445 39 -186 229 -380 530 -537 465 -244 1300 -444 2119 -506 41 -3 84 -8
95 -10 99 -19 1142 -28 1435 -12 1552 84 2776 504 2956 1015 23 66 24 71 24
482 0 394 1 418 21 469 11 30 23 83 26 119 5 56 12 74 45 116 21 28 48 71 59
96 48 100 49 110 49 544 0 379 1 415 19 461 75 199 -14 427 -238 607 -86 69
-172 126 -278 184 l-73 39 0 57 0 57 113 56 c340 166 549 371 587 575 6 31 10
221 10 445 -1 336 1 396 15 435 29 78 31 197 6 278 -58 193 -261 383 -571 538
-63 31 -117 58 -119 60 -2 2 7 27 19 57 19 47 33 62 98 108 158 113 263 241
302 367 19 59 20 93 20 471 0 379 1 411 20 463 76 216 -27 448 -283 639 -45
33 -90 67 -99 74 -16 13 -17 135 -17 1817 0 992 -2 2246 -5 2788 -3 542 -9
2866 -12 5165 -4 2299 -8 4183 -10 4186 -2 4 -5 1044 -6 2310 -2 1267 -5 2696
-8 3174 l-5 870 -23 65 c-55 154 -171 287 -307 355 -91 45 -171 62 -325 69
-69 4 -161 9 -205 11 -44 2 -127 7 -185 10 -58 3 -132 8 -165 10 -33 3 -123 7
-200 10 -77 3 -167 8 -200 10 -33 2 -107 7 -165 10 -58 3 -143 7 -190 10 -47
3 -132 7 -190 10 -58 3 -141 8 -185 10 -44 3 -127 7 -185 10 -58 3 -141 7
-185 10 -93 6 -196 11 -465 25 -107 5 -233 12 -280 15 -47 3 -173 9 -280 15
-107 5 -233 12 -280 15 -79 4 -328 18 -550 30 -52 3 -221 12 -375 20 -154 8
-329 17 -390 20 -60 3 -139 7 -175 10 -36 2 -117 7 -180 10 -121 6 -225 11
-375 20 -49 2 -137 7 -195 10 -168 8 -299 15 -380 20 -41 3 -124 7 -185 10
-60 3 -144 7 -185 10 -41 3 -122 7 -180 10 -58 3 -139 7 -180 10 -41 2 -129 7
-195 10 -66 3 -156 8 -200 10 -44 3 -123 7 -175 10 -52 3 -132 8 -177 11 -75
6 -83 5 -90 -12z m2567 -5544 c179 -5 440 -11 580 -15 511 -11 551 -14 595
-38 21 -12 52 -40 67 -62 62 -90 58 212 58 -3977 0 -3048 -3 -3818 -12 -3818
-7 0 -305 0 -663 0 l-650 0 -245 -159 c-135 -88 -246 -158 -248 -157 -1 2 -2
505 -2 1117 0 936 -2 1118 -14 1134 -9 13 -26 19 -53 19 l-40 1 -8 2856 c-5
2170 -4 2869 5 2912 14 71 63 145 115 174 47 27 49 27 515 13z m-21360 -22
c286 -90 544 -453 650 -911 50 -219 150 -359 453 -635 47 -43 57 -58 57 -85 0
-49 -21 -70 -127 -127 -136 -72 -135 -70 -123 -155 5 -39 7 -167 5 -285 -3
-220 -16 -313 -60 -445 -87 -259 -259 -427 -492 -479 -349 -78 -830 147 -1088
508 -33 47 -53 66 -69 66 -54 0 -60 -51 -14 -117 174 -254 474 -460 783 -538
l90 -23 6 -148 c3 -82 11 -171 18 -199 87 -370 309 -649 644 -808 50 -24 102
-47 115 -51 29 -10 28 -18 -6 -37 -15 -9 -58 -36 -97 -59 -288 -178 -673 -315
-1028 -367 -171 -25 -601 -25 -772 0 -247 37 -463 92 -695 179 -142 53 -353
149 -363 164 -3 6 49 32 116 58 231 92 343 162 463 288 114 118 189 256 241
438 17 60 18 113 18 670 l0 605 -77 38 c-257 127 -352 476 -183 675 33 40 107
79 167 88 44 7 282 136 325 176 36 34 47 80 32 141 -6 29 -52 146 -100 260
-49 115 -89 214 -89 221 0 43 96 87 347 159 353 103 413 145 428 302 9 99 31
196 59 259 27 61 94 140 140 163 57 30 153 34 226 11z m18400 -2952 c1205 -20
1211 -20 1269 -48 28 -14 53 -36 72 -66 l29 -46 0 -718 0 -718 -965 0 -965 0
0 730 c0 708 1 732 20 770 11 21 34 48 51 60 32 23 106 50 124 44 6 -1 170 -5
365 -8z m-4886 -855 l380 -6 -250 -199 c-143 -115 -300 -251 -369 -320 -279
-279 -575 -660 -941 -1208 -95 -142 -174 -252 -176 -245 -2 6 -5 426 -7 932
-4 1018 -7 967 60 1017 71 53 -26 51 1303 29z m576 -3311 l0 -2630 -581 0
-582 0 -68 -45 c-163 -108 -690 -445 -694 -445 -3 0 -5 432 -5 961 l0 960 44
102 c136 311 295 755 392 1091 30 104 56 191 58 193 2 2 53 8 114 13 353 31
643 159 852 376 132 137 205 255 269 438 83 234 78 454 -14 653 -48 105 -108
185 -213 285 l-91 86 130 143 c71 79 187 212 257 296 70 83 128 152 130 152 1
1 2 -1182 2 -2629z m5690 1830 l0 -640 -1060 0 -1060 0 0 640 0 640 1060 0
1060 0 0 -640z m-2218 -20 l-2 -620 -161 0 -161 0 -278 -180 c-153 -99 -281
-180 -284 -180 -3 0 -6 231 -6 513 l0 512 298 192 c163 106 362 235 442 287
80 52 147 95 150 95 3 1 4 -278 2 -619z m-1287 404 c471 -6 540 -10 594 -39
65 -33 63 -35 -119 -153 l-170 -111 0 -573 0 -573 -33 -22 c-33 -22 -49 -32
-552 -356 -170 -109 -325 -210 -342 -224 l-33 -24 0 -1385 0 -1384 -305 0
-305 0 0 2380 0 2379 31 36 c55 62 82 66 439 60 173 -3 531 -7 795 -11z
m-5435 -870 c157 -3 301 -10 320 -16 19 -6 50 -21 68 -35 l32 -24 0 -543 0
-543 -177 -174 c-462 -454 -943 -833 -1423 -1121 -129 -77 -312 -178 -323
-178 -9 0 -9 2553 -1 2574 7 18 61 54 102 67 26 8 825 5 1402 -7z m9900 -5019
l0 -4766 -31 -17 c-85 -47 -218 -142 -285 -205 -133 -124 -204 -249 -220 -385
l-7 -62 -1250 0 c-1150 0 -1252 -1 -1269 -17 -17 -15 -18 -38 -18 -321 0 -270
2 -308 17 -324 15 -17 64 -18 1145 -18 l1129 0 -73 -58 c-89 -72 -146 -133
-198 -214 -42 -64 -80 -169 -80 -219 l0 -29 -937 -1 c-516 0 -946 -2 -956 -4
-47 -9 -47 -9 -47 -332 0 -191 4 -312 10 -324 10 -19 32 -19 990 -19 l980 0 1
-137 c1 -236 13 -292 89 -406 80 -120 199 -220 388 -327 50 -29 92 -54 92 -56
0 -1 -28 -20 -62 -41 -35 -20 -98 -65 -140 -99 -42 -35 -85 -63 -95 -64 -10
-1 -604 -2 -1320 -1 l-1303 1 0 6605 0 6605 1725 0 1725 0 0 -4765z m-3540
-1865 l0 -6579 -302 -3 c-167 -2 -318 -2 -335 0 l-33 3 0 4728 c0 4385 -1
4730 -17 4742 -13 11 -94 15 -410 17 l-393 3 0 1358 0 1359 393 253 c215 139
511 330 657 424 146 94 301 195 345 223 44 29 83 52 88 52 4 0 7 -2961 7
-6580z m7640 1149 l0 -3522 -62 6 c-35 4 -109 9 -165 13 l-103 7 0 3148 0
3148 -22 16 c-20 13 -65 15 -336 15 -295 -2 -315 -3 -333 -21 -19 -19 -19 -75
-19 -3154 l0 -3135 -165 0 -165 0 0 3139 0 3140 -21 15 c-33 23 -634 24 -666
1 l-23 -16 0 -3164 0 -3165 -22 -4 c-13 -3 -70 -10 -128 -16 -58 -6 -122 -14
-142 -17 l-38 -6 0 3182 c0 3166 0 3181 -20 3201 -19 19 -32 20 -344 17 -178
-1 -328 -6 -333 -10 -4 -5 -10 -1474 -13 -3264 l-5 -3256 -140 -38 c-77 -21
-150 -41 -162 -45 l-23 -6 0 3656 0 3656 1725 0 1725 0 0 -3521z m-3542 -175
l-3 -3646 -120 -43 c-125 -44 -181 -66 -277 -109 l-58 -26 0 3593 0 3592 222
143 c121 78 225 142 229 142 5 0 8 -1626 7 -3646z m-9238 2256 c0 -696 -2
-876 -12 -886 -7 -7 -164 -109 -348 -228 l-335 -216 -3 503 -2 504 93 140
c176 264 344 552 500 860 56 111 103 200 104 199 2 -1 3 -396 3 -876z m10270
-2508 l0 -3158 -82 -13 c-46 -7 -161 -29 -256 -47 -95 -19 -175 -34 -177 -34
-3 0 -5 1442 -5 3205 l0 3205 260 0 260 0 0 -3158z m1042 71 c2 -1699 2 -3097
0 -3109 -3 -19 -14 -21 -220 -34 -315 -20 -296 -21 -295 18 1 17 2 1423 2
3122 l1 3090 255 0 255 0 2 -3087z m1048 -24 l0 -3111 -117 5 c-65 4 -182 6
-260 7 l-143 0 0 3105 0 3105 260 0 260 0 0 -3111z m-19370 3062 c0 -5 -72
-265 -159 -578 -88 -312 -419 -1493 -736 -2623 -317 -1130 -595 -2121 -617
-2202 l-41 -148 -2269 -2 c-1247 -2 -2268 0 -2268 3 0 3 30 31 68 63 326 281
712 682 994 1033 l90 112 44 -19 c159 -69 424 -64 734 11 130 32 387 120 565
193 431 179 1060 526 1365 755 101 76 242 212 281 272 40 63 61 134 54 181 -8
47 -63 110 -118 136 -165 78 -525 64 -877 -33 -557 -152 -959 -219 -1330 -220
-220 0 -342 19 -447 69 -104 50 -172 132 -173 208 0 51 -40 236 -76 349 -56
179 -133 327 -213 409 -49 51 -75 70 -101 75 -47 8 -83 -7 -114 -47 -44 -59
-58 -134 -63 -350 -9 -332 32 -669 122 -1007 14 -52 22 -98 18 -102 -14 -13
-714 -259 -738 -259 -3 0 -9 -23 480 1720 218 778 432 1543 476 1700 44 157
82 291 84 298 4 9 509 12 2485 12 1517 0 2480 -4 2480 -9z m11380 -5715 l0
-4695 -32 -3 c-18 -2 -792 -2 -1720 0 l-1688 2 0 4695 0 4695 1720 0 1720 0 0
-4694z m-3543 -4693 c-2 -2 -334 -3 -738 -3 l-734 -1 -2 4198 -2 4198 142 91
c130 84 432 279 857 553 91 59 203 132 250 162 46 29 116 75 155 100 l70 45 3
-4670 c1 -2568 1 -4671 -1 -4673z m-1627 6682 c0 -1848 -3 -2652 -10 -2661 -6
-7 -32 -23 -58 -36 -46 -22 -54 -23 -282 -21 -129 1 -329 5 -445 8 -115 2
-365 7 -555 10 -190 3 -370 8 -400 11 -68 7 -138 40 -155 74 -10 20 -13 381
-14 1790 l-1 1765 117 65 c147 81 433 271 578 385 420 327 816 731 1145 1167
40 54 75 96 77 95 2 -2 3 -1195 3 -2652z m-16330 1793 c0 -139 23 -344 56
-501 159 -753 570 -1267 1219 -1522 442 -174 1006 -218 1675 -130 309 41 757
143 1145 260 343 104 824 274 858 303 22 20 22 24 -13 147 -55 196 -99 440
-120 665 -14 146 -14 478 0 550 23 122 46 137 105 68 109 -126 212 -394 250
-645 21 -138 39 -185 97 -248 151 -166 499 -219 1014 -155 275 34 547 91 999
209 194 50 341 71 509 71 228 0 336 -38 336 -120 0 -60 -77 -160 -210 -272
-206 -173 -553 -385 -1005 -613 -603 -304 -1051 -448 -1390 -446 -141 0 -204
13 -287 56 -38 19 -74 32 -82 29 -7 -3 -42 -42 -77 -87 -295 -383 -720 -822
-1117 -1154 -822 -690 -1647 -1091 -2462 -1198 -159 -22 -449 -32 -610 -23
-473 28 -977 168 -1450 405 -338 168 -580 338 -838 588 -659 636 -1053 1573
-1142 2710 -14 170 -13 694 0 710 6 7 29 15 53 19 71 11 1578 275 2112 370
198 35 363 64 368 65 4 1 7 -50 7 -111z m9755 -1005 c72 -24 193 -64 270 -88
l140 -44 -402 -1 c-318 0 -401 3 -398 13 6 19 43 148 55 194 l10 42 98 -36
c53 -19 156 -55 227 -80z m3835 -1716 l0 -1524 -27 -14 c-23 -12 -136 -14
-663 -14 -866 0 -1144 6 -1192 28 l-38 16 0 453 c0 249 -3 883 -6 1408 l-7
955 134 -8 c123 -8 576 -3 659 7 19 2 73 7 120 11 125 9 395 50 560 84 135 28
440 108 449 117 2 2 6 4 8 4 2 0 3 -686 3 -1523z m15815 -1617 c197 -9 331
-18 535 -36 360 -31 873 -118 1210 -205 624 -162 1085 -409 1232 -660 242
-413 -341 -854 -1462 -1103 -344 -76 -839 -146 -1210 -172 -52 -3 -108 -7
-125 -9 -167 -19 -855 -25 -1175 -11 -227 9 -541 34 -720 56 -41 5 -97 12
-125 15 -27 3 -124 17 -215 31 -1016 155 -1760 473 -1936 828 -36 75 -39 86
-39 165 1 76 4 94 32 151 219 450 1257 815 2633 925 437 35 958 45 1365 25z
m-4145 -1449 l0 -219 -36 -21 -35 -21 -1180 0 -1179 0 0 240 0 240 1215 0
1215 0 0 -219z m89 -763 c159 -404 974 -755 2131 -917 431 -60 733 -81 1258
-88 383 -5 830 6 935 22 12 2 65 6 117 10 356 23 895 107 1258 195 86 21 158
37 160 35 5 -5 -239 -101 -353 -140 -499 -167 -1213 -291 -1926 -332 -170 -10
-1100 -10 -1279 -1 -757 42 -1522 181 -2030 369 -165 61 -407 179 -515 251
-44 29 -119 90 -167 136 -302 291 -203 591 287 871 l90 52 6 -203 c5 -179 8
-210 28 -260z m-656 -271 c13 -42 17 -93 17 -240 l0 -187 -930 -2 c-512 -2
-935 -1 -940 0 -6 2 -10 92 -10 243 l0 239 923 0 923 0 17 -53z m7414 -359
c325 -160 523 -352 552 -536 35 -222 -157 -447 -549 -643 -293 -146 -663 -263
-1120 -353 -375 -74 -880 -135 -1270 -154 -205 -9 -1081 -9 -1240 1 -152 9
-379 28 -512 43 -262 28 -251 30 157 26 578 -7 985 15 1485 79 1233 157 2120
534 2250 957 18 58 20 93 20 373 l0 309 53 -21 c28 -11 107 -47 174 -81z
m-6632 -1177 l70 -30 5 -228 5 -228 36 -75 c46 -94 111 -172 212 -254 428
-347 1318 -597 2477 -696 437 -37 1387 -33 1735 7 28 3 48 3 45 0 -7 -7 -320
-51 -505 -71 -635 -69 -1428 -77 -2070 -20 -947 83 -1726 281 -2184 556 -233
139 -373 297 -402 452 -34 185 105 384 387 556 54 33 103 60 109 60 6 0 42
-13 80 -29z m6634 -1353 c331 -198 467 -405 403 -614 -26 -85 -62 -139 -149
-227 -286 -290 -958 -538 -1813 -671 -182 -28 -355 -51 -470 -61 -41 -4 -82
-9 -91 -10 -8 -2 -94 -9 -190 -15 -96 -7 -190 -14 -209 -16 -78 -9 -986 -12
-1130 -4 -1271 71 -2232 309 -2722 672 -43 32 -78 59 -78 61 0 2 90 -27 199
-64 404 -134 915 -238 1451 -293 340 -35 528 -46 945 -52 1533 -25 2923 265
3502 731 98 78 161 154 211 254 37 74 37 76 41 218 2 79 6 143 9 143 2 0 44
-23 91 -52z m-6641 -1693 c87 -166 317 -341 622 -475 458 -202 1142 -361 1830
-425 36 -4 79 -8 95 -10 17 -2 104 -9 195 -14 91 -6 192 -13 225 -16 33 -2
197 -7 365 -11 1068 -22 2170 130 2890 397 185 69 416 182 533 262 108 74 114
71 67 -28 -118 -247 -546 -497 -1140 -665 -673 -190 -1443 -283 -2355 -283
-439 -1 -658 9 -1030 44 -1096 103 -1972 374 -2329 722 -172 168 -214 324
-131 494 18 37 50 88 70 111 l38 44 17 -54 c9 -29 26 -71 38 -93z"/>
<path d="M33686 27104 c-14 -13 -16 -57 -16 -324 0 -296 1 -310 19 -320 13 -6
248 -10 695 -10 600 0 676 2 690 16 14 13 16 56 16 319 0 303 0 304 -22 319
-20 14 -102 16 -695 16 -597 0 -673 -2 -687 -16z m1304 -319 l0 -235 -610 0
-610 0 0 235 0 235 610 0 610 0 0 -235z"/>
<path d="M33312 25468 c-9 -9 -12 -94 -12 -323 0 -229 3 -314 12 -323 9 -9
311 -12 1299 -12 l1288 0 15 22 c14 19 16 66 16 310 0 162 -4 298 -10 312
l-10 26 -1293 0 c-992 0 -1296 -3 -1305 -12z m2518 -323 l0 -245 -1215 0
-1215 0 0 245 0 245 1215 0 1215 0 0 -245z"/>
<path d="M33316 24264 c-14 -13 -16 -57 -16 -324 0 -308 0 -309 22 -325 20
-13 157 -15 1295 -15 1250 0 1274 1 1293 20 18 18 19 35 19 318 0 251 -2 302
-15 320 l-15 22 -1284 0 c-1154 0 -1285 -2 -1299 -16z m2514 -324 l0 -240
-1215 0 -1215 0 0 240 0 240 1215 0 1215 0 0 -240z"/>
<path d="M33317 23062 c-15 -16 -17 -54 -17 -325 0 -264 2 -308 16 -321 14
-14 145 -16 1299 -16 l1285 0 14 23 c12 18 15 75 15 320 0 282 -1 299 -20 318
-19 19 -45 19 -1297 19 -1226 0 -1280 -1 -1295 -18z m2513 -322 l0 -240 -1215
0 -1215 0 0 240 0 240 1215 0 1215 0 0 -240z"/>
<path d="M33312 21858 c-9 -9 -12 -94 -12 -323 0 -229 3 -314 12 -323 9 -9
311 -12 1299 -12 l1288 0 15 22 c14 19 16 66 16 316 0 183 -4 301 -10 313 -11
19 -36 19 -1303 19 -992 0 -1296 -3 -1305 -12z m2518 -318 l0 -240 -1215 0
-1215 0 0 240 0 240 1215 0 1215 0 0 -240z"/>
<path d="M33310 20651 c-6 -12 -10 -134 -10 -325 l0 -306 24 -15 c20 -14 164
-15 1300 -13 1235 3 1278 4 1291 22 11 14 14 81 15 315 0 254 -2 299 -15 319
l-16 22 -1289 0 c-1264 0 -1289 0 -1300 -19z m2520 -316 l0 -245 -1215 0
-1215 0 0 240 0 240 1213 3 c666 1 1213 3 1215 5 1 1 2 -108 2 -243z"/>
<path d="M33317 19452 c-15 -16 -17 -54 -17 -324 0 -283 1 -306 18 -321 17
-16 121 -17 1295 -17 1252 0 1277 0 1296 19 19 19 20 37 21 320 0 289 0 301
-20 321 -20 20 -28 20 -1298 20 -1226 0 -1280 -1 -1295 -18z m2513 -322 l0
-240 -1215 0 -1215 0 0 240 0 240 1215 0 1215 0 0 -240z"/>
<path d="M33322 18255 c-22 -16 -22 -16 -22 -321 0 -191 4 -313 10 -325 11
-19 36 -19 1300 -19 l1289 0 16 23 c13 19 15 64 15 318 -1 234 -4 301 -15 315
-13 18 -56 19 -1292 22 -1150 2 -1280 1 -1301 -13z m2508 -325 l0 -240 -1205
0 c-663 0 -1208 -1 -1212 -2 -5 -2 -9 106 -11 240 l-2 242 1215 0 1215 0 0
-240z"/>
<path d="M33310 17040 c-7 -12 -9 -126 -8 -327 l3 -307 25 -13 c20 -10 283
-12 1298 -10 1248 2 1274 2 1288 21 22 31 21 602 -2 634 l-15 22 -1289 0
c-1271 0 -1289 0 -1300 -20z m2520 -321 l0 -239 -1215 0 -1215 0 0 240 0 240
1203 2 c661 2 1208 1 1215 -1 9 -2 12 -59 12 -242z"/>
<path d="M28972 21534 l-22 -15 0 -639 c0 -622 1 -640 19 -650 29 -15 663 -14
679 2 9 9 12 167 12 649 l0 638 -22 15 c-19 14 -68 16 -333 16 -265 0 -314 -2
-333 -16z m588 -649 l0 -564 -246 -3 c-135 -2 -250 -1 -255 2 -4 3 -10 259
-11 568 l-3 562 258 0 257 0 0 -565z"/>
<path d="M30010 21530 c-20 -20 -20 -33 -20 -648 0 -597 1 -630 18 -645 17
-15 55 -17 343 -17 240 0 328 3 337 12 9 9 12 167 12 649 0 566 -2 639 -16
653 -13 14 -58 16 -335 16 -306 0 -320 -1 -339 -20z m600 -645 l0 -564 -232
-3 c-128 -2 -245 -2 -260 0 l-28 3 0 565 0 564 260 0 260 0 0 -565z"/>
<path d="M31050 21530 c-19 -19 -19 -36 -20 -642 0 -551 2 -626 15 -646 l16
-22 329 0 329 0 16 23 c14 19 15 93 15 645 -1 603 -2 624 -21 643 -18 18 -35
19 -339 19 -305 0 -321 -1 -340 -20z m600 -647 l0 -568 -257 2 -258 3 -3 565
-2 565 260 0 260 0 0 -567z"/>
<path d="M28966 19504 c-14 -14 -16 -86 -16 -649 l0 -634 22 -15 c19 -14 68
-16 333 -16 265 0 314 2 333 16 l22 15 0 639 c0 622 -1 640 -19 650 -13 6
-138 10 -340 10 -277 0 -322 -2 -335 -16z m596 -649 l3 -565 -257 0 -258 0 0
565 0 565 255 0 255 0 2 -565z"/>
<path d="M30007 19502 c-15 -17 -17 -76 -17 -645 0 -614 0 -627 20 -647 19
-19 33 -20 336 -20 198 0 322 4 335 10 18 10 19 28 19 653 0 487 -3 646 -12
655 -9 9 -98 12 -338 12 -304 0 -328 -1 -343 -18z m603 -647 l0 -565 -260 0
-260 0 0 565 0 565 260 0 260 0 0 -565z"/>
<path d="M31046 19498 c-14 -20 -16 -98 -16 -645 0 -610 0 -623 20 -643 19
-19 33 -20 340 -20 305 0 321 1 340 20 19 19 19 36 20 642 0 551 -2 626 -15
646 l-16 22 -329 0 c-329 0 -329 0 -344 -22z m604 -643 l0 -565 -260 0 -260 0
0 565 0 565 260 0 260 0 0 -565z"/>
<path d="M28962 17478 c-9 -9 -12 -167 -12 -648 0 -481 3 -639 12 -648 17 -17
669 -17 686 0 9 9 12 167 12 648 0 481 -3 639 -12 648 -9 9 -99 12 -343 12
-244 0 -334 -3 -343 -12z m598 -648 l0 -570 -255 0 -255 0 0 570 0 570 255 0
255 0 0 -570z"/>
<path d="M30000 17471 c-6 -13 -10 -232 -10 -641 0 -409 4 -628 10 -641 10
-18 25 -19 343 -19 246 0 336 3 345 12 9 9 12 167 12 648 0 481 -3 639 -12
648 -9 9 -99 12 -345 12 -318 0 -333 -1 -343 -19z m610 -641 l0 -570 -260 0
-260 0 0 570 0 570 260 0 260 0 0 -570z"/>
<path d="M31046 17468 c-14 -20 -16 -97 -16 -635 0 -373 4 -622 10 -637 l10
-26 339 0 c325 0 341 1 351 19 6 13 9 233 7 651 -2 548 -4 632 -17 640 -9 6
-153 10 -342 10 -327 0 -327 0 -342 -22z m604 -638 l0 -570 -260 0 -260 0 0
570 0 570 260 0 260 0 0 -570z"/>
<path d="M28972 15454 l-22 -15 0 -639 c0 -622 1 -640 19 -650 29 -15 663 -14
679 2 9 9 12 167 12 649 l0 638 -22 15 c-19 14 -68 16 -333 16 -265 0 -314 -2
-333 -16z m588 -649 l0 -564 -246 -3 c-135 -2 -250 -1 -255 2 -4 3 -10 259
-11 568 l-3 562 258 0 257 0 0 -565z"/>
<path d="M30010 15450 c-20 -20 -20 -33 -20 -648 0 -597 1 -630 18 -645 17
-15 55 -17 343 -17 240 0 328 3 337 12 9 9 12 167 12 649 0 566 -2 639 -16
653 -13 14 -58 16 -335 16 -306 0 -320 -1 -339 -20z m600 -645 l0 -564 -232
-3 c-128 -2 -245 -2 -260 0 l-28 3 0 565 0 564 260 0 260 0 0 -565z"/>
<path d="M31050 15450 c-19 -19 -19 -36 -20 -642 0 -551 2 -626 15 -646 l16
-22 329 0 329 0 16 23 c14 19 15 93 15 645 -1 603 -2 624 -21 643 -18 18 -35
19 -339 19 -305 0 -321 -1 -340 -20z m600 -647 l0 -568 -257 2 -258 3 -3 565
-2 565 260 0 260 0 0 -567z"/>
<path d="M39866 16540 l-88 -80 -92 -1 c-50 -1 -102 -2 -116 -4 -14 -1 -68 -5
-121 -9 -426 -28 -808 -209 -774 -366 17 -76 162 -160 418 -241 278 -88 341
-134 274 -197 -45 -43 -131 -64 -277 -70 -222 -8 -465 30 -695 109 l-120 41
-174 -93 -174 -93 44 -19 c92 -39 287 -87 504 -124 l49 -8 -86 -75 c-47 -41
-83 -78 -80 -81 4 -4 59 -12 122 -18 176 -18 203 -22 231 -27 21 -4 43 11 129
86 l104 91 51 -4 c157 -13 506 27 690 79 201 56 389 177 413 265 29 111 -69
182 -413 299 -311 106 -363 150 -246 209 141 72 523 48 825 -51 l99 -32 135
69 c74 39 150 80 170 91 l36 22 -95 30 c-94 30 -337 82 -384 82 -34 0 -31 12
13 50 82 72 114 102 110 105 -1 1 -73 10 -158 19 -85 9 -173 19 -195 21 -38 5
-44 1 -129 -75z"/>
<path d="M16445 37530 c-186 -21 -360 -67 -534 -141 -119 -50 -143 -74 -117
-114 9 -14 22 -25 28 -25 6 0 64 22 127 49 353 152 730 181 1097 86 292 -76
536 -217 755 -435 229 -229 371 -486 440 -800 20 -91 23 -133 23 -310 0 -188
-2 -215 -28 -325 -29 -125 -95 -305 -148 -403 -227 -417 -625 -710 -1106 -813
-125 -26 -400 -37 -539 -20 -381 47 -731 218 -995 488 -321 328 -486 777 -448
1219 18 204 57 353 141 533 29 62 47 112 43 123 -6 20 -45 34 -70 24 -38 -15
-154 -319 -191 -501 -25 -126 -25 -461 0 -593 74 -391 295 -761 602 -1007 517
-415 1217 -509 1830 -248 306 131 597 382 766 660 250 412 313 905 173 1348
-201 634 -748 1094 -1419 1194 -102 15 -338 21 -430 11z"/>
<path d="M16719 36708 l-24 -103 -86 -12 c-97 -14 -172 -40 -233 -82 -120 -84
-181 -206 -174 -349 7 -154 81 -249 304 -395 204 -133 245 -194 196 -286 -54
-100 -243 -96 -441 10 -41 22 -91 53 -112 69 -20 17 -39 30 -42 30 -3 0 -31
-51 -63 -112 -31 -62 -61 -118 -66 -125 -7 -9 -1 -20 19 -37 39 -35 184 -109
266 -136 44 -14 67 -27 67 -37 0 -9 -9 -56 -21 -105 -12 -49 -18 -92 -14 -96
11 -11 209 -51 216 -44 4 4 14 41 23 82 35 157 27 145 96 148 230 12 408 151
451 353 16 72 7 184 -19 242 -32 73 -132 169 -273 263 -162 109 -209 157 -216
218 -5 42 -3 48 29 80 25 25 47 36 79 41 94 14 263 -38 373 -115 l55 -39 64
122 c59 113 62 123 48 140 -20 24 -181 102 -243 119 -27 7 -48 18 -48 24 0 7
9 51 21 99 11 48 18 89 15 92 -7 7 -174 42 -202 43 -19 0 -24 -12 -45 -102z"/>
<path d="M11213 36246 c-194 -63 -343 -237 -367 -428 -5 -41 -10 -1115 -21
-4553 -3 -885 -8 -2043 -11 -2572 -4 -698 -3 -967 6 -982 14 -27 65 -29 79 -3
7 12 15 1452 25 4063 14 3549 17 4050 31 4095 19 65 81 161 131 202 21 18 66
46 99 62 102 50 128 51 585 26 98 -6 399 -22 575 -31 55 -3 136 -7 180 -10
124 -7 240 -14 645 -35 546 -28 577 -30 670 -35 296 -18 623 -35 673 -35 51 0
59 3 68 24 8 17 8 29 0 44 -13 25 -41 29 -246 37 -82 3 -168 8 -190 10 -22 2
-96 6 -165 9 -158 8 -293 15 -395 21 -44 3 -377 21 -740 40 -863 45 -902 47
-1200 65 -257 16 -349 13 -432 -14z"/>
<path d="M20561 36124 c-397 -62 -750 -311 -940 -666 -160 -296 -189 -654 -79
-966 59 -169 139 -301 258 -426 412 -434 1087 -502 1602 -160 163 108 313 269
408 437 28 50 31 62 22 83 -18 37 -68 34 -90 -7 -115 -208 -289 -384 -485
-489 -535 -289 -1197 -131 -1512 360 -319 496 -186 1155 305 1520 308 228 722
292 1085 167 362 -124 613 -442 685 -867 15 -87 24 -102 58 -98 43 5 51 33 36
123 -31 174 -112 380 -206 518 -64 94 -203 232 -295 294 -237 157 -552 223
-852 177z"/>
<path d="M18516 35874 c-9 -8 -16 -24 -16 -34 0 -36 38 -47 180 -55 74 -3 293
-15 485 -26 423 -23 410 -23 429 -3 21 20 20 40 -2 62 -16 16 -50 20 -268 31
-137 6 -280 14 -319 17 -113 7 -425 24 -450 24 -13 0 -31 -7 -39 -16z"/>
<path d="M21991 35698 c-26 -9 -32 -44 -13 -68 18 -20 40 -23 267 -35 341 -18
492 -25 580 -30 55 -3 134 -7 175 -10 41 -2 129 -7 195 -10 66 -3 152 -8 190
-10 39 -2 120 -7 180 -10 102 -5 165 -8 380 -20 44 -2 127 -7 185 -10 58 -3
143 -8 190 -10 47 -3 213 -12 370 -20 157 -8 326 -17 375 -20 85 -5 720 -38
945 -50 58 -3 137 -7 175 -10 39 -2 122 -7 185 -10 63 -3 151 -7 195 -10 44
-3 125 -7 180 -10 55 -3 183 -10 285 -15 102 -5 235 -12 295 -15 61 -3 144 -8
185 -10 152 -9 258 -15 370 -20 63 -3 151 -8 195 -10 44 -2 127 -7 185 -10 58
-3 134 -7 170 -10 36 -3 126 -7 200 -10 74 -3 162 -8 195 -10 33 -2 105 -6
160 -9 55 -3 143 -8 195 -11 110 -6 1171 -62 1335 -70 61 -3 139 -8 175 -10
l65 -4 28 38 c15 22 27 44 27 50 0 7 -30 12 -82 12 -46 1 -99 3 -118 5 -19 1
-129 7 -245 13 -319 17 -393 21 -480 26 -120 7 -445 24 -575 30 -63 3 -149 8
-190 10 -115 7 -358 20 -545 30 -60 3 -146 8 -190 10 -82 5 -376 20 -565 30
-58 3 -141 7 -185 10 -99 6 -236 13 -380 20 -60 3 -144 7 -185 10 -41 2 -124
7 -185 10 -60 3 -146 8 -190 10 -44 3 -168 10 -275 15 -203 10 -329 17 -465
25 -44 3 -172 9 -285 15 -113 5 -239 12 -280 15 -71 4 -133 8 -380 20 -58 3
-141 8 -185 10 -88 5 -208 11 -385 20 -63 3 -146 8 -185 10 -38 3 -367 21
-730 40 -363 19 -712 37 -775 41 -461 26 -743 38 -759 32z"/>
<path d="M20606 35598 l-48 -11 7 -66 c4 -36 8 -70 8 -75 1 -5 -25 -24 -58
-43 -79 -45 -120 -86 -153 -153 -22 -45 -27 -68 -27 -130 1 -91 22 -138 91
-199 49 -43 139 -78 255 -99 122 -23 179 -64 179 -129 0 -108 -194 -150 -411
-87 -13 4 -18 -12 -28 -97 -7 -55 -11 -102 -9 -103 19 -16 92 -29 178 -32
l105 -4 12 -72 c6 -40 12 -75 12 -77 1 -4 105 8 139 16 23 5 24 9 18 62 -4 31
-9 68 -12 83 -5 24 0 29 49 53 119 56 194 156 204 273 11 124 -50 232 -160
285 -29 13 -100 36 -158 50 -178 44 -209 63 -209 128 0 44 29 73 94 90 54 15
169 14 225 -1 54 -14 56 -12 65 86 4 41 9 81 12 88 7 19 -69 36 -164 36 -88 0
-92 3 -92 77 0 66 -16 73 -124 51z"/>
<path d="M33243 35056 l-23 -46 43 -1 c23 0 49 -2 57 -3 8 -2 76 -6 150 -10
126 -6 748 -39 960 -51 313 -17 496 -27 750 -40 157 -8 326 -17 375 -20 50 -3
218 -12 375 -20 157 -8 326 -17 375 -20 50 -3 218 -12 375 -20 157 -8 326 -17
375 -20 50 -3 178 -9 285 -15 107 -6 236 -12 285 -15 50 -2 140 -7 200 -10 61
-3 142 -7 180 -10 39 -2 122 -7 185 -10 63 -3 147 -8 185 -10 39 -2 120 -7
180 -10 61 -3 146 -8 190 -10 44 -3 166 -9 270 -15 363 -19 399 -22 459 -41
147 -45 262 -173 295 -327 8 -39 11 -1279 11 -4630 0 -3547 3 -4581 12 -4590
20 -20 56 -14 73 11 14 21 15 505 13 4618 -3 4450 -4 4596 -22 4649 -41 121
-103 211 -193 279 -107 80 -197 106 -403 115 -74 4 -166 9 -205 11 -38 3 -284
16 -545 30 -261 13 -515 27 -565 30 -49 2 -137 7 -195 10 -58 3 -141 8 -185
10 -44 3 -377 21 -740 40 -673 35 -795 42 -945 50 -47 3 -170 9 -275 15 -307
16 -386 20 -465 25 -41 3 -131 7 -200 10 -69 3 -159 8 -200 10 -220 14 -753
42 -935 50 -66 3 -138 7 -160 10 -22 2 -116 7 -210 11 l-170 6 -22 -46z"/>
<path d="M21015 32685 c-301 -54 -531 -179 -747 -404 -186 -192 -307 -431
-364 -716 -27 -134 -25 -386 4 -522 58 -271 173 -490 357 -682 256 -266 581
-404 945 -400 158 1 257 17 394 60 443 142 782 511 900 979 76 300 51 621 -72
900 -24 55 -44 74 -72 65 -42 -13 -43 -38 -5 -129 138 -334 123 -751 -40
-1077 -123 -246 -333 -458 -570 -577 -256 -127 -563 -161 -835 -92 -475 122
-827 513 -914 1016 -19 106 -19 289 -2 404 62 397 288 733 628 932 213 124
462 179 712 157 163 -14 286 -49 439 -126 85 -42 90 -43 113 -28 28 18 31 47
7 71 -27 26 -186 98 -283 128 -47 14 -125 32 -174 41 -106 18 -322 18 -421 0z"/>
<path d="M20885 32013 c-38 -19 -71 -37 -73 -38 -2 -1 14 -37 34 -78 l38 -75
-51 -56 c-29 -31 -64 -82 -80 -114 -56 -115 -31 -272 58 -361 69 -69 98 -76
339 -76 118 0 221 -1 228 -3 28 -5 62 -55 62 -91 0 -103 -142 -186 -353 -207
-63 -6 -68 -9 -63 -28 2 -12 12 -61 22 -110 l17 -89 72 6 c39 3 110 18 158 34
l86 29 32 -73 c18 -41 36 -76 41 -79 8 -5 158 73 158 82 0 3 -16 41 -36 84
l-37 80 57 60 c131 138 152 312 53 456 -59 86 -189 141 -307 130 -248 -24
-319 -17 -346 35 -49 95 86 196 301 224 28 4 51 8 53 9 5 5 -38 200 -46 208
-11 11 -125 -10 -196 -36 l-63 -24 -33 69 c-18 38 -37 69 -44 69 -6 -1 -42
-17 -81 -37z"/>
<path d="M44580 28529 c-263 -35 -470 -273 -470 -539 1 -408 422 -659 784
-467 130 69 239 219 271 372 18 88 18 132 0 218 -57 272 -311 452 -585 416z
m175 -105 c329 -85 434 -496 190 -739 -172 -172 -428 -177 -601 -13 -93 88
-135 187 -136 316 -1 121 40 220 129 313 110 115 269 162 418 123z"/>
<path d="M43708 26548 c-23 -18 -138 -240 -138 -267 0 -27 44 -50 67 -35 21
13 143 239 143 264 0 10 -10 26 -22 34 -27 19 -30 19 -50 4z"/>
<path d="M42960 26310 c-41 -41 -16 -66 156 -155 79 -40 95 -45 114 -35 16 9
20 19 18 43 -3 29 -12 37 -116 94 -142 78 -146 79 -172 53z"/>
<path d="M43712 25904 c-51 -36 -21 -68 142 -153 90 -47 100 -51 120 -38 13 9
21 25 21 43 0 26 -10 34 -114 91 -137 76 -141 77 -169 57z"/>
<path d="M43293 25778 c-5 -7 -38 -66 -72 -132 -53 -99 -61 -122 -53 -141 14
-29 47 -37 71 -17 10 10 47 70 81 135 60 114 61 119 46 142 -18 27 -57 33 -73
13z"/>
<path d="M19610 16570 l0 -48 73 -6 c62 -6 853 -55 1127 -71 52 -3 120 -8 150
-10 30 -3 237 -16 460 -30 223 -13 434 -27 470 -29 36 -3 112 -8 170 -11 58
-3 132 -8 165 -10 51 -4 291 -19 630 -40 50 -3 119 -8 155 -10 36 -3 137 -9
225 -15 88 -5 194 -12 235 -15 41 -3 185 -12 320 -20 135 -8 277 -17 315 -20
62 -4 386 -24 655 -40 52 -3 113 -8 135 -10 22 -3 94 -7 160 -10 66 -3 147 -8
180 -10 131 -10 226 -16 610 -40 220 -13 429 -27 463 -30 77 -6 102 5 102 45
0 48 17 45 -365 70 -82 5 -474 30 -870 55 -396 25 -862 54 -1035 65 -173 11
-353 22 -400 25 -47 3 -114 8 -150 10 -36 3 -315 21 -620 40 -305 19 -766 48
-1025 65 -258 16 -582 36 -720 44 -137 9 -281 18 -320 21 -79 6 -964 62 -1125
71 -58 3 -120 7 -137 9 l-33 3 0 -48z"/>
<path d="M33246 10964 c-19 -18 -19 -19 -6 -160 13 -142 14 -156 41 -504 20
-253 26 -297 42 -313 12 -12 25 -16 39 -11 33 10 907 633 918 655 13 23 -1 55
-27 63 -255 77 -970 286 -979 286 -7 0 -20 -7 -28 -16z m483 -215 c207 -61
379 -114 384 -118 4 -4 -156 -123 -355 -264 l-363 -257 -7 78 c-4 42 -16 196
-27 342 -12 146 -23 280 -25 298 -3 18 0 32 6 32 6 0 180 -50 387 -111z"/>
<path d="M10143 10817 c-17 -7 -34 -14 -36 -17 -3 -3 -8 -75 -12 -160 -4 -85
-8 -157 -10 -160 -1 -3 -6 -84 -10 -180 -3 -96 -8 -177 -10 -180 -1 -3 -5 -75
-9 -160 -4 -85 -9 -168 -11 -185 -2 -16 -7 -93 -10 -170 -3 -77 -8 -165 -10
-195 -2 -30 -7 -98 -10 -150 -3 -52 -10 -171 -15 -265 -5 -93 -12 -215 -15
-270 -3 -55 -7 -131 -10 -170 -6 -88 -13 -212 -20 -340 -3 -55 -8 -131 -10
-170 -3 -38 -14 -223 -25 -410 -11 -187 -22 -376 -25 -420 -13 -198 -8 -225
40 -225 45 0 45 1 65 345 5 99 12 214 15 255 2 41 9 154 15 250 5 96 12 213
15 260 2 47 7 128 10 180 3 52 8 127 10 165 3 39 9 149 15 245 5 96 12 213 15
260 28 468 74 1279 80 1415 3 61 8 128 10 150 2 22 7 102 11 178 7 150 9 146
-53 124z"/>
<path d="M19047 10263 c-3 -5 -8 -233 -11 -508 -4 -275 -9 -570 -11 -655 -3
-85 -8 -588 -11 -1117 -6 -776 -5 -965 6 -978 15 -18 54 -20 68 -2 12 14 18
349 27 1407 3 349 7 752 10 895 3 143 7 419 11 613 l6 352 -46 0 c-24 0 -47
-3 -49 -7z"/>
<path d="M32435 10174 c-27 -8 -167 -44 -309 -80 -998 -251 -2245 -478 -3301
-599 -233 -27 -720 -74 -930 -90 -44 -3 -105 -8 -135 -10 -60 -5 -539 -31
-740 -40 -208 -9 -1120 -6 -1355 5 -884 40 -1620 137 -2318 305 -177 42 -194
43 -208 11 -22 -48 -4 -58 183 -104 685 -166 1517 -276 2338 -309 250 -10
1170 -10 1450 0 209 7 645 32 745 42 28 2 79 7 115 10 538 43 1241 123 1670
190 762 119 1324 223 1945 361 295 66 906 218 934 233 29 16 36 49 15 72 -20
22 -31 22 -99 3z"/>
<path d="M21772 10031 c-138 -48 -230 -187 -220 -335 11 -176 154 -309 333
-310 93 0 159 28 231 99 74 73 99 134 98 240 -1 224 -227 380 -442 306z m204
-96 c89 -37 150 -138 141 -236 -6 -65 -24 -104 -68 -148 -44 -44 -83 -62 -148
-68 -99 -9 -199 51 -237 143 -19 44 -18 136 2 182 49 119 190 177 310 127z"/>
<path d="M14972 9518 c-43 -53 -732 -2389 -732 -2483 0 -11 5 -26 12 -33 16
-16 53 -15 66 1 6 6 45 138 87 292 204 748 556 1924 567 1894 3 -8 6 -43 7
-79 1 -36 6 -144 11 -240 6 -96 12 -218 15 -270 3 -52 7 -135 10 -185 3 -49 7
-133 10 -185 3 -52 10 -180 15 -285 11 -210 18 -344 25 -450 2 -38 7 -124 10
-190 9 -207 17 -290 27 -302 6 -7 24 -13 39 -13 33 0 53 33 45 73 -3 12 -8 85
-11 162 -5 120 -19 388 -40 765 -3 52 -10 178 -15 280 -6 102 -12 228 -15 280
-10 176 -35 654 -40 770 -9 185 -16 210 -60 210 -12 0 -27 -6 -33 -12z"/>
<path d="M22556 9144 c-17 -17 -20 -42 -8 -61 10 -16 109 -50 345 -119 652
-189 1401 -312 2247 -369 47 -3 110 -7 140 -10 30 -2 118 -7 195 -10 77 -3
196 -8 265 -11 169 -9 1008 -8 1255 0 648 22 1246 63 1900 132 214 22 332 36
635 74 220 28 773 110 883 132 67 13 89 38 67 78 -15 28 -15 28 -405 -33 -313
-50 -556 -83 -895 -122 -274 -32 -283 -33 -355 -40 -33 -3 -100 -10 -150 -15
-49 -5 -173 -16 -275 -25 -102 -8 -210 -17 -240 -20 -179 -15 -459 -32 -790
-50 -333 -17 -926 -27 -1296 -21 -231 4 -434 9 -450 11 -16 2 -96 6 -179 10
-973 39 -2005 207 -2734 445 -68 22 -127 40 -131 40 -5 0 -16 -7 -24 -16z"/>
</g>
</svg>
