<?xml version="1.0" standalone="no"?>
<!DOCTYPE svg PUBLIC "-//W3C//DTD SVG 20010904//EN"
 "http://www.w3.org/TR/2001/REC-SVG-20010904/DTD/svg10.dtd">
<svg version="1.0" xmlns="http://www.w3.org/2000/svg"
 width="5209.000000pt" height="5210.000000pt" viewBox="0 0 5209.000000 5210.000000"
 preserveAspectRatio="xMidYMid meet">

<g transform="translate(0.000000,5210.000000) scale(0.100000,-0.100000)"
fill="#000000" stroke="none">
<path d="M24765 45090 c-401 -84 -724 -372 -857 -760 -31 -91 -38 -131 -308
-1740 -89 -525 -172 -1018 -185 -1095 -22 -127 -73 -432 -350 -2078 -93 -557
-100 -638 -70 -813 70 -400 350 -736 734 -881 84 -31 189 -55 396 -88 94 -16
171 -29 173 -30 2 -2 -8 -70 -22 -151 -61 -364 -221 -1315 -267 -1583 -27
-161 -49 -305 -47 -319 4 -36 30 -49 68 -35 17 6 225 115 463 241 642 342
1801 957 2218 1178 201 107 375 194 387 194 26 0 134 -18 1237 -204 473 -80
1171 -197 1550 -261 380 -64 757 -127 838 -141 142 -25 149 -26 167 -9 25 22
25 47 3 67 -12 10 -117 32 -298 63 -416 70 -1408 237 -2290 385 -429 73 -881
149 -1005 170 l-225 37 -60 -30 c-48 -24 -500 -263 -1095 -580 -913 -486
-1843 -977 -1845 -975 -2 2 17 120 41 263 24 143 98 582 164 975 66 393 122
726 125 740 11 52 -4 58 -260 100 -325 54 -443 93 -602 196 -74 48 -238 212
-286 285 -124 191 -177 367 -177 588 0 102 14 197 109 766 61 358 167 988 236
1400 413 2457 544 3226 561 3290 20 77 90 226 143 303 157 232 424 400 706
446 147 23 244 14 730 -68 1008 -170 2465 -415 3360 -566 523 -88 1175 -197
1450 -244 275 -46 919 -155 1430 -241 512 -86 1182 -199 1490 -251 1071 -180
2526 -425 3445 -579 509 -85 964 -166 1012 -180 183 -52 335 -142 466 -279
161 -167 251 -347 288 -576 23 -140 14 -245 -60 -680 -36 -212 -136 -801 -221
-1310 -86 -509 -176 -1042 -200 -1185 -24 -143 -94 -557 -155 -920 -272 -1622
-257 -1542 -332 -1690 -144 -283 -381 -474 -692 -557 -66 -18 -110 -22 -236
-22 -169 -1 -38 -21 -1444 219 -270 46 -288 47 -301 4 -16 -50 -17 -50 810
-191 776 -131 781 -132 935 -132 133 1 169 5 251 27 348 92 608 297 760 600
69 139 93 226 144 532 82 483 234 1387 336 1990 54 325 164 977 244 1450 79
474 171 1020 204 1215 34 195 63 393 66 439 9 162 -25 346 -96 516 -97 235
-334 477 -571 585 -120 54 -236 80 -678 155 -245 41 -845 142 -1335 224 -489
83 -1160 195 -1490 251 -330 56 -1198 202 -1930 325 -1434 241 -1537 259
-2705 455 -751 127 -1308 220 -2225 375 -242 41 -708 119 -1035 174 -327 55
-783 132 -1012 171 -377 63 -429 70 -550 69 -90 0 -162 -7 -223 -19z"/>
<path d="M20998 44435 c-314 -79 -468 -422 -321 -713 75 -148 262 -262 430
-262 310 0 552 289 490 587 -38 178 -157 316 -323 374 -77 26 -202 33 -276 14z
m284 -123 c205 -99 287 -361 173 -557 -36 -60 -115 -132 -183 -163 -50 -24
-69 -27 -157 -27 -92 0 -106 3 -167 32 -333 158 -297 622 57 740 25 8 72 12
126 9 70 -3 97 -9 151 -34z"/>
<path d="M19475 43735 c-2141 -536 -3903 -1332 -5360 -2420 -1476 -1102 -2592
-2506 -3192 -4013 -139 -351 -286 -848 -263 -891 15 -30 49 -37 70 -15 10 11
31 78 49 154 39 163 156 520 238 725 449 1121 1183 2183 2140 3097 1602 1531
3789 2649 6442 3294 124 30 231 60 239 66 20 17 11 69 -13 78 -13 5 -138 -22
-350 -75z"/>
<path d="M27250 43149 c-858 -89 -1589 -674 -1856 -1485 -133 -403 -149 -828
-48 -1226 185 -732 735 -1319 1449 -1548 356 -114 737 -136 1093 -64 711 143
1305 623 1587 1280 121 283 176 556 177 874 0 1082 -789 1990 -1872 2155 -123
19 -409 27 -530 14z m420 -99 c313 -33 635 -140 890 -297 443 -273 779 -718
919 -1216 161 -574 64 -1209 -262 -1705 -383 -583 -1010 -932 -1702 -947 -300
-6 -560 40 -828 147 -250 101 -463 238 -660 427 -123 119 -207 218 -302 361
-486 728 -457 1699 72 2408 76 102 257 287 363 372 430 343 975 505 1510 450z"/>
<path d="M27491 42584 c-120 -32 -254 -130 -322 -235 -54 -85 -74 -161 -119
-454 -24 -154 -44 -281 -46 -283 -2 -3 -126 16 -421 63 -176 29 -224 30 -312
10 -140 -33 -273 -126 -347 -242 -144 -224 -106 -529 89 -710 64 -59 143 -103
228 -127 29 -8 173 -34 319 -57 146 -22 266 -42 267 -43 1 -1 -18 -125 -42
-276 -25 -151 -45 -304 -45 -340 0 -142 57 -277 165 -386 249 -252 661 -209
861 91 53 79 72 151 119 449 24 153 46 281 49 283 3 3 123 -14 268 -38 166
-27 294 -43 348 -43 352 0 616 338 535 683 -36 151 -150 297 -285 364 -82 42
-134 54 -452 104 -205 32 -238 39 -238 54 0 10 13 100 30 201 65 401 67 447
24 575 -54 162 -192 296 -360 349 -88 28 -226 32 -313 8z"/>
<path d="M30512 41228 c-9 -12 -25 -99 -68 -376 -18 -110 -18 -113 2 -131 15
-14 99 -31 389 -76 435 -68 303 -47 2025 -319 751 -119 1419 -225 1485 -236
66 -11 520 -83 1009 -160 852 -135 891 -140 908 -123 13 13 27 78 55 256 33
210 35 239 22 252 -10 11 -218 47 -679 120 -366 58 -978 155 -1360 216 -382
60 -751 119 -820 129 -69 11 -350 55 -625 99 -1716 273 -2280 361 -2305 361
-15 0 -32 -6 -38 -12z m228 -113 c58 -8 119 -18 135 -21 48 -8 840 -134 940
-149 187 -29 2358 -373 2625 -416 102 -16 253 -40 335 -53 83 -13 446 -70 807
-127 l658 -104 0 -25 c0 -14 -9 -77 -20 -140 -11 -63 -20 -128 -20 -143 0 -15
-6 -30 -13 -33 -12 -4 -173 20 -712 106 -104 17 -217 35 -250 40 -79 11 -788
124 -980 155 -82 13 -267 43 -410 65 -143 22 -327 51 -410 65 -82 13 -253 40
-380 60 -126 20 -297 47 -380 60 -126 21 -297 48 -665 105 -113 18 -835 132
-1110 176 -157 25 -301 48 -321 52 l-35 7 23 150 c31 202 29 196 56 191 12 -3
69 -12 127 -21z"/>
<path d="M30373 40294 c-18 -8 -27 -51 -64 -292 -29 -185 -31 -214 -18 -227 8
-8 79 -24 174 -40 88 -13 174 -27 190 -30 28 -5 754 -120 3625 -575 657 -104
1324 -210 1481 -235 309 -49 341 -52 357 -32 6 6 25 102 42 212 47 295 46 280
19 298 -13 8 -44 18 -69 21 -95 15 -235 37 -510 80 -157 25 -613 97 -1015 161
-401 63 -800 127 -885 140 -156 25 -534 85 -1360 215 -245 39 -512 82 -595 95
-82 13 -310 49 -505 80 -195 30 -438 69 -540 85 -102 17 -203 33 -225 36 -22
3 -51 7 -65 9 -14 2 -31 1 -37 -1z m529 -174 c244 -39 484 -77 533 -85 50 -8
317 -50 595 -94 1423 -225 2303 -365 2465 -391 99 -16 428 -68 730 -115 881
-138 870 -136 867 -160 -11 -84 -50 -316 -53 -320 -2 -2 -486 73 -1074 166
-2779 440 -3451 546 -3985 630 -316 50 -580 92 -586 94 -7 2 -3 50 13 152 28
181 31 193 43 193 5 0 209 -32 452 -70z"/>
<path d="M14363 40103 c-776 -530 -1496 -1356 -2030 -2328 -548 -996 -950
-2265 -1094 -3447 -22 -182 -22 -188 -4 -208 22 -24 48 -26 66 -4 7 8 23 97
36 202 126 1016 449 2115 896 3044 524 1088 1269 2008 2109 2606 149 105 169
131 128 164 -12 10 -26 18 -30 18 -5 0 -39 -21 -77 -47z"/>
<path d="M20170 39740 c-632 -105 -1468 -517 -2676 -1322 -286 -190 -362 -248
-459 -349 -106 -111 -139 -177 -140 -279 0 -64 4 -83 30 -133 17 -32 65 -98
109 -145 86 -96 157 -197 260 -371 99 -166 279 -498 386 -711 51 -102 108
-213 126 -248 19 -35 34 -69 34 -76 0 -7 -22 -18 -49 -25 -79 -20 -156 -74
-183 -129 -33 -68 -32 -210 5 -344 57 -212 188 -508 266 -605 75 -93 210 -181
336 -218 68 -21 86 -37 126 -118 l30 -58 -76 -396 c-41 -218 -76 -398 -78
-399 -2 -2 -179 -26 -393 -53 -430 -55 -770 -99 -824 -106 -42 -6 -513 -65
-792 -100 -108 -14 -212 -27 -230 -30 -40 -6 -888 -114 -1218 -155 -129 -16
-251 -32 -270 -34 -19 -3 -233 -31 -475 -61 -242 -31 -453 -58 -470 -61 -16
-2 -226 -29 -465 -59 -1178 -149 -1745 -221 -2520 -321 -322 -41 -724 -92
-895 -114 -270 -34 -719 -92 -1255 -160 -196 -26 -291 -50 -407 -105 -131 -62
-231 -134 -331 -240 -128 -136 -207 -277 -264 -474 l-23 -76 -3 -7455 c-2
-6786 -1 -7462 13 -7535 75 -376 342 -727 784 -1032 53 -37 130 -99 171 -138
42 -39 97 -86 123 -104 75 -51 205 -109 289 -128 43 -10 78 -20 78 -23 0 -3
-80 -16 -178 -28 -198 -26 -259 -46 -325 -110 -51 -49 -70 -81 -105 -179 l-30
-83 4 -352 c2 -194 6 -378 8 -409 5 -71 43 -146 98 -194 24 -20 1251 -728
2728 -1572 6522 -3728 7685 -4393 8167 -4669 282 -161 556 -315 610 -342 278
-140 603 -243 923 -293 198 -32 624 -36 835 -9 83 11 168 21 190 24 129 17
294 38 320 41 17 3 86 12 155 20 69 9 136 18 150 20 14 2 99 13 190 24 91 12
235 30 320 41 85 12 209 28 275 36 130 16 791 102 840 109 17 2 71 9 120 15
70 8 1516 195 2715 350 539 69 2038 262 2100 270 41 6 91 12 110 15 19 3 143
18 275 35 132 17 308 39 390 50 132 17 478 63 575 75 19 2 91 11 160 20 69 9
188 24 265 35 77 10 165 22 195 25 30 4 123 15 205 26 83 11 218 28 300 39 83
10 272 35 420 54 149 19 412 53 585 75 652 84 1064 138 1210 157 63 8 221 28
350 45 364 46 979 125 1045 134 17 3 156 21 310 40 154 20 291 38 305 40 14 2
153 20 310 40 157 20 371 47 475 61 105 13 226 29 270 35 44 5 429 55 855 110
426 55 825 106 885 114 278 35 673 86 700 90 17 3 278 36 580 75 303 39 654
84 780 101 127 16 336 43 465 60 129 16 496 63 815 105 818 105 1376 177 1630
209 200 26 282 73 338 193 22 46 22 52 19 487 -3 365 -6 441 -18 448 -8 4 -14
18 -14 30 0 40 -56 141 -101 183 -29 26 -684 405 -1794 1039 -963 549 -1753
1001 -1757 1004 -4 3 32 38 79 76 216 177 405 419 524 670 79 168 131 335 175
570 4 22 9 591 11 1265 l4 1225 -22 17 c-19 16 -56 17 -451 15 l-430 -2 28 22
c16 12 70 53 121 90 338 251 566 534 676 838 47 132 87 343 112 600 10 104 36
247 61 335 88 307 431 790 975 1371 120 128 180 221 294 454 165 338 242 619
252 920 13 368 -84 662 -302 919 -112 131 -297 255 -460 306 -92 29 -233 35
-307 14 -88 -26 -166 -74 -250 -153 -218 -205 -402 -531 -718 -1271 -185 -433
-239 -542 -284 -570 -40 -24 -114 -27 -156 -5 -60 31 -74 66 -115 288 -35 192
-45 292 -46 463 -1 174 3 213 38 354 62 254 183 442 424 655 617 545 899 1027
991 1690 8 58 12 237 13 510 1 231 5 438 9 460 67 357 132 524 335 865 225
378 396 746 611 1315 249 657 401 1212 466 1700 24 185 25 534 0 670 -40 227
-111 379 -231 502 -134 136 -280 192 -502 193 -201 0 -395 -51 -628 -164 -381
-187 -723 -505 -880 -821 -107 -217 -151 -474 -180 -1070 -20 -427 -99 -670
-292 -906 -74 -90 -142 -155 -298 -284 -339 -279 -603 -601 -770 -940 -159
-321 -227 -615 -221 -950 3 -147 8 -193 39 -345 48 -237 62 -386 48 -527 -33
-330 -166 -577 -493 -918 -328 -343 -490 -615 -589 -990 -46 -176 -63 -316
-63 -530 1 -293 46 -558 158 -919 74 -237 81 -283 80 -521 0 -179 -3 -225 -22
-311 -40 -185 -126 -404 -228 -580 -104 -182 -340 -496 -402 -536 -54 -35
-130 -13 -154 44 -35 87 -108 219 -150 274 -99 129 -252 245 -432 329 -151 70
-268 192 -400 418 -114 194 -229 464 -329 772 -68 210 -85 249 -154 353 -297
450 -1085 862 -1649 862 -224 0 -354 -46 -492 -174 -229 -214 -401 -590 -468
-1026 -22 -142 -25 -466 -5 -585 48 -290 137 -482 295 -641 180 -180 322 -272
1146 -741 370 -211 555 -327 734 -462 285 -215 450 -408 524 -613 25 -69 26
-82 24 -252 -2 -238 16 -328 100 -491 39 -76 93 -156 152 -225 25 -29 44 -55
42 -57 -2 -3 -125 -4 -272 -3 -230 0 -272 -2 -291 -15 l-23 -16 0 -585 c0
-321 -2 -584 -4 -584 -2 0 -723 411 -1604 914 -880 503 -1632 931 -1672 951
-384 193 -818 308 -1254 331 l-128 7 88 45 c273 136 476 372 572 662 60 179
56 3 59 2490 l4 2275 66 75 c486 546 819 1264 1037 2230 100 443 184 1050 211
1525 4 61 8 126 10 145 9 73 20 536 20 800 0 317 -10 707 -25 930 -5 85 -12
200 -15 255 -6 99 -39 494 -50 590 -3 28 -12 113 -20 190 -38 353 -95 764
-142 1025 -29 165 -32 284 -8 405 23 121 48 189 165 445 348 762 549 1268 580
1465 31 196 -52 410 -237 605 l-65 69 6 283 c3 156 8 434 11 618 7 430 23
1042 32 1285 14 331 11 434 -12 480 -25 50 -76 85 -124 85 -46 0 -124 -37
-178 -84 -138 -120 -298 -411 -408 -741 -81 -243 -170 -656 -191 -887 -4 -43
-9 -78 -12 -78 -3 0 -28 11 -56 25 -70 34 -132 40 -207 21 -174 -45 -304 -178
-430 -439 -27 -56 -49 -107 -49 -114 0 -25 -19 -21 -64 12 -25 20 -78 53 -118
74 -182 97 -308 95 -413 -9 l-50 -49 -40 27 c-100 69 -388 251 -517 328 -269
160 -393 180 -808 125 -129 -17 -415 -53 -635 -81 -220 -28 -411 -53 -425 -55
-14 -2 -65 -9 -115 -15 -88 -10 -265 -33 -1295 -164 -898 -115 -1454 -186
-1500 -191 -25 -3 -74 -10 -110 -15 -36 -6 -155 -21 -265 -35 -110 -13 -362
-45 -560 -70 -198 -25 -427 -54 -510 -65 -393 -49 -969 -123 -1140 -145 -642
-84 -1529 -195 -1536 -193 -5 2 17 39 47 83 198 285 310 739 290 1175 -12 269
-25 334 -262 1290 -141 565 -154 626 -139 635 181 108 333 227 407 319 133
165 91 310 -99 346 -89 17 -128 52 -120 108 10 62 80 188 217 392 151 226 177
286 167 399 -12 140 -79 264 -213 391 -220 209 -567 352 -967 400 -128 15
-373 10 -497 -10z m969 -2285 c208 -811 391 -1570 418 -1738 24 -149 24 -534
0 -682 -62 -374 -184 -644 -378 -835 -132 -130 -257 -192 -491 -244 -229 -51
-309 -60 -543 -60 -189 0 -234 3 -323 22 -384 83 -654 284 -815 607 -19 39
-41 90 -48 114 -15 52 -48 78 -78 62 -30 -17 -33 -42 -12 -103 86 -249 276
-477 517 -619 325 -192 772 -237 1272 -130 45 10 84 15 86 12 2 -3 76 -267
165 -586 89 -319 174 -616 188 -660 67 -208 187 -407 345 -571 200 -207 391
-325 665 -409 l101 -31 -745 -654 c-409 -360 -755 -663 -767 -672 -23 -17 -66
-4 -1837 578 -998 328 -1817 599 -1821 603 -5 4 25 24 65 46 496 268 883 764
1021 1310 21 87 60 283 162 825 14 74 34 178 44 230 10 52 46 243 80 423 l62
328 -36 75 c-39 82 -79 140 -108 155 -11 6 -45 17 -75 25 -161 42 -289 149
-371 311 -157 306 -239 623 -187 723 17 33 94 74 170 90 95 21 210 -10 322
-87 67 -45 94 -49 112 -15 5 10 5 56 -1 112 -5 52 -10 192 -10 310 -1 248 10
317 66 424 32 61 36 76 36 145 0 83 -23 183 -65 277 -14 31 -25 58 -25 59 0 2
86 8 315 21 50 2 117 7 150 9 33 3 96 7 140 10 557 41 1163 130 1570 231 144
36 417 129 510 173 44 21 83 36 86 32 4 -3 35 -114 68 -246z m11868 -555 c6
-14 13 -45 14 -70 2 -44 -8 -331 -16 -460 -2 -36 -7 -193 -10 -350 -3 -157 -8
-337 -10 -400 -2 -63 -7 -353 -11 -645 -3 -291 -9 -545 -13 -564 l-6 -33 -297
313 c-164 173 -318 341 -342 374 l-45 61 20 169 c67 595 239 1138 456 1443 71
99 98 128 153 164 54 34 90 34 107 -2z m-940 -1715 c51 -22 66 -36 149 -148
69 -94 361 -409 730 -787 94 -96 184 -195 201 -220 78 -115 123 -241 123 -346
0 -159 -196 -670 -575 -1493 -161 -351 -188 -446 -189 -661 -1 -113 6 -178 41
-395 93 -575 142 -1024 198 -1825 2 -36 7 -146 10 -245 4 -99 8 -193 11 -210
4 -33 4 -1046 -1 -1110 -2 -22 -6 -107 -9 -190 -6 -134 -38 -546 -51 -665
-110 -986 -305 -1733 -620 -2375 -341 -696 -794 -1182 -1380 -1481 -322 -165
-681 -271 -1050 -309 -33 -4 -70 -8 -83 -10 -13 -2 -87 -7 -165 -12 -962 -52
-1853 130 -2692 549 -137 68 -335 177 -335 183 0 2 13 28 29 57 15 29 106 204
201 388 95 184 198 385 230 445 32 61 162 313 290 560 202 391 469 907 740
1430 42 83 117 227 165 320 49 94 89 172 91 174 2 2 60 -26 131 -62 238 -121
452 -194 712 -243 164 -31 298 -34 391 -10 338 89 643 443 930 1081 391 866
721 2229 889 3675 5 47 8 168 7 270 -5 264 -19 313 -164 552 -225 369 -376
787 -433 1193 -20 138 -17 475 4 631 53 392 213 788 352 874 86 53 256 -5 432
-147 l22 -18 -24 -119 c-63 -311 -78 -681 -37 -907 54 -291 134 -444 331 -631
149 -142 278 -207 428 -216 103 -6 163 8 230 54 97 66 151 193 139 326 -18
209 -89 395 -208 552 -59 77 -85 92 -117 70 -32 -23 -26 -48 35 -126 117 -151
187 -343 188 -513 1 -89 -2 -106 -25 -150 -80 -156 -295 -160 -508 -8 -87 62
-190 168 -250 259 -178 266 -216 720 -107 1279 13 66 36 156 51 200 34 101
115 260 172 336 114 151 260 220 370 174z m-1363 -553 c3 -5 -15 -55 -39 -111
-81 -186 -142 -408 -165 -596 -6 -49 -13 -105 -16 -123 l-5 -33 -52 47 c-153
137 -319 208 -517 221 -82 5 -152 0 -305 -23 -16 -2 -174 -22 -350 -44 -176
-22 -423 -54 -550 -70 -126 -16 -372 -48 -545 -70 -736 -93 -1427 -181 -1455
-185 -16 -3 -264 -34 -550 -71 -286 -36 -623 -79 -750 -95 -126 -16 -387 -49
-580 -74 -192 -24 -510 -65 -705 -90 -195 -25 -481 -61 -635 -81 -154 -19
-293 -37 -310 -40 -16 -2 -244 -31 -505 -64 -261 -33 -668 -85 -905 -115 -236
-30 -452 -58 -480 -61 -27 -3 -77 -10 -110 -15 -33 -5 -62 -5 -66 -1 -4 4 -36
112 -71 240 -63 226 -65 232 -44 236 12 3 435 57 941 121 506 64 1039 132
1185 150 146 19 497 63 780 100 528 67 878 112 940 120 42 6 514 66 792 100
108 14 212 27 230 30 40 6 888 114 1218 155 129 16 251 32 270 34 19 3 233 31
475 61 242 31 454 58 470 61 17 2 226 29 465 59 903 115 1075 136 1440 184
373 48 494 59 504 43z m-619 -726 c101 -34 198 -91 273 -161 82 -76 116 -127
114 -173 -4 -71 19 -327 39 -436 10 -61 31 -154 46 -206 l27 -95 3 -2071 3
-2070 -70 -226 c-301 -979 -657 -1606 -1030 -1816 -121 -68 -233 -90 -373 -72
-147 19 -321 58 -469 107 -130 42 -448 188 -462 212 -4 6 37 98 92 204 54 105
185 359 291 563 105 203 191 380 191 392 0 16 -253 241 -1007 894 -555 480
-1153 999 -1331 1153 l-323 280 -267 134 c-1352 679 -2856 1225 -4022 1461
-226 46 -228 46 -322 153 -84 95 -159 203 -212 306 -45 87 -136 341 -136 379
0 16 21 21 168 40 154 20 1511 193 1787 228 65 8 133 17 150 19 16 3 138 18
270 35 132 16 256 32 275 35 19 3 141 18 270 35 209 26 1042 132 1145 145 22
3 146 19 275 35 129 17 251 32 270 35 59 8 750 95 835 106 44 5 91 12 105 14
14 2 151 20 305 39 154 19 440 55 635 80 195 25 515 66 710 91 195 25 375 48
400 51 25 3 263 34 530 69 415 55 503 63 610 61 104 -3 138 -8 205 -30z
m-12015 -878 c0 -25 -50 -234 -71 -298 -12 -36 -34 -97 -50 -135 l-29 -70
-537 -68 c-296 -38 -585 -75 -643 -83 -58 -8 -584 -75 -1170 -150 -586 -74
-1114 -141 -1175 -149 -60 -8 -216 -28 -345 -44 -467 -59 -1598 -203 -1690
-216 -42 -6 -519 -66 -795 -101 -110 -14 -213 -27 -230 -29 -27 -4 -668 -86
-1180 -151 -110 -13 -211 -27 -225 -29 -14 -2 -50 -7 -80 -10 -220 -25 -449
-136 -612 -298 -174 -173 -279 -393 -308 -643 -8 -72 -10 -1975 -8 -7004 l3
-6905 22 -76 c70 -247 219 -431 434 -540 173 -86 322 -104 584 -70 88 12 266
35 397 51 130 16 251 32 270 35 18 3 159 21 313 40 478 60 673 85 707 90 18 3
141 19 273 35 410 52 1249 159 1490 190 127 16 392 50 590 75 198 25 430 55
515 66 85 11 369 47 630 80 261 33 489 62 505 64 17 3 262 34 545 70 283 36
711 90 950 121 239 30 449 57 465 59 17 3 174 23 350 45 176 22 442 56 590 75
585 75 991 127 1219 155 132 17 254 33 270 35 17 3 141 19 276 35 135 17 259
33 275 35 17 3 228 30 470 60 242 31 454 58 470 60 29 4 198 26 935 119 195
25 427 55 515 66 187 24 453 58 1060 135 242 31 454 58 470 60 17 3 208 27
425 55 217 27 553 70 745 94 193 25 548 70 790 101 242 31 580 74 750 96 171
22 450 57 620 79 171 21 416 53 545 69 129 17 309 40 400 51 91 12 179 23 195
25 28 5 572 74 750 96 339 42 611 209 789 486 58 90 100 188 135 312 l26 96 3
1770 2 1771 68 33 c185 91 408 246 630 437 l42 37 -3 -2229 c-3 -2024 -5
-2235 -19 -2294 -71 -283 -219 -500 -441 -648 -159 -106 -283 -148 -520 -178
-67 -8 -135 -17 -152 -19 -16 -3 -172 -23 -345 -45 -722 -91 -1935 -245 -2200
-280 -85 -11 -616 -79 -1180 -151 -564 -71 -1074 -136 -1135 -144 -60 -8 -216
-28 -345 -44 -467 -59 -1598 -203 -1690 -216 -42 -6 -519 -66 -795 -101 -110
-14 -213 -27 -230 -29 -26 -4 -205 -27 -1179 -151 -105 -13 -206 -26 -225 -28
-50 -7 -64 -9 -556 -71 -242 -31 -451 -58 -465 -60 -14 -2 -259 -34 -545 -70
-286 -36 -623 -78 -750 -95 -126 -16 -428 -54 -670 -85 -242 -31 -703 -89
-1025 -131 -322 -41 -724 -92 -895 -114 -170 -22 -488 -62 -705 -90 -217 -27
-501 -64 -630 -80 -129 -16 -251 -32 -270 -35 -19 -3 -161 -21 -315 -40 -454
-57 -1068 -136 -1100 -140 -16 -3 -122 -16 -235 -30 -113 -15 -218 -28 -235
-30 -16 -3 -140 -18 -275 -35 -135 -17 -256 -33 -270 -35 -14 -2 -119 -16
-235 -30 -115 -14 -223 -28 -240 -30 -16 -3 -192 -25 -390 -50 -589 -75 -817
-104 -1060 -135 -1072 -137 -1109 -141 -1185 -135 -113 11 -212 40 -314 92
-72 38 -109 66 -181 138 -124 124 -188 239 -221 395 -12 60 -14 1086 -12 7577
l3 7508 23 80 c58 202 193 408 352 537 101 82 270 169 385 197 44 11 402 61
795 111 393 50 729 93 745 95 25 4 797 102 945 120 25 3 77 10 115 15 39 6
178 24 310 40 356 46 733 93 1170 149 215 27 586 75 825 105 1869 238 2005
256 2325 297 171 22 432 55 580 74 324 41 760 97 980 125 88 11 185 23 215 26
30 4 57 8 59 10 11 10 51 3 51 -8z m12749 -797 c29 -57 81 -150 117 -207 122
-199 140 -250 154 -439 8 -101 6 -163 -5 -280 -48 -471 -125 -968 -230 -1493
-53 -263 -153 -713 -161 -721 -2 -2 -4 767 -4 1710 l1 1714 38 -90 c21 -49 61
-137 90 -194z m-12975 142 c-54 -94 -118 -189 -179 -268 -71 -91 -262 -280
-346 -343 -56 -42 -59 -43 -305 -93 -601 -120 -1068 -244 -1444 -384 -365
-136 -1228 -553 -1771 -856 -542 -302 -1045 -640 -1389 -933 -262 -224 -534
-513 -682 -726 -149 -215 -138 -188 -249 -639 -55 -223 -142 -579 -194 -791
-352 -1432 -385 -1566 -385 -1585 0 -19 117 -124 254 -227 66 -49 126 -92 134
-97 12 -7 11 -37 -11 -217 -64 -513 -91 -1014 -82 -1509 3 -176 7 -342 9 -370
3 -27 8 -97 11 -155 9 -159 33 -397 56 -570 171 -1293 618 -2319 1314 -3016
284 -284 543 -471 940 -679 72 -37 131 -69 132 -70 2 0 -33 -145 -76 -321 -43
-175 -111 -452 -150 -614 -120 -492 -260 -1064 -310 -1265 l-47 -190 -250 -32
c-137 -18 -359 -46 -493 -63 -134 -17 -258 -33 -275 -35 -38 -6 -897 -115
-1216 -155 -129 -16 -251 -32 -270 -34 -229 -34 -766 -96 -827 -96 -294 1
-557 182 -670 462 -56 137 -52 -344 -52 7128 0 6852 1 6916 20 7010 69 332
314 609 632 715 87 29 155 40 552 90 573 72 675 85 707 90 18 3 193 25 388 50
195 24 533 67 750 95 217 28 802 102 1300 166 498 63 1045 133 1215 155 171
22 506 64 745 95 239 30 575 73 745 94 171 22 450 58 620 80 392 50 750 96
975 125 96 13 181 23 188 24 8 1 3 -16 -14 -46z m4163 -534 c1153 -266 2482
-759 3736 -1385 l298 -149 1297 -1123 c713 -618 1301 -1127 1306 -1132 8 -8
-175 -369 -724 -1425 -37 -71 -170 -328 -295 -570 -221 -428 -569 -1101 -763
-1475 -878 -1695 -841 -1625 -864 -1623 -13 1 -252 101 -531 222 -279 122
-516 221 -525 221 -44 0 -51 -45 -33 -210 6 -47 13 -121 16 -165 3 -44 22
-255 40 -470 19 -214 39 -444 45 -510 6 -66 12 -145 15 -175 3 -30 10 -109 15
-175 6 -66 13 -142 15 -170 3 -27 21 -234 40 -460 20 -225 37 -430 40 -455 3
-25 12 -126 20 -225 8 -99 18 -205 20 -235 3 -30 14 -161 25 -290 12 -129 30
-336 40 -460 11 -124 31 -358 45 -520 14 -162 28 -313 30 -335 2 -22 7 -69 10
-105 3 -36 12 -143 20 -239 8 -96 14 -176 12 -177 -2 -2 -201 -29 -443 -59
-241 -31 -452 -58 -469 -60 -16 -3 -259 -34 -540 -69 -280 -36 -763 -97 -1073
-137 -310 -39 -565 -69 -569 -66 -3 4 68 245 158 537 l164 531 54 30 c158 90
228 223 176 339 l-17 39 98 98 c219 217 330 423 318 586 -3 42 1 55 40 115 59
92 101 176 132 269 47 138 34 298 -30 377 l-23 30 29 49 c136 230 215 608 193
924 -6 82 -11 109 -25 123 -18 18 -5 63 458 1557 l476 1538 0 95 c1 88 -2 101
-32 162 -36 74 -105 144 -174 175 -24 11 -370 120 -769 243 l-725 224 4 50
c13 159 -81 339 -221 420 -23 13 -199 73 -392 132 -192 59 -353 110 -357 113
-4 3 24 107 63 231 38 124 74 257 80 295 16 100 6 293 -20 383 -85 294 -311
530 -596 621 -115 37 -206 50 -320 46 -259 -9 -507 -135 -671 -340 -89 -110
-132 -206 -210 -460 -37 -121 -70 -224 -74 -228 -4 -5 -162 40 -351 100 l-344
108 -105 0 c-101 0 -108 -2 -183 -37 -84 -40 -166 -114 -202 -181 -11 -20 -24
-37 -30 -37 -5 0 -338 101 -738 225 -401 124 -752 228 -781 231 -142 17 -321
-89 -371 -220 -9 -24 -366 -1176 -794 -2561 -428 -1386 -783 -2521 -788 -2522
-14 -5 -265 244 -340 337 -86 107 -185 261 -239 372 l-46 97 136 556 c75 306
136 562 136 569 0 24 -36 43 -135 71 -285 78 -492 149 -675 230 -342 152
-1695 749 -2487 1099 -182 80 -343 146 -356 146 -33 0 -213 129 -318 228 l-36
34 27 111 c15 62 60 243 99 402 39 160 126 517 195 795 68 278 172 703 231
945 59 242 116 457 127 479 90 178 294 431 544 676 588 574 1505 1147 2819
1760 452 211 685 300 1075 410 272 76 876 217 887 206 2 -2 -35 -20 -81 -40
-86 -39 -105 -60 -86 -95 10 -20 3819 -1274 3854 -1269 22 3 1650 1422 1670
1455 18 32 -10 61 -71 72 -152 29 -359 105 -463 169 -49 31 -28 28 177 -19z
m19601 -2697 c2 -11 -48 -112 -114 -233 -154 -282 -373 -711 -529 -1039 -926
-1939 -1628 -3968 -2075 -5995 -44 -196 -150 -724 -150 -743 0 -35 222 279
342 484 81 138 222 415 278 549 50 117 55 125 84 125 59 0 59 -42 0 -179 -174
-401 -420 -808 -655 -1085 l-90 -106 -39 -233 c-57 -349 -73 -457 -67 -463 11
-11 132 90 247 205 191 192 358 437 475 698 51 116 53 118 85 118 70 0 65 -38
-31 -234 -117 -242 -278 -470 -459 -652 -100 -100 -293 -258 -330 -271 -12 -4
-18 -33 -40 -208 -6 -47 -13 -98 -16 -115 -11 -78 -55 -494 -74 -700 -11 -126
-22 -252 -25 -280 -2 -27 -11 -167 -20 -310 -8 -143 -17 -289 -19 -325 -3 -36
-8 -298 -12 -582 l-7 -518 -29 -1 c-15 -1 -36 -2 -45 -3 -17 -1 -18 22 -18
354 0 374 9 735 25 985 6 83 12 188 15 235 3 47 7 108 10 135 2 28 7 79 10
115 4 60 17 206 31 355 5 55 50 461 59 530 48 384 153 1062 210 1355 76 390
105 532 156 770 190 870 442 1785 736 2673 l95 288 -41 122 c-47 142 -85 324
-102 487 -26 240 -9 653 37 903 17 92 36 120 75 110 30 -8 38 -33 28 -86 -48
-257 -68 -684 -44 -907 18 -166 69 -413 94 -458 5 -8 28 46 65 150 250 707
645 1681 946 2333 182 393 241 516 430 890 230 455 392 753 426 783 24 21 28
22 48 9 11 -8 22 -23 24 -35z m-20423 -1287 c325 -57 597 -325 655 -646 16
-89 14 -240 -4 -324 -14 -66 -249 -832 -258 -840 -5 -5 -1530 465 -1541 475
-12 11 237 810 278 895 132 270 412 448 716 454 37 0 106 -6 154 -14z m-3110
-834 c396 -123 723 -226 727 -230 7 -6 -86 -328 -97 -340 -2 -1 -195 56 -429
128 -314 97 -431 129 -443 122 -13 -7 -232 -701 -817 -2598 -439 -1423 -802
-2594 -805 -2600 -5 -9 -52 13 -157 71 -298 165 -609 375 -599 405 160 530
1571 5088 1582 5114 22 52 104 124 162 142 25 8 71 13 101 11 36 -2 298 -78
775 -225z m1605 -80 c184 -57 336 -105 338 -106 2 -2 -20 -76 -47 -166 -54
-172 -59 -200 -38 -217 25 -20 1676 -524 1697 -517 19 6 27 29 121 331 l10 31
337 -104 c185 -57 357 -114 382 -126 61 -29 126 -97 158 -165 23 -48 27 -71
27 -142 0 -80 -6 -106 -104 -420 -57 -184 -105 -337 -107 -339 -4 -5 -3716
1140 -3727 1150 -9 7 180 632 212 704 31 67 86 121 164 160 69 35 76 36 157
33 74 -3 129 -17 420 -107z m-1010 -599 c0 -8 -14 -58 -31 -110 -32 -100 -34
-139 -9 -154 25 -14 3838 -1188 3859 -1188 28 0 44 29 80 148 17 56 33 102 35
102 6 0 779 -240 782 -243 2 -2 -757 -2465 -1202 -3904 l-57 -183 -32 0 c-48
0 -146 20 -177 36 -35 18 -58 62 -58 112 0 61 43 211 111 387 138 359 159 435
159 583 0 105 -24 193 -67 251 -25 32 -26 36 -13 83 6 27 11 51 9 52 -6 6
-4514 1396 -4525 1396 -10 0 -130 -369 -122 -374 2 -1 958 -297 2126 -657
l2122 -656 -273 -444 c-150 -244 -358 -582 -461 -751 -209 -341 -189 -319
-335 -362 -191 -56 -616 -65 -971 -21 -560 70 -1200 226 -1958 476 -496 164
-902 316 -1162 434 -69 31 -142 64 -163 73 -31 13 -37 19 -33 37 5 20 1572
5097 1580 5121 6 17 786 -226 786 -244z m4780 -982 c377 -116 707 -219 734
-228 110 -38 189 -149 187 -263 0 -47 -98 -372 -502 -1681 -500 -1621 -501
-1623 -544 -1673 -78 -92 -269 -277 -370 -358 -239 -193 -475 -311 -663 -333
l-62 -7 15 44 c15 45 1223 3959 1246 4037 11 39 11 45 -7 61 -11 11 -190 71
-434 146 -228 70 -416 128 -418 130 -1 1 21 79 50 173 41 133 56 171 68 167 8
-2 323 -99 700 -215z m-11876 -31 c88 -39 296 -131 461 -204 165 -73 766 -338
1335 -590 569 -251 1082 -477 1140 -503 58 -25 109 -49 113 -53 5 -4 -7 -56
-26 -115 -19 -60 -42 -147 -50 -194 -18 -105 -21 -348 -7 -455 114 -828 866
-1536 2195 -2065 371 -148 980 -357 1410 -483 1207 -355 2163 -449 2591 -252
l71 32 165 269 c281 457 597 972 696 1134 194 318 216 350 229 350 7 0 33 -20
57 -43 58 -59 80 -124 79 -242 -2 -115 -21 -189 -116 -435 -159 -414 -181
-531 -125 -643 24 -48 92 -92 167 -108 68 -15 249 -15 353 0 268 38 576 214
868 495 41 40 122 121 179 182 l103 109 -6 -136 c-13 -291 -77 -529 -195 -724
-23 -37 -41 -73 -41 -81 0 -8 16 -32 36 -54 38 -42 64 -110 64 -170 0 -100
-63 -258 -168 -423 -47 -73 -49 -80 -39 -113 39 -126 -100 -369 -333 -585 -59
-54 -100 -100 -100 -111 0 -10 11 -35 24 -56 40 -60 42 -85 12 -136 -71 -121
-373 -244 -796 -322 -75 -14 -148 -18 -350 -18 -284 0 -465 19 -731 75 -215
45 -201 46 -424 -5 -816 -183 -1837 -319 -2665 -354 -227 -9 -1029 -9 -1235 0
-1022 48 -1971 254 -2715 590 -483 218 -812 439 -1141 768 -284 283 -489 565
-692 950 -305 579 -530 1363 -617 2155 -6 55 -13 116 -15 135 -6 52 -25 314
-35 480 -8 142 -5 981 5 1070 2 25 9 117 15 205 13 191 45 502 65 637 8 54 15
100 15 103 0 10 14 4 174 -66z m3259 -1374 c37 -10 67 -21 67 -25 0 -4 -41
-173 -91 -376 -49 -203 -97 -402 -106 -441 -24 -107 -29 -101 -59 77 -26 159
-17 409 22 563 25 100 76 229 88 224 6 -2 41 -12 79 -22z m11603 -667 c49 -28
179 -95 289 -149 571 -278 1151 -445 1795 -516 210 -23 884 -26 1075 -5 348
39 668 116 925 222 l70 29 0 -1712 c0 -1134 -4 -1734 -11 -1777 -62 -393 -383
-720 -774 -790 -52 -9 -268 -37 -540 -71 -135 -17 -1808 -230 -1840 -234 -37
-6 -537 -69 -745 -95 -85 -11 -173 -22 -195 -25 -22 -3 -125 -16 -230 -30
-104 -13 -324 -41 -489 -61 -329 -41 -316 -42 -316 27 0 20 -7 107 -15 195 -8
87 -17 188 -20 224 -3 36 -10 115 -15 175 -5 61 -14 164 -20 230 -5 66 -12
143 -15 170 -2 28 -12 131 -20 230 -8 99 -20 230 -25 290 -6 61 -13 139 -16
175 -3 36 -7 83 -9 105 -2 22 -7 69 -10 105 -14 175 -116 1351 -120 1390 -3
25 -14 153 -25 285 -11 132 -29 341 -40 465 -11 124 -34 383 -50 575 -31 351
-35 405 -46 503 -3 28 -2 52 2 52 4 0 235 -99 514 -220 280 -121 515 -220 523
-220 22 0 43 34 122 190 37 73 76 149 86 167 11 19 33 61 49 93 17 33 34 60
39 60 4 0 48 -23 97 -52z m8267 -1583 c80 -106 202 -346 247 -485 66 -208 95
-418 83 -617 -4 -71 -2 -113 4 -113 13 0 383 -392 519 -550 666 -773 1139
-1596 1385 -2412 41 -137 101 -372 113 -443 l7 -40 -43 1 c-24 1 -46 2 -50 3
-4 0 -12 27 -18 59 -58 290 -193 700 -345 1042 -66 148 -245 497 -264 514 -9
8 -50 28 -91 45 -363 154 -967 535 -1447 914 -112 89 -129 116 -95 150 28 27
38 22 181 -91 249 -198 615 -452 871 -605 129 -76 469 -257 484 -257 19 0
-186 315 -345 532 -461 630 -1020 1206 -1689 1743 -164 131 -423 323 -513 380
-26 17 -50 38 -53 48 -9 28 5 56 31 63 64 16 709 -483 1147 -888 l107 -100 7
29 c10 36 -11 287 -31 383 -47 222 -164 482 -296 656 -49 65 -60 99 -37 122
29 29 62 9 131 -83z m6405 -517 c24 -24 11 -58 -64 -165 -444 -633 -943 -1477
-1289 -2179 -107 -217 -255 -536 -255 -549 0 -9 118 73 200 139 200 163 522
521 799 891 46 61 90 114 98 119 9 5 25 4 39 -3 46 -21 32 -54 -93 -220 -194
-257 -356 -445 -562 -652 -226 -226 -369 -339 -502 -398 l-46 -20 -88 -223
c-79 -200 -230 -640 -271 -791 -18 -65 -42 -86 -80 -68 -33 15 -31 35 21 208
307 1025 937 2283 1770 3538 229 344 260 385 288 385 13 0 28 -5 35 -12z
m-27227 -2439 c67 -28 187 -75 268 -104 80 -29 147 -57 148 -62 2 -5 -26 -105
-62 -223 -37 -117 -69 -234 -72 -260 -15 -130 76 -298 195 -359 22 -11 595
-191 1273 -401 679 -209 1243 -384 1254 -389 15 -6 8 -9 -30 -14 -28 -3 -174
-22 -325 -41 -151 -20 -507 -65 -790 -101 -283 -36 -600 -76 -705 -90 -947
-123 -1848 -236 -1851 -232 -2 2 34 159 80 348 47 189 105 427 130 529 25 102
99 406 165 675 66 270 134 549 151 620 35 148 37 155 45 155 3 0 60 -23 126
-51z m8544 -236 c-23 -76 -95 -310 -160 -519 l-118 -382 -51 -6 c-28 -4 -64
-9 -81 -11 -16 -3 -174 -23 -350 -45 -176 -23 -349 -45 -385 -49 -36 -5 -67
-7 -69 -5 -2 2 63 223 146 491 l151 488 143 7 c181 8 278 22 447 59 99 23 353
97 368 108 1 1 -17 -61 -41 -136z m-1615 53 c143 -31 368 -64 500 -72 96 -7
100 -8 94 -28 -4 -12 -74 -236 -155 -499 -81 -264 -150 -481 -153 -484 -5 -5
-168 -27 -881 -118 -148 -19 -484 -61 -745 -95 -261 -33 -518 -65 -570 -71
l-95 -11 -1740 537 c-957 296 -1742 539 -1743 541 -2 1 -1 17 3 34 7 31 8 32
49 25 378 -61 777 -104 1151 -124 205 -11 1031 -12 1240 -1 812 42 1603 142
2385 301 162 32 329 68 370 79 89 23 136 20 290 -14z m-6250 -54 c149 -44 372
-99 534 -132 76 -16 140 -30 141 -32 2 -2 -5 -28 -14 -59 -10 -31 -15 -64 -11
-75 6 -15 62 -36 261 -98 140 -43 535 -165 879 -271 344 -106 978 -302 1410
-435 432 -133 788 -245 792 -249 4 -4 -52 -14 -125 -24 -72 -9 -258 -33 -412
-52 -154 -20 -381 -49 -505 -66 -124 -16 -261 -32 -305 -35 l-80 -5 -1345 416
c-892 275 -1360 425 -1390 443 -81 50 -137 159 -128 252 4 37 120 438 134 462
3 3 17 3 32 -2 15 -4 74 -21 132 -38z m16419 -566 c390 -22 834 -145 1186
-330 66 -34 1526 -866 3245 -1848 1719 -982 4250 -2428 5625 -3213 1375 -785
2515 -1441 2533 -1459 56 -51 76 -101 77 -181 0 -55 -6 -80 -26 -120 -29 -57
-92 -110 -147 -124 -20 -6 -163 -26 -317 -46 -154 -20 -347 -45 -430 -56 -211
-28 -195 -26 -460 -59 -221 -28 -804 -104 -885 -115 -19 -2 -300 -39 -625 -80
-324 -42 -603 -78 -620 -80 -16 -3 -156 -21 -310 -41 -154 -19 -345 -44 -425
-54 -80 -11 -287 -37 -460 -60 -173 -22 -436 -56 -585 -75 -148 -20 -341 -44
-428 -55 -87 -11 -172 -22 -190 -25 -34 -5 -1404 -182 -1662 -215 -164 -21
-430 -55 -735 -95 -107 -14 -337 -43 -510 -66 -173 -22 -328 -42 -345 -44 -16
-3 -156 -21 -310 -40 -154 -20 -383 -49 -510 -66 -126 -16 -264 -34 -305 -39
-41 -6 -91 -12 -110 -15 -98 -13 -464 -60 -780 -100 -195 -26 -368 -48 -385
-50 -16 -3 -172 -23 -345 -45 -271 -34 -376 -48 -580 -75 -82 -10 -362 -47
-585 -75 -132 -17 -253 -33 -270 -35 -16 -3 -86 -12 -155 -20 -69 -9 -138 -18
-155 -20 -16 -3 -102 -14 -190 -25 -88 -11 -230 -29 -315 -40 -85 -11 -240
-32 -345 -45 -104 -13 -242 -31 -305 -39 -63 -9 -205 -27 -315 -41 -110 -14
-249 -32 -310 -40 -60 -8 -288 -38 -505 -66 -217 -27 -408 -52 -425 -54 -16
-3 -190 -25 -385 -50 -195 -25 -458 -59 -585 -76 -126 -16 -284 -36 -350 -44
-66 -8 -151 -20 -190 -25 -38 -6 -855 -112 -1815 -235 -960 -124 -1815 -234
-1900 -245 -492 -65 -643 -81 -810 -84 -490 -9 -971 99 -1400 314 -63 32
-1692 958 -3620 2060 -1928 1101 -4472 2554 -5654 3228 -1182 675 -2164 1241
-2181 1258 -51 50 -70 99 -69 179 0 51 6 81 21 110 53 102 107 130 296 155
211 28 509 67 807 105 146 19 616 79 1045 135 429 55 816 105 860 111 44 5 91
12 105 14 14 2 66 9 115 15 50 6 209 26 355 45 146 19 441 57 655 85 215 28
512 66 660 85 149 20 341 44 428 55 87 11 172 22 190 25 18 3 140 19 272 35
132 17 465 60 740 96 275 36 568 73 650 84 163 21 428 55 735 95 107 14 337
43 510 66 173 22 329 42 345 44 17 3 156 21 310 40 154 20 384 49 510 66 127
16 300 39 385 50 85 10 223 28 305 39 83 11 310 41 505 66 195 25 369 47 385
49 17 3 172 23 345 45 271 34 376 48 580 75 82 10 362 47 585 75 132 17 254
33 270 35 17 3 86 12 155 20 69 9 139 18 155 20 17 3 156 20 310 40 154 20
312 40 350 45 70 10 427 56 810 105 110 14 250 32 310 40 61 8 288 38 505 66
217 27 409 52 425 54 17 3 190 25 385 50 195 25 459 59 585 76 449 58 612 79
810 104 110 14 268 34 350 45 83 11 395 52 695 90 300 39 631 81 735 95 105
14 523 68 930 120 407 53 774 100 815 106 41 5 111 14 155 20 44 5 217 28 385
49 423 55 540 62 819 46z m9803 -1006 c2 -5 1 -547 -2 -1202 l-6 -1193 -27
-121 c-67 -305 -204 -588 -393 -815 -115 -138 -350 -347 -378 -335 -6 2 -999
569 -2206 1258 l-2195 1255 -3 581 -2 582 2604 0 c1724 0 2605 -3 2608 -10z"/>
<path d="M16508 30899 c-11 -6 -18 -22 -18 -40 0 -26 6 -33 43 -49 143 -63
4217 -1624 4241 -1624 35 -1 58 29 46 60 -6 16 -422 180 -2134 838 -1169 450
-2134 820 -2144 822 -9 2 -25 -1 -34 -7z"/>
<path d="M24629 26049 c-16 -16 -19 -28 -15 -57 3 -20 22 -172 41 -337 19
-165 37 -318 40 -340 3 -22 35 -287 70 -590 74 -626 70 -589 90 -755 8 -69 22
-186 30 -260 9 -74 21 -140 27 -147 14 -18 53 -16 72 3 19 18 18 11 6 94 -5
36 -11 88 -14 115 -4 28 -17 145 -31 260 -14 116 -30 251 -35 300 -6 50 -31
261 -56 470 -25 209 -49 416 -55 460 -88 756 -90 770 -106 787 -21 23 -38 23
-64 -3z"/>
<path d="M15691 24842 c-30 -26 -601 -723 -601 -734 0 -26 23 -48 50 -48 26 0
60 37 330 364 165 201 300 374 300 384 0 37 -50 59 -79 34z"/>
<path d="M21064 27536 c-60 -19 -101 -54 -129 -110 -74 -149 28 -317 192 -316
136 1 241 130 212 260 -28 126 -156 203 -275 166z m124 -106 c32 -20 62 -71
62 -106 0 -31 -33 -85 -61 -99 -107 -56 -217 45 -169 153 31 69 104 91 168 52z"/>
<path d="M17992 25227 c-5 -18 -31 -101 -57 -185 -27 -88 -44 -157 -39 -162
11 -9 4524 -1404 4528 -1399 5 6 116 373 113 375 -1 1 -1010 313 -2242 693
-1232 381 -2252 696 -2267 701 -25 8 -28 6 -36 -23z"/>
<path d="M17747 24434 c-69 -215 -97 -318 -90 -324 7 -7 4429 -1376 4504
-1395 25 -6 26 -5 83 180 32 103 56 188 54 190 -5 5 -4480 1386 -4509 1392
-25 5 -28 1 -42 -43z"/>
<path d="M30270 17254 c-19 -3 -138 -18 -265 -34 -281 -37 -280 -37 -385 -50
-47 -6 -150 -19 -230 -30 -111 -15 -878 -115 -1120 -146 -19 -2 -120 -16 -225
-29 -104 -14 -206 -27 -225 -30 -19 -2 -298 -39 -620 -80 -322 -42 -686 -89
-810 -105 -124 -17 -556 -73 -960 -125 -404 -52 -766 -100 -805 -105 -70 -10
-123 -17 -495 -65 -107 -14 -316 -41 -465 -60 -148 -20 -358 -47 -465 -61
-107 -13 -433 -56 -725 -94 -291 -38 -687 -90 -880 -114 -192 -25 -368 -48
-390 -51 -50 -7 -424 -55 -730 -95 -126 -17 -282 -37 -345 -45 -63 -9 -133
-18 -155 -20 -22 -3 -299 -39 -615 -81 -547 -71 -786 -102 -965 -125 -44 -5
-91 -12 -105 -14 -14 -2 -65 -9 -115 -15 -49 -6 -139 -17 -200 -25 -60 -9
-317 -42 -570 -75 -253 -33 -512 -66 -575 -74 -118 -16 -340 -45 -695 -91
-237 -30 -628 -81 -995 -130 -146 -19 -373 -48 -505 -65 -132 -17 -253 -33
-270 -35 -65 -9 -364 -48 -845 -110 -278 -36 -676 -88 -885 -115 -209 -28
-621 -81 -915 -120 -294 -38 -551 -74 -570 -81 -167 -58 -254 -244 -195 -418
35 -105 65 -127 640 -451 286 -161 763 -431 1060 -598 297 -168 569 -322 605
-342 36 -20 117 -66 180 -102 1419 -803 2199 -1242 2255 -1270 292 -147 673
-254 1015 -285 139 -13 464 -7 595 10 66 9 381 50 700 91 319 42 650 85 735
96 85 11 205 27 267 35 61 8 218 28 350 45 131 17 513 67 848 111 336 44 664
86 730 95 65 8 133 17 150 19 16 3 224 29 460 60 237 30 462 60 500 65 39 6
158 21 265 35 107 14 488 63 845 110 358 46 844 109 1080 140 237 30 477 62
535 70 58 8 231 31 385 50 154 20 294 38 310 40 17 3 120 16 230 30 110 14
232 30 270 35 80 12 726 96 1075 140 47 6 96 13 110 15 14 2 79 11 145 19 110
14 622 80 705 91 19 3 157 21 305 40 149 19 410 53 580 75 171 23 344 45 385
50 41 6 91 12 110 15 19 2 208 27 420 54 212 28 473 62 580 76 107 14 263 34
345 45 135 17 246 32 345 45 19 2 105 13 190 25 85 11 349 45 585 76 237 30
444 57 460 59 17 3 293 39 615 80 322 42 599 78 615 80 17 3 120 16 230 30
110 14 214 28 230 30 26 4 706 92 1305 170 857 111 989 129 1036 147 204 75
270 345 124 510 -42 48 -50 53 -515 315 -490 277 -915 517 -1155 653 -124 70
-344 195 -490 277 -146 83 -747 423 -1337 756 -590 334 -1122 631 -1182 662
-261 131 -531 216 -841 266 -96 16 -183 21 -380 24 -140 2 -271 1 -290 -1z
m645 -118 c265 -40 543 -125 771 -235 109 -53 1079 -594 1694 -946 105 -60
214 -122 1670 -945 712 -402 1308 -744 1323 -758 45 -42 67 -94 67 -157 0 -95
-49 -174 -128 -209 -21 -8 -161 -32 -312 -51 -151 -20 -288 -38 -305 -40 -41
-6 -231 -31 -465 -61 -107 -13 -262 -33 -345 -44 -82 -12 -166 -23 -185 -25
-137 -17 -223 -28 -350 -45 -111 -15 -878 -115 -1120 -146 -31 -4 -353 -46
-450 -59 -19 -3 -246 -32 -505 -65 -258 -34 -587 -76 -730 -95 -556 -72 -680
-88 -1275 -165 -338 -44 -646 -85 -685 -90 -70 -10 -124 -17 -495 -65 -107
-14 -316 -41 -465 -60 -148 -20 -358 -47 -465 -61 -107 -13 -433 -56 -725 -94
-291 -38 -687 -90 -880 -114 -192 -25 -368 -48 -390 -51 -50 -7 -424 -55 -730
-95 -126 -17 -282 -37 -345 -45 -63 -9 -133 -18 -155 -20 -22 -3 -299 -39
-615 -81 -534 -70 -746 -97 -960 -124 -47 -6 -96 -13 -110 -15 -14 -2 -65 -9
-115 -15 -49 -6 -139 -17 -200 -25 -60 -9 -317 -42 -570 -75 -253 -33 -512
-66 -575 -74 -118 -16 -340 -45 -695 -91 -237 -30 -628 -81 -995 -130 -146
-19 -373 -48 -505 -65 -132 -17 -253 -33 -270 -35 -65 -9 -364 -48 -845 -110
-278 -36 -658 -86 -845 -110 -187 -25 -367 -48 -400 -52 -110 -14 -511 -8
-638 10 -271 38 -577 129 -809 240 -73 35 -286 151 -473 257 -187 106 -599
339 -915 518 -316 178 -834 471 -1150 650 -316 178 -656 371 -755 427 -99 56
-445 252 -770 435 -632 356 -662 376 -685 461 -32 117 41 248 154 278 22 6
113 20 201 31 200 26 540 70 580 76 17 2 134 17 260 33 408 53 1161 150 1505
196 184 24 461 60 615 80 154 20 296 38 315 41 397 52 1215 158 1305 170 65 8
133 17 150 19 28 4 360 47 735 96 85 11 259 33 385 50 127 16 262 34 300 39
39 5 140 18 225 29 85 11 556 72 1045 136 490 63 922 120 960 125 63 9 417 55
965 125 107 14 227 30 265 35 69 10 561 75 995 130 124 16 279 36 345 45 66 9
260 34 430 55 171 22 429 56 575 75 404 53 876 115 960 125 41 6 91 12 110 15
19 2 175 22 345 45 171 22 432 56 580 75 149 20 338 44 420 55 83 10 202 26
265 34 63 8 327 43 585 76 259 34 484 63 500 65 17 3 68 9 115 15 47 6 99 13
115 15 17 3 293 39 615 80 322 42 599 78 615 80 17 3 120 16 230 30 110 14
214 28 230 30 295 42 1230 158 1315 163 152 9 428 -2 565 -22z"/>
<path d="M23905 15604 c-22 -4 -554 -69 -1140 -139 -209 -26 -393 -48 -410
-51 -16 -2 -330 -40 -698 -84 -367 -44 -684 -83 -705 -85 -20 -3 -185 -23
-367 -45 -181 -22 -366 -44 -410 -50 -79 -10 -578 -70 -1440 -175 -247 -30
-580 -70 -740 -90 -159 -19 -306 -37 -325 -40 -19 -2 -55 -7 -80 -10 -25 -3
-175 -21 -335 -40 -159 -19 -366 -44 -460 -56 -93 -11 -258 -31 -365 -45 -107
-13 -213 -26 -235 -29 -140 -15 -159 -19 -176 -36 -24 -24 -24 -31 -1 -59 l18
-22 794 97 c437 53 811 98 830 101 37 4 68 8 1310 159 432 52 949 115 1150
140 201 24 462 56 580 70 118 14 361 44 540 66 179 22 435 53 570 69 135 17
373 46 530 65 157 19 472 57 700 85 504 61 470 56 610 74 63 8 165 20 225 27
61 6 118 16 128 21 20 10 23 58 5 76 -11 11 -56 14 -103 6z"/>
<path d="M21710 14139 c-30 -4 -170 -22 -310 -39 -140 -17 -271 -32 -290 -35
-19 -3 -114 -14 -210 -25 -186 -22 -1207 -146 -1275 -155 -22 -3 -60 -8 -85
-12 -25 -3 -51 -10 -57 -15 -21 -17 -15 -56 10 -72 19 -13 40 -12 167 4 152
19 537 66 825 101 94 11 256 31 360 44 105 13 215 26 245 30 30 3 87 10 125
15 39 5 189 23 335 40 146 17 275 35 286 40 28 11 36 43 17 69 -16 23 -45 25
-143 10z"/>
<path d="M29915 13999 c-33 -4 -211 -26 -395 -48 -184 -22 -353 -43 -375 -46
-22 -2 -94 -11 -160 -20 -108 -13 -480 -59 -580 -70 -467 -56 -693 -85 -707
-90 -34 -13 -31 -74 4 -88 8 -2 117 8 243 24 127 15 363 44 525 63 655 80
1367 166 1400 171 19 2 62 7 95 11 71 7 105 26 105 57 0 47 -27 54 -155 36z"/>
<path d="M30565 12240 c-158 -21 -241 -32 -930 -121 -297 -38 -625 -81 -730
-94 -852 -110 -1111 -144 -1670 -216 -284 -36 -487 -63 -685 -89 -41 -6 -284
-37 -540 -70 -256 -33 -496 -64 -535 -69 -106 -15 -150 -58 -142 -139 5 -51
28 -78 94 -114 27 -14 190 -103 363 -198 1696 -928 2155 -1178 2217 -1207 131
-61 300 -84 453 -62 89 12 116 16 260 34 69 9 136 18 150 20 30 5 22 4 510 66
217 27 409 52 425 54 17 3 260 34 540 70 281 36 560 72 620 80 61 8 319 42
575 75 256 32 517 66 580 74 63 9 187 25 275 36 339 43 472 61 540 70 39 5 88
12 110 14 512 65 682 89 707 102 32 17 58 67 58 111 0 60 -28 83 -230 193
-107 58 -223 121 -259 141 -120 65 -1370 749 -1741 952 -431 236 -480 260
-584 287 -99 25 -247 25 -431 0z m410 -95 c99 -26 74 -13 1045 -545 223 -122
694 -379 1048 -573 663 -362 688 -378 610 -392 -39 -6 -193 -26 -1118 -145
-388 -50 -721 -93 -740 -96 -101 -13 -1237 -160 -1500 -194 -265 -34 -455 -58
-580 -75 -19 -2 -264 -34 -545 -70 -280 -36 -577 -75 -660 -85 -179 -24 -256
-25 -350 -5 -106 23 -18 -24 -1405 735 -294 161 -704 385 -910 498 -442 241
-440 240 -440 257 0 25 -82 12 1070 160 366 48 679 88 695 90 32 5 251 33 890
115 215 28 458 59 540 70 83 11 272 35 420 54 469 60 816 105 1275 165 469 62
541 66 655 36z"/>
<path d="M41001 37157 c-6 -8 -38 -171 -72 -363 -33 -192 -79 -452 -101 -579
-22 -126 -40 -241 -40 -254 -1 -52 -8 -51 622 -51 556 0 588 1 603 18 10 10
17 26 17 35 0 15 -937 1180 -964 1199 -17 12 -53 9 -65 -5z m478 -654 l400
-493 -495 0 -494 0 5 23 c5 21 83 466 142 810 15 86 31 156 35 155 4 -2 187
-225 407 -495z"/>
<path d="M37525 32319 c-174 -14 -331 -58 -502 -139 -276 -131 -519 -366 -636
-613 -17 -37 -39 -70 -49 -73 -29 -9 -53 4 -70 39 -55 114 -237 305 -393 409
-505 339 -1166 382 -1593 105 -324 -211 -505 -557 -553 -1057 -55 -583 165
-1198 642 -1793 420 -524 1072 -1064 1781 -1476 127 -74 186 -86 259 -54 57
25 292 177 484 311 1149 806 1811 1662 1965 2542 25 143 35 427 19 550 -53
417 -221 762 -484 991 -220 192 -533 285 -870 258z m341 -114 c215 -41 374
-125 525 -279 182 -184 309 -435 371 -731 20 -95 23 -139 22 -330 0 -183 -3
-240 -22 -340 -145 -799 -718 -1573 -1717 -2318 -155 -116 -587 -408 -652
-441 -61 -31 -87 -23 -263 82 -687 408 -1315 937 -1708 1440 -420 537 -618
1062 -599 1586 13 381 108 670 295 899 289 356 842 459 1376 258 272 -102 532
-298 651 -490 79 -126 126 -161 200 -147 53 10 89 48 136 143 147 297 462 547
811 643 181 50 397 59 574 25z"/>
<path d="M37257 31366 c-8 -8 -21 -59 -30 -113 -8 -54 -38 -228 -66 -388 -75
-435 -151 -882 -163 -955 -6 -36 -13 -71 -17 -78 -4 -6 -38 171 -76 395 -69
402 -70 407 -97 423 -49 27 -59 4 -99 -223 l-35 -202 -1105 -5 c-607 -3 -1109
-8 -1115 -12 -19 -13 -23 -46 -7 -67 l14 -21 1138 0 c850 0 1140 3 1149 12 6
6 17 44 24 85 6 40 14 73 17 73 4 0 35 -170 70 -378 77 -450 74 -440 107 -448
38 -10 55 14 70 103 97 551 244 1414 244 1432 0 12 4 21 9 21 4 0 15 -46 24
-102 9 -57 46 -272 81 -478 35 -206 85 -496 111 -645 50 -295 59 -320 109
-297 13 6 27 19 30 29 3 10 32 178 65 373 34 195 64 375 69 400 l8 45 8 -50
c4 -27 14 -60 22 -72 14 -23 15 -23 307 -23 309 0 317 1 317 46 0 50 -24 54
-296 54 l-251 0 -27 163 c-36 208 -35 206 -56 217 -30 16 -59 0 -70 -39 -9
-31 -60 -326 -116 -666 -10 -55 -20 -106 -23 -113 -4 -7 -24 86 -44 205 -20
120 -62 362 -92 538 -30 176 -71 414 -91 529 -19 115 -39 218 -45 228 -12 22
-52 24 -72 4z"/>
<path d="M44644 21500 c-18 -7 -34 -45 -84 -197 -262 -789 -565 -1511 -997
-2373 -553 -1106 -1225 -2216 -1930 -3192 -119 -164 -134 -201 -91 -217 12 -4
30 -6 39 -4 37 10 605 832 923 1338 874 1388 1577 2800 2034 4085 109 306 175
517 169 534 -9 22 -39 35 -63 26z"/>
<path d="M43674 17152 c-6 -4 -67 -97 -134 -207 -877 -1428 -1832 -2737 -2667
-3653 -51 -56 -93 -105 -93 -110 0 -20 33 -52 54 -52 55 0 701 760 1148 1350
528 698 1116 1561 1615 2370 161 262 158 256 138 286 -15 24 -40 30 -61 16z"/>
<path d="M9803 11945 c-302 -82 -449 -421 -299 -690 41 -72 131 -159 200 -194
220 -109 484 -36 617 170 96 150 93 364 -7 515 -111 167 -323 249 -511 199z
m280 -123 c226 -111 283 -404 115 -588 -30 -32 -77 -69 -112 -87 -57 -30 -67
-32 -166 -32 -95 0 -111 3 -162 28 -77 38 -144 107 -182 187 -28 58 -31 75
-31 155 1 107 27 175 96 250 83 90 172 126 296 122 67 -3 92 -9 146 -35z"/>
</g>
</svg>
