<?xml version="1.0" standalone="no"?>
<!DOCTYPE svg PUBLIC "-//W3C//DTD SVG 20010904//EN"
 "http://www.w3.org/TR/2001/REC-SVG-20010904/DTD/svg10.dtd">
<svg version="1.0" xmlns="http://www.w3.org/2000/svg"
 width="5209.000000pt" height="5209.000000pt" viewBox="0 0 5209.000000 5209.000000"
 preserveAspectRatio="xMidYMid meet">

<g transform="translate(0.000000,5209.000000) scale(0.100000,-0.100000)"
fill="#000000" stroke="none">
<path d="M25430 45107 c-3 -2 -126 -8 -275 -11 -148 -4 -283 -9 -300 -11 -16
-2 -86 -7 -155 -10 -416 -19 -1094 -76 -1500 -125 -41 -5 -95 -12 -120 -15
-436 -51 -1030 -140 -1500 -226 -477 -87 -1113 -223 -1148 -245 -16 -11 -22
-23 -20 -41 5 -47 25 -49 160 -19 1240 278 2642 483 3763 551 50 3 110 7 135
10 25 2 110 7 190 10 80 3 159 8 175 10 17 2 127 7 245 11 118 3 240 8 270 9
90 4 1198 5 1285 0 44 -2 161 -6 260 -10 322 -11 836 -41 1036 -61 44 -4 59
-2 72 11 22 22 22 62 0 73 -23 12 -164 24 -678 57 -38 2 -140 7 -225 10 -85 4
-182 8 -215 11 -83 7 -1449 17 -1455 11z"/>
<path d="M30049 44729 c-8 -15 -8 -28 -1 -44 9 -20 29 -26 159 -50 2208 -408
4201 -1106 5968 -2088 364 -202 917 -543 1207 -743 64 -45 116 -74 132 -74 29
0 50 31 41 60 -12 38 -647 448 -1096 708 -1793 1039 -3922 1805 -6175 2222
-195 36 -219 37 -235 9z"/>
<path d="M25490 44168 c-3 -3 -122 -8 -265 -12 -143 -4 -282 -9 -310 -11 -27
-2 -108 -6 -180 -10 -717 -32 -1560 -122 -2520 -270 -550 -85 -1318 -243
-1970 -407 -602 -151 -1373 -374 -1409 -408 -23 -22 -15 -66 13 -75 10 -3 156
36 332 89 1357 409 2722 691 4114 851 208 24 257 29 365 40 25 2 65 7 90 9 25
3 158 14 295 26 344 27 357 28 470 35 55 3 127 8 160 10 33 2 130 7 215 11 85
3 175 8 200 10 95 8 1524 12 1700 4 102 -4 255 -11 340 -14 85 -4 169 -9 185
-11 17 -2 89 -7 160 -10 72 -3 144 -8 160 -10 17 -2 71 -7 120 -10 250 -16
1028 -95 1175 -120 14 -2 77 -11 140 -19 1163 -153 2483 -455 3641 -835 119
-39 226 -71 238 -71 13 0 26 9 32 24 23 50 7 59 -273 150 -1152 374 -2378 657
-3538 816 -85 12 -200 27 -255 35 -319 45 -948 106 -1380 134 -246 16 -322 20
-495 26 -91 4 -178 8 -195 11 -41 7 -1349 18 -1355 12z"/>
<path d="M19126 44045 c-1065 -223 -2026 -529 -2956 -940 -438 -194 -1074
-527 -1101 -577 -12 -23 12 -68 37 -68 9 0 66 29 128 64 1099 628 2506 1138
3951 1432 212 43 204 40 211 70 7 28 -19 65 -45 63 -9 0 -110 -20 -225 -44z"/>
<path d="M33323 42877 c-101 -100 -183 -188 -183 -195 0 -7 8 -20 18 -30 15
-15 46 -22 138 -30 186 -19 312 -27 399 -27 77 0 80 1 89 26 8 23 -5 49 -108
220 -113 186 -137 219 -160 219 -6 0 -93 -82 -193 -183z m257 -69 c38 -62 67
-114 66 -115 -3 -3 -257 16 -299 23 l-37 6 97 103 c54 57 100 101 102 99 2 -2
34 -54 71 -116z"/>
<path d="M38640 41221 c-96 -31 -163 -72 -231 -141 -212 -215 -212 -556 0
-769 167 -168 405 -208 620 -104 78 38 181 139 224 221 50 95 67 162 67 262 0
164 -46 278 -159 391 -82 82 -162 128 -259 148 -78 16 -198 13 -262 -8z m334
-120 c132 -65 223 -190 246 -337 30 -191 -73 -388 -248 -475 -64 -33 -71 -34
-182 -34 -108 0 -119 2 -182 32 -234 111 -326 391 -206 627 25 48 99 129 146
158 90 56 141 69 252 66 97 -3 112 -6 174 -37z"/>
<path d="M33740 38970 c-74 -16 -346 -72 -605 -124 -1009 -203 -1483 -299
-1810 -366 -187 -38 -610 -123 -940 -190 -330 -66 -619 -128 -643 -137 -60
-23 -132 -91 -165 -155 -44 -87 -45 -152 -3 -357 40 -195 58 -241 119 -302 91
-92 198 -115 367 -80 58 12 337 69 620 126 283 57 727 147 985 199 259 52 871
176 1360 275 1121 226 1079 217 1116 236 52 27 119 96 147 150 41 81 41 166
-1 366 -38 177 -57 227 -113 289 -90 100 -210 119 -434 70z m283 -83 c48 -20
95 -64 118 -109 28 -54 91 -376 82 -420 -14 -73 -63 -142 -126 -174 -15 -8
-429 -96 -920 -195 -490 -99 -1358 -274 -1927 -389 -569 -115 -1091 -221
-1159 -235 -160 -33 -203 -32 -272 3 -85 43 -104 78 -144 276 -39 186 -42 239
-19 294 17 43 67 97 107 118 25 13 427 96 2207 455 300 60 851 172 1225 248
374 77 706 139 738 140 32 1 72 -5 90 -12z"/>
<path d="M9295 38860 c-268 -54 -447 -290 -432 -570 13 -255 182 -452 434
-505 85 -18 111 -18 198 0 425 89 582 618 275 925 -36 36 -88 77 -117 93 -103
55 -250 78 -358 57z m224 -109 c267 -83 390 -385 261 -641 -84 -167 -276 -264
-455 -231 -166 30 -297 145 -347 305 -30 95 -22 239 19 326 94 202 317 305
522 241z"/>
<path d="M20568 38580 c-203 -32 -369 -124 -553 -308 -44 -44 -597 -680 -1230
-1414 l-1150 -1334 -1415 -520 -1415 -519 -595 -353 -595 -353 -288 -287
c-159 -158 -299 -305 -312 -327 -77 -132 -91 -390 -35 -650 56 -253 173 -479
295 -567 23 -16 200 -91 395 -167 l355 -139 680 -75 680 -74 597 45 c329 25
600 43 604 39 3 -3 15 -48 25 -99 10 -51 21 -103 24 -115 5 -20 3 -21 -29 -12
-47 13 -109 -12 -136 -55 -11 -18 -24 -66 -30 -107 -34 -257 -50 -402 -50
-459 0 -128 48 -253 169 -438 79 -121 87 -139 100 -223 10 -58 9 -64 -21 -122
-17 -34 -73 -192 -125 -352 -178 -544 -314 -899 -453 -1180 -90 -185 -147
-274 -188 -296 -53 -30 -220 35 -354 137 -108 83 -265 241 -495 499 -410 459
-570 624 -803 825 -41 36 -120 106 -175 155 -215 194 -413 347 -598 461 -208
130 -523 224 -858 258 -116 11 -238 13 -619 7 -261 -4 -476 -6 -478 -5 -2 1
-5 24 -8 50 -3 27 -19 139 -35 248 -16 109 -28 200 -26 202 1 2 38 10 82 19
193 40 393 148 612 330 102 85 133 133 133 206 0 24 -9 63 -19 86 -26 57 -157
264 -241 381 -39 53 -70 106 -70 117 0 12 17 32 40 49 67 50 89 129 53 192
-10 17 -61 68 -113 114 -134 118 -314 301 -410 417 l-81 98 33 28 c18 16 115
69 216 118 256 126 298 173 273 310 -22 128 -89 253 -201 372 -140 150 -287
222 -450 221 -144 0 -197 -28 -263 -134 -37 -59 -140 -98 -332 -125 -22 -3
-139 -8 -260 -10 -384 -9 -439 -12 -480 -29 -108 -45 -131 -130 -86 -305 12
-46 21 -95 19 -109 l-3 -25 -205 -2 c-113 -2 -227 -8 -255 -15 -63 -14 -186
-75 -235 -117 -112 -96 -131 -374 -38 -558 41 -80 91 -135 231 -253 252 -213
395 -383 555 -663 l61 -105 77 -617 c43 -339 76 -619 73 -621 -2 -2 -83 -14
-179 -26 -388 -48 -849 -135 -1012 -190 -212 -72 -521 -250 -700 -404 -224
-192 -718 -824 -1020 -1306 -407 -651 -684 -1303 -812 -1915 -75 -359 -107
-779 -71 -918 27 -105 97 -215 173 -272 l39 -29 6 -91 c12 -175 82 -385 222
-665 112 -224 183 -308 311 -367 48 -23 76 -28 150 -31 80 -3 102 0 175 25
145 50 294 150 458 307 44 43 71 63 68 51 -3 -11 -8 -60 -12 -110 -3 -49 -8
-101 -10 -115 -6 -39 -33 -372 -50 -615 -20 -271 -27 -697 -15 -788 13 -91 39
-146 101 -213 153 -161 461 -284 817 -326 84 -10 102 -14 97 -27 -3 -8 -35
-108 -70 -223 -274 -881 -441 -1620 -544 -2408 -57 -431 -114 -1016 -136
-1395 -2 -49 -9 -160 -14 -245 -12 -177 -18 -319 -26 -540 -3 -85 -8 -193 -11
-240 -3 -47 -8 -514 -11 -1039 -5 -837 4 -1676 22 -2061 2 -52 7 -174 10 -270
3 -96 8 -227 10 -290 14 -314 23 -504 30 -640 2 -47 7 -132 10 -190 9 -168 35
-600 40 -660 2 -30 7 -91 10 -135 19 -294 68 -895 81 -996 5 -45 7 -47 50 -59
l44 -13 0 -111 c0 -61 3 -182 6 -269 5 -152 5 -158 -13 -149 -24 13 -44 4 -80
-38 -199 -233 -397 -746 -518 -1345 -36 -178 -35 -251 5 -331 42 -85 104 -139
189 -164 87 -26 280 -37 616 -38 323 0 452 10 511 39 56 27 152 130 186 201
72 146 75 247 16 519 l-42 194 3 483 c2 365 0 487 -9 498 -24 28 -57 16 -104
-38 -25 -29 -46 -46 -46 -38 0 29 78 549 84 558 3 5 46 12 96 14 50 3 93 7 95
9 2 2 8 74 15 159 42 574 177 1507 405 2815 30 170 61 350 70 400 173 997 676
3592 1010 5210 42 204 129 633 194 955 135 668 134 665 251 782 96 96 187 136
383 169 84 14 107 6 107 -36 0 -35 -19 -44 -146 -71 -140 -30 -214 -65 -283
-139 -88 -93 -94 -114 -188 -592 l-84 -434 100 -300 c320 -953 578 -2029 1005
-4184 171 -868 489 -2587 666 -3605 16 -91 38 -219 50 -285 29 -166 41 -233
105 -605 31 -179 63 -365 71 -415 9 -49 17 -91 17 -91 1 -1 35 -4 75 -7 41 -3
75 -7 77 -9 1 -2 10 -73 19 -158 10 -85 19 -171 21 -190 8 -63 35 -309 35
-314 0 -3 -14 0 -30 6 -40 14 -54 7 -85 -42 -67 -106 -124 -307 -150 -525 -18
-156 -26 -472 -16 -610 9 -119 36 -182 103 -239 63 -55 109 -64 350 -71 117
-3 238 -8 268 -10 116 -9 971 -20 1565 -19 722 1 701 -2 790 88 84 83 105 181
64 293 -81 221 -362 472 -799 715 -234 130 -747 375 -855 408 -50 16 -107 24
-197 27 -71 3 -128 6 -128 7 0 0 -3 100 -6 221 -2 121 -6 270 -8 332 l-3 112
57 7 57 6 7 142 c34 774 26 2160 -19 3081 -2 55 -7 161 -10 235 -6 144 -13
288 -20 410 -2 41 -7 125 -10 185 -10 193 -45 788 -50 845 -2 30 -7 91 -10
135 -53 806 -214 2697 -270 3160 -3 22 -14 132 -25 245 -12 113 -34 329 -51
480 -16 151 -37 338 -45 415 -8 77 -26 235 -39 350 -14 116 -27 230 -30 255
-3 25 -18 160 -35 300 -37 314 -38 319 -55 460 -8 63 -21 174 -30 245 -8 72
-26 216 -40 320 -14 105 -43 332 -65 505 -22 173 -43 325 -45 338 -5 20 -2 22
42 22 74 0 238 27 338 56 166 47 290 117 345 194 23 32 59 161 65 233 5 57 11
23 -175 937 -72 355 -158 776 -190 935 -32 160 -89 466 -125 680 -36 215 -88
521 -116 680 -27 160 -49 293 -49 298 0 14 120 -53 388 -217 768 -468 1109
-648 1540 -812 454 -173 914 -230 1147 -143 468 175 837 1185 1035 2829 11 91
21 178 22 194 2 16 10 32 18 36 119 55 150 84 195 182 31 68 49 185 41 269 -3
36 -49 272 -101 523 -52 252 -95 464 -95 472 0 9 27 47 60 86 121 145 191 324
193 498 2 139 -30 245 -101 338 -64 85 -192 133 -306 116 l-63 -10 -51 246
c-28 134 -49 247 -46 249 2 2 214 20 471 39 l468 34 1615 -757 c1866 -874
1852 -869 2105 -869 151 0 239 20 370 84 440 215 754 854 869 1765 8 66 21
179 28 250 17 177 17 989 0 1190 -12 144 -46 462 -56 535 -3 19 -10 71 -16
115 -78 558 -232 1212 -415 1760 -501 1502 -1284 2576 -2011 2761 -109 27
-259 38 -346 24z m347 -125 c551 -161 1134 -846 1605 -1886 412 -909 710
-2097 789 -3144 21 -282 24 -351 23 -660 0 -423 -21 -703 -78 -1035 -130 -759
-419 -1294 -795 -1470 -113 -52 -198 -69 -334 -66 -288 8 -558 150 -866 456
-877 872 -1572 2719 -1736 4620 -25 294 -25 1002 0 1250 85 834 282 1395 602
1716 134 135 277 215 436 243 91 17 253 6 354 -24z m-3435 -3157 c-78 -149
-141 -375 -177 -628 -27 -193 -24 -621 6 -839 116 -861 459 -1635 869 -1963
40 -32 71 -58 69 -58 -3 0 -628 -47 -1390 -105 -762 -58 -1412 -105 -1444
-105 -271 1 -600 514 -767 1200 -63 260 -89 485 -88 751 1 417 96 726 250 816
35 21 2676 1000 2703 1002 4 1 -11 -32 -31 -71z m-2939 -1161 c-180 -509 -66
-1407 259 -2058 72 -142 178 -302 259 -388 33 -36 59 -66 58 -66 -1 -1 -238
25 -527 56 -346 39 -536 64 -558 74 -46 21 -136 108 -187 180 -135 191 -251
495 -307 808 -19 102 -23 160 -23 347 0 237 5 280 51 422 29 89 74 162 118
190 78 49 881 524 884 522 2 -1 -10 -40 -27 -87z m-3314 -1080 c21 -45 192
-263 295 -374 97 -106 286 -287 371 -356 59 -48 52 -71 -42 -145 -21 -16 -25
-30 -30 -93 l-6 -74 -99 -66 c-178 -120 -404 -220 -495 -219 -72 1 -68 -4
-473 540 -47 63 -129 161 -182 217 -53 55 -96 106 -96 111 0 6 26 46 59 89 64
87 161 182 234 232 112 76 327 159 418 160 28 1 38 -4 46 -22z m-761 -842 c73
-37 217 -151 221 -175 4 -23 -62 -107 -108 -137 -47 -31 -128 -42 -182 -24
-119 40 -210 208 -162 301 41 80 119 92 231 35z m298 -752 c46 -24 115 -99
196 -213 123 -174 199 -243 300 -271 25 -7 48 -15 52 -18 7 -6 24 -104 59
-345 19 -129 20 -157 10 -213 -36 -197 -211 -363 -431 -409 -54 -11 -106 -15
-185 -11 -130 6 -210 28 -339 95 -91 47 -131 86 -163 162 -13 29 -143 1009
-143 1073 0 19 2 19 28 -5 50 -49 121 -61 188 -33 20 8 68 46 107 83 85 81
121 107 167 121 42 12 114 5 154 -16z m5860 -224 c39 -31 51 -60 80 -204 15
-71 56 -267 91 -435 35 -168 125 -600 201 -960 75 -360 139 -665 141 -676 5
-21 3 -21 -44 -13 -105 20 -371 124 -411 162 -38 35 -65 96 -64 144 1 24 22
111 46 194 101 336 124 551 76 709 -12 41 -44 103 -85 165 -154 232 -187 349
-155 550 5 33 17 125 26 205 9 80 20 153 25 163 13 23 40 22 73 -4z m1149
-183 c94 -34 157 -127 178 -267 23 -147 -31 -335 -136 -472 -41 -54 -55 -59
-55 -19 0 33 -25 72 -47 72 -8 0 -56 -15 -107 -34 -176 -66 -332 -70 -446 -13
-64 32 -100 105 -102 205 -1 65 3 80 37 147 68 136 174 230 363 324 130 65
237 85 315 57z m-5095 -709 c252 -42 468 -104 613 -176 165 -83 428 -275 647
-473 69 -62 143 -128 166 -146 202 -164 435 -401 827 -842 355 -398 513 -544
684 -630 141 -70 247 -87 306 -47 120 80 292 425 505 1007 86 235 93 251 94
204 0 -66 47 -161 101 -208 26 -22 94 -55 192 -94 173 -69 254 -92 323 -92 47
0 50 -2 77 -44 36 -58 117 -133 170 -156 50 -23 119 -25 201 -5 l58 14 -6 -67
c-11 -127 -66 -527 -101 -742 -199 -1213 -488 -1942 -838 -2115 -94 -47 -180
-59 -367 -52 -527 20 -1124 271 -2185 918 -402 246 -555 329 -603 329 -26 0
-42 -20 -42 -53 0 -28 38 -260 185 -1117 36 -206 116 -629 179 -940 63 -311
158 -776 211 -1035 52 -258 94 -473 93 -477 -2 -4 -23 9 -48 28 -148 118 -460
218 -885 285 -121 19 -454 16 -610 -5 -439 -60 -906 -202 -1480 -452 -99 -43
-382 -179 -630 -304 -470 -236 -594 -290 -785 -345 -235 -68 -418 -95 -660
-100 -424 -9 -819 103 -1015 286 -97 91 -99 99 -101 389 -3 296 35 878 90
1412 l13 127 65 73 c367 414 899 1252 1331 2098 72 140 131 256 131 257 1 1
35 5 76 9 90 8 234 43 319 77 139 56 252 145 327 258 45 69 104 211 104 255 0
20 7 21 128 28 289 15 427 63 468 163 31 73 10 177 -48 230 -45 42 -80 49
-313 58 -82 3 -184 8 -225 10 -41 2 -131 7 -200 10 -69 3 -159 8 -200 10 -308
20 -395 13 -503 -41 -86 -44 -124 -80 -234 -228 -154 -205 -292 -337 -593
-568 -715 -549 -1313 -1034 -1608 -1305 -99 -91 -287 -297 -367 -402 -48 -64
-116 -184 -129 -231 -6 -25 -7 -25 -48 20 -22 25 -55 74 -72 110 -29 61 -31
74 -34 195 -8 284 57 725 158 1070 243 835 732 1698 1441 2545 161 193 255
288 369 372 176 132 412 259 585 317 186 61 689 151 1148 204 25 3 31 -2 52
-48 53 -110 186 -202 382 -262 79 -24 104 -26 238 -27 136 0 158 3 230 27 111
37 198 90 280 172 68 68 133 172 149 238 4 16 14 28 24 28 140 11 308 14 662
13 351 0 443 -3 528 -17z m-2728 -2276 c91 -5 237 -12 325 -16 88 -3 176 -8
195 -10 19 -2 112 -7 205 -11 94 -3 180 -10 192 -15 34 -13 62 -65 56 -102
-14 -89 -115 -122 -406 -134 -192 -7 -189 -6 -202 -98 -41 -288 -310 -499
-665 -521 -136 -8 -121 5 -211 -177 -345 -689 -823 -1486 -1172 -1950 -171
-226 -257 -328 -406 -477 -376 -375 -656 -451 -852 -231 -86 96 -270 482 -320
671 -31 113 -33 278 -5 363 37 113 140 255 332 456 211 221 722 647 1499 1250
507 393 551 429 643 526 50 52 136 155 192 229 107 143 137 174 204 208 98 50
129 53 396 39z m3644 -4621 c342 -83 562 -214 542 -324 -14 -75 -151 -156
-338 -201 -108 -25 -276 -50 -284 -42 -5 5 -94 568 -94 594 0 15 -9 17 174
-27z m-867 -648 c7 -5 22 -44 33 -88 22 -87 81 -218 131 -292 48 -69 165 -188
238 -240 35 -25 103 -66 150 -91 78 -42 86 -49 86 -75 0 -18 -8 -34 -21 -43
-19 -12 -30 -9 -112 32 -294 147 -509 416 -573 717 -9 43 -9 52 7 69 18 20 41
24 61 11z m-2659 -404 c21 -21 13 -61 -27 -140 -63 -122 -138 -226 -244 -335
-203 -209 -444 -341 -762 -419 -123 -30 -150 -30 -168 -3 -15 21 -12 55 5 65
5 3 52 14 104 25 446 91 813 362 986 729 17 36 35 71 41 78 12 15 49 16 65 0z
m-1205 -11533 c114 1 207 0 207 -1 0 -1 -16 -110 -35 -244 -19 -134 -35 -245
-35 -248 0 -2 -7 2 -17 9 -12 11 -58 14 -197 14 -228 0 -235 -2 -274 -96 l-29
-70 -6 188 c-4 103 -7 250 -7 326 l0 138 93 -8 c50 -4 185 -8 300 -8z m5247
-382 c0 -82 3 -232 7 -335 l5 -188 -28 0 c-77 -1 -172 -14 -196 -26 -37 -19
-58 -63 -58 -119 0 -25 -4 -45 -8 -45 -14 0 -377 131 -384 138 -5 6 -52 406
-74 632 l-6 65 218 -1 c121 -1 278 4 349 11 72 7 140 13 153 14 22 1 22 0 22
-146z m-5184 -182 c1 -1 5 -41 8 -89 8 -102 22 -136 56 -141 20 -2 38 11 93
70 l67 74 -1 -400 -2 -400 42 -200 c62 -293 56 -394 -33 -528 -86 -129 -118
-137 -586 -137 -157 0 -296 2 -310 4 -14 2 -72 7 -130 11 -58 3 -122 11 -143
16 -70 18 -136 97 -152 180 -8 42 28 239 86 473 53 212 155 515 223 667 50
110 140 271 181 323 17 23 12 28 87 -82 43 -63 77 -84 105 -66 8 5 33 56 57
114 l42 105 55 6 c39 5 244 4 255 0z m5564 -447 c36 -8 175 -67 310 -131 576
-271 893 -462 1105 -664 223 -214 272 -379 143 -482 -28 -23 -52 -31 -105 -38
-66 -8 -1763 -3 -1833 5 -19 3 -165 7 -325 10 -287 6 -430 12 -492 22 -42 6
-88 46 -116 98 -21 39 -22 52 -21 316 0 353 25 552 95 744 48 133 13 132 337
16 156 -55 292 -100 302 -100 34 0 50 39 49 119 -1 40 2 75 5 78 8 8 199 20
351 21 86 1 152 -3 195 -14z"/>
<path d="M20725 37894 c-16 -3 -56 -12 -88 -20 -497 -127 -832 -822 -895
-1859 -13 -227 -7 -744 13 -940 2 -22 6 -69 10 -105 100 -1070 441 -2211 901
-3011 181 -316 354 -550 559 -754 261 -261 481 -385 736 -416 210 -25 406 46
584 213 277 261 464 747 539 1404 22 186 31 375 31 629 0 201 -12 552 -19 565
-2 3 -7 43 -10 90 -18 220 -60 518 -75 533 -14 14 -62 12 -73 -4 -10 -16 -7
-59 21 -275 41 -310 55 -527 55 -879 1 -386 -5 -495 -40 -755 -68 -503 -201
-880 -404 -1142 -147 -189 -368 -299 -572 -284 -114 8 -190 30 -313 91 -376
186 -754 644 -1086 1318 -88 179 -185 401 -238 545 l-29 78 366 159 c500 216
506 219 553 266 111 111 170 377 149 672 -38 531 -267 1038 -525 1158 l-66 31
-417 -16 c-229 -9 -445 -19 -478 -22 -58 -5 -62 -4 -68 18 -14 48 -19 643 -7
830 7 102 14 197 16 210 2 12 6 47 9 77 69 616 278 1131 548 1350 206 169 457
195 717 75 125 -58 263 -157 397 -286 254 -246 468 -550 690 -983 51 -99 99
-184 108 -189 25 -16 66 9 66 40 0 33 -147 320 -260 508 -221 368 -476 669
-719 850 -122 90 -293 177 -406 206 -80 21 -224 33 -280 24z m111 -2810 c85
-41 195 -175 277 -339 168 -339 239 -844 161 -1150 -21 -81 -71 -171 -111
-202 -133 -102 -349 110 -486 477 -86 230 -129 464 -129 705 -1 244 36 388
121 476 42 44 52 49 90 49 24 0 58 -7 77 -16z"/>
<path d="M8250 9390 c-24 -24 -24 -29 -4 -58 15 -22 17 -22 289 -22 235 0 276
2 289 16 9 8 16 24 16 34 0 10 -7 26 -16 34 -13 14 -53 16 -285 16 -256 0
-270 -1 -289 -20z"/>
<path d="M8027 8853 c-40 -45 -11 -75 88 -91 171 -29 275 -36 490 -36 218 0
387 14 426 34 25 14 30 47 10 71 -17 21 -19 21 -107 8 -58 -9 -173 -14 -334
-13 -227 0 -333 8 -520 40 -27 4 -39 1 -53 -13z"/>
<path d="M14254 9750 c-25 -10 -35 -40 -22 -63 8 -15 550 -411 596 -436 28
-15 38 -14 56 5 41 40 30 51 -276 271 -161 116 -302 215 -313 220 -11 6 -29 7
-41 3z"/>
<path d="M13376 8904 c-9 -8 -16 -24 -16 -34 0 -20 25 -50 41 -50 5 0 96 -9
202 -19 213 -22 285 -28 432 -36 55 -3 109 -8 120 -10 136 -26 1569 -26 1638
1 27 10 33 53 11 74 -18 18 -30 18 -204 9 -212 -11 -990 -9 -1220 2 -255 13
-593 39 -790 59 -221 24 -195 23 -214 4z"/>
<path d="M28805 37924 c-11 -3 -499 -102 -1085 -220 -1041 -210 -2619 -529
-3352 -677 -222 -45 -385 -83 -412 -96 -95 -46 -168 -150 -182 -257 -8 -67 57
-396 93 -467 30 -59 89 -118 151 -148 40 -20 62 -24 142 -23 80 0 176 17 615
107 468 95 1479 300 2850 577 434 87 794 160 1277 259 99 20 165 39 199 57 94
52 158 152 166 259 5 70 -54 377 -86 450 -25 57 -93 124 -156 154 -50 24 -172
37 -220 25z m136 -99 c46 -7 110 -53 138 -99 26 -41 91 -339 91 -412 0 -80
-48 -157 -122 -195 -25 -13 -353 -83 -906 -195 -477 -96 -1301 -263 -1832
-370 -1118 -226 -2083 -420 -2123 -427 -43 -7 -118 11 -159 38 -66 44 -85 88
-125 283 -41 202 -40 241 7 315 49 77 78 88 440 161 179 36 537 108 795 160
724 146 2202 445 2780 562 286 57 615 124 730 148 116 24 219 42 230 40 11 -1
36 -5 56 -9z"/>
<path d="M7805 37314 c-12 -12 -14 -27 -10 -58 3 -22 14 -113 25 -201 21 -161
29 -185 67 -185 26 0 53 38 48 67 -3 16 -14 102 -26 192 -11 90 -24 172 -30
182 -12 23 -52 25 -74 3z"/>
<path d="M32520 36993 c-28 -4 -84 -15 -770 -154 -272 -55 -718 -145 -990
-200 -960 -194 -1490 -301 -1975 -399 -269 -55 -701 -142 -960 -194 -258 -52
-850 -172 -1315 -266 -465 -94 -910 -184 -990 -200 -1244 -249 -1212 -241
-1284 -320 -46 -51 -71 -101 -85 -172 -11 -53 -9 -72 24 -240 52 -262 88 -330
208 -387 99 -48 143 -48 372 -1 189 39 587 119 1655 335 551 111 1160 234
2475 500 534 108 1191 241 1460 295 270 55 882 178 1360 275 479 97 894 181
924 186 140 27 229 90 278 195 40 87 39 144 -1 344 -41 200 -67 261 -133 319
-65 58 -175 94 -253 84z m140 -123 c43 -22 91 -73 108 -116 19 -48 72 -324 72
-374 0 -68 -43 -147 -101 -186 -41 -27 -86 -38 -450 -112 -222 -44 -627 -126
-899 -181 -272 -55 -718 -145 -990 -200 -272 -55 -920 -186 -1440 -291 -520
-105 -1188 -240 -1485 -300 -297 -60 -1075 -217 -1730 -349 -654 -133 -1205
-241 -1225 -241 -41 0 -115 32 -148 63 -42 39 -62 94 -98 270 -38 184 -38 220
-4 287 22 44 81 95 125 110 26 9 377 80 2385 485 421 85 1033 209 3215 650
396 80 1013 204 1370 276 358 73 765 156 905 185 274 57 320 60 390 24z"/>
<path d="M8425 36794 c-49 -7 -115 -15 -145 -19 -80 -9 -123 -16 -142 -21 -35
-10 -34 -77 0 -89 10 -3 105 6 212 20 195 25 220 33 220 70 0 16 -22 41 -40
47 -8 2 -55 -1 -105 -8z"/>
<path d="M7470 36675 c-153 -20 -176 -26 -192 -45 -16 -20 -17 -26 -5 -44 8
-12 26 -22 41 -24 36 -5 366 38 389 49 20 11 23 59 5 77 -15 15 -26 15 -238
-13z"/>
<path d="M7915 36476 c-19 -14 -19 -17 4 -207 24 -204 35 -239 75 -239 49 0
51 15 26 223 -13 107 -29 202 -37 215 -15 25 -41 28 -68 8z"/>
<path d="M41847 36297 c-13 -11 -137 -366 -137 -394 0 -7 11 -20 24 -28 45
-30 58 -10 125 182 60 174 71 226 51 238 -20 12 -49 13 -63 2z"/>
<path d="M41081 35913 c-24 -16 -28 -55 -8 -71 25 -21 372 -133 394 -127 32 8
41 51 17 75 -11 10 -101 45 -201 78 -165 54 -183 59 -202 45z"/>
<path d="M41869 35629 c-24 -46 -4 -60 192 -127 101 -34 192 -62 201 -62 10 0
25 11 33 24 30 46 11 59 -187 125 -101 34 -193 61 -205 61 -13 0 -27 -9 -34
-21z"/>
<path d="M41566 35478 c-7 -13 -40 -103 -72 -201 -46 -139 -56 -181 -48 -195
14 -22 57 -27 72 -9 17 20 132 353 132 381 0 47 -58 64 -84 24z"/>
<path d="M29610 33910 c-181 -12 -283 -21 -310 -25 -14 -2 -54 -7 -90 -10
-316 -29 -791 -124 -1160 -230 -1061 -307 -2004 -837 -2905 -1633 -187 -166
-596 -579 -769 -777 -148 -169 -358 -427 -472 -579 l-59 -79 -22 29 c-12 16
-78 101 -146 189 -124 161 -149 182 -183 155 -30 -26 -14 -59 89 -192 56 -73
131 -172 167 -220 64 -88 87 -106 113 -91 8 4 68 80 135 168 279 370 502 626
847 971 342 342 558 533 883 777 923 695 1915 1139 2992 1341 446 83 860 118
1375 115 455 -3 703 -21 1126 -84 1875 -279 3574 -1264 4772 -2767 195 -245
415 -556 556 -790 55 -90 76 -105 110 -81 40 28 31 49 -135 305 -426 654 -975
1270 -1580 1774 -837 697 -1845 1213 -2916 1493 -340 89 -818 177 -1118 206
-36 3 -85 8 -110 11 -189 19 -325 25 -675 29 -220 2 -452 0 -515 -5z"/>
<path d="M38649 33286 c-2 -2 -43 -6 -90 -9 -192 -14 -975 -183 -1214 -263
-247 -82 -339 -172 -352 -348 -19 -245 194 -597 461 -766 l87 -55 -7 -55 c-12
-109 -60 -232 -130 -333 -55 -80 -46 -109 63 -202 43 -37 84 -78 92 -93 8 -14
22 -96 31 -182 33 -290 40 -297 321 -307 l156 -6 132 -452 c72 -249 131 -459
131 -467 0 -9 -67 -36 -192 -80 -181 -62 -204 -67 -373 -87 -99 -12 -190 -24
-202 -26 -21 -5 -23 -2 -23 39 0 64 -12 70 -125 63 -251 -17 -539 -113 -720
-242 -123 -87 -229 -218 -264 -327 -9 -26 -66 -91 -209 -235 -295 -299 -531
-497 -733 -618 -73 -43 -99 -53 -204 -73 -66 -13 -160 -24 -210 -25 -81 -2
-98 1 -168 31 -202 83 -337 191 -532 425 -13 15 -29 27 -37 27 -8 0 -49 -27
-93 -60 -43 -34 -82 -57 -86 -53 -4 4 -92 166 -194 358 -103 193 -194 356
-203 363 -24 19 -47 7 -161 -85 -101 -81 -106 -84 -113 -61 -4 12 -84 273
-178 578 -94 305 -187 596 -207 645 -73 186 -191 390 -311 540 -101 125 -611
649 -650 667 -48 22 -87 22 -138 -1 -55 -25 -87 -71 -91 -135 -4 -47 2 -64 76
-216 l80 -165 -32 -15 c-19 -9 -61 -15 -107 -15 -125 0 -161 23 -385 243 -104
104 -221 211 -260 239 -184 133 -309 154 -405 67 -61 -55 -81 -154 -46 -222
35 -67 282 -441 333 -504 147 -181 356 -337 568 -426 28 -12 205 -80 395 -152
190 -72 348 -134 351 -138 4 -4 10 -128 13 -277 4 -148 9 -310 11 -360 2 -49
7 -229 11 -400 4 -170 8 -335 9 -365 9 -208 6 -373 -7 -385 -7 -7 -265 -211
-573 -455 -308 -244 -575 -455 -593 -469 -36 -29 -47 -53 -35 -75 4 -8 126
-136 271 -284 144 -149 262 -275 262 -280 0 -6 -63 -59 -140 -118 -134 -103
-163 -135 -145 -164 12 -19 319 -245 487 -357 193 -130 361 -232 556 -337
l142 -78 0 -1252 c0 -1024 2 -1255 13 -1270 8 -11 34 -22 63 -26 27 -5 153
-27 279 -50 127 -22 559 -99 960 -170 402 -71 784 -138 850 -150 66 -12 143
-25 170 -30 97 -17 510 -90 538 -96 24 -5 27 -10 23 -32 -11 -52 -47 -350 -67
-552 -34 -349 -34 -764 1 -1245 6 -77 12 -156 15 -175 2 -19 6 -66 10 -105 7
-92 10 -123 40 -370 218 -1791 777 -3150 1583 -3846 270 -233 540 -380 869
-474 13 -4 20 -51 28 -185 12 -214 51 -782 60 -870 2 -25 7 -79 10 -120 8
-119 45 -571 50 -610 2 -19 6 -66 9 -105 13 -162 52 -572 91 -955 43 -414 153
-1387 170 -1490 2 -14 7 -50 10 -80 3 -30 15 -122 26 -205 25 -187 34 -258 54
-410 24 -183 93 -658 126 -868 16 -104 29 -192 29 -196 0 -4 25 -15 55 -25
l55 -17 0 -255 0 -255 -24 28 c-35 41 -66 23 -106 -64 -123 -263 -291 -751
-481 -1393 -101 -342 -108 -389 -70 -491 43 -113 138 -188 273 -214 268 -51
720 -73 1053 -52 227 14 276 29 359 107 62 59 96 128 103 209 3 31 -5 151 -16
266 -170 1728 -162 1655 -182 1668 -35 22 -65 0 -89 -63 -13 -33 -25 -59 -27
-56 -3 2 0 55 6 118 6 62 14 136 16 163 12 121 18 155 29 156 11 0 31 3 121
14 28 3 66 10 87 16 36 9 36 11 47 77 10 60 60 433 76 557 3 28 17 131 30 230
38 280 83 631 95 730 6 50 13 101 15 115 4 24 100 783 109 865 3 22 14 114 25
205 41 332 61 501 90 775 17 154 33 303 36 330 11 93 14 659 5 765 -15 167
-38 346 -81 620 -79 517 -81 537 -86 914 l-5 349 223 -7 c241 -7 245 -8 514
-37 203 -22 417 -57 580 -94 138 -31 374 -95 397 -106 9 -5 21 -24 26 -42 5
-17 75 -234 155 -482 760 -2349 1296 -4163 1445 -4896 l29 -144 76 -9 76 -9 5
-36 c4 -20 20 -153 36 -296 16 -143 33 -278 36 -300 6 -39 6 -40 -13 -23 -25
23 -46 23 -65 1 -16 -18 -32 -158 -58 -488 -16 -206 -21 -533 -10 -602 24
-143 125 -423 283 -778 206 -464 245 -533 346 -603 89 -63 151 -79 331 -86
419 -16 521 -17 577 -6 157 32 282 151 339 320 27 82 26 224 -4 320 -75 242
-250 619 -408 880 -136 225 -239 456 -390 873 -36 100 -70 188 -76 194 -6 7
-26 13 -44 13 l-34 0 0 359 0 360 58 26 59 26 7 314 c3 172 4 555 1 852 -3
296 -7 804 -10 1129 -3 324 -7 642 -10 705 -2 62 -7 188 -10 279 -20 563 -93
810 -500 1705 -122 268 -224 505 -239 553 -6 19 6 36 75 110 353 372 622 862
854 1557 234 698 414 1629 485 2510 6 72 12 155 15 185 27 327 39 1085 22
1455 -46 1010 -373 2081 -1097 3590 -40 83 -96 200 -126 262 -29 62 -91 188
-138 281 l-84 168 83 -4 c98 -5 249 11 355 38 353 90 620 341 863 810 390 753
512 1246 408 1652 -39 151 -110 298 -201 413 -63 81 -209 220 -354 338 -466
379 -537 469 -726 907 -191 444 -306 619 -493 748 -137 94 -256 141 -582 231
-353 96 -500 156 -637 260 -146 111 -245 230 -471 568 -85 128 -182 265 -215
305 -251 307 -562 488 -951 553 -122 21 -394 17 -576 -9 -305 -42 -504 -44
-660 -7 -86 21 -207 69 -382 151 -314 149 -468 198 -682 220 -112 11 -135 12
-142 6z m-638 -1036 c141 -14 355 -57 406 -81 89 -43 177 -173 268 -394 20
-49 46 -100 58 -112 31 -34 76 -38 136 -13 89 39 152 13 194 -80 53 -118 -11
-257 -184 -398 -35 -28 -70 -61 -78 -73 -43 -70 42 -445 154 -675 73 -150 158
-268 284 -395 166 -165 342 -278 556 -355 50 -17 90 -36 90 -40 0 -13 -160
-118 -254 -167 -117 -61 -205 -94 -341 -130 -107 -28 -130 -30 -325 -33 -236
-4 -369 12 -530 61 -140 42 -356 160 -340 185 3 4 63 27 133 51 70 23 137 48
148 56 29 19 47 65 42 105 -7 46 -279 980 -291 995 -6 9 -53 12 -164 12 -152
0 -212 6 -244 22 -17 9 -28 66 -48 266 -14 133 -35 175 -131 256 l-81 68 29
42 c63 91 109 208 131 334 6 32 17 137 25 233 16 188 24 211 81 239 26 12 98
27 151 30 12 0 68 -4 125 -9z m-6912 -805 c97 -45 183 -115 381 -310 222 -219
265 -246 406 -267 78 -11 85 -11 167 16 102 33 127 49 127 81 0 14 -38 104
-85 201 -47 98 -85 188 -85 202 0 35 27 62 64 62 34 0 5 27 388 -371 124 -130
253 -273 286 -317 113 -152 209 -328 275 -502 34 -88 387 -1221 387 -1240 0
-9 -771 -623 -776 -618 -1 2 -7 181 -13 398 -6 217 -13 465 -16 550 -2 85 -7
279 -11 430 -7 346 -9 369 -20 380 -5 5 -191 78 -414 163 -223 85 -434 169
-470 187 -167 83 -365 248 -470 389 -53 72 -273 409 -297 454 -19 38 -9 80 29
112 38 32 78 32 147 0z m10336 -1680 c215 -50 411 -169 615 -375 122 -123 221
-249 353 -451 52 -79 124 -184 161 -232 261 -346 452 -704 577 -1080 29 -89
79 -197 183 -397 761 -1459 1160 -2290 1454 -3025 309 -774 484 -1421 552
-2040 6 -55 13 -113 15 -130 16 -122 27 -590 21 -950 -3 -225 -8 -423 -10
-440 -3 -16 -7 -88 -11 -160 -3 -71 -8 -150 -10 -175 -3 -25 -14 -146 -25
-270 -144 -1597 -569 -2973 -1139 -3689 -87 -109 -199 -231 -212 -231 -12 0
-95 262 -134 423 -54 228 -81 460 -140 1202 -14 176 -27 349 -30 385 -12 144
-15 188 -20 250 -113 1448 -211 2274 -351 2960 -118 578 -399 1504 -710 2345
-41 109 -74 202 -74 207 0 4 22 36 50 72 78 104 96 193 64 322 l-17 64 110
108 c349 343 567 802 647 1362 8 58 18 123 21 145 13 84 18 611 6 633 -13 25
-62 30 -79 9 -7 -8 -11 -92 -10 -237 1 -240 -11 -405 -43 -590 -161 -940 -693
-1540 -1550 -1750 -174 -42 -288 -54 -473 -47 -185 7 -302 28 -480 88 -370
123 -726 354 -1090 709 -156 152 -406 438 -406 465 0 9 209 325 215 325 2 0
73 -11 157 -25 612 -100 1187 -106 1517 -14 261 73 512 258 662 486 136 209
232 489 270 792 9 74 8 86 -7 102 -40 44 -78 11 -89 -76 -10 -87 -51 -291 -72
-359 l-18 -58 -84 228 c-216 591 -715 1921 -1041 2777 -57 149 -99 272 -94
277 21 19 367 87 474 93 69 3 223 -11 295 -28z m-872 -97 c8 -24 99 -263 202
-533 235 -617 704 -1867 911 -2429 l158 -429 -45 -86 c-113 -218 -277 -384
-485 -491 -125 -64 -298 -110 -484 -127 -139 -13 -532 -7 -720 11 -158 15
-517 64 -629 85 -39 8 -47 6 -68 -15 l-23 -23 0 77 c0 163 -43 389 -101 527
-56 134 -156 217 -243 201 -20 -4 -40 -14 -45 -24 -7 -11 -11 196 -11 633 0
358 -4 656 -9 664 -5 8 -54 21 -117 32 -60 10 -197 34 -304 53 -107 19 -386
69 -620 110 -234 42 -434 78 -446 81 -15 3 -20 12 -18 32 1 15 5 102 8 193 4
91 9 188 11 215 2 28 7 118 11 200 3 83 14 303 23 490 l16 339 225 28 225 27
35 -30 c149 -127 349 -212 600 -256 136 -24 500 -24 625 1 208 41 415 127 600
250 142 95 215 160 215 192 0 23 3 24 68 25 61 1 331 13 394 17 22 2 28 -4 41
-40z m-3127 -235 c-14 -282 -34 -685 -41 -858 -3 -66 -8 -154 -10 -195 -2 -41
-7 -140 -11 -220 -3 -80 -8 -147 -10 -149 -3 -3 -125 17 -272 43 -147 26 -469
83 -717 127 -247 44 -459 82 -470 83 -11 2 -67 -4 -125 -14 -58 -10 -106 -17
-107 -16 -1 1 38 32 86 69 142 107 272 225 489 440 231 230 251 253 277 322
64 174 273 336 545 423 113 36 266 68 339 71 l33 1 -6 -127z m-3527 -673 c94
-175 171 -320 171 -323 0 -2 -180 -143 -400 -313 l-401 -309 -147 -26 c-81
-14 -195 -34 -254 -44 -59 -10 -112 -22 -119 -26 -9 -5 -13 -49 -13 -162 l-1
-154 -404 -312 -403 -312 -176 183 c-353 366 -327 337 -311 352 8 7 437 348
954 757 517 409 1023 810 1125 891 159 127 187 146 197 132 6 -9 88 -159 182
-334z m477 -334 c93 -112 267 -249 399 -313 l55 -27 -157 -27 c-267 -46 -615
-107 -908 -158 -154 -27 -281 -48 -282 -47 -1 0 186 146 415 323 229 177 420
318 423 315 3 -4 28 -34 55 -66z m2367 -411 c480 -85 937 -167 1017 -181 80
-14 204 -36 275 -49 72 -13 226 -40 343 -61 116 -21 212 -41 212 -44 0 -3
-228 -45 -507 -93 -280 -48 -898 -154 -1374 -237 l-867 -149 -1348 234 c-742
129 -1362 238 -1379 241 -26 6 647 127 2280 409 116 20 266 47 335 60 69 12
129 23 133 24 4 0 400 -69 880 -154z m-3335 -490 c301 -52 675 -118 832 -145
157 -27 568 -99 913 -159 346 -60 630 -111 632 -113 7 -7 7 -110 6 -2224 l-1
-2191 -47 8 c-48 8 -1128 199 -1493 264 -107 19 -231 41 -275 49 -44 7 -317
56 -607 107 l-528 93 0 2203 c0 1537 3 2203 11 2203 5 0 256 -43 557 -95z
m5462 -694 c0 -746 -1 -789 -17 -785 -19 4 -285 52 -433 78 -47 8 -222 40
-389 71 -167 30 -311 53 -321 50 -9 -3 -26 -25 -38 -49 l-22 -43 -48 10 c-26
5 -110 10 -187 9 -122 0 -154 -4 -256 -30 -246 -63 -451 -194 -604 -385 -78
-96 -164 -265 -195 -382 -28 -102 -37 -288 -21 -391 87 -534 615 -874 1180
-758 422 87 768 423 852 828 10 50 19 121 19 159 0 37 3 67 8 67 4 0 112 -21
240 -46 l232 -47 -2 -986 -3 -986 -100 -18 c-167 -29 -435 -75 -530 -92 -49
-8 -178 -31 -285 -50 -274 -49 -1628 -287 -1845 -325 -99 -17 -188 -33 -197
-36 -17 -5 -18 105 -18 2205 l0 2209 28 6 c15 3 266 47 557 96 292 50 710 122
930 161 220 38 468 80 550 95 83 14 314 54 515 89 201 35 373 64 383 64 16 1
17 -43 17 -788z m-6132 -675 l-3 -374 -110 60 c-176 96 -338 194 -515 313
-174 117 -433 305 -427 311 1 2 239 186 528 408 l524 405 3 -375 c1 -205 1
-542 0 -748z m6379 142 c87 -90 153 -354 153 -610 0 -178 -38 -299 -114 -365
-75 -67 -135 -67 -456 -3 -229 46 -436 97 -522 129 -62 24 -111 58 -103 72 3
5 1 27 -5 48 -14 53 -65 95 -171 140 -73 32 -88 42 -116 85 -18 26 -40 71 -48
99 -28 95 -11 239 30 245 11 1 292 -47 624 -108 427 -77 608 -107 621 -100 23
12 27 32 36 170 4 63 8 122 10 130 1 8 3 34 3 58 1 52 15 54 58 10z m-1549
-231 l52 -9 0 -47 c0 -49 13 -131 25 -164 4 -9 -9 -1 -28 18 -43 43 -67 45
-238 10 -153 -31 -174 -39 -222 -84 -53 -50 -66 -105 -66 -265 0 -89 -3 -131
-11 -136 -7 -4 -63 -18 -124 -30 -163 -32 -187 -40 -231 -85 -54 -54 -65 -97
-65 -254 0 -145 10 -184 55 -219 37 -29 86 -28 231 3 64 14 123 25 132 25 15
0 17 -16 17 -148 0 -169 9 -197 72 -227 38 -18 39 -18 198 14 178 35 217 54
262 123 27 40 28 46 31 203 l4 161 151 32 c177 38 213 58 252 135 22 45 25 64
25 155 0 95 1 104 18 97 9 -4 53 -20 97 -35 l80 -28 3 -82 c7 -204 -85 -430
-248 -603 -232 -248 -580 -369 -901 -312 -288 50 -510 213 -629 460 -63 131
-82 216 -82 358 1 360 224 690 575 852 176 81 390 112 565 82z m155 -361 c29
-37 76 -64 191 -110 22 -9 37 -19 34 -21 -6 -6 -280 -66 -284 -62 -1 1 -4 71
-6 154 l-3 152 19 -37 c10 -20 32 -55 49 -76z m1488 -588 c446 -577 1063
-1029 1599 -1172 198 -53 262 -61 480 -60 184 0 218 3 333 27 278 59 593 186
796 321 46 31 85 56 86 56 6 0 19 -105 17 -134 -10 -133 -195 -296 -452 -399
-203 -81 -427 -124 -690 -134 -285 -10 -501 16 -867 101 -406 96 -823 161
-1253 196 -74 6 -153 13 -175 15 -22 2 -57 4 -77 4 l-38 1 0 615 0 615 48 1
c35 0 120 19 128 28 0 1 30 -36 65 -81z m3023 -1660 c477 -970 843 -2113 1036
-3242 47 -276 80 -514 74 -531 -11 -28 -43 -38 -67 -22 -20 13 -26 39 -56 238
-189 1263 -571 2507 -1082 3526 l-106 212 41 15 c23 8 44 15 48 15 4 1 54 -95
112 -211z m-897 -100 c5 -7 24 -51 42 -98 97 -251 279 -526 482 -728 162 -162
294 -257 513 -368 92 -46 142 -77 147 -91 9 -26 -14 -63 -40 -63 -24 0 -240
106 -328 161 -251 157 -470 372 -645 633 -91 136 -182 312 -226 437 -28 79
-29 89 -16 108 17 23 56 28 71 9z m-3476 -605 c0 -104 2 -199 3 -213 2 -14 7
-203 10 -420 4 -217 9 -447 11 -510 2 -63 7 -243 10 -400 3 -157 7 -343 10
-415 3 -71 7 -222 10 -335 13 -492 28 -992 40 -1315 3 -66 7 -205 10 -310 3
-104 7 -233 10 -285 3 -52 7 -169 10 -260 3 -91 7 -212 10 -270 3 -58 7 -161
10 -230 3 -69 8 -170 10 -225 2 -55 7 -165 10 -245 3 -80 7 -179 10 -220 3
-41 7 -131 10 -200 3 -69 7 -163 10 -210 2 -47 7 -137 10 -200 3 -63 8 -144
10 -180 2 -36 7 -121 10 -190 4 -69 8 -142 11 -162 l5 -37 -68 19 c-258 71
-587 273 -839 513 -710 676 -1211 1895 -1433 3487 -84 599 -116 1049 -115
1580 0 330 8 440 61 863 30 238 23 225 97 207 28 -6 61 -4 110 5 81 16 216 40
1101 196 347 60 673 119 725 129 52 10 101 19 108 19 9 1 12 -43 13 -186z
m3384 -4603 c425 -1279 714 -2153 711 -2156 0 -1 -95 22 -211 51 -401 101
-800 154 -1275 171 -102 3 -187 8 -189 10 -10 9 108 1587 143 1904 3 25 8 79
11 120 3 41 8 91 10 110 2 19 9 89 15 155 5 66 12 140 15 165 2 25 11 119 20
210 8 91 17 185 20 210 2 25 23 234 45 465 22 231 43 431 46 445 7 32 53 -100
639 -1860z m3295 -8130 l0 -340 -195 0 c-175 0 -195 -2 -203 -17 -5 -10 -22
-70 -36 -133 -15 -63 -32 -132 -37 -154 l-10 -39 -34 50 -33 50 -42 349 c-44
375 -46 385 -55 455 l-6 46 168 6 c153 5 347 31 428 56 17 5 36 10 43 10 9 1
12 -73 12 -339z m-5457 -390 c103 -24 307 -56 425 -66 75 -6 82 -8 81 -28 -3
-94 -36 -367 -44 -368 -5 0 -18 15 -27 34 -23 48 -80 96 -125 104 -57 11 -301
-14 -350 -36 -25 -11 -51 -32 -63 -52 l-20 -33 0 238 c0 222 1 238 18 233 9
-2 57 -14 105 -26z m5582 -90 c8 -19 44 -116 80 -215 138 -372 221 -554 355
-775 140 -233 267 -496 365 -760 37 -98 48 -143 52 -205 11 -170 -63 -310
-200 -383 l-52 -27 -286 2 c-465 4 -523 15 -621 115 -51 52 -80 108 -230 443
-157 349 -249 584 -294 750 -24 87 -24 98 -20 330 3 132 8 269 11 305 4 36 12
128 19 205 l12 140 98 -147 c87 -132 101 -148 126 -148 15 0 32 6 38 13 5 6
28 93 51 192 23 99 44 186 46 193 4 10 53 12 221 10 l216 -3 13 -35z m-5258
-352 c13 -12 23 -26 23 -33 0 -6 42 -62 93 -125 80 -100 96 -115 122 -115 24
0 33 7 47 34 11 22 19 29 22 20 2 -8 16 -140 31 -294 14 -154 44 -460 66 -680
21 -220 41 -425 44 -455 3 -30 8 -75 11 -100 3 -25 6 -71 5 -103 -1 -103 -68
-193 -165 -222 -71 -22 -403 -38 -621 -32 -308 10 -631 49 -704 87 -65 32
-113 101 -126 177 -8 51 2 92 125 503 144 482 347 1070 411 1193 l14 27 40
-75 c41 -78 70 -99 104 -78 8 5 38 64 65 131 28 67 56 126 62 132 5 6 46 13
90 16 43 4 81 8 83 10 2 2 34 4 70 4 53 0 69 -4 88 -22z"/>
<path d="M44008 8316 c-9 -21 -6 -32 15 -68 14 -24 84 -160 155 -304 72 -143
151 -288 176 -322 78 -105 201 -187 328 -217 85 -20 720 -22 735 -2 21 27 22
48 3 67 -19 19 -35 20 -353 20 -361 0 -385 3 -483 57 -27 15 -77 55 -110 89
-55 56 -75 89 -204 345 -178 353 -181 359 -220 359 -23 0 -33 -6 -42 -24z"/>
<path d="M44542 8074 c-24 -17 -29 -53 -10 -72 9 -9 92 -12 314 -12 325 0 330
1 322 52 -6 44 -34 48 -328 48 -233 0 -279 -2 -298 -16z"/>
<path d="M38780 8090 c-24 -24 -25 -43 -4 -64 13 -14 58 -16 338 -16 338 0
346 1 346 45 -1 50 3 50 -339 53 -311 3 -321 2 -341 -18z"/>
<path d="M38380 7452 c-18 -14 -22 -25 -16 -45 5 -22 16 -29 59 -42 165 -47
511 -81 722 -70 72 4 137 9 145 10 8 1 53 6 100 10 110 9 350 53 367 67 7 6
13 23 13 39 0 44 -26 52 -107 34 -274 -60 -662 -78 -943 -44 -84 10 -278 45
-304 55 -7 3 -23 -4 -36 -14z"/>
<path d="M22880 28840 c-377 -35 -704 -294 -827 -655 -52 -152 -65 -314 -38
-466 8 -46 129 -460 269 -919 1436 -4720 1767 -5813 1772 -5865 13 -129 -44
-284 -140 -381 -105 -105 -272 -159 -414 -136 -91 15 -201 72 -265 136 -100
100 9 -238 -1108 3441 -192 633 -363 1186 -381 1230 -46 117 -103 206 -191
301 -133 142 -299 238 -494 286 -130 31 -313 29 -447 -6 -367 -95 -640 -381
-717 -751 -22 -104 -24 -259 -4 -363 7 -37 216 -735 465 -1552 1645 -5410
1655 -5443 1685 -5570 41 -177 0 -239 -190 -291 -209 -57 -462 -25 -671 86
-104 55 -163 98 -301 224 -604 553 -1250 940 -1940 1164 -531 173 -1086 202
-1578 81 -257 -63 -373 -183 -400 -414 -13 -112 31 -330 96 -470 33 -72 99
-144 244 -269 186 -159 300 -234 477 -312 436 -193 788 -440 1217 -853 314
-302 756 -687 2726 -2376 1157 -991 1368 -1173 1469 -1267 937 -874 2254
-1368 3646 -1368 142 0 471 13 505 20 11 2 47 6 80 10 l60 5 -25 -24 c-14 -13
-241 -207 -505 -432 -559 -475 -1159 -990 -1750 -1502 -231 -200 -463 -393
-515 -428 -244 -162 -512 -250 -800 -263 -314 -13 -556 39 -829 179 -150 77
-214 127 -600 464 -666 583 -1484 1289 -2716 2346 -2834 2429 -3805 3289
-4869 4308 -92 89 -175 162 -182 162 -18 0 -54 -36 -54 -53 0 -30 707 -697
1445 -1362 405 -366 753 -674 1225 -1086 613 -535 688 -599 2148 -1851 1501
-1288 2072 -1781 2817 -2431 269 -236 530 -456 580 -489 181 -122 400 -213
625 -259 101 -21 141 -24 330 -23 184 0 230 3 319 23 265 57 507 164 695 309
33 25 263 222 510 437 517 447 1218 1048 1875 1608 369 314 461 388 490 392
20 4 44 9 53 13 9 4 250 219 535 478 285 260 583 528 663 596 80 69 368 315
640 548 2512 2149 3929 3480 5081 4770 366 411 649 760 649 803 0 18 -32 47
-51 47 -19 0 -56 -39 -99 -105 -94 -141 -578 -696 -1030 -1180 -347 -372
-1492 -1508 -1504 -1494 -2 2 -6 114 -9 249 -11 439 -50 800 -138 1275 -52
283 -117 508 -726 2510 -354 1166 -905 2977 -1224 4025 -441 1451 -589 1924
-620 1986 -173 346 -569 517 -946 408 -160 -46 -301 -140 -406 -269 -56 -70
-130 -214 -153 -300 -21 -77 -29 -263 -15 -338 8 -44 714 -2380 1049 -3472 42
-135 46 -160 46 -245 -1 -113 -23 -182 -90 -276 -72 -102 -186 -172 -316 -194
-190 -33 -404 73 -494 245 -21 39 -167 506 -409 1300 -1456 4792 -1405 4626
-1453 4720 -37 72 -65 109 -137 181 -104 106 -188 158 -325 206 -92 32 -100
33 -250 32 -149 0 -159 -1 -250 -32 -135 -47 -221 -100 -320 -201 -114 -116
-174 -221 -215 -376 -22 -85 -29 -219 -16 -302 6 -39 60 -233 120 -430 403
-1318 1464 -4813 1482 -4878 36 -132 15 -266 -59 -381 -140 -215 -411 -286
-636 -166 -69 36 -165 135 -197 202 -15 30 -97 285 -182 565 -86 281 -422
1385 -747 2455 -325 1070 -710 2335 -855 2812 -145 476 -277 895 -293 931 -82
180 -242 349 -424 446 -163 88 -360 128 -548 111z"/>
</g>
</svg>
