<?xml version="1.0" standalone="no"?>
<!DOCTYPE svg PUBLIC "-//W3C//DTD SVG 20010904//EN"
 "http://www.w3.org/TR/2001/REC-SVG-20010904/DTD/svg10.dtd">
<svg version="1.0" xmlns="http://www.w3.org/2000/svg"
 width="5209.000000pt" height="5209.000000pt" viewBox="0 0 5209.000000 5209.000000"
 preserveAspectRatio="xMidYMid meet">

<g transform="translate(0.000000,5209.000000) scale(0.100000,-0.100000)"
fill="#000000" stroke="none">
<path d="M24725 45098 c-79 -29 -175 -120 -221 -210 -27 -51 -28 -61 -35 -263
-11 -292 -36 -417 -134 -670 -30 -78 -49 -142 -52 -183 -6 -62 -5 -62 32 -97
l37 -36 -90 -405 c-63 -283 -96 -412 -108 -426 -29 -33 -149 -84 -264 -113
-287 -72 -518 -191 -734 -381 -256 -224 -418 -522 -490 -905 -44 -232 -57
-386 -71 -844 -10 -327 -33 -549 -71 -685 -8 -30 -57 -170 -109 -310 -177
-482 -289 -841 -386 -1236 -27 -111 -49 -218 -49 -238 0 -45 30 -107 65 -134
26 -21 26 -21 11 -74 -22 -77 -54 -258 -66 -368 -11 -110 -6 -512 9 -615 5
-38 9 -70 8 -71 -1 -1 -81 9 -177 22 -208 27 -288 29 -404 9 -112 -20 -196
-52 -331 -127 -234 -131 -691 -437 -705 -472 -4 -12 -30 -40 -57 -63 -114 -95
-223 -278 -271 -451 l-27 -97 -3 -2039 c-2 -1895 -1 -2040 14 -2058 22 -23 46
-23 67 0 15 17 17 185 20 2068 2 1947 3 2052 21 2109 94 311 334 537 638 599
102 21 209 20 398 -4 1005 -126 1023 -129 1033 -146 5 -8 31 -41 58 -74 112
-134 263 -229 429 -270 81 -20 125 -21 970 -30 487 -5 1063 -9 1280 -10 389 0
497 -7 549 -35 72 -37 138 -141 141 -220 1 -22 2 -90 1 -151 l-1 -110 -102 12
c-57 7 -281 36 -498 63 -217 28 -591 76 -830 106 -239 30 -451 57 -470 60 -19
3 -123 16 -230 30 -376 47 -755 95 -785 100 -16 2 -122 15 -235 30 -113 14
-219 27 -236 30 -17 2 -89 12 -160 20 -70 9 -229 29 -353 46 -266 34 -322 36
-424 9 -110 -28 -200 -76 -278 -148 -85 -79 -142 -164 -177 -267 l-27 -80 -3
-2682 c-1 -1617 -6 -2683 -11 -2683 -5 0 -432 87 -948 194 -516 107 -1082 225
-1258 261 -176 36 -426 88 -555 115 -245 51 -763 159 -1470 305 -228 47 -597
124 -820 170 -402 83 -1676 348 -2465 511 -857 177 -771 156 -866 220 -163
109 -377 198 -594 246 -87 19 -129 22 -325 22 -249 0 -327 -11 -520 -75 -643
-213 -1089 -785 -1144 -1469 -3 -36 -19 -102 -36 -148 -40 -110 -66 -215 -84
-337 -15 -100 -20 -315 -31 -1285 -3 -239 -7 -590 -10 -780 -3 -190 -7 -545
-10 -790 -3 -245 -7 -614 -10 -820 -12 -885 -16 -1240 -25 -1995 -5 -440 -12
-982 -15 -1205 -3 -223 -10 -754 -15 -1180 -9 -761 -14 -1147 -29 -2343 -4
-328 -10 -599 -13 -602 -2 -3 -238 -6 -524 -8 -557 -4 -566 -5 -704 -59 -227
-90 -403 -287 -477 -533 -17 -57 -18 -184 -20 -2487 l-3 -2428 -458 -2 -457
-3 -3 -282 -2 -283 1402 -2 1402 -3 -1234 -704 c-679 -387 -1258 -721 -1286
-742 -57 -42 -106 -112 -125 -179 -7 -25 -20 -54 -30 -65 -17 -19 -18 -51 -20
-410 -3 -529 -4 -502 21 -568 28 -76 100 -148 173 -175 49 -19 383 -65 1232
-172 83 -11 375 -48 650 -84 275 -36 606 -79 735 -95 265 -34 465 -60 750 -97
107 -14 263 -34 345 -44 83 -10 220 -28 305 -39 85 -11 245 -32 355 -46 110
-14 335 -43 500 -65 165 -21 325 -41 355 -45 30 -3 66 -8 80 -10 14 -3 149
-21 300 -40 151 -19 399 -51 550 -70 299 -39 515 -67 1120 -145 217 -28 411
-53 430 -55 19 -3 69 -9 110 -15 41 -5 183 -23 315 -40 132 -17 359 -47 505
-65 146 -19 580 -75 965 -125 1350 -174 1472 -190 1670 -215 110 -14 319 -41
465 -60 146 -19 425 -55 620 -80 195 -25 369 -47 385 -50 17 -2 156 -20 310
-40 154 -20 368 -47 475 -61 107 -14 263 -34 345 -44 412 -53 783 -101 811
-105 17 -2 89 -12 160 -20 71 -9 140 -18 154 -20 14 -2 81 -11 150 -20 69 -8
139 -17 155 -20 31 -4 346 -45 900 -116 171 -22 378 -49 460 -59 83 -11 202
-26 265 -34 63 -8 219 -29 345 -45 127 -17 408 -53 625 -81 217 -27 499 -64
625 -80 127 -16 304 -39 395 -50 91 -12 176 -23 190 -25 14 -2 113 -15 220
-29 532 -68 1298 -167 1325 -171 17 -2 365 -47 775 -100 410 -52 759 -97 775
-100 17 -2 104 -13 195 -25 91 -11 320 -41 510 -66 422 -55 515 -62 750 -58
486 7 961 124 1394 341 50 25 524 294 1055 598 531 304 2035 1163 3341 1910
1306 747 3300 1887 4430 2533 1130 646 2327 1331 2660 1521 332 190 621 360
642 379 21 19 50 59 65 90 27 55 28 62 30 242 1 102 4 293 7 426 l5 241 -34
87 c-42 108 -64 144 -117 191 -68 62 -130 84 -295 105 -684 88 -1307 169
-1349 175 -17 2 -89 12 -160 20 -71 9 -140 18 -154 20 -14 2 -342 45 -730 94
-388 50 -736 95 -775 101 -38 5 -178 23 -310 40 -132 17 -256 33 -275 35 -127
17 -297 39 -435 56 -88 11 -171 22 -185 24 -24 4 -173 23 -610 79 -322 42
-469 61 -1320 171 -448 58 -867 112 -930 120 -63 8 -322 41 -575 74 -253 33
-566 74 -695 90 -583 75 -1181 152 -1250 161 -198 26 -401 53 -685 89 -558 72
-927 120 -1670 216 -335 43 -1033 133 -1275 164 -231 30 -1669 216 -1743 225
-43 6 -1157 150 -1322 171 -60 8 -180 24 -265 35 -85 11 -299 38 -475 60 -176
23 -331 43 -345 45 -14 2 -83 11 -155 20 -71 9 -141 18 -155 20 -14 2 -169 22
-345 45 -176 22 -367 47 -425 55 -58 8 -161 21 -230 30 -69 9 -141 18 -160 20
-116 16 -286 38 -425 55 -88 11 -173 22 -190 25 -16 2 -259 33 -540 69 -280
36 -541 70 -580 76 -38 5 -128 17 -200 25 -71 9 -141 18 -155 20 -14 2 -61 9
-105 14 -44 6 -170 22 -280 36 -110 14 -339 44 -510 66 -170 22 -326 42 -345
44 -19 3 -69 9 -110 15 -300 38 -479 61 -505 65 -167 24 -519 29 -682 10 -175
-20 -237 -30 -367 -56 -273 -55 -514 -136 -761 -253 -71 -35 -735 -408 -1475
-831 -740 -422 -1352 -770 -1361 -772 -11 -3 -21 8 -33 37 -9 23 -98 319 -197
659 -343 1173 -325 1120 -429 1247 -113 139 -315 253 -475 270 -27 3 -66 7
-85 9 -19 2 -223 4 -452 4 -388 1 -417 2 -422 19 -2 9 -7 46 -11 82 -3 36 -10
103 -15 150 -5 47 -14 132 -20 190 -6 58 -13 123 -15 145 -3 22 -32 301 -65
620 -33 319 -63 598 -65 620 -3 22 -46 429 -95 905 -50 476 -93 883 -95 905
-3 22 -9 85 -15 140 -6 55 -13 120 -15 145 -6 53 -69 650 -125 1190 -22 212
-42 403 -45 425 -7 65 -14 126 -20 185 -9 89 -85 821 -90 865 -9 81 -206 1959
-251 2390 -13 132 -36 346 -50 475 -49 467 -55 531 -52 543 2 10 182 -10 758
-84 415 -54 881 -114 1035 -134 154 -19 487 -62 740 -95 537 -69 854 -110
1125 -144 107 -14 350 -45 540 -70 190 -25 629 -81 975 -126 347 -44 644 -82
660 -85 17 -2 278 -36 580 -74 303 -39 638 -82 745 -96 107 -14 215 -28 240
-31 25 -3 55 -7 67 -10 l23 -4 2 -3923 3 -3922 23 -75 c89 -289 296 -508 568
-599 90 -30 -24 -14 1599 -221 477 -61 545 -69 1105 -141 173 -22 383 -48 465
-59 83 -11 294 -38 470 -60 440 -56 875 -111 1295 -165 195 -25 531 -68 745
-95 215 -27 638 -81 940 -120 857 -109 1306 -167 1610 -205 154 -19 294 -37
310 -40 32 -4 612 -78 1140 -145 176 -22 335 -42 353 -45 18 -3 122 -16 230
-30 108 -13 445 -56 747 -95 303 -38 658 -84 790 -100 132 -17 254 -33 270
-35 48 -7 1315 -168 2395 -305 261 -33 490 -62 508 -65 18 -3 122 -16 230 -30
210 -26 734 -92 792 -100 105 -14 484 -62 1410 -180 283 -36 529 -67 545 -70
31 -4 483 -62 1095 -140 195 -24 461 -58 590 -75 129 -16 465 -59 745 -95 281
-36 688 -88 905 -116 370 -47 400 -50 478 -39 162 22 269 74 382 189 84 85
139 181 164 291 14 58 16 877 16 7598 0 6825 -1 7540 -16 7609 -35 169 -104
301 -222 425 -124 129 -282 220 -441 253 -36 8 -282 41 -546 75 -264 33 -493
62 -510 65 -16 2 -120 15 -230 29 -276 35 -753 95 -795 101 -92 13 -1223 157
-1690 216 -129 16 -284 36 -345 44 -60 8 -571 73 -1135 144 -564 72 -1095 140
-1180 151 -275 36 -1529 196 -2200 280 -173 22 -328 42 -345 45 -16 2 -210 27
-430 55 -803 102 -1511 192 -1615 206 -216 27 -985 125 -1370 174 -261 33
-488 62 -505 64 -16 3 -127 17 -245 32 -118 15 -217 28 -219 30 -2 2 26 52 63
111 36 60 101 168 144 241 l77 133 70 -5 c39 -4 84 -8 100 -11 17 -3 192 -25
390 -50 397 -50 716 -91 1020 -130 110 -15 226 -29 258 -32 49 -5 60 -10 67
-28 5 -13 13 -26 19 -29 5 -4 293 -42 638 -86 345 -44 855 -109 1133 -145 538
-69 928 -119 1690 -215 261 -33 489 -62 505 -65 17 -2 85 -11 150 -19 66 -8
264 -33 440 -56 176 -22 442 -56 590 -75 149 -19 410 -52 580 -74 335 -43 961
-123 1575 -201 462 -59 1061 -135 1485 -190 171 -21 488 -62 705 -89 217 -28
501 -64 630 -81 129 -16 467 -59 750 -95 283 -36 529 -67 545 -69 17 -3 82
-12 146 -20 212 -29 342 -76 494 -177 221 -147 375 -360 453 -624 l27 -90 3
-7864 c2 -7831 2 -7864 -18 -7948 -85 -358 -389 -616 -755 -639 -71 -5 -152 2
-375 30 -157 20 -300 39 -318 41 -18 3 -124 16 -235 30 -111 14 -218 27 -237
30 -19 3 -141 18 -270 35 -129 16 -253 32 -275 35 -22 3 -130 16 -240 30 -110
14 -214 27 -230 30 -17 2 -85 11 -150 19 -66 8 -280 35 -475 60 -195 25 -373
48 -395 51 -22 2 -161 20 -310 39 -148 20 -342 45 -430 55 -88 11 -338 43
-555 71 -217 28 -534 68 -705 90 -170 22 -573 73 -895 114 -799 103 -1506 193
-2520 321 -239 30 -450 57 -468 60 -18 3 -122 16 -230 30 -108 14 -426 54
-707 90 -280 35 -724 92 -985 125 -261 33 -490 62 -508 65 -18 3 -122 16 -230
30 -284 35 -751 94 -792 100 -19 3 -107 14 -195 25 -88 12 -248 32 -355 46
-305 39 -886 113 -1095 139 -620 79 -1557 198 -1720 220 -104 14 -368 47 -585
74 -466 59 -1654 211 -1925 246 -170 22 -731 94 -1140 145 -82 11 -312 40
-510 65 -198 25 -450 57 -560 71 -110 13 -229 28 -265 34 -36 5 -87 12 -115
15 -27 4 -259 33 -515 66 -256 32 -625 79 -820 104 -220 28 -388 55 -443 70
-361 102 -644 389 -754 765 l-28 95 -5 3268 c-4 2890 -7 3269 -20 3277 -23 15
-45 12 -64 -8 -15 -18 -16 -246 -13 -3268 l3 -3249 21 -85 c31 -120 56 -187
103 -282 131 -261 365 -472 634 -573 107 -40 212 -62 436 -90 113 -14 273 -35
355 -45 83 -10 312 -40 510 -65 198 -25 374 -47 390 -50 17 -2 140 -18 275
-35 135 -17 259 -33 275 -35 17 -2 122 -16 235 -30 113 -14 219 -27 237 -30
18 -3 103 -14 190 -25 87 -11 280 -35 428 -54 149 -19 380 -48 515 -65 135
-17 259 -33 275 -36 17 -2 140 -18 275 -35 135 -16 259 -32 275 -35 17 -2 210
-27 430 -55 220 -27 432 -54 470 -60 39 -5 90 -12 115 -14 25 -3 133 -17 240
-31 107 -14 409 -52 670 -85 261 -33 491 -62 510 -65 66 -10 1056 -135 1256
-160 111 -14 216 -27 235 -30 19 -3 156 -21 304 -39 149 -19 448 -57 665 -85
217 -28 679 -87 1025 -131 347 -44 788 -100 980 -125 193 -24 494 -63 670 -85
176 -23 493 -63 705 -90 212 -27 597 -76 855 -109 259 -33 612 -78 785 -100
173 -22 617 -79 985 -126 369 -47 812 -103 985 -125 173 -22 365 -47 425 -55
61 -8 414 -53 785 -100 371 -47 689 -87 705 -90 17 -2 210 -27 430 -55 220
-28 524 -67 675 -86 151 -19 419 -53 595 -75 176 -22 331 -42 345 -44 14 -2
61 -9 105 -14 85 -11 776 -98 835 -106 1333 -175 1418 -183 1555 -156 219 44
420 162 554 326 37 45 114 112 240 208 224 172 337 277 402 376 56 86 102 198
124 302 13 62 15 1015 15 7904 0 7034 -2 7841 -16 7915 -45 237 -161 449 -338
618 -91 87 -170 141 -289 197 -163 78 -204 86 -1019 189 -414 53 -820 105
-903 116 -82 11 -292 38 -465 60 -173 22 -441 55 -595 75 -154 20 -383 49
-510 65 -126 16 -336 43 -465 59 -129 17 -606 78 -1060 136 -454 57 -843 107
-865 110 -22 3 -218 28 -435 55 -217 28 -480 62 -585 75 -301 39 -634 81 -980
125 -176 22 -387 49 -470 60 -152 20 -754 96 -1185 151 -129 16 -251 31 -270
34 -19 3 -246 32 -505 65 -258 33 -488 62 -510 65 -22 3 -146 19 -275 35 -265
34 -819 104 -1170 149 -129 17 -397 51 -595 76 -198 25 -378 48 -400 51 -48 7
-312 40 -670 85 -143 18 -261 33 -263 35 -2 1 33 74 77 163 304 606 504 1164
583 1626 29 173 32 528 5 645 -36 158 -168 370 -301 483 l-55 47 15 37 c9 20
14 50 11 66 -3 24 20 74 116 246 154 278 365 659 407 736 18 33 77 139 130
235 54 96 215 389 360 650 144 261 320 579 390 705 182 328 180 324 180 373 0
59 -20 100 -68 144 -59 53 -90 56 -372 33 -30 -3 -174 -14 -320 -25 -555 -41
-807 -61 -855 -65 -27 -2 -86 -7 -130 -10 -44 -3 -100 -8 -125 -10 -25 -3
-117 -9 -205 -16 -623 -42 -673 -50 -767 -115 -60 -42 -85 -79 -251 -379 -201
-365 -576 -1042 -784 -1418 l-165 -298 -27 17 c-219 140 -558 443 -722 647
-43 54 -79 101 -79 105 0 3 24 31 54 62 l54 55 -159 225 c-331 468 -456 627
-639 811 -123 124 -249 229 -386 325 -55 38 -135 97 -179 133 -90 72 -350 245
-470 313 -99 56 -274 143 -379 189 -95 41 -124 77 -133 163 -7 63 -10 61 79
47 69 -12 111 -2 150 36 32 31 91 199 129 372 16 68 29 105 39 109 8 3 28 16
43 29 23 18 38 22 81 20 105 -4 133 40 135 213 1 63 6 156 11 205 5 50 10 98
10 108 0 9 5 17 11 17 6 0 63 -23 127 -52 186 -82 242 -70 315 70 114 217 82
468 -76 596 -36 29 -44 31 -120 31 -73 0 -87 4 -126 28 -62 41 -196 172 -312
307 -126 147 -149 165 -211 165 -40 0 -52 -5 -83 -35 -20 -19 -50 -56 -66 -82
-16 -25 -36 -49 -43 -51 -8 -3 -32 16 -57 46 -103 124 -180 195 -242 223 -69
31 -137 39 -182 22z m750 -825 c79 -20 199 -80 246 -123 l38 -35 -24 -93 c-33
-126 -54 -286 -63 -477 l-7 -160 -53 3 c-44 3 -58 0 -87 -22 -18 -14 -41 -26
-51 -26 -9 0 -63 16 -119 34 -187 63 -295 131 -295 186 0 34 28 174 75 370 19
80 40 192 47 250 l13 105 55 5 c77 7 155 1 225 -17z m-536 -56 c35 -29 67
-181 55 -259 l-7 -40 -73 4 c-81 4 -114 24 -140 85 -54 126 72 287 165 210z
m-364 -617 c70 -43 80 -117 38 -287 -48 -197 -33 -283 69 -383 52 -51 183
-124 276 -155 45 -14 52 -20 53 -43 5 -176 70 -270 229 -337 50 -21 90 -41 90
-45 0 -12 -93 -50 -165 -67 -86 -20 -317 -22 -455 -4 -185 25 -366 79 -525
158 -102 51 -255 148 -255 162 0 4 14 11 30 15 95 19 253 103 285 152 9 14 57
209 106 432 50 224 92 413 95 421 6 19 86 7 129 -19z m-1542 -1942 c12 -9 22
-44 33 -118 55 -374 263 -1106 405 -1425 27 -60 49 -120 49 -132 0 -26 -33
-47 -60 -38 -82 26 -394 1014 -480 1523 -26 147 -25 167 2 186 27 19 30 19 51
4z m1547 -268 c11 -11 20 -26 20 -32 0 -7 16 -159 35 -338 60 -555 60 -557 45
-575 -16 -19 -54 -20 -70 0 -7 8 -30 182 -55 422 -24 224 -47 429 -50 455 -5
39 -2 51 15 68 25 25 35 25 60 0z m5645 -974 c63 -41 36 -146 -61 -244 -115
-115 -270 -161 -332 -99 -129 129 235 447 393 343z m-2883 -168 c159 -199 352
-383 601 -569 87 -65 165 -122 173 -127 12 -7 4 -27 -41 -110 -30 -56 -63
-115 -73 -131 l-17 -28 -270 94 c-242 85 -277 95 -341 95 -80 0 -143 -22 -206
-72 -20 -17 -40 -30 -43 -30 -20 0 -105 87 -237 244 l-150 178 58 62 c120 125
469 476 474 476 3 0 36 -37 72 -82z m-1182 -214 c82 -71 392 -307 459 -349 7
-4 22 2 34 14 l22 20 124 -150 c69 -82 152 -176 187 -209 l62 -59 -92 -74
c-50 -41 -106 -82 -123 -91 -59 -30 -167 -21 -413 34 -275 61 -840 231 -840
252 0 29 249 483 396 721 l29 47 45 -49 c25 -28 74 -75 110 -107z m-1451 39
c36 -123 120 -344 147 -386 105 -161 742 -418 1468 -592 330 -79 454 -90 547
-47 24 11 118 81 209 157 188 156 229 179 304 173 38 -4 517 -161 679 -223 9
-4 17 -17 17 -30 0 -13 -8 -26 -17 -30 -10 -4 -106 -11 -213 -16 -403 -19
-441 -29 -575 -162 -104 -104 -186 -167 -269 -209 -126 -63 -183 -74 -436 -82
-96 -4 -249 -9 -340 -12 -197 -6 -664 10 -880 32 -484 47 -862 151 -1089 297
-181 118 -395 379 -517 631 -50 104 -84 209 -72 222 7 6 989 352 1004 353 6 1
21 -34 33 -76z m3033 -1151 l38 -17 -70 -124 c-39 -69 -72 -126 -73 -128 -4
-3 -321 -30 -457 -38 -58 -3 -118 -8 -135 -11 -23 -4 -14 4 37 34 96 58 173
119 254 205 l71 75 104 9 c151 14 190 13 231 -5z m2874 -314 c131 -123 229
-283 258 -423 45 -218 22 -533 -63 -880 -169 -688 -592 -1568 -1246 -2595
-341 -536 -999 -1470 -1045 -1485 -22 -7 -692 245 -721 271 -10 9 -19 23 -19
31 0 7 200 715 445 1571 245 857 445 1570 445 1585 0 64 -57 138 -118 154 -22
5 -168 -6 -287 -22 -197 -26 -288 -36 -293 -30 -3 3 -14 43 -24 89 -21 103
-73 245 -119 323 -53 89 -178 208 -318 301 -451 300 -1179 544 -2128 713 -131
23 -240 44 -242 45 -5 5 70 287 79 297 4 5 90 2 191 -7 101 -8 245 -18 319
-22 74 -3 136 -7 138 -8 1 -2 -48 -7 -110 -11 -62 -4 -122 -8 -133 -10 -11 -1
-26 -3 -34 -4 -10 -1 -12 -10 -6 -38 10 -60 50 -112 103 -135 47 -21 78 -21
297 -3 28 3 113 9 190 15 77 6 167 13 200 15 33 3 301 23 595 45 294 22 560
43 590 45 74 7 399 31 655 50 116 8 230 17 255 20 25 2 79 7 120 9 198 15 999
76 1195 91 39 3 216 17 394 30 178 14 326 27 329 30 16 16 48 -2 108 -57z
m-5211 -503 c1040 -188 1778 -453 2193 -789 78 -64 126 -124 175 -221 79 -157
120 -362 119 -600 0 -175 -1 -188 -66 -660 -13 -99 -27 -202 -31 -230 -3 -27
-33 -250 -66 -495 -33 -245 -64 -481 -70 -525 -5 -44 -12 -91 -14 -105 -8 -55
-26 -181 -40 -290 -15 -117 -21 -161 -120 -900 -30 -228 -73 -550 -96 -715
-22 -165 -42 -313 -44 -330 -2 -16 -31 -235 -64 -485 -33 -250 -65 -486 -71
-525 -6 -38 -44 -321 -85 -628 -82 -622 -79 -608 -162 -648 -43 -21 -54 -22
-197 -16 -167 7 -309 25 -494 63 -232 48 -249 59 -277 194 -80 382 -175 1147
-210 1690 -3 47 -7 112 -10 145 -14 177 -34 607 -42 918 -11 377 -10 1716 2
2092 16 511 15 559 -16 626 -47 100 -130 173 -232 204 -56 17 -398 23 -1632
30 -931 5 -1028 8 -1115 26 -250 52 -477 285 -569 582 -79 256 -113 724 -76
1042 14 120 58 341 70 353 3 3 66 0 140 -7 420 -37 1007 -35 1402 4 506 51
1169 171 1343 244 31 12 56 9 355 -44z m3128 -1366 c52 -24 51 -33 -49 -383
-51 -181 -95 -330 -97 -332 -2 -2 -99 8 -217 23 l-212 27 6 61 c4 33 10 87 14
120 4 33 7 142 7 243 0 205 -8 187 90 198 33 3 137 16 230 29 212 28 199 27
228 14z m-6788 -1055 c116 -14 221 -27 235 -29 14 -2 205 -27 425 -55 677 -86
1542 -196 1610 -205 290 -38 1608 -205 1619 -205 4 0 5 -129 2 -287 -3 -159
-9 -412 -12 -563 -3 -151 -7 -276 -8 -278 -3 -3 -309 29 -416 43 -19 3 -134
16 -255 29 -268 30 -486 55 -540 61 -22 3 -260 30 -530 60 -269 30 -508 57
-530 60 -47 5 -59 7 -350 39 -371 42 -918 104 -1164 132 -216 24 -234 25 -250
10 -14 -14 -16 -50 -19 -258 -3 -283 -3 -282 80 -291 167 -18 705 -79 773 -87
78 -10 1560 -177 2350 -265 220 -25 497 -56 615 -70 118 -13 223 -25 233 -25
15 0 17 -12 17 -115 l0 -115 -37 5 c-21 3 -137 17 -258 30 -227 25 -1576 177
-1955 220 -1037 118 -1139 129 -1154 116 -14 -12 -16 -50 -16 -282 l0 -269 23
-10 c12 -5 148 -23 302 -40 274 -29 1041 -115 1120 -125 43 -5 846 -96 1510
-170 220 -25 419 -48 443 -51 l42 -6 0 -109 c0 -108 0 -109 -22 -104 -13 2
-147 18 -298 35 -151 17 -293 32 -315 35 -22 2 -143 16 -270 30 -126 14 -243
27 -260 29 -16 3 -57 7 -90 11 -33 3 -76 8 -95 11 -57 7 -983 111 -1253 141
-183 20 -252 25 -265 17 -15 -10 -17 -38 -20 -276 -2 -227 0 -267 13 -278 8
-7 105 -23 222 -36 537 -61 652 -74 708 -79 33 -4 71 -8 85 -10 14 -2 131 -16
260 -30 129 -14 251 -28 270 -30 19 -3 154 -18 300 -34 656 -74 1063 -121
1065 -123 6 -7 20 -210 15 -212 -3 -2 -113 9 -245 24 -132 15 -267 30 -300 34
-33 3 -193 21 -355 40 -162 19 -300 32 -306 29 -23 -8 -26 -37 -31 -284 -4
-227 -3 -247 14 -267 21 -24 -2 -21 413 -67 173 -19 371 -42 440 -50 69 -8
194 -22 277 -31 l153 -18 5 -30 c3 -17 14 -98 25 -181 44 -338 110 -721 134
-785 l14 -35 -416 47 c-230 25 -561 63 -737 83 -176 19 -415 47 -531 60 -116
14 -223 25 -237 25 -55 0 -57 -8 -57 -290 0 -258 0 -260 23 -274 14 -9 159
-29 402 -55 209 -23 396 -44 415 -46 19 -3 157 -18 305 -35 149 -17 288 -32
310 -35 22 -2 141 -16 265 -30 124 -14 230 -26 237 -28 7 -1 -21 -45 -61 -97
-56 -72 -80 -96 -102 -100 -21 -4 -43 -24 -82 -75 -110 -146 -121 -308 -35
-480 15 -29 68 -93 124 -151 l99 -100 -147 17 c-82 9 -173 19 -203 23 -48 5
-257 28 -1247 141 -122 13 -229 22 -238 19 -29 -12 -34 -48 -35 -290 -1 -281
-2 -277 87 -288 50 -6 808 -91 1653 -186 146 -16 438 -50 650 -74 l385 -44
138 -81 c562 -331 964 -438 1129 -301 46 38 102 149 101 197 -1 34 0 35 30 29
18 -3 138 -17 267 -31 129 -14 251 -27 270 -30 72 -9 207 -24 275 -31 54 -4
74 -3 82 8 7 8 12 104 15 276 3 240 1 265 -14 276 -10 7 -70 18 -135 25 -65 6
-134 14 -153 16 -19 2 -138 16 -265 30 -126 14 -246 28 -265 30 -58 8 -389 45
-399 45 -5 0 -28 26 -52 58 -110 146 -151 193 -162 184 -18 -14 -415 -105
-431 -99 -41 16 -36 82 6 92 13 3 103 24 200 48 l178 42 -56 70 c-31 39 -61
69 -68 68 -6 -2 -125 -28 -265 -59 l-254 -57 -19 23 c-44 54 -18 68 247 124
127 27 232 50 234 52 2 2 -44 63 -101 136 -183 233 -215 280 -238 347 -11 35
-19 65 -17 67 2 3 166 -14 363 -36 1635 -185 1596 -181 1616 -163 17 15 18 37
18 274 0 221 -2 260 -16 273 -8 9 -21 16 -27 16 -12 0 -89 9 -312 35 -66 8
-147 17 -180 20 -33 3 -175 19 -315 35 -300 35 -303 35 -535 60 -99 11 -214
24 -255 29 -73 10 -108 13 -240 27 -36 3 -66 7 -67 8 -1 1 10 27 26 57 21 42
31 86 45 189 9 74 26 196 36 270 10 74 21 153 24 175 3 22 13 99 22 172 l18
132 25 -5 c14 -2 172 -20 351 -40 179 -20 328 -39 332 -42 3 -4 41 -53 85
-108 229 -296 270 -329 396 -322 78 4 138 28 202 80 34 29 47 69 26 82 -5 4
-1 24 10 46 10 21 24 62 30 90 6 27 16 50 22 50 7 0 86 -9 176 -20 107 -13
169 -16 181 -10 26 14 30 52 30 300 0 202 -2 230 -17 249 -16 18 -42 23 -208
41 -280 30 -250 20 -270 95 -18 64 -18 65 -53 65 -20 0 -63 4 -96 10 -34 5
-106 17 -161 25 -55 9 -108 18 -117 21 -23 7 -32 38 -18 64 14 26 48 26 205 1
208 -33 197 -32 191 -13 -3 9 -14 44 -24 77 -13 43 -23 59 -34 57 -15 -2 -425
63 -461 74 -20 6 -37 42 -30 62 13 33 41 33 254 -3 116 -20 214 -33 217 -30 3
3 0 22 -7 43 -6 20 -46 154 -88 297 l-76 260 -5 153 c-6 211 23 369 95 517 24
49 25 50 64 47 52 -5 91 12 132 57 111 123 836 1163 1006 1444 25 42 37 44
151 27 36 -5 263 -34 505 -65 242 -31 598 -76 790 -100 193 -25 546 -70 785
-100 239 -30 451 -57 470 -60 35 -5 107 -14 975 -124 264 -34 496 -64 515 -66
48 -7 412 -53 980 -125 261 -33 489 -62 505 -65 17 -2 140 -18 275 -35 135
-16 260 -32 278 -35 18 -3 122 -16 230 -30 279 -35 568 -71 702 -89 63 -8 419
-54 790 -101 371 -47 689 -87 705 -90 17 -2 122 -16 235 -30 113 -14 221 -28
240 -30 19 -3 143 -18 275 -35 132 -17 326 -42 430 -55 387 -50 676 -86 1290
-165 1014 -129 1101 -140 1295 -165 102 -14 295 -38 430 -55 135 -17 259 -32
275 -35 17 -2 86 -11 155 -20 214 -27 316 -65 452 -165 137 -101 251 -282 288
-457 18 -85 19 -325 19 -7571 1 -5442 -2 -7503 -10 -7555 -22 -140 -103 -273
-215 -353 -122 -87 -254 -117 -424 -96 -47 6 -526 67 -1065 136 -539 69 -1034
132 -1100 140 -66 8 -190 24 -275 35 -85 11 -299 39 -475 61 -176 22 -387 49
-470 60 -190 25 -697 89 -1105 140 -173 22 -328 42 -345 45 -29 4 -509 65
-1135 145 -403 51 -853 108 -905 115 -103 13 -959 122 -1380 176 -258 32 -486
61 -505 64 -19 3 -159 21 -310 40 -151 19 -435 55 -630 80 -195 25 -512 66
-705 90 -192 25 -453 58 -580 74 -126 16 -464 59 -750 95 -286 37 -533 68
-550 71 -28 4 -719 92 -1455 185 -173 22 -418 54 -545 70 -126 16 -374 48
-550 70 -176 22 -336 42 -355 45 -19 3 -123 16 -230 30 -376 47 -755 95 -785
100 -16 2 -122 15 -235 30 -113 14 -218 27 -235 30 -16 2 -138 18 -270 34
-909 115 -1194 152 -1220 155 -16 3 -140 19 -275 36 -135 17 -260 33 -278 35
-18 3 -122 16 -230 30 -297 37 -573 72 -744 94 -84 11 -508 66 -943 121 -434
55 -812 105 -838 110 -274 57 -517 291 -587 566 -20 76 -20 133 -20 3977 l0
3899 33 -5 c17 -3 51 -9 74 -12 l42 -7 362 -636 c562 -987 1004 -1765 1216
-2137 166 -290 191 -340 175 -343 -11 -2 -80 4 -153 12 -74 8 -278 31 -454 51
-176 20 -394 45 -485 55 -198 24 -185 24 -204 4 -14 -13 -16 -52 -16 -268 0
-191 3 -256 13 -264 6 -6 77 -18 157 -27 594 -66 769 -86 800 -90 19 -2 186
-21 371 -41 l336 -38 66 -115 c57 -100 64 -116 48 -119 -11 -2 -243 22 -517
53 -1113 126 -1073 122 -1094 108 -19 -13 -20 -27 -20 -277 0 -213 3 -266 14
-275 8 -6 70 -18 139 -26 126 -15 1277 -145 1647 -186 107 -12 200 -27 207
-33 7 -6 63 -102 126 -212 l114 -202 -124 -61 c-68 -33 -126 -68 -130 -77 -3
-8 16 -174 42 -367 l47 -352 74 -153 c41 -84 74 -156 74 -160 0 -4 -80 -51
-177 -103 l-178 -96 -240 27 c-132 15 -267 30 -300 34 -33 4 -131 14 -218 24
-134 16 -161 16 -177 5 -19 -13 -20 -27 -20 -277 0 -214 3 -266 14 -275 8 -7
74 -19 148 -27 73 -9 134 -16 135 -17 1 -1 -5 -27 -13 -57 -31 -121 -12 -229
68 -389 118 -233 285 -340 513 -329 114 6 142 16 360 134 99 53 214 114 255
136 41 22 131 71 200 108 69 38 131 70 138 72 7 2 19 -12 27 -29 l14 -33 -39
0 c-29 0 -42 -5 -50 -19 -12 -23 -14 -520 -2 -539 8 -12 71 -25 182 -36 51 -5
518 -58 1385 -156 198 -23 419 -47 490 -55 116 -12 615 -69 705 -79 19 -3 121
-14 225 -26 105 -11 204 -22 220 -25 17 -2 81 -10 144 -16 161 -17 151 -35
151 282 0 227 -2 251 -18 267 -15 15 -75 25 -353 55 -553 61 -959 107 -1084
122 -16 2 -97 11 -180 20 -82 9 -161 18 -174 21 -24 5 -24 5 7 24 18 11 92 51
165 89 l132 69 312 -36 c257 -29 315 -33 327 -22 14 10 16 43 16 207 0 175 2
196 19 221 l20 27 -45 194 c-24 107 -43 195 -42 196 2 1 32 -1 68 -6 36 -4
270 -30 520 -58 250 -28 473 -53 495 -56 104 -12 496 -56 545 -61 30 -2 69 -7
85 -9 77 -12 473 -55 501 -55 17 0 36 6 42 13 15 17 19 534 5 548 -9 9 -276
42 -743 93 -80 9 -588 67 -845 96 -137 16 -362 41 -500 56 -137 15 -253 30
-258 34 -11 10 204 120 236 120 16 0 83 -6 150 -14 67 -8 145 -17 172 -20 91
-10 507 -57 710 -80 174 -20 203 -22 223 -10 22 14 22 16 22 278 0 205 -3 266
-13 274 -7 6 -94 21 -193 32 -98 12 -183 22 -187 23 -5 2 78 49 185 107 106
57 195 105 197 106 3 3 -524 992 -534 1002 -1 2 -115 -57 -251 -131 -137 -74
-277 -149 -312 -167 l-63 -34 -157 17 c-86 9 -435 48 -775 87 -340 38 -621 70
-625 70 -4 0 -15 14 -24 30 -20 35 -35 37 -89 9 -35 -17 -51 -19 -112 -13
-118 12 -112 7 -167 128 -28 61 -50 113 -50 116 0 3 81 -3 180 -14 168 -19
181 -19 197 -3 14 14 17 50 21 260 4 231 4 245 -15 264 -16 16 -64 24 -326 53
-169 19 -312 37 -318 40 -12 8 -482 1060 -476 1066 2 2 105 -7 228 -21 848
-96 1564 -177 1620 -182 101 -9 100 -13 99 288 -1 185 -5 251 -14 265 -11 15
-94 26 -567 80 -305 34 -799 90 -1099 124 -299 34 -545 62 -546 63 -1 1 -25
53 -53 116 l-50 113 32 -5 c18 -4 77 -11 132 -17 55 -6 118 -13 140 -15 22 -3
101 -12 175 -20 74 -8 275 -30 445 -50 171 -19 313 -35 317 -35 4 0 14 7 22
16 14 13 16 53 16 280 l0 264 -22 10 c-13 5 -205 30 -428 55 -223 25 -421 47
-441 49 -21 3 -165 19 -320 36 -156 17 -297 34 -313 39 -26 6 -36 20 -78 116
-26 60 -48 112 -48 115 0 3 46 1 103 -6 56 -6 127 -14 157 -18 73 -7 504 -55
555 -61 22 -3 56 -7 75 -10 19 -2 60 -7 90 -10 30 -3 149 -16 264 -29 114 -14
214 -22 221 -20 8 3 16 12 19 20 3 8 6 125 6 261 1 191 -2 249 -12 259 -15 14
-28 17 -273 44 -99 11 -198 22 -220 25 -22 2 -222 25 -445 50 -223 25 -421 47
-440 49 -19 3 -107 12 -195 22 -88 9 -165 22 -171 28 -15 16 -477 1056 -471
1062 4 4 328 -29 512 -52 22 -2 58 -7 80 -9 22 -3 60 -7 85 -10 25 -2 104 -11
175 -19 251 -28 410 -46 445 -51 19 -2 167 -18 329 -36 l293 -33 19 22 c16 21
18 47 19 270 0 195 -2 251 -13 266 -12 17 -63 25 -398 62 -433 48 -421 47
-659 74 -96 11 -317 36 -490 55 -173 20 -331 37 -350 40 -73 10 -296 35 -312
35 -9 0 -39 35 -71 83 -306 458 -892 624 -1410 398 -63 -27 -179 -102 -244
-158 -29 -24 -60 -43 -68 -41 -14 3 -15 296 -15 2685 0 2647 0 2682 20 2745
62 199 231 346 433 376 62 9 83 8 352 -24z m6324 -180 c84 -10 155 -23 157
-29 4 -9 -130 -493 -138 -500 -3 -3 -222 23 -256 30 -17 4 -21 11 -18 28 3 12
8 42 11 67 9 79 34 262 44 335 6 39 11 76 11 83 0 8 7 11 18 8 9 -2 86 -13
171 -22z m-129 -610 c63 -9 116 -17 118 -19 1 -1 -83 -302 -187 -668 -105
-367 -189 -672 -187 -679 3 -7 7 -25 10 -40 4 -15 20 -44 37 -63 l32 -36 -28
-67 c-38 -90 -89 -184 -142 -259 -24 -35 -45 -63 -47 -63 -2 0 -2 10 1 23 2
12 30 225 63 472 71 541 104 782 130 975 11 80 26 199 35 265 21 158 24 175
39 175 6 0 63 -7 126 -16z m-5675 -554 c297 -34 677 -76 845 -95 168 -19 325
-37 350 -39 25 -3 126 -15 225 -26 99 -11 360 -41 580 -65 220 -25 418 -47
440 -50 22 -2 162 -18 310 -35 447 -50 539 -60 573 -66 l32 -5 -2 -182 c-3
-155 -5 -182 -18 -180 -8 1 -199 23 -425 48 -355 39 -545 61 -710 80 -71 8
-1180 133 -1865 210 -366 41 -681 77 -700 79 -19 3 -62 8 -95 11 -33 3 -79 8
-102 11 l-43 6 0 185 0 184 33 -6 c17 -3 275 -32 572 -65z m745 -871 c344 -38
767 -85 940 -104 173 -20 329 -37 345 -39 17 -3 77 -10 135 -16 58 -6 118 -13
135 -15 16 -2 259 -30 540 -61 280 -31 513 -60 517 -63 13 -11 22 -381 10
-381 -6 0 -150 16 -319 35 -169 19 -470 52 -668 74 -198 22 -380 43 -405 46
-25 3 -124 14 -220 25 -96 11 -353 40 -570 65 -217 24 -565 64 -772 87 l-378
42 0 194 0 193 43 -6 c23 -3 323 -37 667 -76z m5073 -193 c122 -46 234 -89
248 -94 l27 -11 -35 -86 c-60 -149 -84 -263 -90 -426 l-6 -146 -75 14 c-237
45 -344 147 -438 418 l-27 80 40 68 c23 37 60 112 84 167 23 55 44 100 46 100
2 0 104 -38 226 -84z m-5113 -596 c47 -6 103 -12 125 -15 22 -3 164 -18 315
-35 151 -17 291 -32 310 -35 19 -3 177 -21 350 -40 809 -91 931 -105 1020
-115 52 -6 111 -12 130 -15 19 -2 126 -14 238 -26 l202 -22 1 -46 c0 -25 2
-53 3 -61 9 -47 15 -280 8 -280 -10 0 -439 48 -982 109 -195 23 -395 45 -445
50 -49 5 -211 24 -360 41 -313 35 -283 32 -580 65 -126 14 -243 27 -260 30
-16 2 -57 6 -90 10 -118 12 -109 1 -102 118 4 56 7 141 7 190 0 64 3 87 13 87
7 0 51 -5 97 -10z m4576 -670 c242 -391 593 -898 885 -1280 l141 -184 -22 -18
c-23 -18 -81 -38 -114 -38 -46 0 -103 43 -176 132 -263 321 -571 752 -809
1131 l-61 98 22 169 c12 93 23 169 24 167 1 -1 50 -81 110 -177z m-15783 -141
c619 -93 1128 -551 1283 -1157 22 -84 33 -158 59 -382 3 -25 14 -135 25 -245
37 -360 90 -859 95 -895 2 -19 7 -62 10 -95 6 -65 239 -2293 280 -2675 13
-129 45 -431 70 -670 25 -239 48 -453 50 -475 3 -22 19 -173 35 -335 17 -162
32 -311 35 -330 6 -47 10 -88 45 -430 17 -162 39 -378 50 -480 11 -102 31
-293 45 -425 14 -132 29 -283 35 -335 6 -52 24 -225 41 -385 16 -159 32 -308
34 -330 3 -22 12 -107 20 -190 9 -82 24 -233 35 -335 11 -102 34 -315 50 -475
32 -308 33 -317 49 -465 6 -52 15 -142 21 -200 6 -58 13 -123 15 -145 3 -22
32 -301 65 -620 33 -319 63 -598 65 -620 82 -721 81 -926 -10 -1281 -76 -298
-229 -604 -419 -840 -67 -84 -217 -235 -312 -315 -236 -200 -571 -372 -875
-449 -213 -55 -309 -65 -579 -64 -176 0 -238 5 -345 23 -957 167 -1672 886
-1842 1851 -16 95 -18 169 -18 775 0 670 11 2420 20 3315 3 261 12 1341 20
2400 14 1819 18 2425 30 3810 3 322 7 907 11 1300 6 833 10 882 84 1113 114
358 392 690 735 880 194 107 392 165 650 191 60 6 257 -3 338 -15z m13377
-230 c311 -34 567 -64 568 -65 2 -2 10 -63 18 -136 7 -73 16 -160 20 -192 l6
-59 -74 7 c-55 4 -1103 123 -1115 125 -2 1 -3 89 -3 197 0 107 3 193 8 191 4
-3 261 -33 572 -68z m2314 -68 l67 -103 -73 7 c-101 9 -111 13 -105 38 3 12 8
49 12 82 8 76 15 99 25 89 4 -5 37 -56 74 -113z m-14314 -146 c63 -13 192 -40
285 -59 94 -20 269 -56 390 -81 121 -26 348 -73 505 -105 290 -60 1836 -380
2055 -426 66 -14 208 -43 315 -65 197 -40 332 -68 548 -114 64 -13 259 -54
432 -89 173 -36 371 -77 440 -91 346 -72 1711 -355 1760 -365 25 -5 133 -27
240 -50 340 -71 773 -160 782 -160 5 0 -11 -28 -35 -62 -65 -92 -109 -185
-160 -343 -57 -176 -69 -241 -69 -385 1 -229 41 -346 245 -704 82 -142 146
-261 142 -264 -3 -3 -65 2 -138 12 -72 9 -252 33 -399 51 -147 19 -375 48
-505 65 -290 38 -426 55 -883 114 -195 25 -809 104 -1365 176 -555 72 -1062
137 -1125 145 -63 8 -290 37 -505 65 -214 27 -493 63 -620 80 -126 16 -354 45
-505 65 -151 19 -466 60 -700 90 -234 30 -483 62 -555 71 -71 9 -186 24 -255
33 l-125 17 -11 109 c-7 61 -15 137 -18 170 -4 33 -15 146 -26 250 -24 226
-51 485 -80 760 -26 251 -42 340 -86 485 -67 217 -183 422 -343 605 l-80 92
167 -34 c92 -18 219 -44 282 -58z m14338 -49 c62 -8 114 -15 116 -17 1 -2 18
-26 36 -54 19 -27 84 -121 146 -207 111 -155 112 -156 81 -153 -18 3 -68 9
-112 14 -44 6 -165 20 -270 31 -104 12 -191 23 -193 25 -4 4 36 329 44 358 6
20 6 20 152 3z m1377 -156 c55 -6 117 -13 138 -16 l37 -6 0 -189 0 -189 -27 0
c-29 0 -184 17 -240 26 -32 5 -33 6 -33 58 0 46 -24 208 -47 310 -6 28 -5 28
33 22 22 -3 84 -10 139 -16z m-4655 -1065 c19 -3 114 -13 210 -24 96 -11 234
-27 305 -35 72 -8 155 -17 185 -20 30 -4 134 -15 230 -26 96 -11 297 -34 445
-51 149 -16 346 -39 438 -49 93 -11 170 -20 172 -20 10 0 16 -88 10 -140 -6
-55 -9 -60 -38 -70 -20 -6 -55 -38 -92 -81 l-60 -71 -80 7 c-44 3 -93 8 -110
10 -59 8 -123 15 -300 35 -99 11 -317 36 -485 55 -168 19 -454 51 -637 72
l-332 37 -3 165 c-2 91 -2 179 0 194 4 31 -6 30 142 12z m-2302 -201 c108 -22
238 -73 334 -130 146 -88 304 -258 381 -409 13 -27 261 -581 550 -1230 1243
-2793 1745 -3922 1891 -4250 86 -192 153 -352 148 -356 -8 -8 -1168 -589
-1175 -589 -6 0 -34 48 -339 585 -316 556 -837 1471 -1246 2190 -178 314 -409
719 -512 900 -103 182 -325 571 -492 865 -704 1235 -654 1142 -690 1288 -31
121 -30 331 1 447 85 319 328 567 648 665 103 31 152 38 296 39 82 1 155 -5
205 -15z m4562 -79 c52 -8 173 -20 268 -27 l172 -11 0 -99 c0 -125 16 -269 41
-377 10 -46 18 -85 17 -87 -2 -1 -51 -10 -110 -20 -90 -15 -116 -16 -163 -7
-129 28 -183 74 -314 271 l-90 137 6 124 6 123 36 -6 c20 -4 79 -13 131 -21z
m740 -59 c69 -8 154 -18 190 -21 36 -4 76 -8 90 -10 14 -2 93 -11 175 -20 83
-9 202 -22 265 -30 63 -8 142 -17 175 -20 57 -6 355 -40 440 -50 22 -2 121
-14 219 -25 99 -11 181 -22 183 -23 4 -4 5 -378 1 -381 -2 -1 -232 24 -513 55
-280 32 -692 79 -915 104 -481 54 -482 54 -487 59 -9 9 -22 148 -25 264 l-3
122 40 -5 c22 -3 96 -12 165 -19z m-4015 -341 c171 -19 468 -53 660 -75 193
-22 502 -56 688 -77 l337 -38 0 -192 c0 -106 -2 -193 -5 -193 -2 0 -165 18
-362 40 -197 22 -380 42 -408 45 -27 3 -66 8 -85 10 -19 3 -156 18 -305 35
-148 16 -331 37 -405 46 -74 8 -182 21 -239 27 l-103 12 -89 199 c-49 109 -89
201 -89 204 0 2 21 2 48 -2 26 -4 187 -22 357 -41z m2568 -407 c29 -65 125
-185 209 -264 88 -82 486 -400 701 -561 314 -233 565 -392 863 -543 188 -96
295 -136 411 -154 l76 -11 -28 -34 c-37 -44 -65 -53 -161 -52 -185 1 -469 112
-854 333 -369 213 -711 462 -1030 753 -222 202 -265 273 -258 428 2 52 10 96
22 120 10 20 20 37 21 37 2 0 14 -24 28 -52z m-1158 -548 c879 -98 1251 -140
1322 -149 71 -9 71 -9 185 -103 121 -101 264 -211 390 -298 43 -29 77 -55 75
-56 -1 -1 -112 10 -247 26 -135 15 -270 30 -300 34 -30 3 -275 30 -545 61
-814 92 -1372 155 -1379 155 -3 0 -6 88 -6 195 l0 195 28 -5 c15 -3 230 -28
477 -55z m4040 -455 c127 -15 241 -28 255 -30 14 -2 40 -4 58 -4 l32 -1 0
-196 0 -197 -42 6 c-24 4 -209 25 -413 47 -203 23 -380 45 -392 50 -13 5 -23
17 -23 26 0 28 -85 199 -144 289 -31 47 -56 87 -56 89 0 1 111 -10 248 -26
136 -15 351 -39 477 -53z m-4890 -255 c99 -11 441 -50 760 -85 319 -36 595
-67 613 -70 l32 -6 0 -179 0 -180 -27 0 c-16 0 -127 12 -248 25 -121 14 -321
37 -445 51 -124 13 -299 33 -390 44 -91 10 -199 22 -240 26 -41 3 -82 10 -90
14 -8 5 -50 86 -92 182 -98 220 -94 207 -71 202 10 -2 99 -13 198 -24z m920
-889 c297 -34 563 -64 592 -67 l51 -6 -5 -192 c-3 -105 -6 -192 -7 -192 0 -1
-91 9 -201 22 -110 12 -344 39 -520 58 -361 41 -369 42 -445 51 l-55 7 -82
186 c-45 103 -85 194 -88 202 -6 18 -75 25 760 -69z m-265 -765 c63 -8 135
-17 160 -20 25 -2 438 -49 917 -103 l873 -98 0 -194 0 -193 -52 6 c-29 4 -132
15 -228 26 -96 11 -332 37 -525 59 -192 22 -494 57 -670 76 -176 20 -344 39
-373 43 l-53 7 -80 180 c-97 217 -101 225 -91 225 4 0 59 -6 122 -14z m-2360
-1336 c195 -22 398 -44 450 -50 304 -32 434 -50 442 -62 21 -33 198 -346 204
-362 6 -16 2 -17 -37 -12 -24 4 -325 38 -669 76 -683 77 -804 91 -808 94 -1 2
1 84 5 184 l6 181 26 -5 c14 -2 186 -22 381 -44z m3159 -355 c9 -2 90 -11 179
-21 l162 -17 0 -184 0 -184 -62 6 c-152 16 -282 35 -289 42 -4 4 -40 82 -79
173 -40 91 -77 173 -82 184 -10 18 -7 18 72 12 45 -4 90 -9 99 -11z m-3116
-435 c144 -16 282 -32 307 -34 25 -3 128 -15 230 -26 102 -12 319 -36 483 -55
165 -18 300 -35 302 -37 13 -14 226 -400 223 -403 -4 -4 -237 21 -933 100 -77
9 -239 27 -360 40 -121 14 -238 27 -260 30 -22 2 -83 9 -135 15 -52 6 -110 13
-127 16 l-33 5 0 189 c0 185 1 190 20 190 12 0 139 -13 283 -30z m3527 -545
c39 -257 60 -390 71 -449 8 -45 90 -218 344 -725 l333 -666 261 -289 c144
-158 261 -289 259 -291 -2 -1 -407 -205 -902 -452 l-899 -450 -239 241 -239
241 -365 728 -365 728 -45 327 c-25 180 -42 328 -37 330 4 1 409 204 898 450
710 357 891 444 897 432 3 -8 16 -78 28 -155z m635 75 c242 -27 523 -59 625
-70 102 -11 192 -22 200 -23 17 -3 -10 -18 -344 -197 l-229 -123 -153 17 -153
16 -118 123 c-265 274 -296 307 -282 307 8 0 212 -22 454 -50z m93 -496 c2 -1
-14 -12 -36 -23 l-39 -20 -12 25 c-6 14 -11 27 -11 29 0 5 92 -6 98 -11z m640
-36 c17 -17 15 -53 -5 -70 -37 -31 -549 -300 -572 -300 -28 -1 -42 18 -39 52
3 22 39 45 283 177 154 83 289 152 301 152 11 1 25 -4 32 -11z m1090 -468 c98
-11 192 -23 210 -26 l32 -5 0 -189 c0 -176 -1 -190 -18 -190 -10 0 -198 20
-417 45 -220 25 -449 51 -509 57 l-109 11 34 18 c19 10 151 81 294 158 143 77
271 140 283 141 13 0 103 -9 200 -20z m-958 -625 c124 -14 243 -27 265 -30 22
-3 301 -34 620 -70 319 -36 616 -69 660 -75 44 -5 109 -12 145 -16 36 -4 130
-14 210 -23 l145 -16 3 -193 c1 -109 -1 -192 -7 -192 -5 0 -269 29 -587 65
-846 96 -1461 164 -1524 171 -30 3 -62 7 -70 10 -10 2 -24 45 -43 136 -19 87
-41 156 -63 200 l-33 66 27 -4 c15 -2 128 -15 252 -29z m-4147 -390 c122 -14
240 -28 262 -30 22 -3 70 -8 108 -12 37 -3 67 -9 67 -12 0 -3 -69 -43 -153
-89 -149 -81 -212 -127 -272 -205 l-30 -37 -90 10 c-49 5 -105 12 -122 15
l-33 6 0 189 c0 186 0 190 21 190 11 0 121 -11 242 -25z m3977 -701 l0 -136
-27 5 c-16 3 -108 13 -205 23 -98 10 -178 21 -178 24 0 5 390 218 403 219 4 1
7 -60 7 -135z m-2189 -488 c114 -116 205 -212 204 -214 -2 -2 -114 9 -249 24
l-246 28 0 65 c0 36 3 123 7 194 l6 127 36 -6 c30 -5 68 -39 242 -218z m1749
-7 c294 -33 675 -75 845 -95 171 -19 338 -37 373 -41 l62 -6 0 -194 0 -194
-42 6 c-24 3 -187 21 -363 40 -176 20 -333 37 -350 40 -16 2 -55 7 -85 10
-100 10 -1124 125 -1160 130 -19 3 -133 16 -254 29 -120 14 -220 26 -221 28
-2 2 128 74 289 160 267 144 294 157 331 152 22 -2 281 -32 575 -65z m-16730
-1766 c1 -290 3 -328 31 -501 106 -648 478 -1220 1029 -1582 120 -78 363 -198
500 -245 388 -134 801 -167 1190 -94 934 176 1660 879 1860 1804 48 218 66
554 41 745 -6 41 -11 88 -11 103 l0 28 478 -3 477 -3 84 -29 c177 -62 308
-177 391 -344 15 -31 135 -421 265 -867 130 -445 248 -838 261 -874 14 -35 21
-68 17 -72 -5 -4 -370 -214 -813 -467 -443 -253 -1708 -975 -2813 -1606
l-2007 -1146 -975 0 -975 0 0 2385 c0 2680 -6 2462 77 2635 38 79 59 108 132
180 95 94 197 156 306 183 87 22 103 24 288 26 l167 1 0 -257z m11392 -67 c65
-9 169 -23 230 -31 62 -8 286 -37 498 -64 212 -28 439 -57 505 -65 66 -9 206
-27 310 -40 105 -14 314 -41 465 -60 401 -52 511 -66 545 -71 17 -2 85 -11
150 -19 316 -40 753 -97 780 -101 17 -2 190 -24 385 -49 195 -25 375 -48 400
-52 25 -3 56 -7 70 -9 14 -2 291 -38 615 -80 708 -91 619 -79 850 -109 231
-31 525 -69 740 -96 88 -11 176 -22 195 -25 61 -8 260 -34 425 -55 88 -11 176
-23 195 -25 139 -19 693 -91 920 -119 367 -47 818 -105 855 -111 57 -8 421
-55 665 -85 135 -17 256 -33 270 -35 14 -2 376 -49 805 -105 429 -55 866 -111
970 -125 105 -14 278 -36 385 -50 107 -13 629 -81 1160 -149 531 -69 1053
-136 1160 -150 107 -14 490 -63 850 -110 360 -47 799 -104 975 -126 176 -22
352 -45 390 -50 350 -46 1911 -248 2275 -294 151 -20 415 -54 585 -76 171 -22
450 -58 620 -80 286 -36 499 -64 585 -75 276 -36 1303 -169 1700 -220 582 -75
594 -78 654 -162 43 -61 54 -97 55 -173 1 -75 -28 -148 -75 -192 -16 -14
-1086 -630 -2379 -1369 -1292 -738 -3551 -2028 -5020 -2867 -5092 -2909 -4659
-2664 -4895 -2760 -431 -174 -963 -259 -1405 -223 -118 9 -380 39 -490 56 -17
2 -156 20 -310 40 -154 19 -294 37 -311 40 -17 2 -89 12 -160 20 -71 9 -140
18 -154 20 -14 2 -185 24 -380 49 -195 25 -386 50 -425 56 -62 8 -232 30 -365
46 -25 3 -108 14 -185 24 -77 11 -196 26 -265 35 -69 8 -138 17 -155 20 -16 2
-208 27 -425 55 -217 28 -447 57 -510 66 -63 8 -203 26 -310 39 -107 14 -208
27 -225 30 -28 4 -223 29 -855 110 -151 20 -345 44 -430 56 -85 11 -222 28
-305 39 -82 11 -202 26 -265 34 -63 9 -205 27 -315 41 -110 14 -214 27 -231
30 -17 2 -154 20 -305 39 -151 20 -501 65 -779 101 -278 36 -611 79 -740 96
-129 16 -302 39 -385 49 -82 11 -292 38 -465 60 -173 23 -346 45 -385 50 -38
5 -403 52 -810 105 -407 52 -825 106 -930 120 -104 14 -435 56 -735 95 -300
38 -612 79 -695 90 -82 11 -240 31 -350 45 -301 39 -1051 135 -1245 161 -63 8
-203 26 -310 40 -107 13 -208 26 -225 29 -16 2 -208 27 -425 54 -217 28 -444
58 -505 66 -60 8 -200 26 -310 40 -289 37 -573 74 -705 91 -130 17 -193 25
-690 89 -195 25 -368 47 -385 50 -16 2 -208 27 -425 54 -390 50 -439 56 -655
86 -60 8 -236 31 -390 50 -154 20 -293 37 -310 40 -16 2 -174 22 -350 45 -176
23 -507 66 -735 95 -228 30 -523 68 -655 85 -132 17 -307 39 -390 50 -82 11
-307 40 -500 65 -192 25 -363 48 -380 51 -119 25 -204 136 -205 264 0 81 31
153 86 199 22 18 383 229 804 470 421 240 1562 892 2535 1448 974 555 3304
1887 5180 2958 1876 1071 3467 1976 3536 2011 355 179 749 288 1179 328 104 9
550 -3 662 -18z"/>
<path d="M29981 33461 c-18 -18 -19 -38 -20 -274 -1 -285 -2 -280 66 -291 21
-3 240 -29 488 -57 l450 -50 17 22 c16 19 18 48 18 274 0 217 -2 256 -16 269
-8 9 -21 16 -29 16 -7 0 -111 11 -231 25 -121 14 -320 37 -444 50 -124 14
-237 27 -253 30 -18 3 -34 -2 -46 -14z m244 -105 c66 -8 143 -17 172 -20 325
-36 497 -57 502 -61 4 -5 2 -378 -2 -381 -2 -1 -817 93 -834 96 -2 0 -3 86 -3
190 l0 190 23 0 c12 0 76 -6 142 -14z"/>
<path d="M29971 32722 c-7 -14 -11 -108 -11 -275 0 -211 3 -257 15 -267 12
-10 344 -51 932 -115 94 -10 93 -14 90 293 -2 208 -5 254 -17 266 -13 12 -275
46 -725 92 -33 4 -69 8 -80 10 -11 2 -59 7 -106 11 -81 5 -88 4 -98 -15z m513
-127 c220 -25 403 -45 407 -45 5 0 9 -88 9 -195 l0 -194 -27 4 c-16 3 -136 16
-268 31 -132 14 -251 27 -265 29 -14 2 -70 9 -125 15 -55 5 -113 13 -130 15
l-30 5 2 162 c2 90 3 175 3 191 0 15 6 27 13 27 7 0 192 -20 411 -45z"/>
<path d="M31668 32553 c-9 -2 -19 -10 -22 -18 -3 -8 -6 -129 -7 -270 -1 -213
1 -259 13 -271 10 -11 136 -29 449 -64 239 -27 441 -50 449 -50 8 0 -61 -40
-155 -89 -371 -192 -681 -397 -990 -656 -141 -118 -302 -267 -387 -358 l-68
-72 0 161 c0 129 -3 164 -14 174 -9 7 -207 33 -476 63 -454 51 -462 52 -476
33 -11 -16 -14 -71 -14 -277 0 -221 2 -258 16 -270 13 -11 372 -57 654 -84
121 -12 120 -7 33 -115 -69 -86 -79 -95 -107 -92 -17 1 -152 16 -299 32 -194
22 -274 27 -288 20 -18 -10 -19 -24 -19 -279 0 -203 3 -271 13 -279 12 -9 43
-14 190 -28 37 -4 66 -10 65 -13 -2 -4 -27 -50 -56 -102 l-54 -96 -69 5 c-101
7 -99 11 -99 -184 l0 -164 -44 -103 c-351 -823 -492 -1756 -401 -2657 36 -355
118 -742 232 -1095 53 -165 155 -434 207 -545 22 -47 23 -56 11 -70 -18 -20
-26 -512 -9 -530 9 -9 273 -48 335 -50 9 0 111 -161 106 -166 -3 -3 -360 35
-363 39 -3 5 -87 162 -244 455 -94 177 -175 322 -179 322 -4 0 -174 -89 -377
-198 -203 -110 -381 -205 -396 -213 l-27 -14 92 -170 c339 -632 447 -830 454
-828 4 1 138 72 298 157 159 85 290 154 292 153 1 -2 3 -49 4 -105 1 -75 5
-107 16 -117 8 -8 15 -15 16 -16 1 0 209 -24 462 -53 l460 -52 165 -165 c165
-165 325 -308 465 -416 l75 -58 0 -126 c0 -96 3 -129 14 -138 7 -6 114 -23
237 -37 l224 -25 132 -75 c354 -201 769 -375 1173 -492 l135 -40 5 -165 c3
-112 9 -170 17 -178 10 -10 246 -41 633 -82 30 -4 174 -20 320 -37 146 -16
524 -59 840 -94 316 -36 737 -83 935 -106 198 -22 461 -52 585 -66 124 -13
302 -33 395 -44 94 -11 193 -22 220 -25 28 -3 289 -33 580 -66 1065 -120 1864
-210 2035 -229 96 -11 274 -31 395 -45 121 -13 459 -52 750 -84 292 -33 730
-83 974 -111 479 -54 511 -56 529 -38 18 18 17 531 -1 546 -17 15 -26 16 -397
57 -179 19 -341 37 -360 40 -19 2 -57 7 -85 10 -27 3 -126 14 -220 25 -366 41
-432 49 -485 54 -30 4 -134 15 -230 26 -96 11 -312 36 -480 55 -168 19 -447
50 -620 70 -173 20 -378 42 -455 50 -77 9 -156 17 -175 20 -19 3 -156 18 -305
35 -148 17 -288 32 -310 35 -22 3 -103 12 -180 20 -77 8 -194 22 -260 29 -66
8 -147 18 -180 21 -59 6 -361 40 -440 50 -48 6 -511 58 -1070 120 -225 25
-421 48 -435 51 -17 4 29 19 145 49 94 23 217 57 273 75 83 26 114 31 155 26
29 -3 291 -32 582 -65 292 -33 692 -78 890 -101 198 -22 914 -103 1590 -179
1101 -125 1232 -138 1253 -125 22 14 22 16 22 272 0 191 -3 262 -12 275 -11
13 -102 26 -503 71 -269 31 -611 69 -760 86 -148 17 -409 46 -580 65 -170 19
-366 41 -435 49 -69 8 -152 18 -185 21 -33 4 -247 28 -475 54 l-414 47 49 28
c28 16 104 64 170 107 l120 77 200 -23 c110 -13 389 -45 619 -71 l419 -47 19
22 c16 21 18 45 18 272 0 288 2 282 -91 292 -30 3 -165 18 -302 33 -136 16
-246 30 -245 33 2 4 39 41 84 83 l80 78 80 -10 c43 -5 282 -32 529 -60 248
-27 468 -52 490 -55 79 -9 403 -46 530 -60 134 -15 1079 -121 1150 -130 22 -2
63 -7 90 -10 28 -3 68 -7 90 -10 22 -3 60 -7 85 -10 25 -2 304 -34 620 -70
316 -36 589 -65 606 -65 17 0 36 6 42 13 16 19 21 532 6 547 -6 6 -65 18 -130
25 -66 8 -681 77 -1369 155 -687 77 -1268 142 -1290 145 -22 2 -161 18 -310
35 -148 16 -326 37 -395 45 -69 8 -174 20 -235 26 -60 6 -115 14 -121 18 -8 4
14 42 58 103 63 88 72 97 96 92 15 -2 189 -22 387 -44 198 -22 378 -42 400
-45 22 -3 180 -20 350 -39 841 -95 1402 -158 1510 -171 66 -7 149 -17 185 -20
36 -4 76 -8 90 -10 14 -2 131 -16 260 -30 256 -28 261 -29 400 -46 136 -16
129 -32 130 285 0 229 -1 254 -17 268 -12 11 -54 20 -118 27 -55 6 -118 14
-140 16 -59 7 -945 107 -1460 165 -726 81 -1068 120 -1105 124 -19 3 -141 16
-270 31 -272 30 -290 32 -296 38 -3 3 16 48 43 101 36 73 52 96 67 96 19 0
785 -85 1026 -114 88 -10 121 -11 140 -2 l25 11 3 266 c2 215 0 268 -11 278
-12 9 -287 43 -782 96 -82 9 -160 18 -171 21 -22 4 -22 4 11 106 31 101 32
103 61 101 28 -3 1067 -118 1149 -128 22 -3 101 -11 175 -20 74 -8 211 -24
304 -35 169 -20 197 -18 209 13 3 8 6 127 6 264 1 227 0 251 -16 265 -16 15
-69 24 -248 43 -27 3 -129 14 -225 25 -96 11 -317 36 -490 55 -173 19 -328 37
-345 39 -16 3 -115 14 -220 26 -104 12 -190 22 -191 23 -1 1 6 47 16 102 12
76 20 101 33 103 9 2 78 -4 154 -13 76 -9 176 -20 223 -25 47 -5 102 -12 122
-15 68 -9 68 -7 68 289 0 203 -3 266 -13 274 -12 10 -72 19 -247 38 -36 4
-110 12 -165 18 l-100 11 -3 108 -3 107 26 0 c15 0 56 -4 93 -10 37 -5 130
-16 207 -24 77 -8 259 -29 405 -45 146 -17 288 -33 315 -36 28 -3 427 -49 889
-101 789 -89 840 -94 857 -78 18 16 19 36 19 275 0 221 -2 260 -16 273 -8 9
-21 16 -27 16 -7 0 -91 9 -187 20 -96 12 -474 54 -840 95 -366 41 -802 91
-970 110 -168 19 -415 47 -550 61 -135 15 -247 29 -249 31 -4 3 -30 174 -31
202 0 18 -146 33 1765 -183 1026 -116 1072 -121 1089 -107 14 12 16 46 16 277
0 263 0 264 -22 277 -14 9 -105 23 -223 35 -185 20 -368 41 -1215 137 -173 20
-378 42 -455 50 -77 9 -156 17 -175 20 -41 6 -461 53 -540 61 -30 3 -66 7 -79
9 -13 2 -78 10 -145 16 -66 7 -127 15 -135 19 -7 4 -28 55 -46 114 -28 91 -30
106 -16 106 9 0 70 -6 136 -14 66 -8 145 -17 175 -21 30 -3 154 -17 275 -31
366 -41 340 -40 359 -13 14 21 16 56 16 272 -1 223 -3 250 -19 266 -14 14 -61
22 -232 40 -118 13 -223 25 -234 27 -11 1 -65 8 -120 14 -55 6 -120 13 -145
16 -184 20 -463 54 -465 56 -3 3 -105 220 -105 222 0 2 134 -12 765 -84 297
-33 680 -76 850 -95 171 -20 326 -37 345 -40 170 -21 283 -28 298 -18 15 9 17
39 20 275 2 216 0 267 -11 277 -8 6 -52 16 -98 21 -46 6 -102 12 -124 15 -22
3 -164 18 -315 35 -151 17 -291 32 -310 35 -33 5 -374 43 -890 101 -124 13
-299 33 -390 44 -91 10 -192 22 -225 25 -255 27 -298 35 -310 52 -7 10 -45 61
-84 113 -46 62 -66 96 -57 98 8 2 74 -4 147 -12 74 -8 215 -24 314 -35 99 -12
380 -43 625 -71 245 -28 645 -73 890 -100 245 -28 463 -52 485 -55 22 -2 162
-18 310 -35 149 -16 308 -34 355 -40 707 -82 793 -90 812 -73 17 15 18 37 18
278 0 198 -3 265 -12 272 -15 12 2 10 -563 73 -247 27 -468 52 -490 55 -96 11
-495 56 -545 61 -30 3 -86 9 -125 14 -38 5 -194 23 -345 40 -292 33 -688 77
-755 85 -22 3 -182 21 -355 40 -173 20 -552 62 -842 95 -290 33 -532 60 -537
60 -5 0 -52 38 -105 84 -52 45 -118 100 -145 121 -28 22 -49 40 -47 42 1 2
423 -44 937 -102 771 -87 1249 -141 1599 -180 25 -3 79 -9 119 -14 110 -14
111 -13 111 122 0 62 3 177 6 257 6 132 5 147 -12 167 -19 23 -36 26 -324 58
-147 16 -346 38 -670 75 -195 22 -652 74 -1015 115 -363 41 -799 90 -970 109
-170 20 -373 42 -450 51 -77 8 -156 17 -175 19 -19 3 -107 12 -195 22 -154 17
-166 20 -320 79 -927 361 -1881 466 -2840 314 -87 -14 -148 -19 -185 -15 -30
4 -113 13 -185 21 -136 15 -731 82 -800 90 -44 5 -249 28 -660 74 -308 34
-451 51 -480 55 -11 2 -27 1 -37 -1z m287 -123 c132 -16 909 -104 1292 -147
183 -20 332 -38 330 -39 -1 -2 -88 -28 -192 -58 -204 -59 -353 -110 -535 -183
l-115 -47 -300 33 c-394 43 -632 70 -672 77 l-33 5 0 191 0 191 68 -6 c37 -4
108 -11 157 -17z m3405 -544 c358 -39 692 -110 1010 -212 150 -48 398 -141
447 -168 l28 -15 -30 4 c-16 3 -156 19 -310 35 -154 17 -293 32 -310 35 -16 2
-55 7 -85 10 -51 5 -649 73 -1595 179 -220 25 -429 48 -465 52 -93 10 -115 19
-59 27 24 4 104 15 177 26 73 11 163 23 200 26 37 4 108 10 157 15 144 13 671
4 835 -14z m2835 -161 c800 -90 1238 -139 1330 -150 22 -3 202 -23 400 -45
635 -71 889 -100 928 -106 l37 -6 0 -189 0 -189 -26 0 c-14 0 -80 6 -147 14
-67 8 -147 17 -177 21 -30 3 -273 31 -540 61 -267 30 -624 70 -795 89 -170 19
-470 53 -665 75 -195 22 -382 43 -415 46 -55 6 -72 14 -205 104 -191 127 -355
227 -515 312 -92 49 -120 67 -95 63 19 -3 418 -48 885 -100z m-4190 -9 c116
-14 242 -28 280 -31 39 -3 81 -8 95 -10 14 -3 106 -14 205 -25 781 -88 1427
-161 1465 -165 25 -3 277 -32 560 -64 l515 -59 100 -54 c116 -63 335 -197 335
-205 0 -3 -24 -3 -52 1 -1151 129 -1669 191 -1793 215 -256 49 -537 81 -730
81 -76 0 -866 81 -1115 114 -169 23 -279 29 -294 17 -13 -11 -16 -39 -16 -170
l0 -157 -97 -33 c-567 -191 -1123 -519 -1558 -920 l-100 -92 -73 7 c-98 8
-102 4 -102 -103 l0 -85 -63 -72 c-200 -224 -395 -504 -549 -786 -37 -69 -68
-119 -68 -112 0 6 -1 96 -1 200 0 103 -3 199 -6 214 -7 34 -31 42 -191 59
-111 11 -112 12 -99 33 7 11 35 56 62 100 l48 78 79 -7 c56 -4 83 -3 94 5 11
10 14 41 14 141 l0 129 99 123 c396 493 901 914 1463 1223 318 174 604 291
1028 423 80 25 165 23 465 -13z m-26 -310 c167 -19 305 -36 307 -38 2 -2 -36
-10 -84 -17 -160 -24 -413 -79 -535 -117 -17 -5 -18 2 -13 98 2 57 5 104 5
106 1 4 2 3 320 -32z m1021 -116 c102 -11 203 -22 225 -25 22 -2 123 -14 225
-25 341 -39 405 -48 510 -75 331 -84 716 -241 1048 -429 101 -57 129 -78 95
-70 -10 2 -180 22 -378 44 -755 85 -1684 190 -1780 201 -80 9 -111 18 -160 45
-151 83 -348 106 -525 63 l-86 -21 -240 26 c-303 33 -284 29 -284 71 0 33 1
34 68 55 237 72 656 138 967 153 28 1 68 3 90 4 22 2 123 -6 225 -17z m1560
-176 c40 -5 189 -21 575 -64 430 -48 607 -70 619 -77 51 -30 329 -257 449
-369 55 -50 65 -64 48 -64 -12 0 -221 23 -466 50 l-445 51 -98 63 c-213 139
-470 273 -722 376 l-125 51 65 -6 c36 -3 81 -8 100 -11z m-3000 -69 c0 -70 15
-81 135 -91 50 -4 92 -8 95 -9 3 -1 59 -7 125 -14 l120 -13 -58 -59 c-135
-138 -172 -340 -89 -493 69 -127 266 -201 250 -94 -2 16 -18 30 -59 49 -101
49 -147 132 -136 252 2 34 14 84 26 110 26 61 109 149 175 186 l51 29 305 -34
c168 -18 316 -39 329 -46 12 -7 58 -50 101 -95 137 -144 214 -338 240 -597 10
-107 8 -245 -7 -320 -5 -27 -6 -28 -57 -22 -28 3 -132 15 -231 26 -99 11 -360
41 -580 65 -705 80 -1109 125 -1150 130 -22 2 -161 18 -310 35 -148 17 -288
32 -310 35 -22 3 -119 14 -215 24 -96 11 -222 25 -280 32 l-104 12 59 54 c175
159 481 384 690 508 135 80 353 191 495 251 119 51 362 142 383 143 4 1 7 -24
7 -54z m-3123 -35 c197 -22 372 -43 390 -45 l32 -6 -5 -182 c-3 -100 -9 -186
-13 -190 -4 -4 -180 11 -389 35 l-382 43 0 192 c0 106 2 193 5 193 3 0 166
-18 362 -40z m8293 -140 c47 -6 265 -30 485 -55 220 -25 418 -47 440 -50 22
-3 281 -32 575 -65 294 -33 576 -65 625 -71 50 -5 349 -39 665 -75 316 -35
775 -87 1020 -115 244 -27 444 -51 445 -52 0 -1 -1 -88 -3 -193 l-4 -190 -101
12 c-56 6 -127 14 -157 18 -30 3 -316 35 -635 71 -689 78 -748 84 -800 90
-101 12 -1025 116 -1150 130 -184 20 -361 40 -570 65 -93 10 -255 29 -359 40
-105 11 -191 22 -191 23 -15 23 -188 212 -279 305 -66 67 -114 122 -106 122 8
0 53 -5 100 -10z m-3565 -80 c81 -10 236 -27 700 -80 143 -16 526 -59 850 -96
l590 -66 98 -72 c146 -105 153 -109 175 -97 46 24 35 64 -30 111 -34 25 -37
30 -19 30 43 0 827 -90 848 -97 12 -5 67 -57 122 -118 74 -82 96 -111 83 -113
-10 -2 -258 24 -552 57 -294 34 -584 66 -644 73 -95 10 -112 15 -130 36 -37
42 -141 111 -208 136 -87 33 -213 50 -309 42 -299 -25 -563 -269 -790 -729
l-54 -109 -65 5 c-89 7 -520 56 -546 62 -21 5 -21 8 -16 173 3 105 0 202 -7
253 -30 211 -102 396 -208 536 l-63 83 48 -6 c26 -3 83 -9 127 -14z m1789
-366 c49 -13 156 -58 156 -67 0 -1 -24 0 -53 1 -89 6 -87 12 -87 -284 0 -241
1 -255 20 -274 12 -12 34 -20 58 -21 20 0 57 -4 81 -7 l45 -7 -33 -37 c-18
-21 -64 -53 -103 -73 -61 -30 -80 -35 -141 -35 -39 0 -97 5 -128 12 -52 11
-60 10 -78 -6 -19 -17 -32 -17 -353 19 -183 20 -335 39 -338 41 -2 3 22 55 54
117 260 503 558 708 900 621z m-6646 -195 c116 -12 212 -27 212 -32 0 -5 -13
-26 -29 -46 -15 -20 -68 -96 -116 -170 l-89 -134 -70 7 c-39 3 -92 9 -118 12
l-48 7 0 194 0 195 23 -5 c12 -3 118 -16 235 -28z m6914 -1 c52 -59 57 -282 9
-357 -7 -10 -24 -11 -82 -5 l-74 9 -3 193 -2 193 67 -7 c50 -4 73 -11 85 -26z
m265 -13 c76 -8 154 -17 173 -20 19 -3 175 -20 345 -40 603 -67 690 -77 695
-84 121 -156 293 -401 286 -408 -3 -4 -633 65 -661 72 -11 3 -47 40 -80 82
-79 100 -313 343 -331 343 -23 0 -54 -38 -47 -57 4 -10 46 -59 93 -109 95
-100 210 -231 210 -240 0 -3 -14 -3 -32 0 -17 2 -202 24 -412 47 -210 23 -384
45 -388 48 -4 3 0 31 8 61 19 71 19 211 0 273 -8 26 -10 47 -6 47 4 0 70 -7
147 -15z m-5387 -189 c80 -8 316 -34 455 -51 66 -7 145 -17 175 -20 140 -15
523 -58 800 -90 168 -19 595 -67 950 -106 355 -40 649 -76 654 -80 13 -11 -16
-129 -57 -239 l-32 -85 -140 -7 c-130 -7 -220 -2 -455 27 -19 2 -57 7 -85 10
-27 3 -126 14 -220 25 -366 41 -432 49 -485 54 -30 4 -134 15 -230 26 -96 11
-375 43 -620 70 -245 28 -461 52 -480 54 -19 3 -164 19 -322 37 l-288 33 0
125 0 125 60 61 60 61 103 -12 c56 -6 127 -14 157 -18z m7465 -46 c94 -11 190
-22 215 -24 114 -12 509 -57 540 -61 31 -4 954 -109 1325 -150 77 -8 155 -18
172 -21 l33 -5 -6 -187 c-3 -103 -9 -188 -14 -190 -8 -3 -128 10 -415 43 -119
14 -1149 130 -1380 155 -148 17 -307 35 -353 41 l-83 11 -42 75 c-23 41 -79
132 -124 204 -72 114 -79 129 -60 129 12 0 99 -9 192 -20z m-7912 -380 c12 -5
186 -28 387 -50 374 -42 1850 -208 2385 -268 l59 -7 -89 -34 c-50 -18 -136
-57 -193 -86 l-103 -52 -256 28 c-239 27 -257 28 -275 13 -16 -16 -18 -37 -18
-244 0 -186 -3 -229 -14 -233 -8 -3 -51 -52 -96 -109 -46 -57 -88 -109 -95
-116 -10 -11 -28 -5 -98 31 -152 78 -304 116 -475 119 -75 1 -96 -3 -145 -25
-139 -63 -211 -184 -169 -281 28 -63 71 -86 142 -76 87 13 222 11 302 -4 70
-14 204 -61 213 -75 2 -4 -25 -53 -61 -110 -156 -246 -309 -539 -434 -830 -48
-113 -168 -434 -194 -517 -7 -22 -7 -22 -91 12 -124 51 -226 74 -356 81 -115
6 -118 5 -182 -24 -173 -82 -234 -228 -136 -326 l39 -39 62 8 c100 14 265 8
343 -11 39 -10 102 -32 141 -50 l71 -32 -20 -82 c-17 -70 -22 -81 -41 -81 -11
0 -97 9 -191 20 -439 50 -423 49 -441 26 -18 -25 -20 -514 -2 -539 11 -15 59
-23 273 -47 143 -16 263 -30 267 -30 4 0 5 -6 3 -12 -7 -19 -42 -299 -59 -468
-36 -347 -51 -663 -51 -1050 0 -252 3 -264 71 -316 27 -21 50 -29 94 -32 54
-4 67 0 165 47 117 55 269 152 377 238 38 30 71 53 72 51 2 -1 23 -117 48
-256 50 -277 60 -302 131 -342 47 -27 122 -28 169 -4 37 19 111 72 176 128 24
20 47 36 50 36 4 -1 24 -16 45 -35 l38 -33 -1 -211 c-1 -199 0 -211 20 -231
11 -11 26 -20 34 -20 8 0 72 -7 143 -15 157 -18 1129 -128 1733 -195 245 -28
463 -52 485 -55 96 -11 495 -56 545 -61 30 -3 87 -9 125 -14 39 -5 174 -21
300 -35 127 -14 234 -27 239 -28 10 -3 -163 -89 -309 -152 l-110 -48 -1355
152 c-745 84 -1490 168 -1655 187 -165 18 -322 36 -350 39 -27 3 -286 32 -575
65 -289 32 -554 62 -590 66 -86 9 -108 19 -225 106 -330 245 -649 554 -913
884 l-105 132 2 274 c2 231 0 276 -12 287 -12 9 -303 50 -364 51 -7 0 -42 59
-78 132 -63 127 -74 154 -57 145 4 -3 118 -17 254 -32 279 -31 278 -31 278 39
0 39 3 35 88 -115 218 -382 421 -649 726 -955 298 -298 586 -518 939 -717 121
-68 155 -78 177 -53 29 36 8 57 -125 134 -763 436 -1351 1056 -1731 1826 l-74
148 0 114 c0 124 0 125 -65 134 l-39 5 -38 105 c-20 58 -37 108 -37 111 -1 4
30 4 67 1 51 -3 71 -1 79 10 9 10 13 91 14 273 1 248 0 260 -19 275 -14 11
-61 21 -151 30 -149 14 -132 0 -151 127 -17 119 -18 116 38 109 234 -29 264
-30 278 -11 11 15 14 74 14 272 0 230 -2 253 -17 261 -10 6 -94 18 -186 28
l-168 18 5 51 c3 27 5 79 6 115 0 36 4 71 8 77 6 10 27 11 88 3 43 -5 111 -12
149 -16 39 -3 74 -8 78 -11 4 -3 19 3 32 11 l25 16 0 264 c0 205 -3 266 -13
274 -7 6 -71 18 -142 27 -71 9 -130 17 -131 18 -2 2 47 200 51 205 1 2 41 -2
89 -8 136 -17 126 -38 126 278 0 179 -4 272 -11 279 -8 8 6 47 48 140 128 278
342 623 545 877 l103 129 3 -112 c2 -105 4 -112 25 -121z m-793 200 c0 -11 -7
-20 -15 -20 -18 0 -19 12 -3 28 16 16 18 15 18 -8z m6595 -65 c66 -8 170 -19
230 -25 61 -6 119 -12 131 -14 11 -2 115 -14 230 -27 201 -22 210 -24 233 -50
32 -36 150 -203 147 -207 -3 -2 -71 5 -496 53 -118 14 -235 27 -260 30 -84 8
-325 36 -445 50 -66 8 -126 15 -134 15 -8 0 5 13 30 28 24 16 71 58 104 95 69
76 58 73 230 52z m-1877 -100 c119 -14 224 -25 232 -25 37 -1 41 -15 19 -65
-12 -27 -43 -108 -68 -180 l-46 -130 -45 3 c-25 2 -88 17 -141 33 -106 33
-281 69 -334 69 -18 0 -37 4 -40 10 -3 5 7 47 23 92 16 46 37 116 47 156 l18
74 59 -6 c33 -4 157 -18 276 -31z m3077 -36 c296 -31 404 -45 409 -50 10 -11
127 -221 124 -223 -1 -2 -131 12 -288 30 -157 18 -297 33 -312 33 -22 1 -39
19 -105 113 -43 62 -80 117 -82 121 -2 5 12 6 30 3 19 -3 120 -15 224 -27z
m-2424 -38 c140 -16 700 -80 1244 -141 545 -61 999 -113 1010 -115 13 -3 41
-42 79 -107 95 -165 104 -178 129 -178 29 0 47 18 47 45 0 11 -27 66 -59 123
-33 56 -58 102 -57 102 13 0 481 -52 542 -61 l82 -11 51 -108 c50 -106 131
-294 128 -296 -1 0 -72 7 -157 17 -85 10 -477 54 -870 99 -393 44 -834 94
-980 110 -933 106 -1592 180 -1600 180 -10 0 45 162 100 293 17 42 37 77 44
77 7 0 127 -13 267 -29z m-6171 -121 c-6 -11 -12 -20 -14 -20 -2 0 -2 9 1 20
3 11 9 20 15 20 5 0 4 -9 -2 -20z m635 -50 c50 -6 105 -13 123 -16 l32 -5 0
-189 c0 -145 -3 -190 -12 -190 -38 -1 -414 44 -421 50 -8 7 140 316 165 348
12 14 3 14 113 2z m9668 -296 l517 -58 0 -194 0 -194 -37 6 c-21 3 -222 26
-448 51 -225 25 -415 47 -420 49 -6 2 -19 30 -29 62 -10 33 -45 123 -77 202
-44 110 -54 142 -41 138 9 -2 250 -31 535 -62z m-4238 -4 c445 -51 1539 -174
1825 -205 173 -20 329 -37 345 -39 17 -3 77 -10 135 -16 58 -6 118 -13 133
-15 15 -2 218 -24 450 -50 232 -26 431 -50 442 -54 14 -6 29 -37 53 -110 19
-57 32 -105 29 -107 -2 -3 -204 18 -448 45 -244 28 -725 82 -1069 121 -709 80
-789 89 -845 95 -22 3 -182 21 -355 40 -173 19 -331 37 -350 39 -19 3 -89 11
-155 17 l-119 13 -79 73 c-43 39 -115 97 -160 128 -74 50 -79 55 -47 50 19 -3
116 -14 215 -25z m-2167 -69 c7 -1 -22 -29 -65 -63 -43 -34 -115 -97 -160
-141 -81 -78 -85 -80 -85 -32 0 8 0 73 1 143 l1 128 148 -17 c81 -10 153 -18
160 -18z m-3418 -95 c31 -6 182 -23 275 -32 39 -3 72 -8 74 -10 5 -4 -57 -153
-69 -167 -6 -7 -517 46 -524 54 -2 2 12 42 32 88 l35 84 76 -7 c42 -3 87 -8
101 -10z m5995 -196 c284 -31 806 -90 850 -95 75 -9 1110 -125 1380 -155 149
-17 324 -37 390 -45 66 -7 143 -16 170 -19 28 -3 96 -11 152 -17 l101 -12 32
-119 c39 -148 65 -267 59 -272 -2 -2 -139 11 -304 30 -165 18 -320 36 -345 38
-364 41 -510 57 -535 60 -16 3 -57 7 -90 11 -33 3 -73 8 -90 10 -41 5 -949
108 -1404 158 l-374 42 -61 120 c-66 128 -102 188 -147 246 -16 20 -29 40 -29
43 0 4 15 5 33 2 17 -3 113 -15 212 -26z m-5758 -114 c2 -2 -118 -358 -123
-365 -3 -3 -236 17 -274 24 -8 2 -66 8 -127 15 -62 7 -113 16 -113 19 0 4 18
63 39 131 34 106 48 150 75 225 3 7 90 1 262 -18 143 -17 260 -31 261 -31z
m3792 -96 c282 -38 551 -96 645 -139 34 -15 90 -31 124 -34 128 -14 581 -180
877 -321 167 -80 364 -190 382 -213 13 -16 91 -328 123 -492 25 -129 67 -420
75 -521 4 -41 10 -118 15 -170 13 -150 4 -782 -14 -955 -85 -806 -271 -1524
-621 -2392 -132 -327 -136 -333 -201 -333 -34 0 -112 77 -202 198 -381 513
-590 1300 -722 2712 -11 118 -22 238 -25 265 -4 44 -37 454 -51 640 -2 39 -9
120 -14 180 -5 61 -15 173 -21 250 -6 77 -15 147 -20 157 -6 11 -21 18 -39 18
-33 0 -24 15 -300 -520 -243 -471 -291 -563 -433 -825 -601 -1113 -1059 -1719
-1560 -2069 -107 -74 -319 -186 -354 -186 -12 0 -36 12 -53 26 l-31 27 2 296
c2 163 6 352 10 421 4 69 10 170 14 225 3 55 15 190 26 299 75 747 228 1396
470 1999 75 187 252 549 349 717 136 233 405 627 468 683 22 20 216 62 354 76
152 16 549 5 727 -19z m-3719 -155 l0 -145 -47 7 c-27 3 -49 7 -50 8 -4 2 88
275 93 275 2 0 4 -65 4 -145z m9550 -70 c124 -14 241 -27 260 -30 72 -8 1059
-119 1675 -189 l640 -71 3 -194 2 -194 -52 6 c-284 31 -700 78 -728 82 -50 7
-345 40 -710 80 -173 20 -331 37 -350 40 -19 3 -177 21 -350 40 -173 20 -381
43 -461 52 l-146 16 -38 176 c-21 97 -40 186 -43 199 -4 21 -2 22 34 17 22 -2
140 -16 264 -30z m-3568 -80 c123 -14 241 -27 263 -30 22 -3 164 -18 315 -35
151 -17 291 -32 310 -35 35 -5 470 -54 890 -101 124 -13 302 -33 395 -44 94
-11 190 -22 215 -25 178 -19 411 -46 441 -51 l37 -5 16 -106 c9 -58 15 -107
14 -108 -2 -2 -77 5 -168 16 -378 42 -547 61 -970 109 -462 52 -1298 146
-1385 155 -27 3 -82 10 -122 15 -40 5 -79 7 -88 3 -26 -9 -35 -47 -35 -140 l0
-85 -31 6 c-17 3 -73 6 -123 6 l-91 0 -28 99 c-16 54 -34 104 -42 112 -7 8
-21 48 -30 89 -10 41 -26 99 -36 128 l-18 52 24 0 c13 0 124 -11 247 -25z
m-6457 -35 c99 -11 196 -23 216 -26 l36 -5 -24 -102 c-13 -56 -25 -103 -27
-104 -3 -3 -386 39 -473 53 -39 6 -39 7 -11 124 l21 91 41 -6 c23 -3 122 -14
221 -25z m-20 -311 c110 -12 200 -22 201 -23 1 0 -9 -64 -22 -141 -12 -77 -25
-161 -29 -187 -7 -57 13 -55 -245 -25 l-185 22 -3 194 -2 193 42 -6 c24 -3
133 -15 243 -27z m6930 -18 c94 -11 195 -22 225 -26 30 -3 271 -30 535 -60
264 -30 543 -61 620 -70 189 -20 369 -41 615 -70 113 -13 262 -29 332 -36
l128 -13 5 -30 c10 -64 15 -120 21 -236 l7 -120 -25 0 c-23 0 -452 46 -513 55
-16 2 -55 7 -85 10 -30 3 -291 32 -580 65 -289 33 -657 74 -819 92 l-293 33
-25 49 c-14 27 -45 70 -70 97 -46 49 -115 84 -245 125 l-58 18 0 71 0 72 28
-4 c15 -1 104 -12 197 -22z m-6447 -37 l32 -6 0 -184 c0 -118 -4 -185 -11
-189 -19 -12 -251 18 -256 32 -5 13 15 168 38 302 l12 64 76 -7 c42 -4 91 -9
109 -12z m9552 -314 c58 -6 121 -13 140 -15 42 -6 2429 -275 2436 -275 2 0 4
-88 4 -195 l0 -194 -27 5 c-16 2 -248 29 -518 60 -1610 180 -2157 242 -2160
246 -1 2 -5 55 -9 118 -3 63 -9 150 -12 193 l-7 78 24 -5 c13 -3 71 -10 129
-16z m-10147 -101 c131 -14 240 -28 242 -31 2 -2 1 -59 -2 -126 -6 -121 -6
-122 -30 -122 -26 0 -461 49 -477 53 -9 3 -9 129 -1 173 2 10 4 36 4 57 1 28
4 36 14 30 6 -4 119 -19 250 -34z m6767 -40 c74 -24 186 -78 247 -120 44 -31
78 -31 136 -2 30 15 67 67 67 96 0 15 6 17 33 13 17 -3 156 -19 307 -36 291
-32 691 -77 750 -84 19 -3 300 -34 625 -71 372 -42 593 -71 598 -78 7 -11 4
-194 -4 -202 -2 -2 -60 3 -129 11 -138 16 -1302 148 -1720 194 -146 17 -402
46 -570 65 -168 19 -317 35 -332 35 -57 0 -58 -7 -58 -290 0 -258 0 -260 23
-273 12 -8 109 -24 227 -36 164 -18 587 -66 945 -106 28 -3 109 -12 180 -20
72 -8 290 -33 485 -55 195 -22 476 -54 625 -71 148 -17 271 -32 273 -34 6 -5
-21 -183 -29 -197 -5 -8 -58 -5 -206 11 -109 13 -254 29 -323 36 -102 11 -555
62 -700 79 -335 39 -350 40 -366 25 -22 -23 -32 -514 -11 -543 15 -21 -10 -17
652 -91 220 -24 436 -49 480 -54 44 -6 132 -15 195 -22 63 -7 119 -15 124 -20
4 -4 -6 -50 -24 -103 -30 -92 -33 -96 -61 -96 -24 0 -354 35 -604 65 -22 2
-123 14 -225 25 -102 11 -239 27 -305 35 -66 7 -142 16 -170 19 -27 3 -129 14
-225 25 -96 11 -260 30 -365 42 l-190 21 -44 44 c-52 52 -196 112 -334 140
l-87 17 7 106 c12 162 9 668 -6 836 -15 185 -44 404 -75 571 l-23 127 71 -6
c39 -4 100 -16 136 -28z m-2140 -494 c11 -143 23 -289 25 -325 101 -1328 214
-2068 401 -2633 l46 -137 -73 -118 c-108 -176 -268 -422 -307 -469 -35 -45
-70 -55 -113 -33 -49 27 -175 276 -244 483 -80 242 -132 531 -155 862 -12 167
-11 784 1 970 17 265 20 314 29 425 16 188 20 225 43 460 l23 225 150 289 c82
159 150 283 151 275 2 -8 12 -131 23 -274z m2685 160 c270 -30 531 -60 580
-65 50 -6 108 -13 130 -15 190 -22 1061 -120 1259 -142 l248 -28 -6 -85 c-8
-101 -26 -294 -29 -296 -2 -1 -402 44 -1652 185 -291 33 -641 73 -777 88
l-247 27 -3 76 c-3 76 1 310 6 310 1 0 222 -25 491 -55z m-7270 14 c104 -11
190 -21 191 -22 1 -1 4 -84 6 -185 l5 -183 -36 5 c-20 3 -101 12 -181 21 -80
8 -164 18 -187 21 l-43 5 0 184 0 185 28 -5 c15 -3 112 -14 217 -26z m405 -45
c41 -4 82 -8 90 -10 8 -1 28 -3 44 -3 l28 -1 -3 -185 c-2 -102 -6 -185 -9
-185 -3 0 -59 7 -125 15 -65 8 -120 15 -121 15 -7 0 -14 74 -20 214 l-6 159
23 -6 c13 -3 58 -9 99 -13z m9750 -294 c96 -11 194 -23 218 -26 l42 -6 0 -189
0 -189 -27 0 c-42 0 -443 47 -448 52 -3 2 0 42 5 89 13 118 19 197 20 247 0
23 3 42 8 42 4 0 86 -9 182 -20z m-10188 -119 c131 -15 239 -29 242 -32 2 -2
9 -42 15 -89 6 -47 14 -96 17 -109 5 -23 4 -24 -58 -18 -35 3 -146 16 -247 27
-102 12 -193 19 -203 17 -13 -4 -18 1 -19 16 0 12 -2 31 -4 42 -2 11 -7 55
-11 98 -6 71 -5 77 12 76 11 0 126 -12 256 -28z m4149 -503 c-19 -207 -32
-378 -46 -606 -5 -79 -13 -112 -55 -220 -324 -849 -698 -1428 -1109 -1717 -88
-61 -142 -57 -169 12 -8 22 -67 340 -96 523 -3 20 17 46 112 145 401 416 768
964 1254 1875 57 107 108 204 112 215 17 42 17 -11 -3 -227z m-4056 171 c105
-11 193 -24 196 -27 3 -4 16 -55 28 -114 12 -60 33 -146 45 -194 l23 -85 -36
5 c-20 3 -142 17 -271 32 -132 15 -238 32 -242 38 -4 6 -8 94 -8 194 l0 184
38 -6 c20 -3 123 -15 227 -27z m493 -248 l2 -193 -45 5 c-26 2 -50 8 -54 13
-14 16 -91 332 -91 374 0 14 10 15 93 6 l92 -11 3 -194z m7557 135 c116 -14
237 -27 270 -31 529 -59 997 -113 1001 -117 5 -5 -82 -358 -91 -366 -4 -5
-108 6 -740 78 -192 22 -421 47 -507 57 l-158 17 0 193 c0 106 3 193 8 193 4
0 102 -11 217 -24z m-6396 -74 c135 -15 246 -32 248 -37 1 -6 -12 -89 -31
-185 -29 -157 -35 -175 -54 -178 -20 -3 -371 33 -424 44 l-28 6 0 189 0 189
23 -1 c12 0 132 -12 266 -27z m8526 -168 c570 -63 1199 -134 1243 -140 l42 -6
0 -195 c0 -180 -1 -194 -17 -189 -17 4 -57 9 -173 21 -30 3 -71 8 -90 10 -19
2 -156 18 -305 35 -148 16 -308 34 -355 40 -47 5 -206 23 -355 40 -342 38
-340 38 -400 46 l-50 6 42 166 c23 92 42 177 42 189 1 19 5 22 29 18 15 -3
171 -21 347 -41z m-10122 -133 c143 -16 260 -31 262 -33 1 -2 18 -52 38 -112
l37 -109 -63 6 c-139 14 -499 56 -502 59 -4 7 -55 195 -55 206 0 15 -17 16
283 -17z m118 -327 l257 -28 41 -98 c39 -93 41 -103 41 -199 l0 -101 -42 6
c-24 3 -126 15 -228 26 -102 11 -195 23 -207 25 -25 6 -41 38 -113 230 -70
189 -68 179 -34 173 16 -3 144 -19 285 -34z m7244 -24 c149 -16 450 -50 670
-75 220 -25 524 -59 675 -75 151 -17 287 -34 302 -38 l28 -7 -59 -135 c-32
-74 -68 -155 -80 -180 l-23 -46 -287 32 c-323 37 -1429 161 -1506 169 -27 3
-66 8 -85 10 -19 2 -98 11 -175 20 -195 22 -400 47 -402 49 -4 3 37 239 42
244 19 20 256 -74 350 -138 39 -27 54 -31 86 -27 86 11 135 81 126 179 l-5 59
36 -5 c21 -4 159 -20 307 -36z m2659 -300 c242 -27 440 -51 441 -52 1 -2 0
-87 -3 -190 -5 -183 -5 -188 -26 -188 -11 0 -158 16 -326 35 -168 19 -398 45
-513 57 -114 13 -206 26 -205 29 2 4 35 86 73 182 65 163 72 176 95 177 14 0
223 -22 464 -50z m-2989 -144 c127 -15 250 -29 275 -31 25 -3 142 -16 260 -30
118 -13 440 -50 715 -80 275 -31 510 -58 523 -61 23 -5 22 -6 -29 -104 -29
-55 -56 -100 -61 -100 -8 0 -339 37 -893 100 -192 21 -600 67 -905 101 -305
35 -556 63 -557 63 -1 1 7 49 19 107 l21 105 201 -22 c110 -13 305 -34 431
-48z m-555 -251 c238 -27 406 -46 625 -70 121 -14 238 -27 260 -30 22 -3 301
-34 620 -70 673 -75 679 -76 683 -79 1 -2 -50 -83 -115 -180 l-118 -178 -50 6
c-27 3 -270 30 -540 61 -635 72 -729 82 -795 89 -30 4 -131 15 -225 26 -93 10
-261 29 -372 42 -112 12 -203 26 -203 30 0 8 54 227 81 331 5 20 13 37 17 37
4 0 63 -7 132 -15z m-6685 -399 l28 -49 -89 8 c-49 4 -92 9 -96 12 -5 2 -8 79
-8 171 l0 167 68 -130 c38 -71 81 -152 97 -179z m558 255 c43 -5 81 -11 83
-14 2 -2 3 -82 2 -178 l-3 -174 -91 145 c-50 80 -104 167 -119 193 l-27 48 38
-6 c22 -3 74 -9 117 -14z m8947 -175 c52 -6 640 -71 725 -81 91 -11 1123 -127
1420 -160 176 -19 336 -37 355 -40 19 -3 177 -21 350 -40 173 -19 336 -38 363
-41 l47 -7 0 -193 0 -194 -22 5 c-13 3 -88 12 -168 20 -80 8 -262 28 -405 45
-143 16 -282 32 -310 35 -68 7 -480 54 -530 60 -22 3 -299 34 -615 70 -316 35
-773 87 -1015 114 -242 28 -457 51 -478 53 -20 1 -37 3 -37 4 0 1 29 48 65
105 36 57 84 139 107 181 38 69 46 77 68 74 14 -3 50 -7 80 -10z m-2618 -186
c243 -28 719 -82 1056 -120 338 -37 616 -71 618 -73 3 -2 -30 -48 -72 -101
-73 -90 -80 -96 -108 -91 -17 2 -76 9 -131 15 -55 6 -118 13 -140 15 -22 3
-119 14 -215 25 -96 10 -317 35 -490 55 -673 76 -620 72 -636 50 -11 -15 -14
-72 -14 -277 0 -298 -7 -281 110 -292 150 -15 958 -107 990 -112 l35 -6 -45
-39 c-25 -22 -68 -58 -97 -80 l-51 -40 -314 36 c-172 19 -513 58 -758 85 -548
62 -510 57 -517 63 -3 3 16 61 42 129 70 182 149 411 211 608 68 217 62 200
73 200 5 0 209 -23 453 -50z m-6785 -306 l171 -18 90 -120 c50 -67 124 -161
165 -211 42 -49 74 -91 73 -92 -1 -1 -60 5 -131 13 -72 9 -240 28 -375 43
l-245 27 -3 105 -3 105 51 28 50 27 -31 61 c-31 60 -31 61 -7 55 13 -3 100
-13 195 -23z m7513 -89 c382 -43 699 -82 704 -86 5 -4 -66 -83 -156 -175
l-166 -168 -518 58 c-286 33 -543 61 -571 64 l-53 4 0 196 0 195 33 -6 c17 -2
345 -40 727 -82z m1945 -220 c319 -36 780 -88 1025 -115 245 -28 463 -52 485
-55 96 -11 495 -56 545 -61 30 -3 87 -9 125 -14 39 -5 275 -32 525 -60 250
-28 465 -53 478 -55 22 -5 22 -7 22 -195 0 -120 -4 -190 -10 -190 -9 0 -1101
122 -1695 190 -143 16 -503 57 -800 90 -297 33 -634 72 -750 85 -115 13 -358
41 -540 60 -181 20 -336 38 -343 41 -8 2 22 42 75 102 49 54 115 133 148 175
58 74 61 77 95 72 19 -3 296 -35 615 -70z m-4316 -64 c28 -63 50 -115 48 -117
-4 -4 -226 21 -231 27 -2 2 26 50 61 107 36 57 67 102 68 100 2 -2 26 -54 54
-117z m-1729 -148 c244 -120 515 -143 801 -67 55 14 101 25 103 23 2 -2 20
-35 41 -74 54 -98 97 -161 126 -183 59 -46 143 -51 207 -12 19 12 66 71 118
150 79 118 89 129 113 125 14 -2 94 -11 176 -20 115 -13 153 -20 163 -33 7 -9
39 -57 71 -107 33 -49 98 -136 145 -192 48 -58 80 -103 72 -103 -8 0 -315 34
-683 75 -367 42 -726 82 -798 90 -71 8 -268 30 -438 49 -169 20 -314 36 -322
36 -13 0 -15 24 -15 151 0 83 3 149 8 147 4 -2 54 -27 112 -55z m2745 -178
c77 -9 156 -17 175 -20 19 -2 260 -29 535 -60 275 -31 527 -60 560 -63 l60 -7
-110 -77 c-60 -42 -175 -116 -254 -164 l-144 -87 -426 48 c-234 26 -511 57
-615 69 -178 20 -187 22 -162 36 40 21 58 50 121 200 32 74 59 138 62 142 2 4
16 5 31 3 15 -3 90 -12 167 -20z m2305 -260 c124 -14 251 -28 283 -32 l57 -6
0 -194 0 -193 -37 5 c-21 3 -200 23 -398 45 -428 48 -429 48 -525 60 -41 5
-81 10 -88 10 -7 0 31 33 85 74 110 83 281 225 302 250 11 13 24 15 55 11 23
-3 142 -17 266 -30z m-5970 -155 c551 -62 703 -79 755 -85 22 -3 101 -11 175
-20 132 -14 764 -86 1110 -125 381 -44 1158 -131 1393 -157 136 -15 247 -30
247 -33 0 -19 -435 -139 -665 -184 -360 -69 -439 -74 -720 -41 -234 27 -567
65 -615 70 -25 2 -126 14 -225 25 -99 11 -342 39 -540 61 -387 43 -395 45
-625 134 -247 96 -599 271 -780 387 l-45 29 40 -5 c22 -3 245 -29 495 -56z
m-914 -277 c-6 -6 -152 9 -164 16 -9 5 -16 61 -13 98 1 6 41 -16 91 -50 49
-33 88 -62 86 -64z m5839 -278 c378 -44 1448 -164 1725 -195 513 -57 1325
-149 1368 -155 l42 -6 0 -190 0 -189 -32 0 c-18 0 -86 7 -153 15 -145 18
-1994 227 -3010 340 -176 19 -333 37 -350 39 -16 3 -77 10 -135 16 -58 6 -118
13 -135 15 -16 2 -81 10 -143 16 -62 7 -109 15 -105 19 4 4 68 31 141 60 74
30 216 95 315 145 113 57 195 92 217 93 19 1 134 -10 255 -23z m-3492 -92 c-7
-2 -21 -2 -30 0 -10 3 -4 5 12 5 17 0 24 -2 18 -5z m85 -10 c-10 -2 -28 -2
-40 0 -13 2 -5 4 17 4 22 1 32 -1 23 -4z m90 -10 c-10 -2 -28 -2 -40 0 -13 2
-5 4 17 4 22 1 32 -1 23 -4z m90 -10 c-10 -2 -26 -2 -35 0 -10 3 -2 5 17 5 19
0 27 -2 18 -5z m-533 -422 c359 -63 595 -81 985 -76 272 3 495 18 667 45 53 9
187 -4 995 -95 513 -58 953 -107 978 -110 25 -3 162 -19 305 -35 308 -35 310
-35 540 -60 99 -11 214 -24 255 -29 41 -6 102 -13 135 -16 33 -3 76 -8 95 -10
34 -5 319 -37 1725 -195 391 -44 829 -94 975 -110 146 -17 326 -37 400 -45 74
-8 151 -17 170 -19 19 -2 123 -14 230 -26 107 -11 205 -23 218 -26 22 -4 22
-5 22 -194 0 -163 -2 -190 -15 -190 -13 0 -749 81 -861 95 -23 3 -322 37 -665
75 -343 38 -644 72 -669 75 -210 24 -443 51 -710 80 -173 20 -328 37 -345 40
-16 2 -156 18 -310 35 -154 16 -314 34 -355 40 -41 5 -97 11 -125 14 -27 3
-192 21 -365 41 -173 19 -340 37 -370 41 -30 3 -68 7 -85 10 -45 6 -450 52
-525 59 -36 4 -76 8 -90 10 -14 2 -90 11 -170 20 -80 8 -199 22 -265 30 -66 7
-145 17 -175 20 -30 3 -271 30 -535 60 -264 30 -682 77 -930 105 -718 81
-1067 120 -1105 125 -19 2 -108 12 -197 21 l-163 18 0 121 0 122 83 -19 c45
-10 159 -31 252 -47z"/>
<path d="M29978 31939 c-16 -9 -18 -33 -18 -280 l0 -269 23 -10 c12 -5 126
-21 252 -35 127 -14 246 -27 265 -30 19 -2 129 -14 244 -27 l208 -22 18 22
c17 20 18 45 17 276 -1 158 -6 259 -12 265 -13 13 -31 15 -260 41 -99 11 -297
33 -440 50 -298 34 -275 32 -297 19z m532 -143 l375 -42 3 -192 c2 -150 0
-192 -10 -192 -12 0 -217 23 -620 70 -98 11 -185 20 -193 20 -13 0 -15 28 -15
195 l0 195 43 -6 c23 -3 211 -24 417 -48z"/>
<path d="M21620 31311 c-6 -12 -10 -118 -10 -275 0 -254 0 -256 23 -269 13 -9
108 -23 232 -36 116 -13 224 -25 240 -27 17 -2 251 -29 520 -59 557 -63 859
-97 1679 -190 318 -36 582 -65 587 -65 4 0 15 7 23 16 14 13 16 53 16 280 l0
264 -22 10 c-13 5 -124 21 -248 35 -124 13 -486 54 -805 90 -319 36 -719 81
-890 100 -170 20 -328 37 -350 40 -338 40 -932 105 -955 105 -19 0 -33 -7 -40
-19z m318 -106 c120 -13 359 -40 532 -60 173 -19 333 -37 355 -40 32 -4 729
-82 1200 -135 50 -6 108 -13 130 -15 22 -3 101 -12 175 -20 74 -8 214 -24 310
-35 96 -11 180 -20 187 -20 9 0 10 -48 7 -192 -3 -106 -6 -193 -7 -194 -1 -1
-54 5 -117 12 -63 7 -277 31 -475 53 -198 23 -378 43 -400 46 -86 10 -1994
225 -2057 231 -57 6 -68 10 -68 25 0 11 -1 96 -1 189 0 94 1 172 1 175 0 7
-15 8 228 -20z"/>
<path d="M24943 25378 c-6 -7 -13 -127 -17 -270 -7 -250 -6 -258 14 -278 11
-11 27 -20 36 -20 14 0 763 -83 859 -95 22 -3 139 -16 260 -29 295 -33 491
-55 540 -61 22 -3 261 -30 530 -60 270 -30 508 -57 530 -60 58 -7 113 -13 270
-30 77 -8 157 -18 177 -21 29 -4 41 -1 57 15 20 20 21 31 21 274 0 229 -2 255
-17 270 -13 11 -73 22 -203 36 -102 12 -203 24 -225 26 -22 3 -321 36 -665 75
-344 38 -645 72 -670 75 -159 19 -443 51 -750 85 -195 22 -434 49 -530 60
-208 23 -205 23 -217 8z m427 -129 c151 -16 453 -50 670 -75 217 -24 514 -58
660 -74 326 -37 993 -112 1232 -140 98 -11 180 -20 183 -20 3 0 5 -88 5 -195
l0 -195 -22 5 c-13 3 -223 27 -468 55 -636 71 -1248 139 -1295 145 -89 11
-408 47 -530 60 -71 8 -251 28 -400 45 -148 17 -296 33 -327 37 l-58 6 0 194
0 195 38 -6 c20 -3 161 -20 312 -37z"/>
<path d="M28480 24431 c-37 -7 -373 -182 -445 -232 -24 -16 -52 -49 -69 -79
-25 -45 -28 -60 -24 -118 3 -66 8 -76 282 -587 153 -286 290 -536 305 -555 43
-53 102 -80 180 -80 65 0 69 2 286 118 238 127 271 155 296 245 21 78 5 118
-229 554 -120 224 -245 457 -277 517 -32 60 -72 124 -88 143 -53 60 -139 90
-217 74z"/>
<path d="M29947 23225 c-15 -15 -17 -45 -17 -274 0 -233 2 -259 18 -273 11
-10 58 -20 132 -27 63 -7 210 -23 325 -37 116 -13 230 -26 255 -28 25 -3 88
-10 140 -17 136 -16 130 -31 130 281 0 221 -2 250 -18 269 -15 18 -59 25 -432
66 -228 26 -438 49 -466 52 -39 4 -54 2 -67 -12z m338 -115 c164 -18 365 -41
485 -55 19 -2 41 -4 48 -5 9 0 12 -46 12 -196 l0 -196 -27 6 c-29 6 -242 30
-353 41 -36 4 -76 8 -90 10 -14 2 -92 11 -175 21 -82 9 -151 17 -153 19 -2 2
-4 240 -2 364 0 21 3 23 33 18 17 -4 118 -15 222 -27z"/>
<path d="M29939 22429 c-18 -18 -19 -36 -19 -272 0 -187 3 -258 13 -270 10
-14 91 -26 457 -67 245 -27 459 -50 477 -50 22 0 36 6 43 19 16 30 14 526 -2
539 -7 5 -26 12 -43 16 -26 5 -457 55 -755 86 -52 6 -108 12 -123 15 -19 2
-35 -3 -48 -16z m256 -104 c77 -8 219 -24 315 -35 96 -12 205 -24 243 -27 l67
-6 0 -193 0 -194 -22 0 c-13 0 -50 4 -83 9 -33 5 -85 12 -115 15 -113 11 -506
56 -542 62 l-38 6 0 189 c0 173 1 189 18 189 9 0 80 -7 157 -15z"/>
<path d="M29987 21665 c-15 -14 -17 -48 -17 -279 0 -199 3 -266 13 -274 14
-11 2 -10 467 -62 195 -22 372 -42 392 -45 29 -4 42 -1 58 15 19 19 20 33 20
274 0 209 -3 257 -15 269 -17 18 -19 18 -460 67 -198 22 -378 42 -401 46 -31
4 -45 2 -57 -11z m831 -175 c1 0 2 -85 2 -190 l0 -190 -24 0 c-13 0 -100 9
-193 19 -92 11 -195 23 -228 26 -33 4 -114 13 -180 20 -66 8 -123 15 -127 15
-5 0 -8 87 -8 193 l0 193 378 -43 c207 -23 378 -43 380 -43z"/>
<path d="M29970 20873 c-19 -13 -20 -27 -20 -277 0 -219 2 -266 15 -276 13
-11 49 -17 210 -34 28 -3 188 -21 357 -41 378 -43 385 -43 398 -9 16 40 13
506 -3 528 -11 15 -67 24 -358 56 -189 22 -397 45 -462 53 -100 11 -121 11
-137 0z m417 -129 c175 -19 347 -39 383 -42 l65 -7 3 -192 c2 -140 -1 -193 -9
-193 -22 0 -734 80 -761 86 l-28 6 0 189 c0 159 2 189 15 189 8 0 157 -16 332
-36z"/>
<path d="M36952 20808 c-14 -14 -17 -524 -3 -547 6 -9 60 -19 167 -32 88 -10
182 -21 209 -24 28 -3 327 -37 665 -75 338 -38 755 -85 925 -104 171 -20 373
-42 450 -51 77 -8 158 -18 180 -20 42 -5 1524 -172 2220 -251 220 -24 477 -53
570 -64 557 -64 666 -74 683 -64 15 10 17 38 20 276 2 226 0 267 -13 278 -15
13 -77 21 -695 89 -201 23 -383 43 -405 46 -22 3 -101 12 -175 20 -74 8 -295
33 -490 55 -195 22 -652 74 -1015 115 -363 41 -799 90 -970 109 -170 20 -373
42 -450 51 -179 20 -185 20 -400 45 -624 71 -1421 160 -1439 160 -12 0 -27 -5
-34 -12z m313 -113 c72 -9 288 -33 480 -55 702 -78 2964 -334 3060 -345 63 -7
1162 -131 1675 -189 l465 -52 3 -192 c2 -150 0 -192 -10 -192 -13 0 -733 80
-1123 125 -187 22 -1083 123 -1330 150 -170 19 -470 53 -665 75 -195 22 -654
74 -1020 115 -1038 117 -1267 143 -1525 173 l-240 27 -3 180 c-1 98 0 186 3
193 4 11 17 13 53 8 26 -3 106 -13 177 -21z"/>
<path d="M31606 20608 c-14 -19 -16 -62 -16 -274 0 -291 -4 -278 100 -289 36
-3 81 -8 100 -10 19 -3 139 -16 265 -30 127 -14 246 -28 265 -30 19 -3 357
-41 750 -85 393 -44 852 -96 1020 -115 168 -19 447 -51 620 -70 173 -19 333
-37 355 -40 90 -11 1042 -118 1330 -150 171 -19 470 -53 665 -75 195 -22 654
-74 1020 -115 841 -95 1117 -126 1945 -220 950 -107 881 -101 899 -86 14 12
16 50 16 277 0 263 0 264 -22 277 -20 12 -687 92 -1438 172 -112 13 -605 68
-705 80 -78 9 -1298 147 -3015 340 -366 42 -802 91 -970 110 -168 19 -588 66
-935 104 -346 39 -666 75 -710 81 -100 12 -67 8 -710 80 -297 33 -556 62 -575
65 -235 30 -235 30 -254 3z m549 -133 c226 -24 430 -47 455 -50 25 -3 164 -19
310 -35 146 -17 283 -32 305 -35 22 -3 121 -14 220 -25 99 -11 198 -22 220
-25 22 -3 222 -25 445 -50 223 -25 423 -47 445 -50 51 -6 877 -99 1460 -165
248 -27 468 -52 490 -55 22 -2 123 -14 225 -25 102 -12 322 -37 490 -56 367
-41 800 -90 1280 -144 195 -22 632 -71 970 -110 338 -38 785 -88 992 -112
l377 -42 3 -193 c2 -106 3 -193 2 -193 0 0 -140 16 -310 35 -170 19 -451 50
-624 69 -173 20 -333 38 -355 41 -22 3 -319 36 -660 74 -341 39 -759 86 -930
105 -170 20 -373 42 -450 51 -77 8 -158 18 -180 20 -137 16 -2462 278 -3275
369 -173 20 -333 38 -355 41 -22 2 -179 20 -350 39 -436 49 -1538 174 -1607
182 l-58 7 0 193 0 194 28 -5 c15 -3 212 -25 437 -50z"/>
<path d="M29936 20034 c-14 -13 -16 -52 -16 -270 0 -254 0 -254 23 -264 12 -5
228 -33 480 -61 427 -48 460 -50 475 -35 15 14 17 50 20 260 3 283 4 280 -86
290 -28 3 -175 20 -325 36 -149 17 -326 37 -392 45 -149 19 -160 19 -179 -1z
m473 -129 c217 -25 398 -45 403 -45 4 0 8 -83 8 -185 l0 -186 -32 6 c-42 7
-740 85 -763 85 -16 0 -17 16 -14 185 2 102 4 185 4 185 0 0 177 -20 394 -45z"/>
<path d="M33535 19606 c-19 -14 -20 -28 -23 -269 -2 -230 0 -257 15 -276 17
-19 72 -27 728 -101 391 -44 852 -95 1025 -115 254 -29 784 -88 1075 -120 28
-3 66 -8 85 -10 47 -6 321 -37 745 -85 606 -68 960 -108 1285 -145 173 -20
378 -42 455 -50 77 -9 156 -17 175 -20 41 -6 460 -53 540 -61 30 -3 66 -7 80
-9 14 -2 93 -11 175 -20 83 -9 202 -22 265 -30 63 -8 142 -17 175 -20 33 -3
114 -12 180 -20 66 -8 300 -35 520 -59 919 -104 1655 -187 1728 -196 43 -5
118 -13 167 -16 81 -6 89 -5 99 13 16 32 15 514 -2 537 -11 16 -60 23 -318 52
-167 18 -322 36 -344 38 -39 6 -453 52 -895 102 -124 13 -301 33 -395 44 -93
11 -192 22 -220 25 -27 3 -288 33 -580 66 -565 64 -1774 200 -1990 224 -657
74 -1207 136 -1240 140 -22 3 -139 16 -260 30 -509 56 -1563 175 -1600 180
-22 2 -60 7 -85 10 -134 15 -519 58 -760 85 -317 35 -687 77 -745 85 -27 4
-47 1 -60 -9z m835 -176 c601 -68 848 -96 1730 -195 223 -25 423 -47 445 -50
90 -11 408 -47 530 -60 214 -23 767 -85 805 -90 50 -7 345 -40 710 -80 173
-20 331 -37 350 -40 19 -3 175 -21 345 -40 171 -19 470 -52 665 -74 195 -23
396 -45 445 -50 73 -8 323 -36 670 -76 22 -2 144 -16 270 -30 127 -14 246 -27
265 -30 27 -4 902 -103 1245 -141 106 -11 95 12 95 -204 0 -147 -3 -190 -13
-190 -7 0 -48 4 -92 9 -44 5 -105 12 -135 16 -30 3 -293 33 -585 66 -291 32
-651 73 -800 89 -148 17 -324 37 -390 45 -66 7 -142 16 -170 19 -182 20 -1062
119 -1160 131 -66 7 -145 16 -175 20 -30 3 -273 30 -540 61 -267 30 -804 90
-1195 134 -390 44 -829 94 -975 110 -146 17 -384 44 -530 60 -146 16 -445 50
-665 75 -220 25 -719 81 -1110 125 -390 44 -729 83 -752 86 l-43 6 0 192 0
192 68 -8 c37 -4 348 -39 692 -78z"/>
<path d="M11435 31609 c-172 -13 -382 -79 -533 -168 -84 -49 -109 -79 -92
-110 17 -33 52 -26 147 29 190 109 354 153 573 154 218 1 355 -31 543 -126
259 -132 449 -340 557 -612 35 -85 39 -91 68 -94 68 -7 62 58 -21 223 -67 134
-126 215 -241 331 -274 275 -618 403 -1001 373z"/>
<path d="M11375 31256 c-218 -42 -414 -160 -551 -330 -249 -311 -271 -748 -55
-1079 177 -270 454 -418 781 -418 244 0 448 84 633 260 273 260 355 663 208
1018 -58 141 -170 285 -294 379 -75 57 -215 125 -317 154 -96 28 -303 36 -405
16z"/>
<path d="M12653 29942 c-6 -4 -34 -53 -63 -109 -28 -56 -77 -137 -109 -180
-78 -105 -214 -232 -316 -294 -84 -52 -101 -71 -89 -103 10 -26 48 -29 90 -8
143 74 324 242 426 397 69 104 128 222 128 255 0 35 -39 60 -67 42z"/>
<path d="M11805 19946 c-434 -68 -825 -357 -1015 -751 -95 -196 -129 -338
-137 -560 -6 -188 9 -307 58 -462 228 -713 979 -1116 1694 -908 494 144 853
532 966 1045 31 138 33 398 6 530 -61 290 -180 513 -382 716 -208 209 -457
339 -744 388 -112 19 -329 20 -446 2z"/>
<path d="M13680 19115 c-14 -17 -15 -12 40 -169 76 -211 106 -460 89 -711 -8
-100 -7 -112 10 -129 13 -12 26 -16 40 -11 42 13 46 37 45 280 0 210 -3 241
-27 358 -26 124 -85 314 -113 369 -17 32 -63 39 -84 13z"/>
<path d="M13658 17698 c-9 -7 -37 -49 -64 -93 -78 -132 -151 -224 -273 -345
-142 -140 -263 -228 -441 -319 -258 -131 -517 -194 -800 -194 -85 1 -195 6
-243 12 -119 16 -296 62 -404 106 -171 70 -172 70 -191 59 -9 -6 -18 -23 -20
-37 -3 -21 4 -31 30 -47 90 -55 356 -140 538 -171 84 -15 419 -18 520 -6 551
68 1055 392 1355 872 69 111 76 132 45 157 -26 21 -31 22 -52 6z"/>
<path d="M21590 29614 c-30 -8 -93 -33 -140 -56 -69 -33 -102 -58 -170 -127
-140 -141 -204 -290 -204 -481 0 -122 10 -150 54 -150 16 0 32 4 35 10 3 5 7
67 9 137 2 99 8 141 24 186 48 131 120 226 229 301 66 45 187 95 229 96 37 0
82 21 87 40 3 10 -2 28 -10 39 -17 25 -61 27 -143 5z"/>
<path d="M21704 29339 c-117 -15 -246 -107 -297 -212 -119 -244 22 -519 293
-569 116 -22 254 23 339 111 151 155 157 382 14 542 -91 100 -216 146 -349
128z"/>
<path d="M21386 28428 c-20 -28 -5 -54 50 -86 117 -67 315 -98 452 -69 103 22
127 36 127 71 0 45 -22 52 -103 33 -140 -34 -288 -18 -418 43 -74 36 -88 37
-108 8z"/>
<path d="M24818 22594 c-259 -129 -448 -230 -452 -240 -8 -20 19 -64 39 -64
27 0 894 439 903 457 13 24 -1 59 -25 65 -12 3 -188 -79 -465 -218z"/>
<path d="M25625 21037 c-241 -122 -444 -230 -450 -239 -7 -13 -7 -23 1 -35 29
-46 24 -48 492 188 423 213 447 227 450 254 4 28 -18 56 -42 54 -6 0 -209
-100 -451 -222z"/>
<path d="M20865 17803 c-402 -21 -824 -132 -1178 -309 -73 -37 -2223 -1248
-3122 -1759 -394 -224 -1575 -891 -1654 -934 -113 -62 -164 -109 -201 -185
-62 -125 -41 -269 53 -372 85 -94 96 -96 577 -159 234 -30 457 -59 495 -65 39
-5 124 -17 190 -25 66 -8 242 -30 390 -50 149 -19 410 -53 580 -75 171 -23
326 -43 345 -45 19 -3 208 -28 420 -55 212 -28 504 -66 650 -85 146 -19 407
-53 580 -75 173 -22 347 -45 385 -50 39 -5 142 -18 230 -30 88 -11 230 -30
315 -41 85 -11 220 -29 300 -39 137 -18 223 -29 770 -100 124 -16 293 -38 375
-49 83 -11 256 -34 385 -51 129 -16 321 -41 425 -55 105 -13 555 -72 1000
-129 833 -108 974 -127 1155 -151 58 -8 231 -31 385 -50 154 -20 327 -42 385
-50 58 -8 195 -26 305 -40 110 -14 214 -27 230 -30 17 -2 345 -45 730 -95 385
-50 714 -92 730 -95 17 -2 156 -20 310 -40 154 -20 431 -56 615 -80 184 -25
479 -63 655 -85 176 -23 401 -52 500 -65 99 -14 270 -36 380 -50 110 -14 214
-27 230 -30 44 -6 316 -41 495 -64 551 -71 1095 -142 1155 -151 39 -5 124 -17
190 -25 124 -15 567 -72 620 -80 37 -5 511 -67 725 -94 247 -32 702 -91 735
-96 17 -2 120 -16 230 -30 110 -14 214 -27 230 -30 91 -12 752 -98 820 -106
395 -45 833 0 1230 128 237 76 401 152 710 328 99 56 513 290 920 520 407 230
808 457 890 503 83 47 184 104 225 127 41 23 365 206 720 407 355 201 906 512
1225 692 319 181 596 340 615 355 201 157 142 497 -100 580 -28 9 -895 125
-2060 275 -107 14 -262 34 -345 45 -167 23 -494 65 -970 126 -222 29 -351 46
-380 50 -16 2 -275 36 -575 75 -300 39 -597 77 -660 86 -63 8 -461 60 -885
115 -423 54 -786 101 -805 104 -19 2 -123 16 -230 30 -107 14 -211 28 -230 30
-19 3 -154 20 -300 40 -146 19 -371 48 -500 65 -129 16 -320 41 -425 55 -104
13 -208 27 -230 30 -22 2 -107 14 -190 25 -82 11 -238 31 -345 44 -265 34
-429 56 -465 61 -28 4 -135 18 -695 90 -277 36 -729 95 -765 100 -16 2 -118
15 -225 29 -107 14 -436 57 -730 95 -294 39 -589 77 -655 85 -104 13 -1429
186 -1540 201 -22 3 -143 19 -270 35 -126 16 -403 52 -615 80 -212 27 -612 79
-890 115 -278 36 -552 72 -610 80 -58 8 -298 39 -535 70 -236 30 -479 62 -540
70 -60 8 -371 49 -690 90 -947 122 -1045 135 -1155 150 -570 78 -827 100
-1045 88z m565 -121 c291 -39 395 -53 855 -112 253 -33 510 -66 570 -75 61 -8
151 -19 200 -25 50 -6 101 -13 115 -15 14 -2 63 -9 110 -15 214 -27 426 -54
960 -124 316 -42 593 -78 615 -81 22 -2 92 -11 155 -20 63 -8 219 -28 345 -45
306 -40 680 -88 730 -95 22 -3 198 -26 390 -51 193 -24 589 -76 880 -114 292
-38 618 -81 725 -94 107 -14 317 -41 465 -61 149 -19 358 -46 465 -60 371 -48
425 -55 495 -65 39 -5 347 -46 685 -90 595 -77 719 -93 1275 -165 143 -19 472
-61 730 -95 259 -33 486 -62 505 -65 142 -19 422 -56 455 -60 106 -13 214 -27
495 -64 168 -22 359 -47 425 -55 66 -9 206 -27 310 -41 105 -13 210 -27 235
-30 25 -3 110 -14 190 -25 80 -11 233 -31 340 -44 244 -32 426 -55 465 -61 17
-2 206 -27 420 -55 556 -72 981 -127 1195 -155 102 -14 482 -63 845 -110 363
-46 692 -89 730 -95 39 -5 367 -48 730 -95 363 -47 674 -87 691 -90 17 -2 138
-18 270 -35 811 -104 890 -116 936 -143 69 -40 118 -129 118 -213 0 -50 -29
-120 -65 -156 -19 -19 -153 -101 -297 -183 -145 -82 -657 -371 -1138 -643
-481 -273 -909 -514 -950 -537 -79 -44 -1176 -665 -1485 -840 -290 -164 -729
-413 -870 -492 -469 -263 -952 -388 -1485 -382 -184 2 -207 5 -1235 139 -38 5
-158 21 -265 34 -107 14 -262 34 -345 45 -82 11 -238 32 -345 45 -107 14 -316
41 -465 61 -148 19 -373 48 -500 65 -126 16 -401 52 -610 79 -209 28 -488 64
-620 81 -132 17 -271 35 -310 40 -38 5 -383 50 -765 99 -382 50 -747 97 -810
106 -63 8 -203 26 -310 40 -107 14 -208 27 -225 30 -16 2 -309 40 -650 84
-341 45 -705 92 -810 106 -617 80 -809 105 -890 115 -49 6 -101 13 -115 15
-14 2 -115 16 -225 30 -110 14 -213 27 -230 30 -16 2 -345 45 -730 95 -385 50
-716 93 -735 95 -46 7 -759 99 -965 125 -88 12 -189 25 -225 30 -36 6 -258 35
-495 65 -236 30 -479 62 -540 70 -60 8 -182 24 -270 35 -88 11 -173 22 -190
25 -47 6 -324 42 -495 64 -218 28 -699 91 -735 96 -16 2 -138 18 -270 35 -417
54 -547 71 -655 85 -58 8 -265 35 -460 60 -195 25 -472 61 -615 80 -143 19
-348 46 -455 59 -107 14 -262 34 -345 45 -82 11 -256 34 -385 50 -129 17 -494
64 -810 106 -316 41 -593 77 -615 80 -271 33 -588 78 -617 87 -54 16 -103 61
-134 124 -23 47 -26 63 -22 117 6 71 23 110 67 153 17 16 236 146 488 288 252
143 1318 746 2368 1340 1051 594 1943 1098 1984 1120 314 166 722 283 1116
319 114 11 489 -2 635 -21z"/>
<path d="M33038 44451 c-80 -26 -136 -61 -191 -120 -166 -178 -161 -451 13
-621 177 -173 449 -173 623 1 238 238 138 640 -184 740 -77 24 -185 24 -261 0z
m252 -98 c103 -37 195 -138 220 -244 16 -65 7 -165 -19 -224 -36 -82 -135
-169 -223 -196 -57 -18 -158 -13 -220 11 -76 28 -159 104 -195 178 -23 49 -27
70 -28 147 0 79 3 97 29 149 81 166 263 240 436 179z"/>
<path d="M36260 44040 c-14 -14 -20 -33 -20 -63 0 -24 -3 -84 -6 -133 -6 -77
-4 -92 10 -107 22 -22 41 -22 64 1 16 16 20 42 26 152 6 117 5 135 -10 151
-22 24 -39 24 -64 -1z"/>
<path d="M35671 43521 c-15 -26 -6 -57 17 -66 9 -4 76 -9 149 -12 143 -6 163
-1 163 42 0 41 -22 48 -174 53 -140 5 -144 4 -155 -17z"/>
<path d="M36533 43489 c-7 -7 -13 -23 -13 -35 0 -29 17 -41 70 -48 67 -8 235
-10 247 -3 19 12 21 47 5 67 -15 18 -33 21 -157 26 -109 5 -143 3 -152 -7z"/>
<path d="M36211 43201 c-16 -16 -20 -41 -26 -157 -7 -126 -6 -138 11 -151 22
-16 36 -16 57 0 17 13 23 46 32 199 5 92 5 97 -17 112 -29 20 -34 20 -57 -3z"/>
<path d="M40123 41692 c-7 -4 -61 -120 -121 -257 l-108 -250 -100 -6 c-55 -3
-125 -9 -155 -13 l-54 -6 -135 217 c-74 120 -145 228 -157 240 l-22 23 -213
-74 c-117 -41 -239 -84 -270 -96 l-58 -21 0 -44 c0 -24 9 -121 21 -217 11 -95
24 -203 28 -240 l7 -68 -75 -49 c-42 -27 -99 -66 -128 -86 l-52 -37 -123 65
c-68 36 -175 93 -237 126 -63 34 -125 61 -136 61 -16 0 -72 -58 -203 -211
-100 -116 -182 -218 -182 -227 1 -10 75 -116 165 -237 91 -121 163 -222 162
-225 -2 -3 -32 -63 -66 -135 -35 -71 -65 -131 -65 -132 -4 -4 -149 -12 -346
-19 -107 -3 -202 -10 -212 -15 -18 -10 -20 -15 -79 -331 -40 -211 -42 -229
-26 -245 9 -10 126 -65 261 -123 l246 -105 1 -60 c0 -33 2 -69 3 -80 2 -11 6
-54 9 -95 l7 -75 -227 -141 c-124 -77 -232 -149 -239 -160 -10 -16 1 -57 77
-273 49 -140 94 -260 100 -268 6 -7 26 -13 45 -13 32 0 427 44 490 55 31 5 34
2 110 -111 44 -64 83 -122 89 -130 6 -9 3 -25 -12 -51 -99 -177 -233 -440
-233 -457 0 -15 58 -71 192 -186 105 -91 203 -173 219 -183 35 -23 32 -25 229
122 85 64 178 134 207 154 l52 38 73 -39 c40 -22 102 -52 138 -67 l66 -27 3
-147 c2 -80 4 -157 6 -171 1 -14 3 -70 3 -126 1 -62 7 -106 15 -117 9 -12 87
-31 285 -68 268 -51 274 -51 292 -33 10 11 64 125 119 254 56 129 105 237 109
241 4 4 52 9 107 13 55 4 123 9 150 12 l50 6 145 -234 c111 -178 151 -234 168
-236 32 -5 514 165 533 187 14 17 13 39 -12 258 -39 330 -41 304 30 348 33 19
87 56 120 80 34 25 65 45 70 45 5 0 115 -57 244 -126 133 -71 245 -124 256
-122 24 4 381 414 381 437 0 9 -75 116 -166 239 l-165 223 22 35 c12 20 41 79
65 132 24 52 49 99 56 103 7 5 54 9 103 9 190 0 436 14 450 24 8 6 21 45 29
86 54 269 87 455 84 473 -2 18 -46 41 -258 133 l-255 110 -6 95 c-4 52 -9 121
-13 154 l-7 60 230 143 c127 79 235 151 240 160 6 12 -16 89 -80 272 -91 262
-109 295 -153 285 -33 -7 -461 -55 -493 -55 -24 0 -35 11 -74 73 -26 39 -63
95 -84 124 l-37 52 126 239 c69 131 126 248 126 259 0 23 -412 383 -439 383
-9 0 -115 -74 -237 -164 l-220 -164 -130 64 c-71 35 -133 65 -137 67 -10 3
-15 81 -23 339 -4 131 -10 213 -18 223 -8 11 -90 31 -271 65 -277 53 -283 54
-302 42z m308 -141 l183 -36 2 -40 c1 -22 5 -143 9 -270 7 -253 7 -251 72
-274 21 -7 99 -44 174 -81 110 -55 139 -66 155 -57 10 6 78 54 149 107 72 53
165 122 207 153 l77 57 153 -131 c84 -73 159 -138 167 -145 16 -15 25 5 -145
-315 -52 -96 -94 -181 -94 -187 0 -7 24 -45 54 -85 30 -40 80 -112 111 -162
31 -49 63 -92 71 -95 8 -3 120 7 247 22 128 15 248 27 267 28 l35 0 67 -193
c37 -105 68 -198 70 -206 2 -9 -77 -65 -216 -152 -120 -75 -225 -144 -234
-152 -13 -14 -13 -30 -4 -124 7 -59 14 -148 17 -198 3 -52 10 -94 18 -101 6
-7 118 -58 247 -114 129 -56 238 -105 241 -108 6 -6 -68 -422 -76 -430 -2 -2
-124 -8 -271 -13 -220 -9 -272 -14 -286 -26 -10 -9 -18 -21 -18 -28 0 -6 -36
-83 -79 -171 -65 -131 -77 -162 -68 -179 8 -16 192 -268 294 -401 l23 -31
-141 -164 c-78 -90 -143 -166 -144 -168 -2 -2 -111 54 -243 123 -131 69 -244
126 -251 126 -7 0 -58 -33 -114 -73 -56 -41 -130 -90 -163 -110 -61 -37 -77
-55 -69 -79 2 -7 6 -33 8 -58 3 -25 15 -138 28 -252 13 -114 21 -209 19 -211
-3 -2 -97 -35 -208 -74 l-204 -70 -42 66 c-23 36 -86 137 -140 223 -54 86
-104 162 -112 169 -10 8 -42 8 -131 0 -65 -6 -155 -13 -200 -14 -45 -1 -85 -5
-88 -9 -4 -3 -55 -118 -115 -255 -70 -161 -113 -247 -121 -246 -22 3 -414 75
-416 77 -5 4 -13 139 -19 326 -7 241 -5 237 -82 265 -26 10 -103 46 -171 82
-69 35 -130 62 -137 59 -7 -3 -109 -77 -227 -164 l-215 -160 -164 140 c-89 78
-164 144 -166 148 -1 4 54 113 123 242 69 130 125 241 125 248 0 7 -29 51 -63
99 -35 47 -85 120 -111 162 -26 42 -54 79 -64 81 -9 3 -66 -1 -127 -8 -256
-30 -416 -46 -419 -43 -5 6 -145 413 -143 414 63 37 438 273 451 284 16 14 17
25 11 76 -4 33 -10 122 -14 197 -4 82 -12 143 -20 151 -6 8 -118 61 -249 117
-130 56 -240 105 -244 109 -5 5 62 386 75 425 4 12 13 12 292 21 168 4 246 10
260 19 11 7 26 31 34 52 7 21 44 100 81 174 37 74 65 141 62 149 -3 8 -76 110
-163 228 l-158 213 135 157 c74 87 141 162 147 167 8 5 95 -36 249 -118 129
-69 240 -126 247 -126 6 0 48 27 93 61 45 33 119 83 164 111 46 28 85 55 87
62 2 6 -2 61 -9 121 -28 235 -47 425 -43 429 7 6 412 147 414 144 1 -2 62
-100 135 -218 73 -118 141 -223 150 -234 16 -17 25 -17 121 -7 57 5 148 13
201 17 54 3 101 11 107 17 5 7 55 118 111 247 56 129 103 237 106 241 5 9 24
6 255 -40z"/>
<path d="M39670 40330 c-501 -87 -905 -432 -1074 -918 -55 -160 -70 -252 -71
-447 0 -191 12 -268 71 -445 156 -468 560 -817 1061 -917 132 -26 385 -23 521
6 282 60 500 178 703 380 203 204 326 431 385 716 26 124 26 392 0 519 -23
115 -76 266 -131 375 -124 248 -358 478 -614 606 -105 52 -290 112 -401 128
-134 20 -323 19 -450 -3z m490 -101 c519 -106 923 -523 1015 -1046 20 -112 20
-322 0 -435 -82 -472 -417 -858 -874 -1008 -264 -86 -596 -78 -851 20 -428
166 -737 539 -815 985 -21 118 -20 335 0 444 51 266 174 502 359 686 179 178
375 287 626 347 149 35 386 39 540 7z"/>
<path d="M19381 41481 c-10 -18 5 -76 99 -374 62 -193 116 -358 122 -364 6 -7
21 -13 35 -13 25 0 19 -8 356 508 108 164 123 203 89 221 -10 5 -74 12 -142
16 -69 3 -141 8 -160 10 -19 2 -114 7 -211 11 -175 7 -177 6 -188 -15z m505
-100 l81 -6 -158 -244 c-88 -135 -161 -237 -164 -230 -4 12 -137 434 -151 483
-6 18 0 18 152 11 88 -4 196 -10 240 -14z"/>
<path d="M17920 40523 c-46 -16 -454 -195 -630 -276 -2556 -1179 -4784 -2973
-6464 -5206 -427 -567 -879 -1260 -1211 -1853 -86 -155 -87 -158 -71 -183 16
-25 41 -32 62 -17 6 4 43 64 83 134 1031 1844 2458 3521 4146 4873 1189 953
2563 1777 3935 2360 102 43 191 83 198 89 32 23 -10 92 -48 79z"/>
<path d="M21007 40294 c-2449 -540 -4713 -1668 -6582 -3278 -397 -343 -1010
-941 -1337 -1306 -506 -565 -927 -1108 -1338 -1725 -192 -288 -340 -527 -340
-548 0 -25 44 -51 67 -39 10 6 54 68 97 139 858 1393 2010 2694 3301 3728
1564 1252 3358 2175 5295 2722 253 71 653 170 909 224 177 37 204 46 213 65 7
15 7 28 -1 43 -16 30 -50 27 -284 -25z"/>
<path d="M35063 39682 c-27 -2 -46 -9 -52 -20 -5 -9 -24 -89 -42 -177 l-33
-161 -85 -23 -85 -24 -122 127 c-104 109 -125 127 -144 121 -13 -4 -89 -48
-171 -98 -114 -69 -149 -95 -149 -111 0 -11 24 -91 52 -178 l53 -158 -62 -62
-61 -61 -171 48 c-149 43 -173 47 -185 34 -31 -31 -177 -311 -174 -331 2 -13
54 -68 129 -135 l126 -113 -19 -82 c-11 -46 -21 -84 -23 -86 -2 -2 -76 -21
-166 -43 -106 -26 -169 -46 -177 -57 -17 -22 -7 -370 12 -389 6 -6 86 -26 177
-45 l166 -33 25 -84 26 -84 -124 -120 c-82 -79 -124 -127 -124 -141 0 -26 166
-302 192 -321 17 -11 41 -6 185 42 l165 55 63 -62 62 -62 -46 -161 c-26 -89
-45 -170 -43 -179 4 -21 302 -188 336 -188 18 0 51 31 137 128 l112 129 86
-22 85 -21 41 -161 c22 -88 47 -168 55 -178 13 -16 30 -17 192 -11 97 3 184 9
193 12 8 4 17 16 20 28 9 37 65 313 65 318 0 3 39 16 87 28 l87 24 115 -122
c90 -95 122 -122 141 -122 29 1 307 166 324 192 8 14 -1 54 -44 183 l-54 165
61 62 62 62 164 -47 c90 -26 171 -45 180 -41 18 6 187 311 187 337 0 8 -59 68
-130 133 -91 81 -129 121 -126 133 3 9 12 45 20 80 8 35 19 67 25 70 5 4 80
24 166 45 124 30 159 43 169 60 15 25 7 369 -9 385 -5 5 -80 24 -165 41 -85
17 -161 34 -169 38 -7 4 -24 43 -37 87 l-24 80 126 120 c81 78 124 127 124
140 -1 26 -171 305 -196 321 -16 11 -43 5 -184 -41 l-165 -55 -62 63 -63 62
45 150 c25 83 45 162 45 177 0 24 -14 34 -152 111 -84 46 -161 87 -172 90 -20
8 -58 -27 -192 -177 l-70 -80 -85 20 -84 20 -42 162 c-22 90 -47 169 -53 177
-10 12 -41 14 -159 13 -80 -1 -165 -4 -188 -6z m321 -257 c36 -141 44 -161 66
-171 22 -10 234 -64 252 -64 3 0 57 56 118 125 61 69 116 125 121 125 6 0 206
-105 216 -114 1 -1 -18 -71 -43 -156 -24 -85 -44 -161 -44 -169 0 -20 188
-201 209 -201 9 0 85 23 169 51 84 28 154 49 156 48 1 -2 30 -51 65 -108 l63
-105 -121 -119 c-67 -66 -121 -125 -121 -132 0 -15 67 -253 75 -265 2 -4 78
-22 168 -40 l164 -32 7 -76 c3 -41 6 -99 6 -128 l0 -52 -157 -38 c-158 -37
-193 -52 -193 -84 0 -10 -11 -61 -25 -114 -14 -53 -25 -105 -25 -115 0 -12 48
-62 125 -131 l126 -112 -57 -106 c-31 -59 -58 -109 -60 -111 -2 -2 -78 17
-170 44 l-166 47 -99 -102 c-55 -56 -99 -105 -99 -109 0 -4 23 -74 50 -156 28
-82 50 -155 50 -161 0 -12 -191 -134 -209 -134 -4 0 -61 54 -125 120 -64 66
-123 120 -131 120 -8 0 -32 -7 -52 -15 -21 -8 -74 -24 -118 -35 -43 -11 -83
-24 -89 -30 -6 -6 -76 -313 -76 -337 0 -2 -57 -3 -128 -3 l-127 0 -40 162
c-36 145 -43 164 -65 175 -39 18 -246 64 -261 57 -8 -3 -61 -59 -118 -125 -58
-65 -109 -119 -114 -119 -7 0 -200 104 -215 116 -2 1 17 72 42 157 25 85 46
161 46 168 0 13 -185 196 -204 202 -6 2 -83 -20 -170 -49 -88 -30 -160 -53
-161 -51 -1 1 -29 48 -63 104 -34 56 -62 104 -62 107 0 3 54 58 120 122 66 64
120 123 120 131 0 8 -12 54 -26 102 -14 47 -31 104 -37 126 l-12 40 -170 35
-170 36 -3 126 -3 126 153 37 c84 21 161 42 170 47 10 5 20 21 24 36 3 15 16
71 30 125 13 54 24 104 24 111 0 8 -56 63 -124 123 -69 59 -125 112 -125 116
-2 15 114 217 124 217 6 0 80 -20 164 -44 85 -25 160 -42 167 -38 12 7 194
199 194 205 0 1 -24 75 -54 163 l-53 160 108 66 108 67 119 -125 c66 -68 124
-124 130 -124 5 0 29 7 53 15 24 9 80 25 124 36 44 11 83 24 87 27 4 4 21 72
37 152 17 80 33 155 36 168 5 22 8 23 132 20 l127 -3 40 -160z"/>
<path d="M35085 38816 c-348 -68 -619 -323 -707 -666 -31 -121 -30 -311 1
-430 83 -314 313 -551 628 -647 78 -23 104 -26 238 -27 124 0 164 4 230 22
332 91 580 353 652 687 20 90 20 270 0 360 -71 329 -309 584 -634 681 -108 32
-297 41 -408 20z m361 -106 c274 -69 496 -288 576 -566 32 -112 32 -305 0
-417 -74 -261 -261 -458 -520 -551 -84 -30 -92 -31 -252 -31 -155 0 -170 2
-245 28 -128 45 -220 102 -316 197 -159 157 -239 346 -239 565 0 350 224 655
560 763 87 28 96 29 236 31 91 1 140 -4 200 -19z"/>
<path d="M16693 36660 c-78 -3 -146 -9 -152 -15 -5 -5 -26 -93 -46 -195 -44
-214 -49 -230 -72 -230 -9 0 -55 -12 -102 -26 l-86 -26 -145 151 c-82 86 -153
151 -163 151 -10 0 -99 -48 -198 -107 -125 -76 -181 -115 -185 -130 -4 -14 18
-94 59 -216 l64 -194 -78 -80 -78 -80 -198 57 c-114 33 -206 55 -216 51 -24
-9 -226 -377 -220 -401 3 -9 74 -79 160 -154 85 -76 153 -143 150 -149 -2 -7
-14 -55 -27 -108 l-23 -95 -196 -48 c-108 -27 -204 -55 -213 -63 -15 -14 -17
-36 -11 -227 3 -116 9 -218 14 -227 5 -11 67 -28 211 -58 111 -23 205 -45 209
-49 3 -4 18 -52 33 -107 l28 -100 -151 -146 c-83 -80 -151 -153 -151 -161 0
-22 211 -369 232 -382 14 -8 60 3 216 55 l198 66 82 -78 81 -77 -54 -188 c-30
-104 -55 -198 -55 -210 0 -11 8 -28 18 -36 36 -31 354 -198 376 -198 17 0 58
39 161 156 115 129 142 154 159 149 12 -3 59 -15 106 -26 47 -12 86 -22 87
-23 2 -1 25 -92 52 -201 34 -137 55 -203 67 -212 11 -8 37 -11 68 -9 28 2 122
4 209 5 136 1 159 3 175 19 11 12 30 82 57 216 22 109 44 200 50 201 5 2 54
16 107 30 l98 27 146 -151 c80 -83 153 -151 161 -151 23 0 380 218 387 237 4
9 -22 103 -59 214 l-66 198 78 79 78 80 185 -54 c102 -30 198 -53 214 -51 27
2 38 17 132 187 57 102 102 194 101 205 -1 11 -67 78 -157 158 l-156 138 27
107 27 107 200 51 c109 28 205 55 212 59 20 12 10 440 -11 460 -9 9 -97 32
-216 57 l-200 41 -26 91 c-14 50 -28 98 -32 107 -4 11 38 57 145 158 108 103
150 149 150 166 0 12 -42 92 -94 177 -127 211 -125 208 -150 208 -12 0 -102
-27 -201 -60 -99 -33 -185 -60 -191 -60 -6 0 -47 34 -90 75 l-78 75 57 200
c43 146 56 204 48 217 -15 28 -380 223 -401 215 -10 -4 -62 -56 -115 -117 -54
-60 -115 -129 -136 -152 l-38 -42 -108 27 -107 27 -51 203 c-30 120 -57 207
-65 212 -15 10 -34 10 -307 0z m281 -247 c59 -239 63 -252 89 -257 12 -3 81
-19 154 -37 72 -17 138 -29 147 -26 8 3 74 73 147 155 l131 149 87 -47 c169
-92 191 -105 191 -114 0 -4 -25 -94 -55 -198 -30 -105 -52 -195 -48 -202 5 -7
59 -62 121 -122 l114 -108 199 66 199 66 82 -136 81 -136 -146 -143 c-81 -79
-147 -150 -147 -159 0 -8 14 -61 30 -117 17 -56 35 -121 40 -144 6 -24 18 -47
28 -51 9 -5 103 -26 209 -47 l192 -38 3 -126 c2 -69 2 -142 0 -162 l-3 -36
-186 -44 c-103 -24 -195 -51 -205 -59 -12 -10 -26 -47 -38 -105 -10 -49 -26
-112 -34 -140 -9 -27 -16 -57 -16 -65 0 -13 140 -143 291 -272 20 -17 19 -19
-50 -145 -39 -70 -75 -134 -79 -140 -6 -10 -53 0 -197 42 -103 30 -195 55
-204 55 -9 0 -66 -54 -128 -120 l-112 -119 65 -193 c35 -106 64 -195 64 -199
0 -3 -61 -43 -135 -88 l-136 -82 -147 152 -148 152 -99 -31 c-55 -17 -122 -37
-150 -43 -27 -6 -55 -17 -62 -23 -7 -6 -30 -98 -53 -205 -22 -107 -42 -196
-44 -198 -1 -2 -74 -4 -161 -6 l-157 -2 -48 193 c-26 106 -53 199 -60 207 -7
8 -22 15 -34 15 -11 1 -78 15 -147 33 -69 18 -131 31 -137 29 -6 -2 -71 -71
-143 -153 -72 -82 -135 -149 -140 -149 -10 0 -261 137 -270 148 -4 4 17 90 47
192 29 102 54 193 54 202 0 20 -214 232 -238 236 -9 1 -103 -26 -208 -61
l-191 -64 -82 136 -82 136 151 145 c82 80 150 150 150 156 0 6 -13 49 -29 97
-16 47 -35 111 -41 142 -8 38 -18 60 -33 69 -12 8 -106 31 -209 51 l-186 38
-5 30 c-2 16 -5 89 -6 161 l-2 132 201 48 c138 34 203 54 209 65 5 9 16 53 25
99 9 45 25 109 35 142 23 74 30 65 -153 225 -75 66 -136 124 -136 129 0 7 133
257 145 274 2 2 90 -22 196 -53 107 -30 199 -55 206 -55 7 0 29 19 50 43 21
23 70 75 110 115 40 40 73 78 73 85 0 7 -29 98 -64 203 l-63 191 136 82 136
82 146 -151 c81 -82 149 -150 152 -150 3 0 45 13 94 29 48 16 114 34 145 41
32 7 64 20 71 29 8 9 31 102 52 206 21 105 42 193 47 196 5 3 78 7 161 8 l152
2 39 -158z"/>
<path d="M16616 35614 c-139 -27 -296 -92 -403 -165 -65 -45 -196 -172 -250
-242 -148 -192 -221 -432 -210 -692 20 -467 334 -855 794 -982 89 -25 113 -27
273 -27 147 0 187 3 250 21 208 58 368 149 505 287 412 415 414 1083 5 1496
-161 163 -374 274 -592 310 -87 14 -289 11 -372 -6z m446 -108 c177 -45 330
-137 464 -279 117 -124 199 -274 241 -443 24 -96 24 -342 0 -438 -93 -373
-376 -649 -752 -733 -100 -22 -299 -22 -400 1 -211 48 -417 173 -547 333 -243
300 -292 699 -128 1039 202 419 668 635 1122 520z"/>
<path d="M18867 26604 c-574 -564 -3010 -3003 -3022 -3025 -12 -22 -12 -29 1
-48 8 -11 25 -21 37 -21 16 0 468 446 1625 1603 1707 1707 1631 1627 1574
1665 -22 15 -28 10 -215 -174z"/>
<path d="M16897 22962 c-1099 -1099 -2000 -2007 -2001 -2018 -4 -25 21 -54 48
-54 26 0 4026 3996 4026 4022 0 23 -27 48 -53 48 -16 0 -588 -567 -2020 -1998z"/>
</g>
</svg>
