<?xml version="1.0" encoding="utf-8"?>
<!-- Generator: Adobe Illustrator 27.5.0, SVG Export Plug-In . SVG Version: 6.00 Build 0)  -->
<svg version="1.1" xmlns="http://www.w3.org/2000/svg" xmlns:xlink="http://www.w3.org/1999/xlink" x="0px" y="0px"
	 viewBox="0 0 500 500" style="enable-background:new 0 0 500 500;" xml:space="preserve">
<g id="BACKGROUND">
</g>
<g id="OBJECTS">
	<g>
		<g>
			<g>
				<g>
					<g>
						<path style="fill:#22B6FF;" d="M392.977,261.025c1.449-2.001,3.314-4.182,5.902-4.323c4.9-0.267,6.013,6.116,5.362,10.593
							c3.199-8.618,6.779-17.746,14.582-23.418c1.013-0.737,2.148-1.426,3.423-1.545c2.512-0.235,4.635,1.912,5.07,4.184
							c0.436,2.272-0.365,4.597-1.155,6.811c8.399-10.759,21.957-18.028,36.178-19.396c1.128-0.108,2.404-0.138,3.212,0.574
							c0.888,0.783,0.813,2.101,0.603,3.232c-1.335,7.204-5.657,13.963-11.886,18.59c3.973-2.779,9.825,1.994,9.023,6.489
							c-0.801,4.495-5.401,7.597-9.884,9.597c-4.483,2-9.452,3.574-12.678,7.076c1.913-2.184,6.235-0.979,7.162,1.643
							c0.927,2.622-0.825,5.588-3.323,7.196c-2.498,1.608-5.579,2.169-8.557,2.691c-4.188,0.735-8.376,1.469-12.564,2.204
							c0.348,1.316,1.269,2.486,2.516,3.198c-1.085,5.132-7.408,7.62-12.837,9.229c-13.904,4.12-29.793,9.292-44.304,6.76
							C368.214,295.207,382.917,274.916,392.977,261.025z"/>
						<g>
							<path style="fill:#F0F6F7;" d="M443.626,263.284c0.895-0.514,2.203-1.405,2.68-0.361c0.701,1.532-4.444,3.405-4.761,1.762
								C441.418,264.022,443.032,263.694,443.626,263.284"/>
							<path style="fill:#F0F6F7;" d="M413.25,297.578c0.895-0.514,2.203-1.405,2.68-0.361c0.701,1.532-4.444,3.405-4.761,1.762
								C411.042,298.317,412.656,297.988,413.25,297.578"/>
							<path style="fill:#F0F6F7;" d="M427.049,287.621c1.044,0.039,2.655-0.02,2.395,1.101c-0.382,1.644-5.71,0.517-4.949-1.019
								C424.802,287.083,426.314,287.653,427.049,287.621"/>
							<path style="fill:#F0F6F7;" d="M398.156,285.14c1.044,0.039,2.655-0.021,2.395,1.101c-0.382,1.645-5.71,0.517-4.949-1.019
								C395.909,284.602,397.421,285.172,398.156,285.14"/>
							<path style="fill:#F0F6F7;" d="M420.774,261.262c-0.109,0.957-0.147,2.438-1.35,2.175c-1.764-0.386-0.197-5.253,1.425-4.521
								C421.503,259.211,420.787,260.586,420.774,261.262"/>
							<path style="fill:#F0F6F7;" d="M388.006,278.969c-0.109,0.958-0.147,2.438-1.35,2.175c-1.765-0.386-0.197-5.253,1.425-4.521
								C388.735,276.918,388.019,278.294,388.006,278.969"/>
							<path style="fill:#F0F6F7;" d="M448.507,250.167c-0.816,0.616-1.989,1.655-2.613,0.679c-0.915-1.43,3.932-3.901,4.481-2.315
								C450.597,249.171,449.039,249.691,448.507,250.167"/>
							<path style="fill:#F0F6F7;" d="M434.098,276.177c-1.042-0.062-2.654-0.038-2.365-1.154c0.424-1.636,5.719-0.391,4.918,1.129
								C436.329,276.765,434.833,276.161,434.098,276.177"/>
							<path style="fill:#F0F6F7;" d="M449.109,267.784c-0.817,0.616-1.99,1.655-2.613,0.679c-0.915-1.43,3.932-3.901,4.481-2.315
								C451.198,266.788,449.641,267.307,449.109,267.784"/>
							<path style="fill:#F0F6F7;" d="M403.957,273.143c-0.072,0.96-0.053,2.44-1.267,2.216c-1.78-0.328-0.4-5.24,1.251-4.561
								C404.608,271.071,403.944,272.468,403.957,273.143"/>
							<path style="fill:#F0F6F7;" d="M435.289,255.138c-0.072,0.96-0.053,2.44-1.267,2.216c-1.78-0.328-0.4-5.24,1.251-4.561
								C435.939,253.066,435.276,254.463,435.289,255.138"/>
							<path style="fill:#F0F6F7;" d="M385.386,297.286c-0.072,0.96-0.053,2.44-1.267,2.216c-1.78-0.328-0.4-5.24,1.251-4.561
								C386.036,295.215,385.372,296.611,385.386,297.286"/>
							<path style="fill:#F0F6F7;" d="M399.924,300.911c1.046-0.045,2.648-0.233,2.495,0.903c-0.225,1.666-5.65,0.971-5.036-0.617
								C397.63,300.556,399.193,301.002,399.924,300.911"/>
							<path style="fill:#F0F6F7;" d="M416.917,283.148c0.697-0.73,1.672-1.928,2.464-1.064c1.163,1.266-3.19,4.431-4.019,2.956
								C415.028,284.444,416.476,283.698,416.917,283.148"/>
						</g>
					</g>
					<path style="fill:none;stroke:#304965;stroke-width:1.0025;stroke-miterlimit:10;" d="M442.294,256.24
						c-26.807,24.078-55.994,45.917-87.064,65.145"/>
				</g>
				<g>
					<defs>
						<path id="SVGID_1_" d="M354.199,318.067c25.986-8.816,48.71-24.807,65.586-44.937c-3.159-3.361-6.221-6.546-6.814-7.34
							c3.075,1.499,6.074,3.052,9.132,4.504c6.522-8.193,12.09-17.025,16.54-26.301c-3.359-2.669-6.565-5.63-8.195-8.684
							c1.188-0.001,6.214,2.048,10.57,3.45c2.669-6.252,4.83-12.684,6.442-19.239c-3.223-0.316-6.415-0.732-9.307-1.524
							c0.759-0.232,5.92-1.656,10.316-2.939c2.212-10.884,2.705-22.243-1.108-32.661c-0.125-0.34-0.254-0.68-0.388-1.019
							c-9.569,4.841-18.685,10.427-27.246,16.653c-0.106,5.613-0.783,11.416,0.865,16.715c-1.461-4.698-2.922-9.396-4.383-14.094
							c-0.771,0.587-1.539,1.178-2.3,1.776c-7.966,6.255-15.396,13.082-22.215,20.388c1.045,2.464,2.058,4.447,2.835,4.712
							c-1.79-0.61-3.546-1.302-5.264-2.067c-7.49,8.334-14.191,17.263-19.983,26.665c-12.151,19.725-24.223,40.161-19.064,63.582
							c0.206,0.935,0.562,1.997,1.411,2.466c0.116,0.064,0.24,0.118,0.375,0.158C352.719,318.544,353.493,318.307,354.199,318.067z"
							/>
					</defs>
					<clipPath id="SVGID_00000150093092777121059770000005547228949508187041_">
						<use xlink:href="#SVGID_1_"  style="overflow:visible;"/>
					</clipPath>
					<g style="clip-path:url(#SVGID_00000150093092777121059770000005547228949508187041_);">
						<path style="fill:#4144B3;" d="M446.972,181.377c-9.569,4.841-18.686,10.427-27.246,16.653
							c-0.106,5.613-0.783,11.416,0.865,16.715c-1.461-4.698-2.922-9.396-4.383-14.094c-0.771,0.587-1.539,1.178-2.301,1.776
							c-7.966,6.255-15.396,13.082-22.215,20.388c1.045,2.464,2.058,4.447,2.835,4.712c-1.79-0.61-3.546-1.302-5.264-2.067
							c-7.49,8.334-14.191,17.263-19.983,26.665c-12.151,19.725-24.223,40.162-19.064,63.582c0.206,0.935,0.562,1.997,1.411,2.466
							c32.34-43.608,70.809-89.75,95.732-135.779C447.235,182.055,447.106,181.715,446.972,181.377z"/>
						<path style="fill:#010354;" d="M351.627,318.174c0.116,0.064,0.24,0.118,0.375,0.158c0.717,0.212,1.491-0.025,2.197-0.265
							c25.986-8.816,48.71-24.807,65.585-44.937c-3.158-3.361-6.221-6.546-6.814-7.34c3.075,1.499,6.074,3.052,9.132,4.504
							c6.522-8.193,12.09-17.024,16.54-26.301c-3.359-2.669-6.565-5.63-8.195-8.684c1.188-0.001,6.214,2.048,10.57,3.45
							c2.669-6.252,4.83-12.684,6.442-19.239c-3.223-0.316-6.415-0.732-9.307-1.524c0.759-0.232,5.92-1.656,10.316-2.939
							c2.212-10.884,2.705-22.243-1.108-32.661C422.436,228.424,383.967,274.566,351.627,318.174z"/>
					</g>
					
						<path style="clip-path:url(#SVGID_00000150093092777121059770000005547228949508187041_);fill:none;stroke:#7C62E3;stroke-width:1.1001;stroke-miterlimit:10;" d="
						M447.594,181.389c-0.576,2.905-2.063,5.582-3.559,8.196c-19.914,34.783-44.862,66.904-69.726,98.902
						c-9.237,11.888-18.475,23.775-27.712,35.663"/>
					
						<path style="clip-path:url(#SVGID_00000150093092777121059770000005547228949508187041_);fill:none;stroke:#7C62E3;stroke-width:1.1001;stroke-miterlimit:10;" d="
						M410.952,240.778c8.185,5.577,17.615,9.614,27.536,11.787"/>
					
						<path style="clip-path:url(#SVGID_00000150093092777121059770000005547228949508187041_);fill:none;stroke:#7C62E3;stroke-width:1.1001;stroke-miterlimit:10;" d="
						M401.757,252.29c7.851,6.839,18.061,11.369,28.786,12.772"/>
					
						<path style="clip-path:url(#SVGID_00000150093092777121059770000005547228949508187041_);fill:none;stroke:#7C62E3;stroke-width:1.1001;stroke-miterlimit:10;" d="
						M415.862,233.221c-1.407-3.164-1.585-6.658-1.686-10.074c-0.309-10.427-0.066-20.868,0.728-31.273"/>
					
						<path style="clip-path:url(#SVGID_00000150093092777121059770000005547228949508187041_);fill:none;stroke:#7C62E3;stroke-width:1.1001;stroke-miterlimit:10;" d="
						M412.184,238.064c-5.461-14.289-5.212-29.812-4.703-44.945"/>
					
						<path style="clip-path:url(#SVGID_00000150093092777121059770000005547228949508187041_);fill:none;stroke:#7C62E3;stroke-width:1.1001;stroke-miterlimit:10;" d="
						M435.79,203.158c8.557-3.127,16.074-8.604,21.327-15.538"/>
					
						<path style="clip-path:url(#SVGID_00000150093092777121059770000005547228949508187041_);fill:none;stroke:#7C62E3;stroke-width:1.1001;stroke-miterlimit:10;" d="
						M431.988,209.226c8.118-3.459,17.171-8.384,24.548-13.033"/>
					
						<path style="clip-path:url(#SVGID_00000150093092777121059770000005547228949508187041_);fill:none;stroke:#7C62E3;stroke-width:1.1001;stroke-miterlimit:10;" d="
						M393.112,264.306c-5.99-2.994-10.412-8.158-13.398-13.779c-2.986-5.621-4.671-11.734-6.326-17.799"/>
					
						<path style="clip-path:url(#SVGID_00000150093092777121059770000005547228949508187041_);fill:none;stroke:#7C62E3;stroke-width:1.1001;stroke-miterlimit:10;" d="
						M389.867,268.423c-10.764-7.545-18.136-19.035-20.096-31.323"/>
					
						<path style="clip-path:url(#SVGID_00000150093092777121059770000005547228949508187041_);fill:none;stroke:#7C62E3;stroke-width:1.1001;stroke-miterlimit:10;" d="
						M383.65,275.923c3.886,4.814,9.248,8.524,15.087,11.214c5.839,2.69,12.161,4.401,18.542,5.693"/>
					
						<path style="clip-path:url(#SVGID_00000150093092777121059770000005547228949508187041_);fill:none;stroke:#7C62E3;stroke-width:1.1001;stroke-miterlimit:10;" d="
						M376.62,285.261c-6.31-3.129-11.257-8.301-14.51-14.16c-3.253-5.86-4.889-12.389-5.536-18.937"/>
				</g>
			</g>
			<g id="XMLID_157_">
				<path id="XMLID_124_" style="fill:#FFE200;" d="M404.1,178.238c-21.957-27.243-61.842-31.528-89.085-9.571l-14.679,11.831
					l79.514,98.656l14.679-11.831C421.773,245.366,426.058,205.481,404.1,178.238z M328.51,183.536
					c18.572-14.164,45.252-11.023,59.996,7.27c14.744,18.294,12.146,45.033-5.639,60.172L328.51,183.536z"/>
				<g id="XMLID_117_">
					
						<rect id="XMLID_106_" x="303.819" y="180.964" transform="matrix(0.6275 0.7786 -0.7786 0.6275 255.5834 -168.8832)" style="fill:#FF67AB;" width="0.96" height="3.433"/>
					
						<rect id="XMLID_121_" x="306.063" y="183.747" transform="matrix(0.6275 0.7786 -0.7786 0.6275 258.5919 -169.5938)" style="fill:#FF67AB;" width="0.96" height="3.433"/>
					
						<rect id="XMLID_125_" x="308.316" y="186.543" transform="matrix(0.6276 0.7786 -0.7786 0.6276 261.5797 -170.3032)" style="fill:#FF67AB;" width="0.96" height="3.433"/>
					
						<rect id="XMLID_127_" x="310.56" y="189.327" transform="matrix(0.6275 0.7786 -0.7786 0.6275 264.6117 -171.017)" style="fill:#FF67AB;" width="0.96" height="3.433"/>
					
						<rect id="XMLID_126_" x="312.814" y="192.123" transform="matrix(0.6276 0.7786 -0.7786 0.6276 267.5989 -171.7265)" style="fill:#FF67AB;" width="0.96" height="3.433"/>
					
						<rect id="XMLID_131_" x="315.067" y="194.92" transform="matrix(0.6276 0.7786 -0.7786 0.6276 270.6155 -172.4397)" style="fill:#FF67AB;" width="0.96" height="3.433"/>
					
						<rect id="XMLID_130_" x="317.321" y="197.716" transform="matrix(0.6276 0.7786 -0.7786 0.6276 273.632 -173.153)" style="fill:#FF67AB;" width="0.96" height="3.433"/>
					
						<rect id="XMLID_129_" x="319.565" y="200.499" transform="matrix(0.6276 0.7786 -0.7786 0.6276 276.6347 -173.863)" style="fill:#FF67AB;" width="0.96" height="3.433"/>
					
						<rect id="XMLID_128_" x="321.818" y="203.296" transform="matrix(0.6275 0.7786 -0.7786 0.6275 279.6821 -174.5797)" style="fill:#FF67AB;" width="0.96" height="3.433"/>
					
						<rect id="XMLID_139_" x="324.062" y="206.079" transform="matrix(0.6275 0.7786 -0.7786 0.6275 282.6825 -175.2893)" style="fill:#FF67AB;" width="0.96" height="3.433"/>
					
						<rect id="XMLID_138_" x="326.316" y="208.876" transform="matrix(0.6275 0.7786 -0.7786 0.6275 285.7019 -176.0028)" style="fill:#FF67AB;" width="0.96" height="3.433"/>
					
						<rect id="XMLID_137_" x="328.559" y="211.659" transform="matrix(0.6276 0.7786 -0.7786 0.6276 288.6732 -176.7094)" style="fill:#FF67AB;" width="0.96" height="3.433"/>
					
						<rect id="XMLID_136_" x="330.813" y="214.456" transform="matrix(0.6276 0.7786 -0.7786 0.6276 291.6897 -177.4227)" style="fill:#FF67AB;" width="0.96" height="3.433"/>
					
						<rect id="XMLID_135_" x="333.067" y="217.252" transform="matrix(0.6276 0.7786 -0.7786 0.6276 294.7063 -178.136)" style="fill:#FF67AB;" width="0.96" height="3.433"/>
					
						<rect id="XMLID_134_" x="335.32" y="220.048" transform="matrix(0.6276 0.7786 -0.7786 0.6276 297.7229 -178.8492)" style="fill:#FF67AB;" width="0.96" height="3.433"/>
					
						<rect id="XMLID_133_" x="337.564" y="222.832" transform="matrix(0.6275 0.7786 -0.7786 0.6275 300.7611 -179.5625)" style="fill:#FF67AB;" width="0.96" height="3.433"/>
					
						<rect id="XMLID_132_" x="339.818" y="225.628" transform="matrix(0.6276 0.7786 -0.7786 0.6276 303.7393 -180.2722)" style="fill:#FF67AB;" width="0.96" height="3.433"/>
					
						<rect id="XMLID_150_" x="342.072" y="228.425" transform="matrix(0.6276 0.7786 -0.7786 0.6276 306.7587 -180.9857)" style="fill:#FF67AB;" width="0.96" height="3.433"/>
					
						<rect id="XMLID_149_" x="344.315" y="231.208" transform="matrix(0.6276 0.7786 -0.7786 0.6276 309.7643 -181.696)" style="fill:#FF67AB;" width="0.96" height="3.433"/>
					
						<rect id="XMLID_148_" x="346.569" y="234.005" transform="matrix(0.6276 0.7786 -0.7786 0.6276 312.7749 -182.4088)" style="fill:#FF67AB;" width="0.96" height="3.433"/>
					
						<rect id="XMLID_147_" x="348.812" y="236.788" transform="matrix(0.6276 0.7785 -0.7785 0.6276 315.753 -183.1168)" style="fill:#FF67AB;" width="0.96" height="3.433"/>
					
						<rect id="XMLID_146_" x="351.066" y="239.584" transform="matrix(0.6275 0.7786 -0.7786 0.6275 318.8316 -183.8349)" style="fill:#FF67AB;" width="0.96" height="3.433"/>
					
						<rect id="XMLID_145_" x="353.309" y="242.368" transform="matrix(0.6275 0.7786 -0.7786 0.6275 321.8346 -184.5448)" style="fill:#FF67AB;" width="0.96" height="3.433"/>
					
						<rect id="XMLID_144_" x="355.563" y="245.164" transform="matrix(0.6276 0.7786 -0.7786 0.6276 324.8164 -185.2555)" style="fill:#FF67AB;" width="0.96" height="3.433"/>
					
						<rect id="XMLID_143_" x="357.817" y="247.961" transform="matrix(0.6276 0.7786 -0.7786 0.6276 327.833 -185.9688)" style="fill:#FF67AB;" width="0.96" height="3.433"/>
					
						<rect id="XMLID_142_" x="360.071" y="250.757" transform="matrix(0.6276 0.7786 -0.7786 0.6276 330.8495 -186.682)" style="fill:#FF67AB;" width="0.96" height="3.433"/>
					
						<rect id="XMLID_141_" x="362.314" y="253.541" transform="matrix(0.6276 0.7786 -0.7786 0.6276 333.8522 -187.392)" style="fill:#FF67AB;" width="0.96" height="3.433"/>
					
						<rect id="XMLID_140_" x="364.568" y="256.337" transform="matrix(0.6274 0.7787 -0.7787 0.6274 336.9342 -188.1094)" style="fill:#FF67AB;" width="0.96" height="3.433"/>
					
						<rect id="XMLID_155_" x="366.822" y="259.133" transform="matrix(0.6274 0.7787 -0.7787 0.6274 339.9547 -188.8227)" style="fill:#FF67AB;" width="0.96" height="3.433"/>
					
						<rect id="XMLID_154_" x="369.076" y="261.93" transform="matrix(0.6276 0.7786 -0.7786 0.6276 342.8985 -189.5316)" style="fill:#FF67AB;" width="0.96" height="3.433"/>
					
						<rect id="XMLID_153_" x="371.33" y="264.726" transform="matrix(0.6276 0.7786 -0.7786 0.6276 345.9185 -190.245)" style="fill:#FF67AB;" width="0.96" height="3.433"/>
					
						<rect id="XMLID_152_" x="373.573" y="267.51" transform="matrix(0.6276 0.7786 -0.7786 0.6276 348.9247 -190.9552)" style="fill:#FF67AB;" width="0.96" height="3.433"/>
					
						<rect id="XMLID_151_" x="375.827" y="270.306" transform="matrix(0.6275 0.7786 -0.7786 0.6275 351.9718 -191.6701)" style="fill:#FF67AB;" width="0.96" height="3.433"/>
					
						<rect id="XMLID_156_" x="378.081" y="273.102" transform="matrix(0.6275 0.7786 -0.7786 0.6275 354.9922 -192.3835)" style="fill:#FF67AB;" width="0.96" height="3.433"/>
				</g>
				
					<rect id="XMLID_160_" x="402.617" y="177.725" transform="matrix(0.6276 0.7786 -0.7786 0.6276 289.5501 -247.0802)" style="fill:#FF67AB;" width="0.822" height="2.756"/>
				
					<rect id="XMLID_164_" x="395.282" y="170.094" transform="matrix(0.7531 0.6579 -0.6579 0.7531 210.4842 -217.9804)" style="fill:#FF67AB;" width="0.822" height="2.756"/>
				
					<rect id="XMLID_166_" x="386.733" y="163.853" transform="matrix(0.856 0.5171 -0.5171 0.856 141.1996 -176.3728)" style="fill:#FF67AB;" width="0.822" height="2.756"/>
				
					<rect id="XMLID_168_" x="377.23" y="159.191" transform="matrix(0.9327 0.3606 -0.3606 0.9327 83.2965 -125.362)" style="fill:#FF67AB;" width="0.822" height="2.756"/>
				
					<rect id="XMLID_170_" x="367.063" y="156.25" transform="matrix(0.9812 0.1931 -0.1931 0.9812 37.3587 -67.9991)" style="fill:#FF67AB;" width="0.822" height="2.756"/>
				
					<rect id="XMLID_172_" x="356.539" y="155.119" transform="matrix(0.9998 0.0198 -0.0198 0.9998 3.1744 -7.0495)" style="fill:#FF67AB;" width="0.822" height="2.756"/>
				
					<rect id="XMLID_174_" x="345.978" y="155.833" transform="matrix(0.988 -0.1542 0.1542 0.988 -20.0958 55.282)" style="fill:#FF67AB;" width="0.822" height="2.756"/>
				
					<rect id="XMLID_176_" x="335.702" y="158.37" transform="matrix(0.9463 -0.3233 0.3233 0.9463 -33.5979 117.2592)" style="fill:#FF67AB;" width="0.822" height="2.756"/>
				
					<rect id="XMLID_178_" x="326.023" y="162.653" transform="matrix(0.8757 -0.4829 0.4829 0.8757 -38.6273 178.0177)" style="fill:#FF67AB;" width="0.822" height="2.756"/>
				
					<rect id="XMLID_180_" x="317.234" y="168.552" transform="matrix(0.7786 -0.6276 0.6276 0.7786 -36.3048 236.9668)" style="fill:#FF67AB;" width="0.822" height="2.756"/>
				
					<rect id="XMLID_179_" x="393.444" y="263.108" transform="matrix(0.7786 -0.6276 0.6276 0.7786 -78.7688 305.7299)" style="fill:#FF67AB;" width="0.822" height="2.756"/>
				
					<rect id="XMLID_181_" x="401.075" y="255.773" transform="matrix(0.6579 -0.7531 0.7531 0.6579 -56.3058 390.3574)" style="fill:#FF67AB;" width="0.822" height="2.756"/>
				
					<rect id="XMLID_183_" x="407.316" y="247.224" transform="matrix(0.5171 -0.856 0.856 0.5171 -15.881 469.0566)" style="fill:#FF67AB;" width="0.822" height="2.756"/>
				
					<rect id="XMLID_185_" x="411.978" y="237.721" transform="matrix(0.3606 -0.9327 0.9327 0.3606 40.6813 537.5388)" style="fill:#FF67AB;" width="0.822" height="2.756"/>
				
					<rect id="XMLID_187_" x="414.919" y="227.553" transform="matrix(0.1931 -0.9812 0.9812 0.1931 110.504 592.2348)" style="fill:#FF67AB;" width="0.822" height="2.756"/>
				
					<rect id="XMLID_189_" x="416.049" y="217.029" transform="matrix(0.0198 -0.9998 0.9998 0.0198 189.8352 630.4531)" style="fill:#FF67AB;" width="0.822" height="2.756"/>
				
					<rect id="XMLID_191_" x="415.335" y="206.469" transform="matrix(-0.1542 -0.988 0.988 -0.1542 274.4877 650.6686)" style="fill:#FF67AB;" width="0.822" height="2.756"/>
				
					<rect id="XMLID_193_" x="412.798" y="196.193" transform="matrix(-0.3234 -0.9463 0.9463 -0.3234 359.9042 652.4713)" style="fill:#FF67AB;" width="0.822" height="2.756"/>
				
					<rect id="XMLID_195_" x="408.515" y="186.514" transform="matrix(-0.4828 -0.8757 0.8757 -0.4828 441.8239 636.7139)" style="fill:#FF67AB;" width="0.822" height="2.756"/>
				
					<rect id="XMLID_283_" x="277.333" y="228.583" transform="matrix(0.6275 0.7786 -0.7786 0.6275 305.6122 -179.9508)" style="fill:#FF67AB;" width="127.104" height="1.716"/>
			</g>
			<g>
				<path style="fill:#22B6FF;" d="M130.985,327.068c0.068-2.387-3.823-21.957,7.027-31.367c8.611-7.467,4.048-11.051-0.823-12.534
					c-4.871-1.483-10.134-0.712-8.73-6.959c4.626-20.566-5.083-39.215-13.777-27.809c-4.7,6.166-11.455-0.487-10.407-5.718
					c2.223-11.095-1.31-19.597-8.203-14.736c-6.779,4.779-12.254,4.754-13.004-0.184c-0.746-4.936,2.8-14.116-6.837-14.002
					c-3.794,0.045-9.46,7.764-8.349,15.541c0.634,4.432,6.352,17.462-4.428,13.868c-11.112-3.701-9.902,5.767-4.905,9.837
					c1.859,1.514,17.988,16.897,10.655,17.439c-8.657,0.638-8.68,8.183,1.092,13.437c4.44,2.382,15.651,4.627,13.31,8.283
					c-2.342,3.654-3.834,16.165,3.884,15.913C109.393,307.365,131.129,322.108,130.985,327.068z"/>
				<path style="fill:none;stroke:#D2D9E8;stroke-width:1.1412;stroke-miterlimit:10;" d="M73.563,220.134
					c0,0,1.974,30.989,23.035,60.748c21.71,30.667,36.682,38.051,37.855,62.075"/>
				<path style="fill:none;stroke:#D2D9E8;stroke-width:1.1412;stroke-miterlimit:10;" d="M94.683,238.031
					c0,0-10.149,14.196-8.618,26.355"/>
				<path style="fill:none;stroke:#D2D9E8;stroke-width:1.1412;stroke-miterlimit:10;" d="M61.399,248.867
					c0,0,16.186,5.455,26.041,18.055"/>
				<path style="fill:none;stroke:#D2D9E8;stroke-width:1.1412;stroke-miterlimit:10;" d="M118.909,254.828
					c0,0,0.055,8.342-13.741,36.829"/>
				<path style="fill:none;stroke:#D2D9E8;stroke-width:1.1412;stroke-miterlimit:10;" d="M66.623,275.953
					c0,0,26.169,4.046,31.733,7.226"/>
				<path style="fill:none;stroke:#D2D9E8;stroke-width:1.1412;stroke-miterlimit:10;" d="M86.148,299.389
					c0,0,21.686,0.785,32.341,9.44"/>
			</g>
			<g>
				<g>
					<polygon style="fill:#E8CAA3;" points="69.31,128.992 71.773,144.12 79.735,140.228 					"/>
					<polygon style="fill:#FF2687;" points="70.12,133.968 72.739,132.688 69.31,128.992 					"/>
					<path style="fill:#FF2687;" d="M156.357,301.88l-4.087,1.998c-1.07,0.523-2.362,0.08-2.885-0.99L71.773,144.12l7.962-3.892
						l77.612,158.767C157.87,300.065,157.427,301.357,156.357,301.88z"/>
					<g>
						
							<rect x="112.073" y="134.114" transform="matrix(0.8984 -0.4392 0.4392 0.8984 -87.8178 72.8587)" style="fill:#FF67AB;" width="2.954" height="184.207"/>
						
							<rect x="117.381" y="131.519" transform="matrix(0.8984 -0.4392 0.4392 0.8984 -86.1367 74.9233)" style="fill:#FF67AB;" width="2.954" height="184.207"/>
					</g>
				</g>
				<g>
					<polygon style="fill:#E8CAA3;" points="295.72,108.504 288.24,121.882 296.895,123.786 					"/>
					<polygon style="fill:#FF2687;" points="293.26,112.904 296.107,113.53 295.72,108.504 					"/>
					<path style="fill:#FF2687;" d="M256.348,298.022l-4.443-0.978c-1.163-0.256-1.899-1.406-1.643-2.57l37.977-172.593l8.655,1.904
						l-37.977,172.593C258.662,297.542,257.512,298.278,256.348,298.022z"/>
					<g>
						
							<rect x="268.412" y="120.048" transform="matrix(0.9766 0.2149 -0.2149 0.9766 51.8953 -53.0412)" style="fill:#FF67AB;" width="2.954" height="184.207"/>
						
							<rect x="274.182" y="121.317" transform="matrix(0.9766 0.2149 -0.2149 0.9766 52.3029 -54.2515)" style="fill:#FF67AB;" width="2.954" height="184.207"/>
					</g>
				</g>
			</g>
			<g>
				<g>
					<path style="fill:none;stroke:#4144B3;stroke-width:0.7043;stroke-miterlimit:10;" d="M301.89,198.975
						c8.125-29.234,23.579-56.4,44.555-78.323"/>
					<g>
						<path style="fill:#4144B3;" d="M344.13,129.48c0.853-0.174,1.74-0.302,2.591-0.118c0.851,0.184,1.669,0.735,1.954,1.559
							c0.356,1.029-0.225,2.201-1.108,2.837c-0.884,0.636-2,0.843-3.082,0.961c-1.275,0.139-8.506,0.479-8.897-1.332
							C335.239,131.767,342.94,129.723,344.13,129.48z"/>
						<path style="fill:#4144B3;" d="M340.09,136.869c0.87-0.051,1.765-0.051,2.582,0.253c0.817,0.303,1.547,0.966,1.712,1.821
							c0.206,1.069-0.536,2.146-1.501,2.65c-0.965,0.503-2.099,0.549-3.187,0.512c-1.282-0.044-8.488-0.738-8.616-2.586
							C330.964,137.865,338.878,136.94,340.09,136.869z"/>
						<path style="fill:#4144B3;" d="M336.171,145.044c0.858,0.153,1.728,0.361,2.452,0.845c0.724,0.485,1.281,1.299,1.242,2.169
							c-0.048,1.087-1.02,1.963-2.076,2.229c-1.056,0.265-2.17,0.046-3.219-0.243c-1.237-0.341-8.084-2.69-7.779-4.517
							C327.063,143.892,334.975,144.831,336.171,145.044z"/>
						<path style="fill:#4144B3;" d="M323.062,168.207c0.858,0.152,1.728,0.361,2.452,0.845c0.724,0.485,1.281,1.299,1.242,2.169
							c-0.048,1.087-1.02,1.963-2.076,2.229c-1.056,0.265-2.169,0.046-3.219-0.243c-1.237-0.341-8.084-2.69-7.779-4.517
							C313.955,167.056,321.867,167.995,323.062,168.207z"/>
						<path style="fill:#4144B3;" d="M325.455,158.995c0.661,0.117,1.332,0.278,1.889,0.651c0.558,0.374,0.987,1.001,0.957,1.671
							c-0.037,0.838-0.786,1.513-1.6,1.717c-0.813,0.204-1.671,0.036-2.48-0.187c-0.953-0.263-6.228-2.073-5.994-3.48
							C318.438,158.108,324.534,158.832,325.455,158.995z"/>
						<path style="fill:#4144B3;" d="M301.476,177.26c-0.525-0.419-1.038-0.88-1.349-1.474c-0.312-0.594-0.389-1.35-0.043-1.925
							c0.432-0.718,1.413-0.954,2.225-0.745c0.812,0.209,1.486,0.767,2.09,1.348c0.712,0.686,4.483,4.794,3.605,5.919
							C307.218,181.39,302.207,177.844,301.476,177.26z"/>
						<path style="fill:#4144B3;" d="M304.466,170.851c-0.599-0.302-1.196-0.648-1.624-1.165c-0.427-0.518-0.659-1.242-0.438-1.875
							c0.276-0.792,1.187-1.224,2.024-1.187s1.612,0.445,2.322,0.89c0.838,0.525,5.373,3.77,4.745,5.052
							C310.935,173.711,305.301,171.271,304.466,170.851z"/>
						<path style="fill:#4144B3;" d="M315.606,176.049c0.665-0.093,1.352-0.149,1.998,0.034c0.646,0.182,1.248,0.646,1.428,1.292
							c0.224,0.808-0.279,1.682-0.988,2.128c-0.71,0.447-1.578,0.552-2.416,0.591c-0.987,0.046-6.564-0.04-6.777-1.451
							C308.659,177.381,314.68,176.179,315.606,176.049z"/>
						<path style="fill:#4144B3;" d="M331.096,150.899c0.734,0.13,1.478,0.308,2.097,0.723c0.619,0.414,1.095,1.111,1.062,1.855
							c-0.041,0.93-0.873,1.679-1.776,1.906c-0.903,0.227-1.855,0.039-2.753-0.208c-1.058-0.292-6.914-2.301-6.654-3.863
							C323.307,149.914,330.074,150.717,331.096,150.899z"/>
						<path style="fill:#4144B3;" d="M349.332,114.863c0.601-0.631,1.255-1.242,2.059-1.578c0.804-0.336,1.79-0.351,2.494,0.162
							c0.88,0.64,1.074,1.935,0.712,2.961c-0.361,1.027-1.159,1.835-1.98,2.55c-0.967,0.843-6.706,5.255-8.061,3.992
							C343.344,121.821,348.495,115.743,349.332,114.863z"/>
						<path style="fill:#4144B3;" d="M336.135,120.287c-0.012-0.871,0.028-1.766,0.367-2.568c0.339-0.802,1.034-1.503,1.896-1.629
							c1.077-0.158,2.121,0.631,2.581,1.618c0.46,0.986,0.455,2.122,0.369,3.207c-0.101,1.279-1.115,8.446-2.967,8.493
							C336.724,129.448,336.152,121.501,336.135,120.287z"/>
						<path style="fill:#4144B3;" d="M328.307,128.61c-0.205-0.847-0.364-1.728-0.211-2.585c0.153-0.857,0.675-1.695,1.487-2.009
							c1.015-0.393,2.208,0.146,2.875,1.006c0.667,0.86,0.914,1.968,1.071,3.045c0.185,1.27,0.785,8.484-1.01,8.939
							C330.913,137.413,328.593,129.79,328.307,128.61z"/>
						<path style="fill:#4144B3;" d="M322.172,135.744c-0.373-0.787-0.708-1.618-0.733-2.488s0.316-1.797,1.048-2.27
							c0.914-0.591,2.191-0.307,3.019,0.4c0.828,0.706,1.295,1.741,1.668,2.764c0.439,1.206,2.494,8.147,0.829,8.958
							C326.513,143.832,322.692,136.841,322.172,135.744z"/>
						<path style="fill:#4144B3;" d="M316.742,143.367c-0.477-0.729-0.923-1.505-1.067-2.364c-0.144-0.859,0.066-1.823,0.726-2.392
							c0.824-0.711,2.128-0.604,3.046-0.018c0.917,0.586,1.522,1.547,2.031,2.509c0.6,1.134,3.588,7.727,2.05,8.759
							C322.152,150.784,317.407,144.383,316.742,143.367z"/>
						<path style="fill:#4144B3;" d="M312.137,150.601c-0.477-0.729-0.923-1.505-1.067-2.364c-0.144-0.859,0.067-1.823,0.726-2.392
							c0.824-0.711,2.128-0.604,3.046-0.018c0.917,0.586,1.522,1.547,2.031,2.509c0.6,1.134,3.588,7.727,2.05,8.759
							C317.547,158.018,312.802,151.616,312.137,150.601z"/>
						<path style="fill:#4144B3;" d="M308.775,157.438c-0.477-0.729-0.923-1.505-1.067-2.364c-0.144-0.859,0.066-1.823,0.726-2.392
							c0.824-0.711,2.128-0.604,3.046-0.018c0.917,0.586,1.522,1.547,2.031,2.509c0.6,1.134,3.588,7.727,2.05,8.759
							C314.185,164.854,309.44,158.453,308.775,157.438z"/>
						<path style="fill:#4144B3;" d="M304.831,165.008c-0.794-0.359-1.586-0.776-2.168-1.424c-0.582-0.648-0.921-1.574-0.669-2.408
							c0.315-1.042,1.473-1.651,2.561-1.648c1.088,0.003,2.114,0.49,3.06,1.029c1.115,0.635,7.172,4.6,6.426,6.295
							C313.374,168.369,305.937,165.509,304.831,165.008z"/>
					</g>
				</g>
				<g>
					<path style="fill:none;stroke:#4144B3;stroke-width:0.6815;stroke-miterlimit:10;" d="M128.999,244.953
						c-0.774-29.349-8.913-58.475-23.466-83.975"/>
					<g>
						<path style="fill:#4144B3;" d="M105.638,169.809c-0.76-0.364-1.563-0.691-2.405-0.718s-1.74,0.299-2.2,1.005
							c-0.575,0.882-0.305,2.119,0.375,2.923s1.68,1.26,2.668,1.624c1.165,0.429,7.873,2.444,8.664,0.836
							C113.448,174.04,106.697,170.316,105.638,169.809z"/>
						<path style="fill:#4144B3;" d="M107.698,177.693c-0.804-0.252-1.645-0.461-2.483-0.368c-0.838,0.093-1.679,0.544-2.034,1.308
							c-0.444,0.955,0,2.141,0.788,2.84c0.788,0.699,1.842,1.008,2.872,1.227c1.214,0.259,8.141,1.297,8.695-0.408
							C116.032,180.767,108.819,178.044,107.698,177.693z"/>
						<path style="fill:#4144B3;" d="M109.461,186.286c-0.841-0.058-1.707-0.067-2.5,0.219c-0.793,0.285-1.507,0.919-1.675,1.745
							c-0.21,1.032,0.498,2.082,1.426,2.579c0.929,0.497,2.026,0.552,3.079,0.527c1.241-0.03,8.22-0.63,8.362-2.417
							C118.28,187.34,110.632,186.367,109.461,186.286z"/>
						<path style="fill:#4144B3;" d="M116.336,211.105c-0.841-0.058-1.707-0.067-2.5,0.219c-0.793,0.285-1.507,0.919-1.675,1.745
							c-0.21,1.032,0.498,2.082,1.426,2.579c0.929,0.497,2.026,0.552,3.079,0.526c1.241-0.03,8.22-0.63,8.362-2.417
							C125.156,212.159,117.508,211.186,116.336,211.105z"/>
						<path style="fill:#4144B3;" d="M116.25,201.896c-0.648-0.045-1.315-0.051-1.926,0.169c-0.611,0.22-1.161,0.708-1.29,1.345
							c-0.162,0.795,0.383,1.604,1.099,1.987c0.715,0.383,1.561,0.425,2.372,0.406c0.956-0.023,6.333-0.486,6.443-1.862
							C123.045,202.708,117.152,201.958,116.25,201.896z"/>
						<path style="fill:#4144B3;" d="M134.479,224.665c0.59-0.27,1.18-0.583,1.612-1.068c0.432-0.485,0.682-1.176,0.492-1.797
							c-0.238-0.776-1.103-1.227-1.914-1.221c-0.811,0.005-1.575,0.371-2.278,0.776c-0.829,0.477-5.333,3.45-4.772,4.712
							C128.12,227.195,133.656,225.042,134.479,224.665z"/>
						<path style="fill:#4144B3;" d="M133.174,217.946c0.633-0.143,1.275-0.328,1.797-0.713c0.523-0.386,0.909-1.011,0.851-1.658
							c-0.073-0.808-0.827-1.427-1.622-1.589c-0.795-0.161-1.617,0.04-2.389,0.291c-0.909,0.296-5.928,2.28-5.639,3.63
							C126.431,219.115,132.291,218.146,133.174,217.946z"/>
						<path style="fill:#4144B3;" d="M121.497,220.215c-0.602-0.243-1.235-0.457-1.884-0.437c-0.649,0.02-1.323,0.313-1.644,0.878
							c-0.4,0.706-0.133,1.644,0.429,2.23c0.562,0.586,1.352,0.888,2.13,1.121c0.916,0.274,6.172,1.502,6.703,0.227
							C127.706,223.094,122.337,220.554,121.497,220.215z"/>
						<path style="fill:#4144B3;" d="M112.851,192.973c-0.719-0.05-1.46-0.057-2.138,0.187c-0.678,0.244-1.289,0.786-1.432,1.493
							c-0.179,0.883,0.426,1.781,1.22,2.206c0.794,0.425,1.733,0.472,2.633,0.45c1.062-0.026,7.03-0.539,7.152-2.067
							C120.395,193.875,113.854,193.042,112.851,192.973z"/>
						<path style="fill:#4144B3;" d="M104.181,154.867c-0.416-0.733-0.887-1.46-1.563-1.964c-0.676-0.504-1.598-0.749-2.38-0.433
							c-0.976,0.395-1.461,1.564-1.363,2.613c0.099,1.049,0.658,1.994,1.261,2.858c0.71,1.018,5.064,6.506,6.632,5.638
							C108.171,162.803,104.761,155.889,104.181,154.867z"/>
						<path style="fill:#4144B3;" d="M115.299,163.053c0.216-0.815,0.388-1.664,0.257-2.497c-0.13-0.833-0.618-1.653-1.397-1.974
							c-0.974-0.401-2.139,0.095-2.802,0.914c-0.663,0.818-0.925,1.885-1.099,2.924c-0.205,1.224-0.933,8.191,0.794,8.668
							C112.598,171.516,114.998,164.189,115.299,163.053z"/>
						<path style="fill:#4144B3;" d="M120.695,172.702c0.391-0.747,0.747-1.537,0.804-2.378c0.058-0.841-0.236-1.749-0.925-2.235
							c-0.861-0.607-2.107-0.381-2.935,0.27c-0.828,0.651-1.32,1.633-1.719,2.608c-0.471,1.148-2.726,7.78-1.147,8.629
							C116.186,180.355,120.151,173.743,120.695,172.702z"/>
						<path style="fill:#4144B3;" d="M124.783,180.837c0.535-0.652,1.044-1.353,1.271-2.164c0.227-0.812,0.125-1.761-0.451-2.376
							c-0.719-0.769-1.985-0.801-2.928-0.333s-1.624,1.331-2.214,2.203c-0.695,1.029-4.251,7.063-2.878,8.215
							C118.811,187.413,124.038,181.745,124.783,180.837z"/>
						<path style="fill:#4144B3;" d="M128.093,189.267c0.619-0.572,1.22-1.197,1.556-1.969c0.336-0.773,0.365-1.727-0.121-2.416
							c-0.607-0.861-1.856-1.066-2.855-0.731c-0.998,0.335-1.791,1.095-2.495,1.879c-0.83,0.924-5.18,6.413-3.978,7.742
							C121.275,194.961,127.23,190.064,128.093,189.267z"/>
						<path style="fill:#4144B3;" d="M130.72,197.138c0.619-0.572,1.22-1.196,1.556-1.969c0.337-0.773,0.365-1.727-0.121-2.416
							c-0.607-0.861-1.856-1.066-2.855-0.731c-0.999,0.335-1.792,1.095-2.495,1.879c-0.829,0.924-5.18,6.413-3.978,7.742
							C123.903,202.832,129.858,197.935,130.72,197.138z"/>
						<path style="fill:#4144B3;" d="M132.273,204.344c0.619-0.572,1.22-1.196,1.556-1.969c0.337-0.773,0.365-1.727-0.121-2.416
							c-0.607-0.861-1.856-1.066-2.855-0.731c-0.998,0.335-1.791,1.095-2.495,1.879c-0.829,0.924-5.18,6.413-3.978,7.742
							C125.456,210.038,131.411,205.141,132.273,204.344z"/>
						<path style="fill:#4144B3;" d="M134.201,212.376c0.829-0.151,1.671-0.356,2.369-0.828s1.234-1.262,1.193-2.104
							c-0.051-1.052-0.995-1.896-2.018-2.148c-1.023-0.252-2.1-0.036-3.114,0.248c-1.195,0.335-7.811,2.637-7.509,4.403
							C125.393,213.528,133.045,212.587,134.201,212.376z"/>
					</g>
				</g>
			</g>
		</g>
		<g>
			<g>
				<g>
					<g>
						<g>
							<path style="fill-rule:evenodd;clip-rule:evenodd;fill:#18236B;" d="M134.04,170.936h217.125
								c4.438,0,8.068,3.632,8.068,8.068v137.171c0,4.438-3.63,8.068-8.068,8.068H134.04c-4.438,0-8.068-3.63-8.068-8.068V179.004
								C125.972,174.568,129.602,170.936,134.04,170.936z"/>
							
								<rect x="138.074" y="191.869" style="fill-rule:evenodd;clip-rule:evenodd;fill:#E8F4F9;" width="209.055" height="107.304"/>
							<path style="fill-rule:evenodd;clip-rule:evenodd;fill:#E2FFFA;" d="M242.603,182.159c1.62,0,2.934-1.312,2.934-2.934
								c0-1.62-1.314-2.932-2.934-2.932c-1.621,0-2.934,1.312-2.934,2.932C239.668,180.846,240.982,182.159,242.603,182.159z"/>
							<path style="fill-rule:evenodd;clip-rule:evenodd;fill:#18236B;" d="M85.458,313.989h314.291v9.05
								c0,3.206-2.626,5.83-5.832,5.83H91.289c-3.208,0-5.831-2.624-5.831-5.83V313.989z"/>
							<rect x="210.86" y="321.7" style="fill-rule:evenodd;clip-rule:evenodd;fill:#18236B;" width="63.484" height="4.046"/>
							<rect x="85.458" y="313.989" style="fill-rule:evenodd;clip-rule:evenodd;fill:#DCDDDE;" width="314.291" height="4.524"/>
						</g>
					</g>
				</g>
			</g>
			<g>
				<g>
					<path style="fill:#B4D8E7;" d="M341.136,185.013H144.025c-3.288,0-5.951,2.401-5.951,5.368v10.178h209.014v-10.178
						C347.087,187.414,344.424,185.013,341.136,185.013z"/>
					<g>
						<path style="fill:#FFFFFF;" d="M150.252,192.952c0,1.657-1.491,2.994-3.319,2.994c-1.841,0-3.326-1.337-3.326-2.994
							c0-1.654,1.485-2.996,3.326-2.996C148.761,189.956,150.252,191.298,150.252,192.952z"/>
						<path style="fill:#FFFFFF;" d="M159.56,192.952c0,1.657-1.498,2.994-3.326,2.994c-1.84,0-3.325-1.337-3.325-2.994
							c0-1.654,1.485-2.996,3.325-2.996C158.062,189.956,159.56,191.298,159.56,192.952z"/>
						<path style="fill:#FFFFFF;" d="M168.854,192.952c0,1.657-1.497,2.994-3.326,2.994c-1.827,0-3.325-1.337-3.325-2.994
							c0-1.654,1.498-2.996,3.325-2.996C167.356,189.956,168.854,191.298,168.854,192.952z"/>
					</g>
					<rect x="178.153" y="190.255" style="fill:#FFFFFF;" width="160.252" height="5.393"/>
				</g>
				<g>
					<polyline style="fill:none;stroke:#EFC231;stroke-width:0.8905;stroke-miterlimit:10;" points="157.898,281.193 
						187.515,269.078 217.133,256.114 246.752,244.144 276.643,244.144 305.989,232.273 					"/>
					<polyline style="fill:none;stroke:#22B6FF;stroke-miterlimit:10;" points="157.898,268.58 187.515,256.466 217.133,268.58 
						246.752,257.331 276.37,220.874 305.989,208.009 					"/>
					<path style="fill:#FFFFFF;stroke:#22B6FF;stroke-miterlimit:10;" d="M278.065,220.874c0,0.936-0.759,1.696-1.695,1.696
						c-0.936,0-1.695-0.76-1.695-1.696c0-0.936,0.759-1.695,1.695-1.695C277.306,219.179,278.065,219.938,278.065,220.874z"/>
					<path style="fill:#FFFFFF;stroke:#22B6FF;stroke-miterlimit:10;" d="M248.448,257.331c0,0.936-0.759,1.695-1.696,1.695
						c-0.936,0-1.695-0.759-1.695-1.695c0-0.936,0.758-1.695,1.695-1.695C247.689,255.636,248.448,256.395,248.448,257.331z"/>
					<path style="fill:#FFFFFF;stroke:#22B6FF;stroke-miterlimit:10;" d="M218.828,268.58c0,0.936-0.759,1.696-1.695,1.696
						c-0.936,0-1.695-0.76-1.695-1.696c0-0.936,0.759-1.695,1.695-1.695C218.069,266.885,218.828,267.644,218.828,268.58z"/>
					<path style="fill:#FFFFFF;stroke:#22B6FF;stroke-miterlimit:10;" d="M189.21,256.466c0,0.936-0.759,1.696-1.695,1.696
						c-0.936,0-1.696-0.76-1.696-1.696c0-0.937,0.759-1.695,1.696-1.695C188.451,254.771,189.21,255.529,189.21,256.466z"/>
					<path style="fill:#FFFFFF;stroke:#EFC231;stroke-width:0.8905;stroke-miterlimit:10;" d="M247.766,244.293
						c0,0.936-0.759,1.697-1.695,1.697c-0.936,0-1.695-0.76-1.695-1.697c0-0.935,0.759-1.694,1.695-1.694
						C247.007,242.599,247.766,243.358,247.766,244.293z"/>
					<path style="fill:#FFFFFF;stroke:#EFC231;stroke-width:0.8905;stroke-miterlimit:10;" d="M278.04,244.293
						c0,0.936-0.758,1.697-1.694,1.697c-0.936,0-1.696-0.76-1.696-1.697c0-0.935,0.759-1.694,1.696-1.694
						C277.283,242.599,278.04,243.358,278.04,244.293z"/>
				</g>
			</g>
		</g>
		<g>
			<g>
				<path style="fill:#282E53;" d="M96.516,253.252c0.144,1.55-0.589,3.151-0.126,4.637c0.625,2.005,3.07,2.821,4.201,4.59
					c1.23,1.925,0.465,4.761-1.453,6.001c-1.919,1.24-4.639,0.89-6.354-0.62c-1.03-0.907-1.717-2.153-2.152-3.454
					c-0.522-1.56-0.707-3.219-0.683-4.864c0.014-0.941,0.099-1.9,0.471-2.764c0.573-1.332,1.748-2.285,2.72-3.361
					c0.483-0.535,0.928-1.139,1.208-1.807c0.215-0.514,0.148-1.602,0.507-1.903C95.71,250.598,96.402,252.017,96.516,253.252z"/>
				<g>
					<g>
						<g>
							<polygon style="fill:#F8B791;" points="106.475,348.524 108.308,358.472 114.618,360.099 117.976,360.202 111.462,356.946 
								109.986,348.471 							"/>
							<path style="fill:#1D1D18;" d="M108.205,360.099l1.323,0.102l0.713-0.916l5.598,1.655l3.561,0.28
								c0,0-0.267-0.564-0.483-0.739c-0.65-0.528-3.232-1.501-3.232-1.501s0.051,0.814-0.357,0.917
								c-0.406,0.1-4.274-0.967-5.19-1.325c-1.577-0.612-1.939-1.104-2.036-1.018C107.849,357.786,108.205,360.099,108.205,360.099z
								"/>
						</g>
						<path style="fill:#32349C;" d="M104.382,289.181l7.919,32.824l-1.666,28.64l-4.864-0.309
							c-2.25-28.507,0.19-23.793-0.905-28.13c-0.699-2.758-12.302-27.21-9.922-33.065
							C97.323,283.285,104.382,289.181,104.382,289.181z"/>
					</g>
					<g>
						<g>
							<polygon style="fill:#F8B791;" points="82.358,351.077 79.686,360.937 79.919,361.66 86.228,363.292 89.586,363.39 
								83.074,360.137 86.226,350.465 							"/>
							<path style="fill:#1D1D18;" d="M79.815,363.292l1.323,0.099l0.714-0.916l5.062,1.425l4.301,0.205
								c0,0-0.008-0.334-0.179-0.483c-0.635-0.56-3.792-1.501-3.792-1.501s0.128,0.965-0.279,1.068
								c-0.408,0.103-4.299-1.068-5.215-1.426c-1.576-0.613-1.94-1.105-2.035-1.016C79.459,360.975,79.815,363.292,79.815,363.292z"
								/>
						</g>
						<path style="fill:#4144B3;" d="M90.979,294.121l-1.67,26.666c0,0-3.225,6.521-3.73,9.109
							c-1.138,5.832-4.597,23.315-4.597,23.315l5.173,1.028c0,0,9.458-30.125,10.363-32.808c0.905-2.681,8.899-25.107,6.684-31.101
							C100.988,284.336,90.979,294.121,90.979,294.121z"/>
					</g>
				</g>
				<path style="fill:#282E53;" d="M93.047,249.568c-2.645,0.001-4.389,3.155-4.389,3.155l0.685,10.544l-4-3.702
					c0,0-1.691-5.98,0.077-10.672c1.378-2.92,5.374-3.196,7.901-1.337c1.229,0.904,2.425,2.456,2.703,3.93
					C96.172,252.279,94.823,249.567,93.047,249.568z"/>
				<g>
					<path style="fill:#F8A677;" d="M91.184,258.611l0.17,2.814c0.075,1.238-1.119,2.164-2.299,1.784l-2.076-0.668l1.364-8.038
						L91.184,258.611z"/>
					<g>
						<path style="fill:#F8B791;" d="M87.874,252.757c0.329-0.242,0.867-0.115,1.201,0.285c0.334,0.399,0.338,0.919,0.008,1.162
							c-0.329,0.242-0.867,0.115-1.201-0.285C87.548,253.519,87.545,252.999,87.874,252.757z"/>
						<g>
							<path style="fill:#F8B791;" d="M92.256,258.841c0.505,0.053,0.982,0.034,1.256-0.151c1.764-2.115,0.958-8.571,0.958-8.571
								l-2.173-1.384l-3.219,1.614l-0.734,4.153c-0.196,1.109,0.147,2.244,0.924,3.059l0,0
								C90.122,258.262,91.156,258.726,92.256,258.841z"/>
						</g>
						<g>
							<path style="fill:#FF907E;" d="M90.79,256.209c-0.132,0.11-0.328,0.092-0.491,0.039c-0.442-0.144-1.44-1.19-0.516-1.362
								C90.322,254.786,91.356,255.734,90.79,256.209z"/>
							<g>
								<g>
									<g>
										<path style="fill:#01010A;" d="M94.144,252.089c-0.199,0.001-0.406,0.074-0.529,0.232
											c0.059,0.092,0.174,0.132,0.283,0.136c0.109,0.004,0.216-0.023,0.325-0.036c0.109-0.013,0.22-0.011,0.328,0.004
											c0.048,0.007,0.096,0.016,0.143,0.008c0.245-0.045,0.012-0.199-0.056-0.242C94.511,252.111,94.29,252.088,94.144,252.089z
											"/>
										
											<path style="fill:none;stroke:#18236B;stroke-width:0.185;stroke-linecap:round;stroke-linejoin:round;stroke-miterlimit:10;" d="
											M94.679,253.725c-0.099-0.128-0.257-0.208-0.419-0.211c-0.161-0.003-0.323,0.07-0.427,0.193"/>
									</g>
									<g>
										<path style="fill:#01010A;" d="M91.354,252.34c-0.211-0.048-0.446-0.083-0.631,0.029c-0.13,0.078-0.223,0.222-0.371,0.254
											c0.025-0.171,0.159-0.311,0.314-0.388c0.155-0.077,0.33-0.102,0.501-0.126c0.224-0.032,0.726-0.222,0.809,0.077
											C92.074,252.534,91.545,252.383,91.354,252.34z"/>
										
											<path style="fill:none;stroke:#18236B;stroke-width:0.185;stroke-linecap:round;stroke-linejoin:round;stroke-miterlimit:10;" d="
											M91.803,253.759c-0.118-0.135-0.325-0.152-0.499-0.108c-0.152,0.039-0.293,0.116-0.407,0.224"/>
									</g>
								</g>
								
									<path style="fill:none;stroke:#18236B;stroke-width:0.185;stroke-linecap:round;stroke-linejoin:round;stroke-miterlimit:10;" d="
									M93.384,255.135c-0.122,0.223-0.387,0.358-0.639,0.325"/>
							</g>
							
								<path style="fill:none;stroke:#FF907E;stroke-width:0.2387;stroke-linecap:round;stroke-linejoin:round;stroke-miterlimit:10;" d="
								M93.353,257.163c-0.224,0.117-0.504,0.088-0.728-0.029c-0.224-0.117-0.397-0.312-0.538-0.521"/>
							<path style="fill:#FF907E;" d="M94.567,255.31c-0.127,0.003-0.243,0.197-0.283,0.348c-0.07,0.265-0.074,0.547-0.009,0.813
								c0.014,0.058,0.033,0.118,0.079,0.156c0.007,0.006,0.016,0.007,0.024,0.011c0.023-0.086,0.047-0.186,0.07-0.3
								C94.514,256.008,94.559,255.531,94.567,255.31z"/>
						</g>
					</g>
				</g>
				<g>
					<g>
						<path style="fill:#E2D4B7;" d="M125.948,259.837c0.702-0.21,1.274-0.035,1.931,0.257c0.616,0.275,1.089,0.032,1.089,0.032
							s0.222,0.033-1.149-0.563c-0.385-0.167-0.813-0.328-1.227-0.344c-0.386-0.015-1.081,0.038-1.361,0.188
							C124.602,259.745,124.723,260.205,125.948,259.837z"/>
						<path style="fill:#E2D4B7;" d="M105.399,268.045c3.99,0.295,15.074-6.007,15.074-6.007s3.466-3.496-12.527,2.115
							C103.145,265.837,104.414,267.971,105.399,268.045z"/>
						<path style="fill:#E2D4B7;" d="M126.732,259.912l-0.166-0.32l-1.206-0.302c0,0-2.207,0.378-2.986,0.819
							c-0.782,0.443-4.182,0.933-4.571,1.105c-0.388,0.173-0.524,2.147-0.524,2.147s3.297-1.33,4.646-1.748
							c1.351-0.417,3.485-0.345,4.021-0.489c0.914-0.244,1.393-0.319,1.393-0.319s-0.199-0.47-1.656-0.17
							c-0.385,0.079-0.269-0.392-0.269-0.392L126.732,259.912z"/>
						<path style="fill:#E2D4B7;" d="M125.17,260.296c0,0-0.015-0.762,0.285-0.818c0.719-0.132,1.833-0.326,2.192-0.312
							c0.398,0.013,2.266,0.395,2.266,0.395s-0.615,0.289-1.376,0.187C127.496,259.61,125.17,260.296,125.17,260.296z"/>
					</g>
					<g>
						<path style="fill:#FFE200;" d="M112.831,261.6l-6.638,1.648c0,0-14.977-0.927-16.298,0.407c-1.564,1.585-3,4.775-3,4.775
							l18.167,0.82l7.744-0.77L112.831,261.6z"/>
					</g>
				</g>
				<g>
					<g>
						<path style="fill:#1EA0E0;" d="M141.201,274.007l-0.854-6.129l-26.545,3.699c-1.693,0.236-2.873,1.799-2.638,3.491
							l0.157,1.125l0.005,0.037c0.444,1.418,1.896,2.308,3.416,2.096l26.545-3.699l-0.854-6.129"/>
						<path style="fill:#FFFFFF;" d="M111.768,275.285c0.004,0.035,0.004,0.07,0.009,0.105c0.219,1.571,1.67,2.667,3.241,2.448
							l26.208-3.652l-0.411-2.949L111.768,275.285z"/>
						<path style="fill:#E5E5E6;" d="M140.434,268.498l-26.208,3.652c-1.535,0.214-2.614,1.605-2.457,3.135l29.047-4.047
							L140.434,268.498z"/>
					</g>
					<g>
						<path style="fill:#FF67AB;" d="M138.477,267.507l-0.854-6.129l-26.545,3.699c-1.693,0.236-2.873,1.799-2.638,3.492
							l0.157,1.125l0.005,0.037c0.444,1.418,1.896,2.308,3.416,2.096l26.545-3.699l-0.854-6.129"/>
						<path style="fill:#E5E5E6;" d="M137.709,261.998l-26.208,3.652c-1.476,0.206-2.532,1.5-2.473,2.958l29.038-4.046
							L137.709,261.998z"/>
						<path style="fill:#FFFFFF;" d="M109.028,268.608c0.004,0.094,0.012,0.188,0.025,0.282c0.219,1.571,1.67,2.667,3.24,2.448
							l26.208-3.652l-0.435-3.125L109.028,268.608z"/>
					</g>
					<g>
						<path style="fill:#4144B3;" d="M132.548,261.594l-0.854-6.129l-26.545,3.699c-1.693,0.236-2.873,1.799-2.637,3.492
							l0.157,1.125l0.005,0.037c0.444,1.418,1.896,2.308,3.416,2.096l26.545-3.699l-0.854-6.129"/>
						<path style="fill:#E5E5E6;" d="M131.502,256.085l-26.208,3.652c-1.476,0.206-2.532,1.499-2.473,2.958l29.038-4.046
							L131.502,256.085z"/>
						<path style="fill:#FFFFFF;" d="M102.821,262.695c0.004,0.094,0.012,0.188,0.025,0.282c0.219,1.571,1.67,2.667,3.241,2.448
							l26.208-3.652l-0.435-3.125L102.821,262.695z"/>
					</g>
					<g>
						<path style="fill:#FFE200;" d="M136.741,254.369l-0.854-6.129l-26.545,3.699c-1.693,0.236-2.873,1.799-2.638,3.492
							l0.157,1.125l0.005,0.037c0.444,1.418,1.896,2.308,3.416,2.096l26.545-3.699l-0.854-6.129"/>
						<path style="fill:#E5E5E6;" d="M135.973,248.861l-26.208,3.652c-1.476,0.206-2.532,1.499-2.473,2.958l29.038-4.046
							L135.973,248.861z"/>
						<path style="fill:#FFFFFF;" d="M107.292,255.471c0.004,0.094,0.012,0.188,0.025,0.282c0.219,1.571,1.67,2.667,3.241,2.448
							l26.208-3.652l-0.435-3.125L107.292,255.471z"/>
					</g>
				</g>
				<g>
					<path style="fill:#282E53;" d="M93.583,249.293c0.303,1.938-4.926,3.429-4.926,3.429l-0.924-2.493l2.642-2.47l2.802,0.846
						C93.177,248.606,93.531,248.97,93.583,249.293z"/>
					<path style="fill:#282E53;" d="M93.562,249.69c0.004,0.749,1.029,1.795,1.029,1.795l0.227-0.863l-0.178-0.653l-0.544-0.407
						C94.096,249.562,93.558,248.941,93.562,249.69z"/>
				</g>
				<g>
					<path style="fill:#F0D400;" d="M108.751,289.352c-1.596,0.966-2.302,2.989-3.213,4.617c-0.384-1.61-1.199-3.365-1.717-4.664
						c-1.234-3.096-2.966-6.557-3.957-9.739c-0.949-3.047-1.552-6.028-1.929-9.201c0.757,0.522,1.064,2.859,1.397,3.758
						c0.506,1.368,1.079,2.711,1.716,4.023c1.285,2.651,2.829,5.177,4.604,7.528C105.907,286.014,108.541,289.478,108.751,289.352z"
						/>
					<path style="fill:#FFFFFF;" d="M101.766,293.297l3.701-2.688c0,0-3.727-6.302-5.031-10.35c-1.305-4.05-1.435-5.42-1.402-6.737
						c0.033-1.317,0.408-2.918-0.638-4.227c-1.046-1.308-5.64-5.703-6.422-6.279C91.544,262.7,101.766,293.297,101.766,293.297z"/>
					<path style="fill:#F0D400;" d="M103.327,294.824c0,0-3.313-9.69-4.878-14.6c-1.564-4.91-5.22-14.137-5.604-15.314
						c-0.384-1.177-1.332-2.68-1.332-2.68s-2.124-1.121-3.79-0.56c-1.664,0.56-3.427,2.603-2.641,8.426
						c0.516,3.798,6.556,13.421,6.693,14.326c0.136,0.906-2.333,9.1-1.999,11.315c0.335,2.214,0.38,2.516,0.38,2.516
						S98.46,292.574,103.327,294.824z"/>
					<g>
						<path style="fill:#F8B791;" d="M117.402,277.862c3.22,0.441,4.793-0.835,6.127-1.116c1.335-0.28,2.708-0.801,2.699-0.789
							c-0.881,1.154-1.927,1.049-2.502,1.382c-0.571,0.335-0.409,0.148,0.726,0.384c0.647,0.134,1.929-0.755,2.828-1.219
							c0.779-0.401,1.233-0.383,1.233-0.383s-0.971,0.942-2.145,1.647c-1.417,0.849-3.112,1.494-3.507,1.574
							c-0.719,0.153-2.878-0.076-4.389-0.473C116.771,278.422,115.084,277.543,117.402,277.862z"/>
						<path style="fill:#F8B791;" d="M97.983,275.11c0,0,0.25-1.256,6.987-0.14c6.737,1.118,16.38,4.273,16.38,4.273l-15.764-1.255
							C105.586,277.989,99.578,277.245,97.983,275.11z"/>
						<path style="fill:#FFE200;" d="M103.327,273.251c0,0-6.283-1.006-6.618,2.427c-0.189,1.951,1.079,2.921,2.983,3.192
							c3.542,0.508,7.594,0.911,7.594,0.911l2.944-4.802L103.327,273.251z"/>
						<path style="fill:#FFE200;" d="M99.981,272.196l-10.983-8.259c0,0-1.701-0.547-2.605,0.429
							c-1.307,1.405-1.433,2.474-0.818,3.427c1.215,1.88,0.346,1.175,6.581,6.059c5.697,4.468,7.996,6.377,10.228,3.786
							C104.469,275.224,99.981,272.196,99.981,272.196z"/>
						<path style="fill:#F8B791;" d="M123.909,278.913c0,0,2.517-0.382,2.974-0.645c0.319-0.181,1.671-1.292,1.671-1.292
							s-0.936,0.065-1.505,0.478C126.481,277.872,123.909,278.913,123.909,278.913z"/>
					</g>
					<polygon style="fill:#FFE200;" points="87.755,260.17 89.351,260.861 91.655,261.975 91.591,264.253 87.159,261.342 					"/>
				</g>
				<path style="fill:#282E53;" d="M90.639,261.022c-0.242-1.109-0.751-2.565-1.385-3.504c-0.555-0.822-1.609-1.074-2.292-1.76
					c-0.644-0.646-0.864-1.679-0.541-2.532c0.281-0.741,0.94-1.403,0.826-2.188c-0.013-0.088-0.039-0.17-0.07-0.25
					c1.39-1.525,2.817-3.412,0.704-3.596c-2.862-0.248-6.073,3.097-6.796,5.613c-0.259,0.901-0.273,1.888-0.018,2.785
					c0,0.01-0.002,0.019-0.001,0.028c0.047,1.148,0.594,2.215,0.781,3.348c0.017,0.106,0.031,0.217-0.004,0.318
					c-0.086,0.251-0.403,0.316-0.667,0.346c-1.338,0.157-2.726,0.502-3.706,1.427c-1.137,1.074-1.517,2.762-1.366,4.319
					c0.223,2.293,1.536,4.474,3.504,5.672c1.968,1.198,4.554,1.351,6.614,0.319c2.06-1.032,3.499-3.242,3.528-5.546
					c0.003-0.253-0.009-0.511,0.066-0.753c0.08-0.262,0.255-0.482,0.399-0.715C90.82,263.378,90.884,262.143,90.639,261.022z"/>
			</g>
			<g>
				<g>
					<g>
						<path style="fill:#22B6FF;" d="M209.897,235.5c-4.594,3.92-11.049,4.907-16.938,3.918c-4.488-0.754-8.893-2.627-12.145-5.899
							c-3.251-3.272-5.215-8.048-4.587-12.684c0.592-4.377,3.417-8.226,7.016-10.636c3.599-2.41,7.905-3.503,12.185-3.855
							c4.209-0.346,8.587,0.022,12.365,1.963C217.253,213.164,217.791,228.764,209.897,235.5z"/>
						<polygon style="fill:#22B6FF;" points="193.056,235.305 183.708,246.552 186.789,227.969 						"/>
					</g>
					<g>
						<circle style="fill-rule:evenodd;clip-rule:evenodd;fill:#FFFFFF;" cx="187.145" cy="221.69" r="2.256"/>
						<path style="fill-rule:evenodd;clip-rule:evenodd;fill:#FFFFFF;" d="M198.519,222.813c0,1.246-1.01,2.256-2.256,2.256
							s-2.256-1.01-2.256-2.256c0-1.246,1.01-2.256,2.256-2.256S198.519,221.567,198.519,222.813z"/>
						<path style="fill-rule:evenodd;clip-rule:evenodd;fill:#FFFFFF;" d="M207.686,223.946c0,1.246-1.01,2.256-2.256,2.256
							c-1.246,0-2.256-1.01-2.256-2.256c0-1.246,1.01-2.256,2.256-2.256C206.676,221.69,207.686,222.7,207.686,223.946z"/>
					</g>
				</g>
				<g>
					<g>
						<g>
							<g id="XMLID_17_">
								<g id="XMLID_36_">
									<path id="XMLID_37_" style="fill:#BABBFF;" d="M232.445,369.284l-43.395-0.726c-3.396-0.057-6.103-2.856-6.047-6.252
										l1.104-65.962c0.057-3.396,2.856-6.103,6.252-6.047l43.395,0.726c3.396,0.057,6.103,2.856,6.046,6.252l-1.104,65.962
										C238.641,366.633,235.841,369.341,232.445,369.284z"/>
								</g>
								<path id="XMLID_35_" style="fill:#3753A3;" d="M196.453,326.454l-7.235-0.121c-0.422-0.007-0.758-0.355-0.751-0.776
									l0.121-7.235c0.007-0.422,0.355-0.758,0.776-0.751l7.235,0.121c0.422,0.007,0.758,0.355,0.751,0.776l-0.121,7.235
									C197.222,326.125,196.874,326.461,196.453,326.454z"/>
								<path id="XMLID_34_" style="fill:#18236B;" d="M208.865,326.662l-7.235-0.121c-0.422-0.007-0.758-0.355-0.751-0.776
									l0.121-7.235c0.007-0.422,0.355-0.758,0.776-0.751l7.235,0.121c0.422,0.007,0.758,0.355,0.751,0.776l-0.121,7.235
									C209.634,326.332,209.287,326.669,208.865,326.662z"/>
								<path id="XMLID_33_" style="fill:#18236B;" d="M221.278,326.869l-7.235-0.121c-0.422-0.007-0.758-0.355-0.751-0.776
									l0.121-7.235c0.007-0.422,0.355-0.758,0.776-0.751l7.235,0.121c0.422,0.007,0.758,0.355,0.751,0.776l-0.121,7.235
									C222.047,326.54,221.699,326.876,221.278,326.869z"/>
								<path id="XMLID_32_" style="fill:#18236B;" d="M233.69,327.077l-7.235-0.121c-0.422-0.007-0.758-0.355-0.751-0.776
									l0.121-7.235c0.007-0.422,0.355-0.758,0.776-0.751l7.235,0.121c0.422,0.007,0.758,0.355,0.751,0.776l-0.121,7.235
									C234.459,326.748,234.112,327.084,233.69,327.077z"/>
								<g id="XMLID_27_">
									<path id="XMLID_31_" style="fill:#18236B;" d="M196.257,338.136l-7.235-0.121c-0.422-0.007-0.758-0.355-0.751-0.776
										l0.121-7.235c0.007-0.422,0.355-0.758,0.776-0.751l7.235,0.121c0.422,0.007,0.758,0.355,0.751,0.776l-0.121,7.235
										C197.026,337.807,196.679,338.143,196.257,338.136z"/>
									<path id="XMLID_30_" style="fill:#18236B;" d="M208.67,338.344l-7.235-0.121c-0.422-0.007-0.758-0.355-0.751-0.776
										l0.121-7.235c0.007-0.422,0.355-0.758,0.776-0.751l7.235,0.121c0.422,0.007,0.758,0.355,0.751,0.776l-0.121,7.235
										C209.439,338.015,209.091,338.351,208.67,338.344z"/>
									<path id="XMLID_29_" style="fill:#18236B;" d="M221.082,338.552l-7.235-0.121c-0.422-0.007-0.758-0.355-0.751-0.776
										l0.121-7.235c0.007-0.422,0.355-0.758,0.776-0.751l7.235,0.121c0.422,0.007,0.758,0.355,0.751,0.776l-0.121,7.235
										C221.851,338.223,221.504,338.559,221.082,338.552z"/>
									<path id="XMLID_28_" style="fill:#18236B;" d="M233.495,338.759l-7.235-0.121c-0.422-0.007-0.758-0.355-0.751-0.776
										l0.121-7.235c0.007-0.422,0.355-0.758,0.776-0.751l7.235,0.121c0.422,0.007,0.758,0.355,0.751,0.776l-0.121,7.235
										C234.264,338.43,233.916,338.766,233.495,338.759z"/>
								</g>
								<path id="XMLID_26_" style="fill:#18236B;" d="M196.062,349.819l-7.235-0.121c-0.422-0.007-0.758-0.355-0.751-0.776
									l0.121-7.235c0.007-0.422,0.355-0.758,0.776-0.751l7.235,0.121c0.422,0.007,0.758,0.355,0.751,0.776l-0.121,7.235
									C196.831,349.49,196.483,349.826,196.062,349.819z"/>
								<path id="XMLID_25_" style="fill:#18236B;" d="M208.474,350.026l-7.235-0.121c-0.422-0.007-0.758-0.355-0.751-0.776
									l0.121-7.235c0.007-0.422,0.355-0.758,0.776-0.751l7.235,0.121c0.422,0.007,0.758,0.355,0.751,0.776l-0.121,7.235
									C209.243,349.697,208.896,350.033,208.474,350.026z"/>
								<path id="XMLID_24_" style="fill:#18236B;" d="M220.887,350.234l-7.235-0.121c-0.422-0.007-0.758-0.355-0.751-0.776
									l0.121-7.235c0.007-0.422,0.355-0.758,0.776-0.751l7.235,0.121c0.422,0.007,0.758,0.355,0.751,0.776l-0.121,7.235
									C221.656,349.905,221.308,350.241,220.887,350.234z"/>
								<path id="XMLID_23_" style="fill:#3753A3;" d="M233.215,341.676l-6.773-0.113c-0.549-0.009-1.002,0.428-1.011,0.978
									l-0.095,5.659l-0.019,1.115l-0.082,4.909l-0.013,0.749l-0.101,6.024c-0.009,0.549,0.429,1.002,0.978,1.011l6.773,0.113
									c0.549,0.009,1.002-0.429,1.011-0.978l0.101-6.024l0.013-0.749l0.082-4.909l0.019-1.115l0.095-5.659
									C234.202,342.138,233.764,341.685,233.215,341.676z"/>
								<g id="XMLID_19_">
									<path id="XMLID_22_" style="fill:#18236B;" d="M195.866,361.501l-7.235-0.121c-0.422-0.007-0.758-0.355-0.751-0.776
										l0.121-7.235c0.007-0.422,0.355-0.758,0.776-0.751l7.235,0.121c0.422,0.007,0.758,0.355,0.751,0.776l-0.121,7.235
										C196.635,361.172,196.288,361.508,195.866,361.501z"/>
									<path id="XMLID_21_" style="fill:#18236B;" d="M208.279,361.709l-7.235-0.121c-0.422-0.007-0.758-0.355-0.751-0.776
										l0.121-7.235c0.007-0.422,0.355-0.758,0.776-0.751l7.235,0.121c0.422,0.007,0.758,0.355,0.751,0.776l-0.121,7.235
										C209.048,361.379,208.7,361.716,208.279,361.709z"/>
									<path id="XMLID_20_" style="fill:#18236B;" d="M220.691,361.916l-7.235-0.121c-0.422-0.007-0.758-0.355-0.751-0.776
										l0.121-7.235c0.007-0.422,0.355-0.758,0.776-0.751l7.235,0.121c0.422,0.007,0.758,0.355,0.751,0.776l-0.121,7.235
										C221.46,361.587,221.113,361.923,220.691,361.916z"/>
								</g>
								
									<rect id="XMLID_18_" x="188.836" y="297.828" transform="matrix(0.9999 0.0167 -0.0167 0.9999 5.1118 -3.5021)" style="fill:#18236B;" width="46.006" height="11.792"/>
							</g>
							
								<rect x="188.841" y="297.171" transform="matrix(0.9999 0.0167 -0.0167 0.9999 5.1063 -3.5023)" style="fill:#18236B;" width="46.006" height="12.449"/>
						</g>
						<polygon style="fill:#4144B3;" points="233.618,308.782 197.999,308.289 233.76,298.502 						"/>
					</g>
					<g>
						<g>
							<g>
								<path style="fill:#EFC2AC;" d="M171.625,357.508l0.078,11.248l4.654-1.629c0,0,1.968-1.426,0.272-1.24
									c-2.482,0.269-1.977-0.776-2.057-2.793c-0.077-2.018,0.311-5.896,0.311-5.896L171.625,357.508z"/>
								<path style="fill:#1D1D18;" d="M176.977,365.887c0,0-0.528,0.495-1.085,0.852c-0.543,0.35-2.106,1.12-2.714,1.241
									c-0.776,0.154-1.512,0.078-1.512,0.078s-0.349,1.163,0.424,1.086c0.776-0.077,4.656-1.786,5.198-2.172
									C177.83,366.583,177.908,365.964,176.977,365.887z"/>
							</g>
							<path style="fill:#4144B3;" d="M172.659,295.526l-0.591,30.423l-0.547,32.257l3.93-0.207c0,0,3.965-32.469,4.298-35.34
								c0.335-2.871,5.089-21.966,1.909-27.546C178.478,289.531,172.659,295.526,172.659,295.526z"/>
						</g>
						<g>
							<g>
								<polygon style="fill:#EFC2AC;" points="162.858,358.517 162.47,367.281 156.951,367.719 154.503,367.418 159.369,365.887 
									159.912,358.593 								"/>
								<path style="fill:#1D1D18;" d="M162.044,368.407l-1.201,0.155l-0.207-0.336l-4.564,0.065l-2.211-0.581
									c0,0-0.091-0.387,0.117-0.504c0.624-0.357,2.987-0.544,2.987-0.544s-0.314,0.439-0.064,0.633
									c0.248,0.196,3.287,0.086,4.04-0.039c1.296-0.215,1.709-0.602,1.749-0.495C162.791,367.04,162.044,368.407,162.044,368.407z
									"/>
							</g>
							<path style="fill:#4144B3;" d="M161.179,294.905l-0.745,33.173l-2.257,32.55l4.973,0.392c0,0,4.645-32.798,5.198-35.635
								c0.551-2.836,6.437-25.594,3.692-31.403C169.295,288.173,161.179,294.905,161.179,294.905z"/>
						</g>
						<g>
							<g>
								<g>
									<path style="fill:#EFC2AC;" d="M162.293,278.231c0,0,1.247,0.169,0.552,6.862c-0.697,6.695-3.226,16.37-3.226,16.37
										l0.293-15.582C159.912,285.882,160.285,279.927,162.293,278.231z"/>
									<path style="fill:#EFC2AC;" d="M160.616,296.242c-0.242,3.192,1.108,4.661,1.464,5.959
										c0.354,1.297,0.949,2.615,0.935,2.608c-1.187-0.798-1.144-1.833-1.51-2.375c-0.361-0.545-0.17-0.398-0.333,0.733
										c-0.094,0.644,0.857,1.853,1.368,2.709c0.443,0.743,0.451,1.191,0.451,1.191s-0.986-0.898-1.749-2.013
										c-0.92-1.343-1.655-2.972-1.759-3.354c-0.191-0.7-0.095-2.836,0.205-4.345C160.025,295.653,160.79,293.942,160.616,296.242
										z"/>
								</g>
								<path style="fill:#1EA0E0;" d="M165.826,268.737l-1.783,18.695v1.087l-5.353-0.312c0,0,1.55-14.427,1.784-15.127
									c0.233-0.698,0.776-6.748,0.698-7.836c-0.078-1.084,0.156-6.514,3.724-5.972
									C168.464,259.816,165.826,268.737,165.826,268.737z"/>
							</g>
							<path style="fill:#22B6FF;" d="M171.883,257.826c0,0-6.102,0.412-7.55,1.034c-1.448,0.62-1.137,7.757-0.208,13.033
								c0.931,5.275,0.518,11.171-0.826,14.48c-1.345,3.311-2.379,9.62-2.379,9.62l21.41-0.311c0,0-4.862-13.135-4.862-18.202
								c0-5.069,1.344-16.653,1.241-17.791C178.606,258.549,173.228,257.826,171.883,257.826z"/>
							<g>
								<g>
									<path style="fill:#EFC2AC;" d="M179.971,279.915c4.332-0.405,16.514,6.209,16.514,6.209s3.844,3.729-13.658-2.03
										C177.571,282.363,178.903,280.016,179.971,279.915z"/>
									<path style="fill:#EFC2AC;" d="M205.653,293.803l-0.4-1.675l-0.683-1.23l-1.782-1.427c0,0-2.074-1.276-3.028-1.478
										c-0.955-0.2-3.886-2.301-4.328-2.439c-0.442-0.136-2.167,1.433-2.167,1.433s3.647,1.282,5.05,1.912
										c1.402,0.632,3.093,2.222,3.633,2.49c0.925,0.457,1.804,0.586,1.804,0.586s-1.299-0.961-1.669-1.175
										c-0.37-0.213,0.063-0.513,0.063-0.513s1.925,1.134,2.3,1.638c0.375,0.504,0.533,1.086,0.533,1.086L205.653,293.803z"/>
								</g>
								<path style="fill:#1EA0E0;" d="M177.268,275.756c0.38,2.66,1.077,5.515,3.174,7.195c1.193-0.691,2.386-1.382,3.579-2.073
									c-2.06-2.581-2.518-6.085-2.481-9.387c0.037-3.302,0.487-6.634-0.072-9.888c-0.136-0.793-0.342-1.598-0.808-2.254
									c-0.466-0.656-1.241-1.142-2.042-1.071c-2.945,0.261-2.241,4.354-2.155,6.241
									C176.634,268.277,176.734,272.023,177.268,275.756z"/>
							</g>
							<g>
								<path style="fill:#18236B;" d="M183.601,260.859c0-2.016-1.18-3.753-2.884-4.57c-2.412-1.756-3.99-4.541-4.034-7.698
									c0-0.002,0.001-0.004,0.001-0.007v-0.256c0.005-0.112,0.013-0.223,0.019-0.335c-0.006-0.002-0.012-0.004-0.019-0.006v-3.961
									c0-2.96-2.401-5.362-5.361-5.362h-1.342c-2.962,0-5.362,2.402-5.362,5.362v2.011c0,0.193,0.011,0.383,0.031,0.571
									c0.046,1.583,0.137,1.997,0.137,3.093c0,2.64-0.763,4.44-2.098,6.041c0.006,0.012,0.014,0.022,0.02,0.032
									c-0.988,1.237-1.581,2.79-1.581,4.482c0,3.034,1.892,5.632,4.585,6.732c1.265,2.259,3.717,3.792,6.535,3.792
									c3.259,0,6.023-2.053,7.032-4.909C181.722,265.507,183.601,263.406,183.601,260.859z"/>
								<path style="fill:#18236B;" d="M162.371,248.376c0.14,1.12,0.464,2.267,0.167,3.355c-0.291,1.064-1.123,1.877-1.793,2.753
									c-1.622,2.119-2.385,4.959-1.711,7.542c0.674,2.582,2.904,4.776,5.553,5.098c-0.132,2.299,0.165,4.716,1.44,6.634
									s3.706,3.188,5.928,2.582c2.222-0.607,3.689-3.457,2.478-5.416c1.181,1.251,3.106,1.958,4.67,1.242
									c1.564-0.716,2.18-3.15,0.843-4.233c2.002,0.421,4.222-0.698,5.073-2.558c0.851-1.86,0.247-4.272-1.38-5.512
									c-1.408-1.073-3.451-1.345-4.436-2.816c-1.682-2.514,1.128-6.124-0.197-8.844c-0.742-1.524-2.654-2.399-2.935-4.071
									c-0.103-0.61,0.039-1.234,0.011-1.852c-0.197-4.39-6.088-4.13-8.98-2.954C163.493,240.792,161.88,244.431,162.371,248.376z"
									/>
								<path style="fill-rule:evenodd;clip-rule:evenodd;fill:none;stroke:#4144B3;stroke-width:0.5;stroke-miterlimit:10;" d="
									M168.469,241.22c-1.73,3.609-3.248,7.847-1.625,11.506c0.971,2.19,2.917,3.771,4.836,5.205
									c1.919,1.434,3.936,2.869,5.165,4.926c1.229,2.056,1.438,4.943-0.2,6.691"/>
								<path style="fill-rule:evenodd;clip-rule:evenodd;fill:none;stroke:#4144B3;stroke-width:0.5;stroke-miterlimit:10;" d="
									M170.581,240.691c0.687,1.132,0.389,2.571,0.157,3.874c-0.231,1.303-0.299,2.839,0.669,3.742
									c0.618,0.576,1.503,0.734,2.297,1.025c0.878,0.322,1.701,0.847,2.257,1.599c0.556,0.752,0.82,1.745,0.582,2.65"/>
								<path style="fill-rule:evenodd;clip-rule:evenodd;fill:none;stroke:#4144B3;stroke-width:0.5;stroke-miterlimit:10;" d="
									M163.384,255.579c-0.356,2.448,0.39,5.036,1.997,6.918c0.626,0.733,1.37,1.359,1.985,2.101
									c1.723,2.08,2.284,5.064,1.435,7.628"/>
							</g>
						</g>
					</g>
				</g>
			</g>
			<g>
				<g>
					<g>
						<path style="fill:#FF67AB;" d="M315.595,240.511c5.01,3.694,11.788,4.309,17.864,2.959c4.63-1.029,9.109-3.186,12.306-6.69
							c3.197-3.504,4.966-8.452,4.045-13.105c-0.869-4.393-4.032-8.12-7.919-10.345c-3.887-2.225-8.434-3.076-12.911-3.178
							c-4.403-0.1-8.94,0.532-12.763,2.719C306.647,218.348,306.986,234.164,315.595,240.511z"/>
						<polygon style="fill:#FF67AB;" points="333.12,239.314 343.503,250.14 339.224,231.52 						"/>
					</g>
					<g>
						<path style="fill:#FFFFFF;" d="M321.581,227.625c-0.246,1.503-1.664,2.523-3.168,2.277c-1.504-0.246-2.523-1.665-2.277-3.168
							c0.246-1.503,1.665-2.523,3.168-2.277C320.808,224.703,321.827,226.122,321.581,227.625z"/>
						<path style="fill:#FFFFFF;" d="M332.276,226.953c-0.246,1.503-1.665,2.523-3.168,2.277c-1.503-0.246-2.523-1.665-2.277-3.168
							c0.246-1.503,1.665-2.523,3.168-2.277C331.503,224.031,332.523,225.449,332.276,226.953z"/>
						<path style="fill:#FFFFFF;" d="M342.29,226.62c-0.246,1.504-1.665,2.523-3.168,2.277c-1.503-0.246-2.523-1.665-2.277-3.168
							c0.246-1.503,1.665-2.523,3.168-2.277C341.517,223.698,342.536,225.117,342.29,226.62z"/>
					</g>
				</g>
				<g>
					<g>
						<path style="fill:#151852;" d="M347.547,246.432c-0.151,3.978,2.751,7.317,6.477,7.458c3.727,0.14,6.871-2.972,7.02-6.952
							c0.151-3.977-2.751-7.318-6.48-7.458C350.839,239.341,347.696,242.453,347.547,246.432z"/>
						<path style="fill:#151852;" d="M348.36,251.228c-0.052-1.129,0.497-2.224,1.483-2.777c0.508-0.285,1.057-0.518,1.641-0.69
							c4.091-1.197,8.358,1.076,9.534,5.08c1.173,4.006-1.191,8.225-5.281,9.427c-3.233,0.947-6.571-0.278-8.41-2.81
							c-0.708-0.974-0.741-2.272-0.148-3.32C348.014,254.66,348.44,252.964,348.36,251.228z"/>
						<g>
							<path style="fill:#151852;" d="M351.438,367.413c-0.17,0.519-0.474,1.107-0.984,1.146c-0.494,0.039-0.864-0.481-1.002-0.988
								c-0.237-0.87-0.078-1.808,0.082-2.705c0.159-0.893,0.318-1.786,0.478-2.679c0.308-1.73,1.624-1.723,1.94-0.043
								C352.267,363.828,351.966,365.801,351.438,367.413z"/>
							<path style="fill:#F8B791;" d="M346.274,312.963c0.686-0.343,2.538,2.514,3.179,4.921c1.259,4.718,1.42,7.262,1.517,12.308
								c0.153,8.003,0.512,20.728,0.484,26.122c-0.023,4.862,1.083,10.75-1.504,9.624c0.842-6.575-0.769-16.841-1.768-22.25
								C344.768,325.216,344.165,314.007,346.274,312.963z"/>
						</g>
						<g>
							<path style="fill:#151852;" d="M358.78,362.534c0.088,0.68,0.136,1.386-0.081,2.036c-0.217,0.65-0.755,1.235-1.435,1.316
								c-0.159,0.019-0.324,0.01-0.475-0.044c-0.482-0.175-0.685-0.74-0.774-1.245c-0.178-1.015-0.136-2.049-0.062-3.073
								c0.047-0.656-0.056-2.137,0.673-2.477C358.28,358.276,358.677,361.737,358.78,362.534z"/>
							<path style="fill:#F8B791;" d="M359.261,313.607c-0.072-1.256-0.151-2.491-0.238-3.71c-0.615-1.846-1.239-2.859-1.833-2.807
								c-2.246,0.199-5.622,9.744-2.14,34.066c0.174,1.223,1.06,21.874,1.334,22.299c0.727,1.124,2.437,1.208,1.765-2.917
								C356.121,348.079,360.212,330.26,359.261,313.607z"/>
						</g>
						<g>
							<g>
								<path style="fill:#F8B791;" d="M336.716,277.406c-4.27,3.088-22.134,6.641-22.134,6.641s-3.739-1.176,19.097-9.193
									C334.821,274.454,337.772,276.643,336.716,277.406z"/>
								<g>
									<path style="fill:#F8B791;" d="M313.47,284.862c0,0-1.437,0.442-1.897,1.038c-0.322,0.416-1.505,2.619-1.505,2.619
										s0.861-0.345,1.341-1.229C312.108,285.997,313.47,284.862,313.47,284.862z"/>
									<path style="fill:#F8B791;" d="M312.211,286.021c-0.926,0.186-1.642,1.012-2.251,2.186
										c-0.578,1.113-1.379,1.246-1.379,1.246s0.296-0.758,1.376-2.394c0.303-0.46,0.631-0.912,0.965-1.342
										C312.02,284.292,314.593,285.546,312.211,286.021z"/>
									<path style="fill:#F8B791;" d="M314.896,284.358c-0.191,0.633-1.247,1.308-1.241,1.722
										c0.018,1.198,0.388,1.839,0.371,1.838c-1.368-0.245-1.225-2.216-1.713-2.919
										C311.831,284.298,315.388,282.717,314.896,284.358z"/>
									<path style="fill:#F8B791;" d="M322.139,281.497c-2.435,0.475-5.238,0.968-6.439,1.768
										c-1.71,1.138-2.091,2.478-3.489,2.756c-0.154,0.031-0.296,0.094-0.445,0.144c-0.395,0.134-0.862,0.21-1.021,0.288
										c-0.177,0.085-0.649,0.388-0.51,0.191c1.241-1.744,2.801-3.572,3.271-3.792c0.961-0.452,6.398-2.715,8.59-3.14
										C324.568,279.235,325.428,280.853,322.139,281.497z"/>
									<path style="fill:#F8B791;" d="M312.185,285.816c0,0-0.105-0.502-0.501-0.441c-0.645,0.102-1.758,0.814-2.143,1.084
										c-0.426,0.302-2.211,2.058-2.211,2.058s0.927-0.073,1.648-0.777C310.027,286.71,312.185,285.816,312.185,285.816z"/>
								</g>
							</g>
							<path style="fill:#FF67AB;" d="M336.967,277.063l9.225-12.155l2.513-5.575c-0.138-0.482-0.413-0.906-0.821-1.206
								l-0.277-0.202c-1.074-0.782-2.65-0.39-3.523,0.878l-10.658,15.465L336.967,277.063z"/>
						</g>
						<g>
							<g>
								<path style="fill:#F8B791;" d="M383.237,258.322l0.353,0.254l0.161,1.484c0,0-0.815,2.563-1.47,3.42
									c-0.655,0.856-1.799,4.82-2.069,5.252c-0.271,0.434-2.641,0.27-2.641,0.27s2.128-3.702,2.847-5.242
									c0.719-1.538,0.988-4.088,1.246-4.702c0.444-1.048,0.609-1.605,0.609-1.605s0.527,0.315-0.072,2
									c-0.157,0.444,0.423,0.383,0.423,0.383L383.237,258.322z"/>
								<g>
									<path style="fill:#F8B791;" d="M383.137,259.578c0,0,0.408,0.225,0.603-0.083c0.319-0.511,0.495-1.706,0.537-2.134
										c0.049-0.478-0.097-2.764-0.097-2.764s-0.506,0.687-0.449,1.605C383.812,257.545,383.137,259.578,383.137,259.578z"/>
									<path style="fill:#F8B791;" d="M383.198,259.269c0.427-0.753,0.285-1.743-0.161-2.87c-0.425-1.068-0.034-1.7-0.034-1.7
										s0.347,0.658,0.832,2.387c0.135,0.485,0.254,1.022,0.205,1.518C383.893,260.104,382.098,261.202,383.198,259.269z"/>
									<path style="fill:#F8B791;" d="M366.496,267.836c2.098,1.747,3.707,7.554,5.002,11.25c0.731,2.083,0.329,3.598,0.329,3.598
										s-1.022,4.724-5.942-8.598C364.651,270.753,365.708,267.181,366.496,267.836z"/>
									<path style="fill:#F8B791;" d="M370.037,282.367c0.308-4.798,9.636-16.943,9.636-16.943s4.735-3.549-4.585,14.553
										C372.29,285.412,369.959,283.55,370.037,282.367z"/>
									<path style="fill:#F8B791;" d="M383.237,260.19c0,0,0.491-1.283,0.32-1.953c-0.12-0.465-1.044-2.562-1.044-2.562
										s-0.237,0.819,0.131,1.662C383.183,258.569,383.237,260.19,383.237,260.19z"/>
									<path style="fill:#F8B791;" d="M382.201,259.455c0.403-1.132,0.296-1.645,0.183-1.862
										c-0.092,0.269-0.252,0.696-0.501,1.289c-0.09,0.211-0.182,0.66-0.293,1.219c-0.023,0.105,0.378,0.23,0.483,1.168
										c0.019,0.169,0.385-0.82,0.472-1.428C382.393,259.837,382.08,259.796,382.201,259.455z"/>
								</g>
							</g>
							<path style="fill:#FF67AB;" d="M367.667,280.361l-4.536-11.315l-1.631-7.815c0.29-0.366,0.69-0.654,1.173-0.803l0.326-0.103
								c1.266-0.393,2.61,0.315,3.005,1.581l5.344,15.535L367.667,280.361z"/>
						</g>
						<path style="fill-rule:evenodd;clip-rule:evenodd;fill:#FF67AB;" d="M363.892,296.124c-0.238-4.526-3.426-8.336-1.937-20.498
							c-0.008-0.001-0.016-0.001-0.024-0.002l1.857-15.392l-17.751-2.735l0.361,7.457c-0.611,0.798-1.155,2.022-1.36,2.601
							c-0.473,1.337-0.399,2.962,0.555,4.012c0.343,0.378,0.777,0.673,1.173,0.997l0.091,1.89c-0.018-0.001-0.035-0.003-0.053-0.004
							c1.367,11.213-10.754,12.236-3.783,51.686c7.329,1.59,8.723,0.684,17.294-0.034
							C361.118,326.162,365.044,318.088,363.892,296.124z"/>
						<g>
							<path style="fill:#F8B791;" d="M362.536,258.663c0,0-3.421,6.092-7.203,6.81c-3.783,0.714-5.541-0.155-6.022-1.676
								c-0.479-1.52-0.516-4.471,0.371-5.189c0.885-0.717,1.751-1.437,2.553-2.801c0.655-1.112,0.549-3.197,0.183-4.82
								c-0.368-1.623-1.65-1.778-0.336-2.48c1.312-0.702,0.806-1.472,2.082-1.209c1.279,0.263,2.047-0.19,2.001,1.042
								c-0.084,2.247-0.389,5.399,0.812,6.894C358.31,256.892,359.656,257.432,362.536,258.663z"/>
							<g>
								<path style="fill:#F8B791;" d="M351.924,242.308c0.109-0.026,0.224-0.049,0.338-0.066c0.181,1.334,1.178,2.941,2.762,4.234
									c0.385,0.313,0.782,0.586,1.179,0.823l-0.046,1.243c-0.07,1.839-1.684,3.274-3.607,3.201
									c-1.924-0.074-3.424-1.623-3.357-3.463l0.105-2.801C350.279,244.879,351.236,243.757,351.924,242.308z"/>
								<g>
									<path style="fill:#FF907E;" d="M353.658,248.869c0.144,0.121,0.36,0.102,0.539,0.044c0.486-0.157,1.584-1.302,0.57-1.493
										C354.175,247.309,353.038,248.346,353.658,248.869z"/>
									<g>
										<g>
											<path style="fill:#151852;" d="M349.989,244.337c0.219,0.002,0.57,0.063,0.579,0.256
												c-0.033,0.13-0.192,0.145-0.311,0.149c-0.12,0.004-0.237-0.026-0.356-0.04c-0.119-0.014-0.241-0.013-0.36,0.004
												c-0.052,0.007-0.105,0.018-0.157,0.008c-0.269-0.051-0.013-0.218,0.063-0.265
												C349.585,244.361,349.828,244.336,349.989,244.337z"/>
											<path style="fill:#151852;" d="M353.049,244.621c0.231-0.052,0.489-0.089,0.692,0.033
												c0.142,0.086,0.244,0.245,0.407,0.28c-0.026-0.188-0.174-0.342-0.344-0.427c-0.17-0.085-0.362-0.113-0.55-0.14
												c-0.246-0.035-0.796-0.246-0.888,0.083C352.259,244.832,352.84,244.667,353.049,244.621z"/>
										</g>
										<g>
											
												<path style="fill:none;stroke:#18236B;stroke-width:0.2031;stroke-linecap:round;stroke-linejoin:round;stroke-miterlimit:10;" d="
												M350.814,247.683c0.133,0.245,0.424,0.394,0.701,0.358"/>
											<g>
												<g>
													
														<path style="fill:none;stroke:#18236B;stroke-width:0.2031;stroke-linecap:round;stroke-linejoin:round;stroke-miterlimit:10;" d="
														M352.553,246.177c0.13-0.148,0.357-0.166,0.548-0.117c0.166,0.043,0.322,0.128,0.446,0.247"/>
													<path style="fill:#151852;" d="M352.746,246.642c-0.019,0.174,0.053,0.327,0.16,0.342
														c0.107,0.015,0.209-0.113,0.228-0.287c0.019-0.174-0.053-0.327-0.16-0.342
														C352.867,246.34,352.764,246.469,352.746,246.642z"/>
												</g>
												<g>
													
														<path style="fill:none;stroke:#18236B;stroke-width:0.2031;stroke-linecap:round;stroke-linejoin:round;stroke-miterlimit:10;" d="
														M349.397,246.132c0.109-0.14,0.283-0.227,0.46-0.231c0.177-0.003,0.354,0.077,0.468,0.214"/>
													<path style="fill:#151852;" d="M349.793,246.533c-0.019,0.174,0.053,0.327,0.16,0.342
														c0.107,0.015,0.209-0.113,0.228-0.287c0.019-0.174-0.053-0.327-0.16-0.342S349.812,246.36,349.793,246.533z"/>
												</g>
											</g>
										</g>
									</g>
									
										<path style="fill:none;stroke:#FF907E;stroke-width:0.262;stroke-linecap:round;stroke-linejoin:round;stroke-miterlimit:10;" d="
										M350.842,249.908c0.245,0.129,0.553,0.098,0.799-0.03c0.246-0.128,0.437-0.341,0.593-0.57"/>
									<path style="fill:#FF907E;" d="M349.209,247.865c0.14,0.004,0.298,0.224,0.342,0.389c0.076,0.291,0.079,0.6,0.008,0.892
										c-0.015,0.063-0.037,0.13-0.087,0.171c-0.008,0.006-0.141-0.015-0.149-0.01c-0.025-0.095-0.094-0.394-0.105-0.521
										C349.182,248.347,349.167,248.115,349.209,247.865z"/>
								</g>
							</g>
						</g>
						<path style="fill:#151852;" d="M361.694,245.505c0.45,1.644,0.63,3.496,1.841,4.695c1.822,1.805,5.021,1.213,7.099,2.718
							c0.73,0.529,1.268,1.286,1.674,2.09c1.337,2.649,1.262,5.997-0.319,8.508c-1.581,2.511-4.656,4.04-7.596,3.643
							c-2.941-0.397-5.546-2.775-6.075-5.695c-0.515-2.843,0.807-5.678,1.009-8.56c0.153-2.18-1.021-4.064-2.109-5.96
							c-0.744-1.295-3.648-1.498-4.393-4.855c-0.402-1.813,2.732-2.377,4.238-1.995
							C360.073,240.859,361.364,244.297,361.694,245.505z"/>
					</g>
					<g>
						<g>
							<path style="fill:#1EA0E0;" d="M433.966,369.269l0.028-13.857l-60.021-0.119c-3.828-0.008-6.935,3.087-6.943,6.915
								l-0.005,2.543l0,0.083c0.54,3.283,3.48,5.711,6.918,5.718l60.021,0.119l0.027-13.857"/>
							<path style="fill:#FFFFFF;" d="M368.3,362.878c-0.003,0.079-0.012,0.157-0.013,0.236c-0.007,3.552,2.867,6.438,6.418,6.445
								l59.259,0.118l0.013-6.668L368.3,362.878z"/>
							<path style="fill:#E5E5E6;" d="M433.99,356.814l-59.259-0.118c-3.472-0.007-6.299,2.741-6.431,6.181l65.678,0.13
								L433.99,356.814z"/>
						</g>
						<g>
							<path style="fill:#FF67AB;" d="M429.961,354.002l0.027-13.858l-60.021-0.119c-3.828-0.008-6.935,3.088-6.943,6.916
								l-0.005,2.543l0,0.083c0.54,3.284,3.48,5.711,6.918,5.718l60.021,0.119l0.028-13.857"/>
							<path style="fill:#E5E5E6;" d="M429.986,341.546l-59.259-0.118c-3.337-0.007-6.086,2.531-6.41,5.784l65.658,0.13
								L429.986,341.546z"/>
							<path style="fill:#FFFFFF;" d="M364.316,347.213c-0.021,0.209-0.033,0.42-0.033,0.634c-0.007,3.552,2.867,6.437,6.418,6.444
								l59.259,0.118l0.014-7.065L364.316,347.213z"/>
						</g>
						<g>
							<path style="fill:#4144B3;" d="M418.668,339.032l0.027-13.857l-60.021-0.119c-3.828-0.008-6.936,3.088-6.943,6.916
								l-0.005,2.543l0,0.083c0.54,3.284,3.48,5.711,6.918,5.718l60.021,0.119l0.027-13.858"/>
							<path style="fill:#E5E5E6;" d="M418.075,326.489l-59.259-0.118c-3.338-0.007-6.086,2.531-6.411,5.784l65.658,0.13
								L418.075,326.489z"/>
							<path style="fill:#FFFFFF;" d="M352.405,332.156c-0.021,0.208-0.033,0.42-0.033,0.634c-0.007,3.552,2.866,6.437,6.418,6.444
								l59.259,0.118l0.014-7.065L352.405,332.156z"/>
						</g>
						<g>
							<path style="fill:#4144B3;" d="M463.7,309.457l0.028-13.858l-60.022-0.119c-3.828-0.008-6.935,3.088-6.943,6.916
								l-0.005,2.543l0,0.083c0.54,3.284,3.48,5.711,6.918,5.718l60.021,0.119l0.027-13.858"/>
							<path style="fill:#E5E5E6;" d="M463.107,296.914l-59.259-0.118c-3.337-0.007-6.085,2.531-6.41,5.784l65.658,0.13
								L463.107,296.914z"/>
							<path style="fill:#FFFFFF;" d="M397.438,302.581c-0.021,0.209-0.033,0.42-0.033,0.634c-0.007,3.552,2.867,6.437,6.418,6.444
								l59.259,0.118l0.014-7.065L397.438,302.581z"/>
						</g>
						<g>
							<path style="fill:#FFE200;" d="M430.23,324.326l0.027-13.857l-60.021-0.119c-3.828-0.008-6.935,3.088-6.943,6.916
								l-0.005,2.543l0,0.083c0.54,3.284,3.48,5.711,6.918,5.718l60.021,0.119l0.028-13.857"/>
							<path style="fill:#E5E5E6;" d="M430.254,311.87l-59.259-0.118c-3.338-0.007-6.086,2.531-6.41,5.784l65.658,0.13
								L430.254,311.87z"/>
							<path style="fill:#FFFFFF;" d="M364.585,317.537c-0.021,0.209-0.033,0.42-0.033,0.634c-0.007,3.552,2.867,6.437,6.418,6.444
								l59.259,0.118l0.014-7.065L364.585,317.537z"/>
						</g>
					</g>
				</g>
			</g>
			<g>
				<g>
					<g>
						<path style="fill:#4144B3;" d="M235.784,171.19c0,0,17.232,0.035,23.882,0.138c4.601,0.068,5.021-6.492,3.205-7.48
							c-5.51-2.999-22.703-4.539-22.703-4.539l-11.697,10.739C228.472,170.047,229.129,170.03,235.784,171.19z"/>
						<g>
							<path style="fill:#1D1D18;" d="M259.334,201.822l0.322,3.504l3.508,0.343c0,0,0.243-0.469,0.54-0.44
								c0.249,0.024,0.526,0.544,0.864,0.576c0.738,0.075,1.558,0.152,1.884,0.186c0.659,0.064,7.039,0.687,7.039,0.687
								s0.23-0.708,0.06-0.976c-0.086-0.137-0.651-0.419-1.032-0.566c-1.762-0.684-6.791-2.783-7.525-4.602
								C264.104,198.319,259.334,201.822,259.334,201.822z"/>
							<path style="fill:#4144B3;" d="M261.805,167.454c0,0-1.778,2.807-6.653,3.472c-1.763,0.24,2.841,31.428,2.841,31.428
								l7.205-2.307l-1.393-34.49L261.805,167.454z"/>
						</g>
					</g>
					<g>
						<g>
							<path style="fill:#1D1D18;" d="M215.984,204.135c-0.264,0.321-0.071,1.167-0.071,1.167s4.639,0.516,6.13,0.166
								c0.388-0.09,1.044-0.425,1.662-0.778c0.103-0.059,0.288-0.416,0.388-0.475c0.187-0.113,0.284,0.074,0.443-0.026
								c0.413-0.26,0.706-0.462,0.709-0.489c0.407-2.129-0.135-2.984-0.135-2.984s-3.949-1.313-4.689-0.4
								C218.68,202.472,216.564,203.431,215.984,204.135z"/>
							<path style="fill:#4144B3;" d="M227.109,164.842c0,0-1.143,10.83-0.98,16.557c0.124,4.318,0.137,12.595-0.892,19.648
								c-0.063,0.434-5.58,0.108-5.58,0.108s-1.979-26.849-2.568-31.27C216.503,165.462,218.212,162.273,227.109,164.842z"/>
						</g>
						<path style="fill:#4144B3;" d="M241.931,170.926c0,0-9.418,1.344-15.705,2.002c-2.305,0.242-4.3-6.209-4.567-6.49
							c-1.685-1.761-3.345-1.537-3.287-1.602c1.363-1.472,8.415-2.839,15.787-4.569c7.369-1.727,8.492-0.639,8.492-0.639
							L241.931,170.926z"/>
					</g>
				</g>
				<g>
					<g>
						<path style="fill:#D7F0F9;" d="M255.535,136.528l-11.361-3.674l-8.602-0.578l-9.422,2.852c0,0-3.084,2.125-0.22,8.955
							c2.864,6.831,1.763,17.534,1.763,17.534l24.308,0.779c0,0,0.459-9.894,2.07-19.791
							C254.431,140.397,254.476,137.798,255.535,136.528z"/>
						<g>
							<g>
								<path style="fill:#F8B791;" d="M222.103,159.898l12.291,0.641c0,0-11.84,5.432-12.23,4.496
									C219.945,159.73,222.103,159.898,222.103,159.898z"/>
							</g>
							<g>
								<path style="fill:#D7F0F9;" d="M231.358,135.231c0,0-3.787-2.966-7.49,2.54c-5.428,8.066-7.785,16.65-8.649,19.132
									c-0.659,1.906-0.294,7.29,1.923,9.509c0.536,0.535,3.74,0.105,3.74,0.105l2.104-1.453l-0.881-1.693l-0.048-1.337
									c0,0,2.691-6.491,5.993-12.626C231.358,143.272,231.358,135.231,231.358,135.231z"/>
								<polygon style="fill:#CFEDF9;" points="220.507,166.038 219.664,160.649 221.063,159.208 224.169,159.704 223.533,165.668 
																	"/>
							</g>
						</g>
						<g>
							<g>
								<path style="fill:#F8B791;" d="M254.03,157.465l-11.86,4.843c0,0,8.413,1.2,13.672,0.13
									C259.399,161.71,254.192,157.311,254.03,157.465z"/>
							</g>
							<g>
								<path style="fill:#CFEDF9;" d="M252.03,136.03c0,0,4.43-1.241,6.358,4.545c2.96,8.876,2.699,17.019,2.287,18.756
									c-0.19,0.798-0.759,3.557-5.709,3.663c-2.007,0.044-1.205-4.258-1.205-4.258s-1.286-3.653-2.657-9.833
									C249.732,142.722,252.03,136.03,252.03,136.03z"/>
								<polygon style="fill:#CFEDF9;" points="258.194,162.171 258.518,160.189 254.592,156.663 252.466,157.623 255.244,162.94 
																	"/>
							</g>
						</g>
					</g>
					<g>
						<g>
							<path style="fill:#F8A372;" d="M243.69,135.531c-0.169,1.315-1.241,2.455-2.37,2.508c-1.07,0-2.141,0-3.211,0
								c-1.128-0.053-2.203-1.193-2.369-2.508c-0.263-2.166-0.527-4.331-0.789-6.499c-0.176-1.299,0.596-3.905,2.304-4.676
								c1.563-0.686,3.355-0.686,4.918,0c1.708,0.771,2.48,3.377,2.304,4.676C244.215,131.2,243.953,133.365,243.69,135.531z"/>
						</g>
						<g>
							<g>
								<g>
									<path style="fill:#2B4159;" d="M239.229,120.232c-0.9,0-1.692,0.461-2.15,1.162h-0.883c-1.099,0-1.991,0.892-1.991,1.992
										v4.918h1.402v-2.002c0-0.772,0.629-1.399,1.401-1.399h0.817h-1.296h0.859c1.418,0,2.569-1.15,2.569-2.57v-2.101H239.229z"
										/>
									<path style="fill:#F8B791;" d="M236.747,130.135c0,0.674-0.546,1.219-1.221,1.219h-0.101c-0.673,0-1.22-0.545-1.22-1.219
										v-1.479c0-0.671,0.547-1.219,1.22-1.219h0.101c0.499,0,0.927,0.3,1.118,0.727"/>
									<path style="fill:#2B4159;" d="M238.137,122.186v-1.954h0.807h2.128h1.284c1.421,0,2.571,1.151,2.571,2.569v1.954h-0.81
										h-2.127h-1.285C239.287,124.755,238.137,123.606,238.137,122.186z"/>
									<path style="fill:#F8B791;" d="M244.564,132.005c-0.004,1.021-0.786,2.752-2.079,3.298c-1.758,0.727-3.84,0.727-5.599,0
										c-1.297-0.546-2.072-2.276-2.078-3.298c0-2.903,0-5.802,0-8.701c-0.006-1.027,1.019-1.89,2.285-1.917
										c1.73,0,3.458,0,5.187,0c1.265,0.025,2.293,0.89,2.285,1.917C244.564,126.203,244.564,129.102,244.564,132.005z"/>
									<path style="fill:#2B4159;" d="M240.684,120.232c0.901,0,1.691,0.461,2.148,1.162h0.884c1.098,0,1.99,0.892,1.99,1.992
										v4.918h-1.401v-2.002c0-0.772-0.629-1.399-1.402-1.399h-0.014h0.492h-2.268c-1.42,0-2.569-1.15-2.569-2.57v-2.101H240.684z
										"/>
									<path style="fill:#F8B791;" d="M243.186,128.654c0-0.672,0.545-1.218,1.219-1.218h0.102c0.673,0,1.219,0.545,1.219,1.218
										v1.48c0,0.673-0.547,1.22-1.219,1.22h-0.102c-0.498,0-0.927-0.298-1.116-0.725"/>
									<path style="fill:#2B4159;" d="M238.546,122.689c0.031-0.163,0.049-0.33,0.049-0.503v-1.954h-0.807h-1.011
										c-1.422,0-2.572,1.151-2.572,2.569v1.954h0.537h0.273h1.011c0.181,0,0.358-0.018,0.527-0.056
										C236.755,123.694,237.541,122.9,238.546,122.689z"/>
								</g>
								<g>
									<g>
										<path style="fill:#F89A7A;" d="M236.222,130.359c0.159,0.42,0.211,0.88,0.15,1.324c-0.013,0.096-0.035,0.199-0.103,0.268
											c-0.117,0.118-0.327,0.087-0.45-0.025c-0.123-0.112-0.178-0.279-0.22-0.44c-0.088-0.337-0.333-1.157-0.097-1.476
											C235.8,129.608,236.098,130.032,236.222,130.359z"/>
										<path style="fill:#F89A7A;" d="M243.775,130.882c-0.014,0.455-0.16,0.917-0.42,1.331c-0.056,0.09-0.124,0.183-0.228,0.23
											c-0.177,0.08-0.389-0.013-0.472-0.158c-0.083-0.145-0.069-0.324-0.043-0.493c0.054-0.353,0.151-1.224,0.544-1.463
											C243.652,130.026,243.786,130.528,243.775,130.882z"/>
									</g>
									<g>
										<g>
											<path style="fill:#282E53;" d="M237.372,126.51c0.326-0.008,0.669,0.102,0.877,0.354
												c-0.092,0.153-0.279,0.226-0.458,0.237c-0.178,0.011-0.355-0.027-0.533-0.043c-0.179-0.016-0.36-0.008-0.537,0.023
												c-0.077,0.014-0.156,0.032-0.234,0.02c-0.404-0.063-0.029-0.325,0.081-0.399
												C236.771,126.565,237.132,126.516,237.372,126.51z"/>
											
												<path style="fill:none;stroke:#282E53;stroke-width:0.25;stroke-linecap:round;stroke-linejoin:round;stroke-miterlimit:10;" d="
												M236.574,128.216c0.156-0.214,0.411-0.353,0.675-0.366c0.265-0.013,0.533,0.099,0.709,0.296"/>
										</g>
										<g>
											<path style="fill:#282E53;" d="M241.734,126.396c-0.326-0.008-0.669,0.102-0.877,0.354
												c0.092,0.153,0.279,0.226,0.458,0.237c0.178,0.011,0.355-0.027,0.533-0.043c0.179-0.016,0.36-0.008,0.537,0.023
												c0.077,0.014,0.156,0.032,0.234,0.02c0.404-0.063,0.029-0.325-0.081-0.399
												C242.335,126.451,241.974,126.402,241.734,126.396z"/>
											
												<path style="fill:none;stroke:#282E53;stroke-width:0.25;stroke-linecap:round;stroke-linejoin:round;stroke-miterlimit:10;" d="
												M242.532,128.102c-0.156-0.214-0.411-0.353-0.675-0.366c-0.264-0.013-0.532,0.099-0.709,0.296"/>
										</g>
										
											<path style="fill:none;stroke:#282E53;stroke-width:0.25;stroke-linecap:round;stroke-linejoin:round;stroke-miterlimit:10;" d="
											M238.72,130.35c0.223,0.352,0.672,0.544,1.08,0.463"/>
									</g>
									
										<path style="fill:none;stroke:#F89A7A;stroke-width:0.25;stroke-linecap:round;stroke-linejoin:round;stroke-miterlimit:10;" d="
										M238.709,133.465c0.648,0.214,1.37,0.196,2.006-0.049"/>
								</g>
							</g>
							<g>
								<path style="fill:#18236B;" d="M240.089,118.436c-3.362-0.076-6.09,0.517-6.094,1.326l-0.021,4.869
									c-0.004,0.809,2.719,1.527,6.081,1.603s6.09-0.517,6.094-1.326l0.021-4.869C246.174,119.23,243.451,118.512,240.089,118.436
									z"/>
								<polygon style="fill:#4144B3;" points="228.731,119.453 240.627,116.565 251.516,119.4 240.309,123.377 								"/>
								<path style="fill:#FFE200;" d="M231.762,125.989c-0.025,0.001-0.051-0.007-0.074-0.026
									c-0.052-0.044-0.064-0.129-0.026-0.188c0.822-1.32-0.261-5.304-0.272-5.344l-0.042-0.153l9.282-1.407
									c0.063-0.01,0.122,0.042,0.131,0.116c0.009,0.074-0.035,0.141-0.098,0.151l-9.013,1.366c0.199,0.77,1.002,4.142,0.199,5.43
									C231.828,125.969,231.796,125.988,231.762,125.989z"/>
								<path style="fill:#363636;" d="M241.188,118.979c0.008,0.18-0.227,0.337-0.526,0.351s-0.548-0.12-0.557-0.3
									c-0.008-0.18,0.227-0.337,0.526-0.351C240.93,118.665,241.179,118.799,241.188,118.979z"/>
								<g>
									<path style="fill:#FFE200;" d="M231.546,125.901c-0.731,0.441-0.177,1.14-0.51,1.536c1.206-0.449,0.801-1.344,0.801-1.344
										L231.546,125.901z"/>
									<polygon style="fill:#666666;" points="231.943,125.881 231.648,125.686 231.546,125.901 231.841,126.095 									"/>
								</g>
							</g>
						</g>
					</g>
					<g>
						<path style="fill:#C7EBF9;" d="M238.859,161.918h1.24c1.294-9.554,1.234-14.412-0.194-23.93
							c-0.372,0.224-0.745,0.446-1.12,0.666C239.1,148.391,238.564,153.127,238.859,161.918z"/>
						<polygon style="fill:#C7EBF9;" points="239.588,138.201 237.547,141.545 233.81,136.872 234.399,134.413 235.62,134.433 
							235.627,135.268 						"/>
						<polygon style="fill:#C7EBF9;" points="239.834,138.201 241.872,141.545 245.35,137.19 244.778,134.523 243.78,134.193 
							243.555,135.585 						"/>
					</g>
				</g>
				<g>
					<path style="fill:#B7C0C6;" d="M251.345,164.17c0.004-0.008,0.008-0.016,0.013-0.023l-0.013-0.776h-24.217v0.776
						c0,0-0.003,0.014,0,0.023l0.083,0.146c0.413,0.674,1.152,0.792,1.999,0.792h20.052c0.847,0,1.587-0.118,1.999-0.792
						L251.345,164.17z"/>
					<g>
						<rect x="231.224" y="163.552" style="fill:#8B99A3;" width="16.035" height="0.546"/>
					</g>
					<g>
						<path style="fill:#E5ECF1;" d="M251.329,163.456l0.064-15.879c0.003-0.416-0.335-0.757-0.754-0.757h-22.667
							c-0.419,0-0.759,0.34-0.762,0.757l-0.064,15.879H251.329z"/>
						<path style="fill:#B7C0C6;" d="M240.741,155.137c-0.005,0.81-0.664,1.467-1.475,1.467c-0.81,0-1.465-0.657-1.461-1.467
							c0.003-0.809,0.662-1.467,1.474-1.467C240.089,153.67,240.744,154.328,240.741,155.137z"/>
					</g>
				</g>
			</g>
		</g>
	</g>
</g>
<g id="DESIGNED_BY_FREEPIK">
	<g>
		<g id="XMLID_234_">
			<g id="XMLID_253_">
				<path id="XMLID_261_" style="fill:#1D262D;" d="M260.104,466.272c-0.432,0.443-0.803,0.931-1.108,1.453l-0.465-0.241
					c-0.067-0.298-0.349-0.503-0.659-0.466c-0.331,0.039-0.568,0.339-0.529,0.67c0.039,0.331,0.339,0.568,0.67,0.529
					c0.066-0.008,0.127-0.026,0.184-0.052l0.451,0.234c-0.251,0.554-0.433,1.139-0.539,1.744l0.746,0.132
					c0.23-1.306,0.85-2.507,1.792-3.473L260.104,466.272z"/>
				<path id="XMLID_260_" style="fill:#1D262D;" d="M265.592,463.97c-0.171,0-0.341,0.006-0.51,0.017l-0.074-0.626
					c0.188-0.149,0.296-0.389,0.266-0.645c-0.046-0.393-0.402-0.674-0.795-0.628c-0.393,0.046-0.674,0.402-0.628,0.795
					c0.03,0.254,0.189,0.461,0.404,0.564l0.074,0.624c-0.714,0.116-1.403,0.332-2.06,0.646l0.327,0.684
					c0.934-0.447,1.942-0.673,2.995-0.673c0.496,0,0.993,0.053,1.475,0.158l0.161-0.741
					C266.692,464.029,266.142,463.97,265.592,463.97z"/>
				<path id="XMLID_259_" style="fill:#1D262D;" d="M272.194,466.517c0.331-0.04,0.566-0.341,0.525-0.672
					c-0.04-0.331-0.341-0.566-0.672-0.526c-0.309,0.038-0.535,0.304-0.53,0.609l-0.416,0.363c-0.418-0.43-0.889-0.813-1.408-1.139
					l-0.404,0.641c1.134,0.715,2.021,1.726,2.563,2.925l0.69-0.313c-0.251-0.554-0.567-1.072-0.942-1.545l0.402-0.351
					C272.065,466.522,272.129,466.525,272.194,466.517z"/>
				<path id="XMLID_258_" style="fill:#1D262D;" d="M265.044,474.178c-0.386,0.023-0.775,0.035-1.157,0.035
					c-0.88,0-1.733-0.061-2.478-0.179c-0.39-0.062-0.846-0.155-1.27-0.292c1.046,1.861,3.069,3.125,5.388,3.125
					c2.855,0,5.262-1.916,5.95-4.504c-0.682,0.449-1.505,0.825-2.459,1.123C267.839,473.853,266.463,474.093,265.044,474.178z"/>
				<path id="XMLID_254_" style="fill:#1D262D;" d="M265.592,465.486c-3.352,0-6.079,2.666-6.079,5.944
					c0,0.425,0.046,0.849,0.137,1.261c0.673,0.483,2.706,0.89,5.348,0.731c2.879-0.173,5.297-0.957,6.672-2.158
					c-0.006-0.195-0.021-0.39-0.045-0.582C271.244,467.72,268.65,465.486,265.592,465.486z M263.432,472.001
					c-1.02,0-1.85-0.83-1.85-1.85c0-1.02,0.83-1.85,1.85-1.85s1.85,0.83,1.85,1.85C265.282,471.171,264.452,472.001,263.432,472.001
					z M268.17,471.092c-0.75,0-1.36-0.61-1.36-1.36s0.61-1.361,1.36-1.361c0.75,0,1.361,0.61,1.361,1.361
					S268.92,471.092,268.17,471.092z"/>
			</g>
			<path id="XMLID_251_" style="fill:#1D262D;" d="M281.595,467.353c-0.295-0.116-0.806-0.309-1.383-0.237
				c-0.551,0.068-0.844,0.34-0.844,1.007v0.866h2.228v1.717h-2.228v5.455h-1.932v-5.455h-1.34v-1.717h1.34V468.1
				c0-1.68,0.896-2.783,2.568-2.783c0.643,0,1.157,0.122,1.59,0.308L281.595,467.353z"/>
			<path id="XMLID_249_" style="fill:#1D262D;" d="M286.298,470.685c-0.177-0.03-0.357-0.046-0.526-0.046
				c-0.896,0-1.51,0.548-1.51,1.614v3.908h-1.932v-7.172h1.873v0.785c0.451-0.673,1.14-0.977,2.021-0.977
				c0.414,0,0.848,0.128,1.094,0.337L286.298,470.685z"/>
			<path id="XMLID_246_" style="fill:#1D262D;" d="M293.965,472.563c0,0.222-0.015,0.489-0.037,0.651h-5.085
				c0.207,1.036,0.933,1.488,1.843,1.488c0.622,0,1.295-0.252,1.813-0.688l1.133,1.243c-0.814,0.748-1.85,1.088-3.057,1.088
				c-2.198,0-3.723-1.495-3.723-3.753c0-2.258,1.48-3.797,3.627-3.797C292.544,468.796,293.958,470.328,293.965,472.563z
				 M288.851,471.897h3.175c-0.177-0.918-0.733-1.436-1.561-1.436C289.554,470.461,289.021,471.009,288.851,471.897z"/>
			<path id="XMLID_243_" style="fill:#1D262D;" d="M301.618,472.563c0,0.222-0.015,0.489-0.037,0.651h-5.085
				c0.207,1.036,0.933,1.488,1.843,1.488c0.622,0,1.295-0.252,1.814-0.688l1.132,1.243c-0.814,0.748-1.85,1.088-3.057,1.088
				c-2.198,0-3.723-1.495-3.723-3.753c0-2.258,1.48-3.797,3.627-3.797C300.197,468.796,301.611,470.328,301.618,472.563z
				 M296.504,471.897h3.175c-0.178-0.918-0.733-1.436-1.562-1.436C297.207,470.461,296.674,471.009,296.504,471.897z"/>
			<path id="XMLID_240_" style="fill:#1D262D;" d="M309.964,472.571c0,2.154-1.495,3.775-3.471,3.775
				c-0.962,0-1.643-0.378-2.109-0.933v3.708h-1.924v-10.133h1.887v0.792c0.466-0.585,1.155-0.984,2.139-0.984
				C308.469,468.796,309.964,470.417,309.964,472.571z M304.287,472.571c0,1.132,0.748,1.976,1.843,1.976
				c1.14,0,1.85-0.881,1.85-1.976c0-1.095-0.71-1.976-1.85-1.976C305.035,470.595,304.287,471.438,304.287,472.571z"/>
			<path id="XMLID_237_" style="fill:#1D262D;" d="M313.068,466.642c0,0.696-0.54,1.229-1.236,1.229
				c-0.696,0-1.229-0.533-1.229-1.229c0-0.696,0.533-1.243,1.229-1.243C312.527,465.399,313.068,465.946,313.068,466.642z
				 M312.809,476.16h-1.932v-7.172h1.932V476.16z"/>
			<path id="XMLID_235_" style="fill:#1D262D;" d="M316.032,471.542l2.701-2.554h2.368l-3.479,3.375l3.501,3.797h-2.376
				l-2.716-2.901v2.901H314.1v-10.658h1.932V471.542z"/>
		</g>
		<g>
			<path style="fill:#1D262D;" d="M184.412,476.095v-1.055c-0.527,0.718-1.391,1.23-2.387,1.23c-1.846,0-3.149-1.406-3.149-3.706
				c0-2.256,1.289-3.721,3.149-3.721c0.952,0,1.816,0.469,2.387,1.245v-3.765h1.099v9.77H184.412z M184.412,474.177v-3.208
				c-0.395-0.615-1.245-1.143-2.124-1.143c-1.421,0-2.27,1.172-2.27,2.739c0,1.567,0.85,2.724,2.27,2.724
				C183.168,475.29,184.017,474.792,184.412,474.177z"/>
			<path style="fill:#1D262D;" d="M186.932,472.551c0-2.051,1.465-3.706,3.486-3.706c2.139,0,3.398,1.67,3.398,3.794v0.279h-5.727
				c0.088,1.333,1.025,2.446,2.549,2.446c0.805,0,1.626-0.322,2.182-0.893l0.527,0.718c-0.703,0.703-1.655,1.084-2.812,1.084
				C188.44,476.271,186.932,474.763,186.932,472.551z M190.403,469.753c-1.509,0-2.256,1.274-2.314,2.358h4.643
				C192.718,471.056,192.015,469.753,190.403,469.753z"/>
			<path style="fill:#1D262D;" d="M194.607,475.158l0.571-0.791c0.469,0.542,1.362,1.011,2.329,1.011c1.084,0,1.67-0.513,1.67-1.216
				c0-1.714-4.38-0.659-4.38-3.281c0-1.098,0.952-2.036,2.636-2.036c1.201,0,2.051,0.454,2.622,1.026l-0.513,0.762
				c-0.424-0.513-1.201-0.894-2.109-0.894c-0.967,0-1.567,0.483-1.567,1.113c0,1.552,4.38,0.527,4.38,3.281
				c0,1.187-0.952,2.138-2.783,2.138C196.306,476.271,195.325,475.92,194.607,475.158z"/>
			<path style="fill:#1D262D;" d="M201.477,467.277c0-0.41,0.337-0.747,0.732-0.747c0.41,0,0.747,0.337,0.747,0.747
				c0,0.41-0.337,0.732-0.747,0.732C201.814,468.01,201.477,467.688,201.477,467.277z M201.667,476.095v-7.075h1.099v7.075H201.667z
				"/>
			<path style="fill:#1D262D;" d="M204.582,477.912l0.556-0.82c0.586,0.703,1.289,0.967,2.3,0.967c1.172,0,2.27-0.571,2.27-2.124
				v-1.011c-0.513,0.718-1.377,1.26-2.373,1.26c-1.845,0-3.149-1.377-3.149-3.662c0-2.27,1.289-3.677,3.149-3.677
				c0.952,0,1.802,0.469,2.373,1.245v-1.069h1.098v6.87c0,2.344-1.641,3.076-3.369,3.076
				C206.237,478.966,205.417,478.732,204.582,477.912z M209.709,474.059v-3.091c-0.381-0.615-1.23-1.143-2.109-1.143
				c-1.421,0-2.27,1.128-2.27,2.695c0,1.553,0.849,2.695,2.27,2.695C208.478,475.216,209.328,474.675,209.709,474.059z"/>
			<path style="fill:#1D262D;" d="M217.413,476.095v-4.629c0-1.245-0.63-1.641-1.582-1.641c-0.864,0-1.685,0.527-2.095,1.099v5.17
				h-1.099v-7.075h1.099v1.025c0.498-0.586,1.464-1.201,2.519-1.201c1.479,0,2.256,0.747,2.256,2.285v4.966H217.413z"/>
			<path style="fill:#1D262D;" d="M219.932,472.551c0-2.051,1.465-3.706,3.486-3.706c2.139,0,3.398,1.67,3.398,3.794v0.279h-5.727
				c0.088,1.333,1.025,2.446,2.548,2.446c0.806,0,1.626-0.322,2.183-0.893l0.527,0.718c-0.703,0.703-1.655,1.084-2.812,1.084
				C221.441,476.271,219.932,474.763,219.932,472.551z M223.404,469.753c-1.509,0-2.256,1.274-2.314,2.358h4.643
				C225.718,471.056,225.015,469.753,223.404,469.753z"/>
			<path style="fill:#1D262D;" d="M233.35,476.095v-1.055c-0.527,0.718-1.392,1.23-2.388,1.23c-1.846,0-3.149-1.406-3.149-3.706
				c0-2.256,1.289-3.721,3.149-3.721c0.952,0,1.817,0.469,2.388,1.245v-3.765h1.098v9.77H233.35z M233.35,474.177v-3.208
				c-0.396-0.615-1.245-1.143-2.124-1.143c-1.421,0-2.27,1.172-2.27,2.739c0,1.567,0.849,2.724,2.27,2.724
				C232.105,475.29,232.954,474.792,233.35,474.177z"/>
			<path style="fill:#1D262D;" d="M239.692,476.095v-9.77h1.098v3.765c0.572-0.776,1.421-1.245,2.388-1.245
				c1.845,0,3.149,1.465,3.149,3.721c0,2.299-1.304,3.706-3.149,3.706c-0.996,0-1.86-0.513-2.388-1.23v1.055H239.692z M242.9,475.29
				c1.436,0,2.285-1.157,2.285-2.724c0-1.568-0.85-2.739-2.285-2.739c-0.864,0-1.728,0.527-2.109,1.143v3.208
				C241.171,474.792,242.036,475.29,242.9,475.29z"/>
			<path style="fill:#1D262D;" d="M247.528,477.868c0.161,0.073,0.425,0.117,0.601,0.117c0.483,0,0.805-0.161,1.055-0.747
				l0.469-1.069l-2.959-7.148h1.187l2.358,5.801l2.344-5.801h1.201l-3.545,8.51c-0.425,1.025-1.143,1.421-2.08,1.435
				c-0.234,0-0.601-0.044-0.805-0.103L247.528,477.868z"/>
		</g>
	</g>
</g>
</svg>
